<svg xmlns="http://www.w3.org/2000/svg" xmlns:xlink="http://www.w3.org/1999/xlink" width="128" height="128" viewBox="0 0 128 128">
  <defs>
    <clipPath id="clip-path">
      <rect id="Rectángulo_456267" data-name="Rectángulo 456267" width="128" height="128" fill="none"/>
    </clipPath>
    <clipPath id="clip-path-2">
      <rect id="Rectángulo_464494" data-name="Rectángulo 464494" width="68.767" height="56.526" fill="#19538d"/>
    </clipPath>
  </defs>
  <g id="Grupo_1179908" data-name="Grupo 1179908" transform="translate(511.746 8527) rotate(180)">
    <path id="Trazado_999622" data-name="Trazado 999622" d="M59.07,0A59.07,59.07,0,1,1,0,59.07,59.071,59.071,0,0,1,59.07,0" transform="translate(388.676 8403.93)" fill="#fff"/>
    <g id="Grupo_1179902" data-name="Grupo 1179902" transform="translate(383.746 8399)">
      <g id="Grupo_1179905" data-name="Grupo 1179905" clip-path="url(#clip-path)">
        <path id="Trazado_999618" data-name="Trazado 999618" d="M64,0A64,64,0,1,1,0,64,64,64,0,0,1,64,0" fill="none"/>
        <path id="Trazado_999619" data-name="Trazado 999619" d="M5,59a5,5,0,1,1-5,5,5,5,0,0,1,5-5" fill="#19538d"/>
        <path id="Trazado_999620" data-name="Trazado 999620" d="M21,19a5,5,0,1,1-5,5,5,5,0,0,1,5-5" fill="#19538d"/>
        <path id="Trazado_999621" data-name="Trazado 999621" d="M64,124A60.068,60.068,0,0,1,4,64H7A57,57,0,1,0,22.408,25.024L20.22,22.972A60,60,0,1,1,64,124" fill="#19538d"/>
        <rect id="Rectángulo_456268" data-name="Rectángulo 456268" width="128" height="128" fill="none"/>
        <rect id="Rectángulo_456269" data-name="Rectángulo 456269" width="128" height="128" fill="none"/>
      </g>
    </g>
    <g id="Grupo_1211848" data-name="Grupo 1211848" transform="translate(481.513 8490.837) rotate(180)">
      <g id="Grupo_1211847" data-name="Grupo 1211847" clip-path="url(#clip-path-2)">
        <path id="Trazado_1274677" data-name="Trazado 1274677" d="M60.039,56.525H27.818a.971.971,0,0,1-.968-.869,13.863,13.863,0,0,1,.091-3.507A3.814,3.814,0,0,1,30.61,49.4l4.8-.036,0-3.572-11.412-.006a4.57,4.57,0,0,1-4.743-4.328l-.076-6.423L1.083,35.02A1.07,1.07,0,0,1,0,33.937V1.164A1.141,1.141,0,0,1,1.259,0L21.714.022,27.506,5.8l.044,5.451,36.412.018a4.78,4.78,0,0,1,4.805,4.858l-.033,25.094A4.655,4.655,0,0,1,64,45.783l-11.421.01v3.571l4.794.042a3.776,3.776,0,0,1,3.662,2.75,15.5,15.5,0,0,1,.081,3.5.961.961,0,0,1-1.076.871M19.408,22.189l5.924-.059L25.309,7.386,21.341,7.37A1.131,1.131,0,0,1,20.169,6.19l-.021-3.937H2.214l0,30.563,22.96-.021c.2-.139.225-.736.1-.963l-5.691-.013A2.105,2.105,0,0,1,17.5,29.6l.011-5.331a2.01,2.01,0,0,1,1.9-2.082M22.25,35.1a.657.657,0,0,0-.833.1l.044,6.035a2.409,2.409,0,0,0,2.565,2.333H63.959a2.443,2.443,0,0,0,2.564-2.369l.03-25.042a2.58,2.58,0,0,0-2.6-2.662L27.6,13.468a1.319,1.319,0,0,0,0,.88H63.953a1.6,1.6,0,0,1,1.76,1.579L65.729,38.4a1.251,1.251,0,0,1-1.362,1.318H23.615a1.235,1.235,0,0,1-1.356-1.295ZM29.3,31.825l-1.754.014-.018,2.17a1.024,1.024,0,0,1-.955.988l-2.085.1.067,2.4,38.942,0,.013-20.936-35.959,0-.015,5.51a3.516,3.516,0,0,0,1.757.011l.017-1.993a1.549,1.549,0,0,1,.829-1.488,1.624,1.624,0,0,1,1.695.081l8.354,7.073a1.663,1.663,0,0,1,.572,1.476,1.776,1.776,0,0,1-.745,1.157l-7.878,6.681a1.716,1.716,0,0,1-1.923.361A1.774,1.774,0,0,1,29.3,33.8Zm.992-2.226a1.223,1.223,0,0,1,1.247,1.09l.079,1.885L38.2,27.037l-6.609-5.676-.073,2.045a1.089,1.089,0,0,1-1.108.97l-10.68.012.029,5.207ZM50.335,49.353,50.3,45.776l-12.64.02.027,3.6Zm8.523,4.966a4.342,4.342,0,0,0-.026-1.913,2.088,2.088,0,0,0-1.719-.811H30.867a1.84,1.84,0,0,0-1.671.828,3.364,3.364,0,0,0-.076,1.894Z" transform="translate(0 0)" fill="#19538d"/>
        <path id="Trazado_1274678" data-name="Trazado 1274678" d="M39.383,48.163l-14.776-.011a1.072,1.072,0,0,1-1.172-.992,1.093,1.093,0,0,1,1.17-1.211l14.989,0a1.113,1.113,0,0,1,1.032,1.175,1.14,1.14,0,0,1-1.242,1.035" transform="translate(-18.255 -35.8)" fill="#19538d"/>
        <path id="Trazado_1274679" data-name="Trazado 1274679" d="M39.382,68.142l-14.774-.014a1.07,1.07,0,0,1-1.173-.99A1.1,1.1,0,0,1,24.6,65.923l14.993.007a1.111,1.111,0,0,1,1.03,1.178,1.142,1.142,0,0,1-1.242,1.035" transform="translate(-18.255 -51.362)" fill="#19538d"/>
        <path id="Trazado_1274680" data-name="Trazado 1274680" d="M39.4,88.139,24.622,88.13a1.108,1.108,0,0,1-1.158-1,1.078,1.078,0,0,1,1.157-1.206l14.994.007a1.109,1.109,0,0,1,1.03,1.178A1.14,1.14,0,0,1,39.4,88.139" transform="translate(-18.276 -66.943)" fill="#19538d"/>
        <path id="Trazado_1274681" data-name="Trazado 1274681" d="M35.493,28.134l-10.889.03a1.107,1.107,0,1,1,0-2.21H35.4a1.027,1.027,0,0,1,.972,1c.036.411-.165,1.177-.878,1.179" transform="translate(-18.256 -20.221)" fill="#19538d"/>
        <path id="Trazado_1274682" data-name="Trazado 1274682" d="M32.877,108.07H24.612a1.112,1.112,0,0,1-1.152-1,1.074,1.074,0,0,1,1.151-1.205l8.39-.019a1.058,1.058,0,0,1,1.145,1.021c.053.7-.354,1.206-1.269,1.206" transform="translate(-18.272 -82.464)" fill="#19538d"/>
        <path id="Trazado_1274683" data-name="Trazado 1274683" d="M32.875,128.063H24.611a1.115,1.115,0,0,1-1.152-1,1.079,1.079,0,0,1,1.15-1.209L33,125.836a1.058,1.058,0,0,1,1.144,1.022c.051.694-.355,1.205-1.269,1.205" transform="translate(-18.271 -98.041)" fill="#19538d"/>
      </g>
    </g>
  </g>
</svg>
