<svg xmlns="http://www.w3.org/2000/svg" xmlns:xlink="http://www.w3.org/1999/xlink" width="96" height="96" viewBox="0 0 96 96">
  <defs>
    <clipPath id="clip-path">
      <rect id="Rectángulo_456267" data-name="Rectángulo 456267" width="96" height="96" fill="none"/>
    </clipPath>
    <clipPath id="clip-path-2">
      <rect id="Rectángulo_464500" data-name="Rectángulo 464500" width="52.539" height="52.276" fill="#0f654d"/>
    </clipPath>
  </defs>
  <g id="Grupo_1211799" data-name="Grupo 1211799" transform="translate(479.746 8495) rotate(180)">
    <path id="Trazado_999622" data-name="Trazado 999622" d="M43.07,0A43.07,43.07,0,1,1,0,43.07,43.071,43.071,0,0,1,43.07,0" transform="translate(388.676 8403.93)" fill="#e3fbf9"/>
    <g id="Grupo_1179902" data-name="Grupo 1179902" transform="translate(383.746 8399)">
      <g id="Grupo_1179905" data-name="Grupo 1179905" clip-path="url(#clip-path)">
        <path id="Trazado_999618" data-name="Trazado 999618" d="M48,0A48,48,0,1,1,0,48,48,48,0,0,1,48,0" fill="none"/>
        <path id="Trazado_999619" data-name="Trazado 999619" d="M3.75,59A3.75,3.75,0,1,1,0,62.75,3.75,3.75,0,0,1,3.75,59" transform="translate(0 -14.75)" fill="#0f654d"/>
        <path id="Trazado_999620" data-name="Trazado 999620" d="M19.75,19A3.75,3.75,0,1,1,16,22.75,3.75,3.75,0,0,1,19.75,19" transform="translate(-4 -4.75)" fill="#0f654d"/>
        <path id="Trazado_999621" data-name="Trazado 999621" d="M49,94A45.051,45.051,0,0,1,4,49H6.25A42.75,42.75,0,1,0,17.806,19.768l-1.641-1.539A45,45,0,1,1,49,94" transform="translate(-1 -1)" fill="#0f654d"/>
        <rect id="Rectángulo_456268" data-name="Rectángulo 456268" width="96" height="96" fill="none"/>
        <rect id="Rectángulo_456269" data-name="Rectángulo 456269" width="96" height="96" fill="none"/>
      </g>
    </g>
    <g id="Grupo_1211860" data-name="Grupo 1211860" transform="translate(458.016 8473.139) rotate(180)">
      <g id="Grupo_1211859" data-name="Grupo 1211859" clip-path="url(#clip-path-2)">
        <path id="Trazado_1274737" data-name="Trazado 1274737" d="M18.979,18.174A1.392,1.392,0,0,1,19,16.262l1.374-1.407-.462-1.1-1.866-.019a1.451,1.451,0,0,1-1.455-1.828L5.643,11.9,1.527,16.028l.008,22.54,14.935-.005a6.774,6.774,0,0,1,6.03-7.056l.034-3.687a.677.677,0,0,1,.7-.544c.329-.023.756.085.761.516l.046,3.7a6.8,6.8,0,1,1-7.306,8.633l-2.1-.025-.051.967c-.021.4-.428.554-.716.554a.72.72,0,0,1-.768-.7l-.029-.828-11.261,0A1.77,1.77,0,0,1,0,38.284V16.16a1.6,1.6,0,0,1,.373-1.126l4.171-4.191a1.586,1.586,0,0,1,1.2-.458l10.829,0a1.479,1.479,0,0,1,1.49-1.746l1.818-.007a4.727,4.727,0,0,0,.481-1.071L19.1,6.236C17.868,4.951,19.2,3.8,20.66,2.5a1.339,1.339,0,0,1,1.7-.169l1.626,1.467a1.756,1.756,0,0,0,1.142-.423l.006-1.854A1.387,1.387,0,0,1,26.3.111c2.1-.233,3.921-.242,3.933,1.406l.013,1.921,1.129.425L32.788,2.49a1.493,1.493,0,0,1,2.163.2c1.162,1.13,2.554,2.274,1.442,3.408l-1.4,1.428.5,1.08,2.066.057c1.306.036,1.178,1.564,1.346,1.665.3.182,1.012-.174,1.419.378a.693.693,0,0,1,.067.758c-.392.692-1.173.3-1.485.487-.15.091.009,1.781-1.459,1.784l-1.947,0-.5,1.162,1.427,1.439a1.3,1.3,0,0,1,.041,1.8l-1.8,1.8a1.38,1.38,0,0,1-1.928-.082l-1.355-1.322A3.839,3.839,0,0,0,30.245,19l-.051,2.241c-.026,1.157-2.206,1.326-3.94,1.014a1.256,1.256,0,0,1-1.1-1.219l-.048-2.047a2.877,2.877,0,0,0-1.064-.416l-.007,5.785a.778.778,0,0,1-.652.815.726.726,0,0,1-.849-.675l-.025-4.444c-1.349.7-2.442-.546-3.53-1.875m9.745,2.558.038-2.258c.015-.907,2.775-1.931,3.413-1.335l1.613,1.509a8.635,8.635,0,0,0,1.379-1.38l-1.384-1.417c-.634-.65-.321-1.44.025-2.183.273-.587.409-1.4,1.2-1.419l2.255-.063a6.1,6.1,0,0,0-.008-1.989,8.628,8.628,0,0,1-2.442-.131c-.817-.288-1.752-2.716-1.18-3.315l1.542-1.617-1.395-1.4L32.037,5.311c-.567.514-3.261-.517-3.3-1.512l-.076-2.181a6.943,6.943,0,0,0-1.979.016l-.047,2.22c-.02.913-2.737,1.988-3.346,1.443L21.567,3.751l-1.359,1.31L21.673,6.6c.637.667.179,1.36-.068,2.063-.333.948-.772,1.567-1.933,1.561L18.11,10.21a10.65,10.65,0,0,0,0,1.975l2.209.055c.819.021,1.018.855,1.284,1.508.252.618.691,1.291.169,1.856l-1.515,1.64a4.909,4.909,0,0,0,1.4,1.4l1.707-1.579c.685-.408,1.36.087,1.969.307.664.239,1.318.524,1.332,1.305l.039,2.085a5.775,5.775,0,0,0,2.015-.025M21.991,33.171a5.241,5.241,0,1,0,6.384,3.894,5.224,5.224,0,0,0-6.384-3.894" transform="translate(-0.001 0)" fill="#0f654d"/>
        <path id="Trazado_1274738" data-name="Trazado 1274738" d="M212.815,157.228a1.283,1.283,0,0,1,1.309,1.263l.015,5.575a1.275,1.275,0,0,1-1.325,1.334l-17.7-.015a1.14,1.14,0,0,1-1.077-1.051l-.119-2.193c-.167-.25-.586-.464-.572-.788a1.139,1.139,0,0,1,.581-.824l.1-2.159a1.2,1.2,0,0,1,1.131-1.122l8.12-.035.009-1.508-8.015-.02a1.289,1.289,0,0,1-1.264-1.334l0-5.521a1.326,1.326,0,0,1,1.409-1.32l7.86.01v-1.527h-7.86a1.342,1.342,0,0,1-1.41-1.329l0-5.522a1.29,1.29,0,0,1,1.244-1.341l8.063-.012-.015-1.629a.767.767,0,0,1,.612-.8.69.69,0,0,1,.857.493,5.589,5.589,0,0,1,0,1.935l8.2.024a1.243,1.243,0,0,1,1.159,1.294l.013,5.434a1.34,1.34,0,0,1-1.343,1.443l-7.96.017v1.512l8.106.024a1.213,1.213,0,0,1,1.182,1.258l0,5.585a1.269,1.269,0,0,1-1.31,1.315l-2.3.006a.767.767,0,0,1-.848-.753.786.786,0,0,1,.842-.779l2.085-.03.009-5.075-17.037,0-.015,5.112,11.194.009a.76.76,0,0,1,.859.77.771.771,0,0,1-.855.75l-1.914,0,0,1.519Zm-.2-12.813-.014-5.082-17.023,0-.01,5.093Zm0,19.452V158.8l-17.041.006v5.071Z" transform="translate(-161.61 -113.123)" fill="#0f654d"/>
        <path id="Trazado_1274739" data-name="Trazado 1274739" d="M231.7,231.27l-11.277-.006a.763.763,0,0,1,.034-1.525l11.22-.008a.77.77,0,1,1,.024,1.539" transform="translate(-183.618 -192.02)" fill="#0f654d"/>
        <path id="Trazado_1274740" data-name="Trazado 1274740" d="M47.46,131.2l-10.888-.034c-.374,0-.608-.582-.567-.827a.816.816,0,0,1,.718-.674l10.584-.017c.529,0,.859.25.9.694a.759.759,0,0,1-.749.858" transform="translate(-30.091 -108.367)" fill="#0f654d"/>
        <path id="Trazado_1274741" data-name="Trazado 1274741" d="M47.594,176.726l-10.723.025a.781.781,0,0,1-.8-.644c-.062-.248.064-.854.5-.855l10.96-.03a.755.755,0,0,1,.062,1.5" transform="translate(-30.139 -146.458)" fill="#0f654d"/>
        <path id="Trazado_1274742" data-name="Trazado 1274742" d="M47.567,108.712l-10.858,0c-.429,0-.666-.48-.681-.746a.688.688,0,0,1,.657-.75l10.97,0c.392,0,.583.505.573.749s-.184.747-.661.747" transform="translate(-30.113 -89.613)" fill="#0f654d"/>
        <path id="Trazado_1274743" data-name="Trazado 1274743" d="M47.575,153.809l-10.728.025a.774.774,0,0,1-.816-.791.791.791,0,0,1,.823-.761l10.649,0a.755.755,0,0,1,.711.6c.079.29-.105.922-.64.924" transform="translate(-30.116 -127.285)" fill="#0f654d"/>
        <path id="Trazado_1274744" data-name="Trazado 1274744" d="M41.674,199.353l-4.823.027a.791.791,0,0,1-.816-.747.752.752,0,0,1,.806-.788l4.608-.014a.808.808,0,0,1,.905.7.74.74,0,0,1-.68.827" transform="translate(-30.118 -165.357)" fill="#0f654d"/>
        <path id="Trazado_1274745" data-name="Trazado 1274745" d="M82.46,285.31c-.963.512-2.211-.933-2.011-1.713a.72.72,0,0,1,.807-.523c.4.012.557.314.8.662.169.244.519.381.634.59a.756.756,0,0,1-.229.985" transform="translate(-67.225 -236.606)" fill="#0f654d"/>
        <path id="Trazado_1274746" data-name="Trazado 1274746" d="M253.748,68.69a.715.715,0,0,1-.836.5c-.762-.178-.522-.9-.862-1.5a.827.827,0,0,1,.061-.943.814.814,0,0,1,1-.09,2.068,2.068,0,0,1,.638,2.035" transform="translate(-210.577 -55.601)" fill="#0f654d"/>
        <path id="Trazado_1274747" data-name="Trazado 1274747" d="M102.924,290.218l-1.444-.034c-.389-.009-.526-.426-.53-.7-.011-.849,1.166-1,2.284-.723a.713.713,0,0,1,.457.851.734.734,0,0,1-.768.608" transform="translate(-84.379 -241.253)" fill="#0f654d"/>
        <path id="Trazado_1274748" data-name="Trazado 1274748" d="M255.629,114.622a.8.8,0,0,1-.852.381.712.712,0,0,1-.586-.617l.01-1.592c0-.387.42-.529.7-.532.889-.01.914.994.729,2.36" transform="translate(-212.465 -93.834)" fill="#0f654d"/>
        <path id="Trazado_1274749" data-name="Trazado 1274749" d="M126,290.377l-1.29-.02a.708.708,0,0,1-.649-.592.7.7,0,0,1,.491-.858,4.2,4.2,0,0,1,1.756.006.688.688,0,0,1,.489.851.761.761,0,0,1-.8.612" transform="translate(-103.681 -241.408)" fill="#0f654d"/>
        <path id="Trazado_1274750" data-name="Trazado 1274750" d="M149.323,290.62l-1.289.014a.74.74,0,0,1-.768-.61c-.066-.388.117-.9.6-.9l1.478,0a.7.7,0,0,1,.668.767.692.692,0,0,1-.688.722" transform="translate(-123.082 -241.668)" fill="#0f654d"/>
        <path id="Trazado_1274751" data-name="Trazado 1274751" d="M255.272,91.495a.669.669,0,0,1-.778.373.745.745,0,0,1-.613-.593c-.148-1.24-.092-2.139.707-2.143.895,0,1.018,1.4.685,2.363" transform="translate(-212.152 -74.501)" fill="#0f654d"/>
        <path id="Trazado_1274752" data-name="Trazado 1274752" d="M172.634,290.171l-1.347.066a.815.815,0,0,1-.871-.536.7.7,0,0,1,.4-.932c.952-.256,2.173-.154,2.292.573.047.287-.05.809-.476.83" transform="translate(-142.399 -241.26)" fill="#0f654d"/>
        <path id="Trazado_1274753" data-name="Trazado 1274753" d="M81.289,262.13a.689.689,0,0,1-.722.651.733.733,0,0,1-.771-.721v-1.313a.712.712,0,0,1,.617-.691c.352-.066.86.105.863.549Z" transform="translate(-66.697 -217.357)" fill="#0f654d"/>
        <path id="Trazado_1274754" data-name="Trazado 1274754" d="M142.341,36.858a3.882,3.882,0,1,0,.811,6.931,3.889,3.889,0,0,0,1.485-4.809A.773.773,0,0,1,145,37.932c1.641-.626,2.618,4.693-.862,7.06a5.43,5.43,0,1,1-.985-9.465.728.728,0,0,1,.231,1,.852.852,0,0,1-1.043.329" transform="translate(-113.364 -29.324)" fill="#0f654d"/>
        <path id="Trazado_1274755" data-name="Trazado 1274755" d="M156.059,53.692a2.382,2.382,0,1,1,.9,4.679,2.382,2.382,0,1,1-.9-4.679m0,1.636a.868.868,0,0,0-.173,1.3.834.834,0,0,0,1.08.106.824.824,0,0,0,.268-1.123.869.869,0,0,0-1.175-.28" transform="translate(-128.811 -44.841)" fill="#0f654d"/>
        <path id="Trazado_1274756" data-name="Trazado 1274756" d="M120.714,221.9a.785.785,0,0,1-.109-1.073.767.767,0,0,1,1.161-.068l1.783,1.746,2.54-2.5a.767.767,0,0,1,1.161,1l-3.1,3.125a.8.8,0,0,1-1.191.025Z" transform="translate(-100.671 -183.689)" fill="#0f654d"/>
        <path id="Trazado_1274757" data-name="Trazado 1274757" d="M231.922,290.447l-11.345.047a.783.783,0,0,1-.871-.756.8.8,0,0,1,.87-.794l11.156,0a.779.779,0,0,1,.773.652c.045.243-.1.852-.583.854" transform="translate(-183.64 -241.511)" fill="#0f654d"/>
        <path id="Trazado_1274758" data-name="Trazado 1274758" d="M231.744,172.03l-11.169.016a.785.785,0,0,1-.887-.7.75.75,0,0,1,.734-.861l11.284-.008a.784.784,0,0,1,.783.718.766.766,0,0,1-.744.831" transform="translate(-183.621 -142.496)" fill="#0f654d"/>
      </g>
    </g>
  </g>
</svg>
