<svg xmlns="http://www.w3.org/2000/svg" xmlns:xlink="http://www.w3.org/1999/xlink" width="128" height="128" viewBox="0 0 128 128">
  <defs>
    <clipPath id="clip-path">
      <rect id="Rectángulo_456267" data-name="Rectángulo 456267" width="128" height="128" fill="none"/>
    </clipPath>
    <clipPath id="clip-path-2">
      <rect id="Rectángulo_464498" data-name="Rectángulo 464498" width="68.503" height="67.061" fill="#19538d"/>
    </clipPath>
  </defs>
  <g id="Grupo_1211797" data-name="Grupo 1211797" transform="translate(511.746 8527) rotate(180)">
    <path id="Trazado_999622" data-name="Trazado 999622" d="M59.07,0A59.07,59.07,0,1,1,0,59.07,59.071,59.071,0,0,1,59.07,0" transform="translate(388.676 8403.93)" fill="#fff"/>
    <g id="Grupo_1179902" data-name="Grupo 1179902" transform="translate(383.746 8399)">
      <g id="Grupo_1179905" data-name="Grupo 1179905" clip-path="url(#clip-path)">
        <path id="Trazado_999618" data-name="Trazado 999618" d="M64,0A64,64,0,1,1,0,64,64,64,0,0,1,64,0" fill="none"/>
        <path id="Trazado_999619" data-name="Trazado 999619" d="M5,59a5,5,0,1,1-5,5,5,5,0,0,1,5-5" fill="#19538d"/>
        <path id="Trazado_999620" data-name="Trazado 999620" d="M21,19a5,5,0,1,1-5,5,5,5,0,0,1,5-5" fill="#19538d"/>
        <path id="Trazado_999621" data-name="Trazado 999621" d="M64,124A60.068,60.068,0,0,1,4,64H7A57,57,0,1,0,22.408,25.024L20.22,22.972A60,60,0,1,1,64,124" fill="#19538d"/>
        <rect id="Rectángulo_456268" data-name="Rectángulo 456268" width="128" height="128" fill="none"/>
        <rect id="Rectángulo_456269" data-name="Rectángulo 456269" width="128" height="128" fill="none"/>
      </g>
    </g>
    <g id="Grupo_1211854" data-name="Grupo 1211854" transform="translate(481.998 8496.53) rotate(180)">
      <g id="Grupo_1211855" data-name="Grupo 1211855" clip-path="url(#clip-path-2)">
        <path id="Trazado_1274714" data-name="Trazado 1274714" d="M121.842,25.109c-.4-.79-1.509-1.134-2.109-1.709a1.345,1.345,0,0,1,.226-2.187l8.657-5.007a11.361,11.361,0,0,1,5.631-8.542l10.429-6.041a11.641,11.641,0,0,1,15.807,3.822,11.435,11.435,0,0,1-3.752,15.938L145.623,27.8a11.455,11.455,0,0,1-14.8-3.213l-6.66,3.812a1.319,1.319,0,0,1-1.274.079c-1.274-.642-.572-2.426-1.046-3.367m31.8-8.424-10.648,6.143a5.9,5.9,0,0,1-7.082-.953,7.311,7.311,0,0,0-2.694,1.392,8.745,8.745,0,0,0,11.119,2.184l11.1-6.432a8.753,8.753,0,0,0,2.684-12.295A9.011,9.011,0,0,0,145.96,3.967L135.666,9.931a8.537,8.537,0,0,0-3.848,4.525,14.486,14.486,0,0,1,3.872-.876l1.072-.844L147.31,6.6a6.051,6.051,0,0,1,8.4,1.851,5.917,5.917,0,0,1-2.064,8.232m-8.028,1.564,6.809-3.947a3.258,3.258,0,0,0-3.407-5.551l-9.232,5.323a12.275,12.275,0,0,1,5.83,4.175M133.7,19.843c.985-.562,2.738-1.1,3.573-.328,1.39,1.292,2.96,1.946,4.751.787l1.176-.761a8.9,8.9,0,0,0-11.36-2.082l-8.813,5.084a2.272,2.272,0,0,1,1.559,2.5Z" transform="translate(-93.747 0)" fill="#19538d"/>
        <path id="Trazado_1274715" data-name="Trazado 1274715" d="M15.706,184.528a6.005,6.005,0,0,1-8.535-.369,5.848,5.848,0,0,1,.409-8.308l9.755-8.183a5.889,5.889,0,0,1,7-.18,7.349,7.349,0,0,0,2.415-1.853,8.973,8.973,0,0,0-11.645.006l-9.814,8.349a8.771,8.771,0,0,0-.144,12.353,8.918,8.918,0,0,0,12.462.425,1.343,1.343,0,0,1,1.9.037,1.364,1.364,0,0,1-.208,2.055A11.588,11.588,0,1,1,4.13,171.344l8.933-7.533a11.784,11.784,0,0,1,15.809.136L34.786,159a1.343,1.343,0,0,1,2.01.318l.867,2.566,2.3,1.322a1.247,1.247,0,0,1,.636.975,1.387,1.387,0,0,1-.506,1.21l-7.586,6.4a11.812,11.812,0,0,1-3.682,9.063,1.352,1.352,0,0,1-1.86-.012,1.317,1.317,0,0,1-.123-1.761,8.9,8.9,0,0,0,2.728-4.888,15.536,15.536,0,0,1-3.634,1.42,16.216,16.216,0,0,1-2.869,2.7Zm1.855-13.456a8.828,8.828,0,0,0,11.327.206l8.019-6.736a2.3,2.3,0,0,1-2-2.113l-8.382,6.918c-.713.589-2.228,1.213-3.059.728-1.4-.819-2.862-1.484-4.346-.386a5.927,5.927,0,0,0-1.558,1.383M13.568,182.8l8.32-6.971a11.962,11.962,0,0,1-6.46-3.1L9.69,177.549a3.265,3.265,0,1,0,3.878,5.255" transform="translate(0 -124.723)" fill="#19538d"/>
        <path id="Trazado_1274716" data-name="Trazado 1274716" d="M52.008,80.6a1.352,1.352,0,0,1,.017,1.732,1.329,1.329,0,0,1-1.909.155L47.306,79.73a1.3,1.3,0,0,1,.075-1.638c1.168-1.337,2.8.643,4.627,2.508" transform="translate(-36.975 -61.035)" fill="#19538d"/>
        <path id="Trazado_1274717" data-name="Trazado 1274717" d="M246.96,198.26a1.263,1.263,0,0,1-.089,1.833,1.383,1.383,0,0,1-1.967-.105l-2.4-2.309a1.409,1.409,0,0,1-.156-1.917,1.366,1.366,0,0,1,1.968-.085Z" transform="translate(-190.238 -153.503)" fill="#19538d"/>
        <path id="Trazado_1274718" data-name="Trazado 1274718" d="M205.089,222.81a1.379,1.379,0,0,1-.158,1.944,1.254,1.254,0,0,1-1.9-.2l-1.934-2.969a1.325,1.325,0,0,1,.52-1.83,1.353,1.353,0,0,1,1.834.538Z" transform="translate(-157.913 -172.59)" fill="#19538d"/>
        <path id="Trazado_1274719" data-name="Trazado 1274719" d="M95.976,55.145a1.365,1.365,0,0,1-.442,1.938,1.35,1.35,0,0,1-1.874-.593l-1.738-2.744a1.283,1.283,0,0,1,.417-1.778,1.326,1.326,0,0,1,1.739.265Z" transform="translate(-72.093 -40.685)" fill="#19538d"/>
        <path id="Trazado_1274720" data-name="Trazado 1274720" d="M34.042,128.548a1.373,1.373,0,0,1,.848,1.825,1.329,1.329,0,0,1-1.779.713l-2.878-1.169a1.413,1.413,0,0,1-.994-1.588,1.311,1.311,0,0,1,1.82-.969Z" transform="translate(-22.958 -100.017)" fill="#19538d"/>
        <path id="Trazado_1274721" data-name="Trazado 1274721" d="M262.213,152.653a1.389,1.389,0,0,1,.954,1.657,1.294,1.294,0,0,1-1.712.923l-3.041-1.207a1.379,1.379,0,0,1-.938-1.56,1.3,1.3,0,0,1,1.761-.993Z" transform="translate(-202.349 -118.979)" fill="#19538d"/>
        <path id="Trazado_1274722" data-name="Trazado 1274722" d="M103.35,270.009a1.325,1.325,0,0,1,1.6.948,1.4,1.4,0,0,1-.94,1.639,1.356,1.356,0,0,1-1.581-.84,1.3,1.3,0,0,1,.917-1.746" transform="translate(-80.436 -212.186)" fill="#19538d"/>
      </g>
    </g>
  </g>
</svg>
