<svg xmlns="http://www.w3.org/2000/svg" xmlns:xlink="http://www.w3.org/1999/xlink" width="128" height="128" viewBox="0 0 128 128">
  <defs>
    <clipPath id="clip-path">
      <rect id="Rectángulo_456267" data-name="Rectángulo 456267" width="128" height="128" fill="none"/>
    </clipPath>
    <clipPath id="clip-path-2">
      <rect id="Rectángulo_464496" data-name="Rectángulo 464496" width="59.838" height="67.395" fill="#19538d"/>
    </clipPath>
  </defs>
  <g id="Grupo_1211793" data-name="Grupo 1211793" transform="translate(511.746 8527) rotate(180)">
    <path id="Trazado_999622" data-name="Trazado 999622" d="M59.07,0A59.07,59.07,0,1,1,0,59.07,59.071,59.071,0,0,1,59.07,0" transform="translate(388.676 8403.93)" fill="#fff"/>
    <g id="Grupo_1179902" data-name="Grupo 1179902" transform="translate(383.746 8399)">
      <g id="Grupo_1179905" data-name="Grupo 1179905" clip-path="url(#clip-path)">
        <path id="Trazado_999618" data-name="Trazado 999618" d="M64,0A64,64,0,1,1,0,64,64,64,0,0,1,64,0" fill="none"/>
        <path id="Trazado_999619" data-name="Trazado 999619" d="M5,59a5,5,0,1,1-5,5,5,5,0,0,1,5-5" fill="#19538d"/>
        <path id="Trazado_999620" data-name="Trazado 999620" d="M21,19a5,5,0,1,1-5,5,5,5,0,0,1,5-5" fill="#19538d"/>
        <path id="Trazado_999621" data-name="Trazado 999621" d="M64,124A60.068,60.068,0,0,1,4,64H7A57,57,0,1,0,22.408,25.024L20.22,22.972A60,60,0,1,1,64,124" fill="#19538d"/>
        <rect id="Rectángulo_456268" data-name="Rectángulo 456268" width="128" height="128" fill="none"/>
        <rect id="Rectángulo_456269" data-name="Rectángulo 456269" width="128" height="128" fill="none"/>
      </g>
    </g>
    <g id="Grupo_1211852" data-name="Grupo 1211852" transform="translate(477.746 8494.913) rotate(180)">
      <g id="Grupo_1211851" data-name="Grupo 1211851" clip-path="url(#clip-path-2)">
        <path id="Trazado_1274691" data-name="Trazado 1274691" d="M44.9,52.115l-2.178-3.794a16.353,16.353,0,0,1-16.545-3.656,16.026,16.026,0,0,1-4.252-16.34l-8.477-.019L6.385,34.97a1.147,1.147,0,0,1-1.138.191A1.082,1.082,0,0,1,4.6,34.124L4.583,28.31a14.189,14.189,0,0,1-2.471-.094A2.755,2.755,0,0,1,0,25.474L.037,2.568A2.6,2.6,0,0,1,2.569.037L36.276,0a2.7,2.7,0,0,1,2.98,2.541l.026,14.528a16.19,16.19,0,0,1,13.432,10.5,15.984,15.984,0,0,1-4.414,17.5l2.2,3.671c.9-.073,2.009-.129,2.628.922l6.017,10.207a5.032,5.032,0,0,1-8.542,5.3L44.239,54.487c-.5-.844.118-1.856.662-2.372M6.811,31.593l5.816-5.377,10.131-.025a16.221,16.221,0,0,1,14.4-9.213L37.125,2.128,2.157,2.143l-.017,23.9a16.821,16.821,0,0,0,3.547.16.992.992,0,0,1,1,.836ZM35.019,19.3A14,14,0,1,0,51.38,30.807,13.983,13.983,0,0,0,35.019,19.3M46.828,51.012l1.814-1.087-2.076-3.479-1.842,1.08Zm10.339,9.651-5.805-9.824-5.1,2.914L52.2,63.8a2.965,2.965,0,0,0,4.116,1.01,2.9,2.9,0,0,0,.851-4.151" transform="translate(0 0)" fill="#19538d"/>
        <path id="Trazado_1274692" data-name="Trazado 1274692" d="M54.658,31.055l-25.067.019a1.144,1.144,0,0,1-1.213-.97,1.064,1.064,0,0,1,1.191-1.145l24.814,0a1.149,1.149,0,0,1,1.244.785,1.073,1.073,0,0,1-.968,1.314" transform="translate(-22.352 -22.86)" fill="#19538d"/>
        <path id="Trazado_1274693" data-name="Trazado 1274693" d="M54.619,62.9l-25.033.021a1.085,1.085,0,0,1-1.217-1.073c.068-.821.624-1.018,1.409-1.018l24.6.008c.71,0,1.109.153,1.259.829A1.039,1.039,0,0,1,54.619,62.9" transform="translate(-22.343 -48.019)" fill="#19538d"/>
        <path id="Trazado_1274694" data-name="Trazado 1274694" d="M42.053,94.609H29.336a1.069,1.069,0,0,1-.985-1.048c-.016-.354.268-1.029.849-1.03l12.994,0c.592,0,.87.663.858,1.059a1.048,1.048,0,0,1-1,1.021" transform="translate(-22.331 -73.048)" fill="#19538d"/>
        <path id="Trazado_1274695" data-name="Trazado 1274695" d="M128.848,99.163a12.231,12.231,0,1,1-10.417,13.876,12.3,12.3,0,0,1,10.417-13.876m.2,2.1a10.12,10.12,0,1,0,11.689,8.576,10.11,10.11,0,0,0-11.689-8.576" transform="translate(-93.182 -78.179)" fill="#19538d"/>
        <path id="Trazado_1274696" data-name="Trazado 1274696" d="M146.64,142.768l-4.437-4.42a.945.945,0,0,1,.149-1.375,1.036,1.036,0,0,1,1.445.018l3.566,3.5,7.5-7.412a1.078,1.078,0,0,1,1.46.183,1.027,1.027,0,0,1-.084,1.385l-7.939,7.9c-.457.455-1.118.759-1.661.219" transform="translate(-111.821 -104.891)" fill="#19538d"/>
      </g>
    </g>
  </g>
</svg>
