<svg xmlns="http://www.w3.org/2000/svg" xmlns:xlink="http://www.w3.org/1999/xlink" width="96" height="96" viewBox="0 0 96 96">
  <defs>
    <clipPath id="clip-path">
      <rect id="Rectángulo_456267" data-name="Rectángulo 456267" width="96" height="96" fill="none"/>
    </clipPath>
    <clipPath id="clip-path-2">
      <rect id="Rectángulo_464499" data-name="Rectángulo 464499" width="48.874" height="48.881" fill="#0f654d"/>
    </clipPath>
  </defs>
  <g id="Grupo_1180029" data-name="Grupo 1180029" transform="translate(479.746 8495) rotate(180)">
    <path id="Trazado_999622" data-name="Trazado 999622" d="M43.07,0A43.07,43.07,0,1,1,0,43.07,43.071,43.071,0,0,1,43.07,0" transform="translate(388.676 8403.93)" fill="#e3fbf9"/>
    <g id="Grupo_1179902" data-name="Grupo 1179902" transform="translate(383.746 8399)">
      <g id="Grupo_1179905" data-name="Grupo 1179905" clip-path="url(#clip-path)">
        <path id="Trazado_999618" data-name="Trazado 999618" d="M48,0A48,48,0,1,1,0,48,48,48,0,0,1,48,0" fill="none"/>
        <path id="Trazado_999619" data-name="Trazado 999619" d="M3.75,59A3.75,3.75,0,1,1,0,62.75,3.75,3.75,0,0,1,3.75,59" transform="translate(0 -14.75)" fill="#0f654d"/>
        <path id="Trazado_999620" data-name="Trazado 999620" d="M19.75,19A3.75,3.75,0,1,1,16,22.75,3.75,3.75,0,0,1,19.75,19" transform="translate(-4 -4.75)" fill="#0f654d"/>
        <path id="Trazado_999621" data-name="Trazado 999621" d="M49,94A45.051,45.051,0,0,1,4,49H6.25A42.75,42.75,0,1,0,17.806,19.768l-1.641-1.539A45,45,0,1,1,49,94" transform="translate(-1 -1)" fill="#0f654d"/>
        <rect id="Rectángulo_456268" data-name="Rectángulo 456268" width="96" height="96" fill="none"/>
        <rect id="Rectángulo_456269" data-name="Rectángulo 456269" width="96" height="96" fill="none"/>
      </g>
    </g>
    <g id="Grupo_1211858" data-name="Grupo 1211858" transform="translate(456.183 8471.44) rotate(180)">
      <g id="Grupo_1211857" data-name="Grupo 1211857" clip-path="url(#clip-path-2)">
        <path id="Trazado_1274723" data-name="Trazado 1274723" d="M20.511,30.8l-.017,5.47h4.731l.005-3.163,3.144,0a1.574,1.574,0,0,1,1.584-1.568l7.884,0a1.545,1.545,0,0,1,1.57,1.567v4.737a1.562,1.562,0,0,1-1.573,1.573l-7.883,0a1.57,1.57,0,0,1-1.571-1.573l-.005-3.152H26.806l0,3.147-6.3,0L20.5,41,34.682,41l.009,3.157h3.144l.009-1.593A1.545,1.545,0,0,1,39.419,41H47.3a1.545,1.545,0,0,1,1.57,1.567V47.3A1.562,1.562,0,0,1,47.3,48.875l-7.882,0a1.571,1.571,0,0,1-1.574-1.572l-.009-1.581-4.719,0-.01-3.153H20.5L20.5,46.514a2.327,2.327,0,0,1-2.359,2.362l-4.746.005a2.31,2.31,0,0,1-2.334-2.23L11.036,30.8A15.763,15.763,0,1,1,30.784,11.016l2.329.017,0-7.88,4.722.006.011-1.593A1.546,1.546,0,0,1,39.419,0H47.3a1.545,1.545,0,0,1,1.57,1.567V6.306A1.562,1.562,0,0,1,47.3,7.879l-7.882,0a1.57,1.57,0,0,1-1.574-1.571l-.008-1.584-3.148,0v7.882l-9.441.005V11.192c0-.1.279-.214.438-.247a11.017,11.017,0,1,0,.666,7.97l-1.116,0,.009-1.573h9.445V25.23l3.147,0,.009-1.594a1.545,1.545,0,0,1,1.575-1.562H47.3a1.545,1.545,0,0,1,1.57,1.567v4.737A1.562,1.562,0,0,1,47.3,29.954l-7.882,0a1.57,1.57,0,0,1-1.574-1.572l-.009-1.581H33.111l0-7.876-1.909.01A15.669,15.669,0,0,1,20.511,30.8M27.951,19a12.6,12.6,0,1,1-.5-8,7.337,7.337,0,0,0,1.69.007,14.209,14.209,0,1,0,.45,7.931A5.723,5.723,0,0,0,27.951,19M47.306,6.3l0-4.726H39.419V6.317Zm0,22.075,0-4.726H39.419v4.738ZM18.923,34.687l0-3.48a15.691,15.691,0,0,1-6.317,0l.006,3.492Zm18.922,3.152,0-4.726H29.959v4.738ZM18.2,47.3a.824.824,0,0,0,.726-.805V36.267h-6.31V46.5a.812.812,0,0,0,.8.8Zm29.11,0,0-4.726H39.419v4.738Z" transform="translate(0 0)" fill="#0f654d"/>
        <path id="Trazado_1274724" data-name="Trazado 1274724" d="M60.237,65.737l-4.725.011-.038-2.1L54,65.1l-3.379-3.361,1.458-1.492-2.1-.028V55.49l2.093-.04-1.456-1.464L53.984,50.6l1.491,1.457.037-2.092h4.72l.041,2.1,1.482-1.462,3.362,3.362-1.456,1.485,2.1.037v4.72l-2.1.037,1.46,1.472L61.757,65.1l-1.482-1.462Zm-1.531-1.614a1.687,1.687,0,0,1,1.06-2.071,1.818,1.818,0,0,1,1.982.805,5.537,5.537,0,0,0,1.12-1.192,1.633,1.633,0,0,1-.708-2.132,1.757,1.757,0,0,1,2-.854,6.259,6.259,0,0,0-.051-1.653,1.678,1.678,0,0,1-2.041-1.087,1.835,1.835,0,0,1,.805-1.968,5.744,5.744,0,0,0-1.191-1.118,1.627,1.627,0,0,1-2.129.7,1.757,1.757,0,0,1-.871-2l-1.646.05a1.677,1.677,0,0,1-.968,2,1.624,1.624,0,0,1-2.018-.754,4.125,4.125,0,0,0-1.181,1.181,1.652,1.652,0,0,1,.7,2.132,1.779,1.779,0,0,1-2,.878,6.322,6.322,0,0,0,.054,1.647,1.623,1.623,0,0,1,1.249,2.98,5.527,5.527,0,0,0,1.115,1.192,1.666,1.666,0,0,1,3.057,1.294Z" transform="translate(-42.103 -42.091)" fill="#0f654d"/>
        <path id="Trazado_1274725" data-name="Trazado 1274725" d="M172.7,76.26l-.014-1.515-12.577,0,0-1.583,12.578.008.018-1.595a1.55,1.55,0,0,1,1.576-1.563h7.885a1.545,1.545,0,0,1,1.57,1.567v4.737a1.562,1.562,0,0,1-1.573,1.573l-7.882,0a1.59,1.59,0,0,1-1.58-1.636m9.467.056,0-4.726h-7.884v4.738Z" transform="translate(-134.866 -58.975)" fill="#0f654d"/>
        <path id="Trazado_1274726" data-name="Trazado 1274726" d="M261.606,21.54l-1.575.012V19.978H261.6Z" transform="translate(-219.029 -16.827)" fill="#0f654d"/>
        <path id="Trazado_1274727" data-name="Trazado 1274727" d="M281.606,21.54l-1.575.012V19.978H281.6Z" transform="translate(-235.876 -16.827)" fill="#0f654d"/>
        <path id="Trazado_1274728" data-name="Trazado 1274728" d="M261.606,161.54l-1.575.012v-1.574H261.6Z" transform="translate(-219.029 -134.752)" fill="#0f654d"/>
        <path id="Trazado_1274729" data-name="Trazado 1274729" d="M281.606,161.54l-1.575.012v-1.574H281.6Z" transform="translate(-235.876 -134.752)" fill="#0f654d"/>
        <path id="Trazado_1274730" data-name="Trazado 1274730" d="M201.606,221.54l-1.575.012v-1.574H201.6Z" transform="translate(-168.49 -185.292)" fill="#0f654d"/>
        <path id="Trazado_1274731" data-name="Trazado 1274731" d="M221.606,221.54l-1.575.012v-1.574H221.6Z" transform="translate(-185.337 -185.292)" fill="#0f654d"/>
        <path id="Trazado_1274732" data-name="Trazado 1274732" d="M261.606,281.54l-1.575.012v-1.574H261.6Z" transform="translate(-219.029 -235.831)" fill="#0f654d"/>
        <path id="Trazado_1274733" data-name="Trazado 1274733" d="M281.606,281.54l-1.575.012v-1.574H281.6Z" transform="translate(-235.876 -235.831)" fill="#0f654d"/>
        <path id="Trazado_1274734" data-name="Trazado 1274734" d="M82.542,80.081a3.147,3.147,0,1,1-2.414,3.842,3.12,3.12,0,0,1,2.414-3.842m.163,1.584a1.567,1.567,0,1,0,.948,2.987,1.592,1.592,0,0,0,1.03-1.97,1.553,1.553,0,0,0-1.978-1.017" transform="translate(-67.416 -67.396)" fill="#0f654d"/>
        <path id="Trazado_1274735" data-name="Trazado 1274735" d="M261.606,91.54l-1.575.012V89.978H261.6Z" transform="translate(-219.029 -75.79)" fill="#0f654d"/>
        <path id="Trazado_1274736" data-name="Trazado 1274736" d="M281.606,91.54l-1.575.012V89.978H281.6Z" transform="translate(-235.876 -75.79)" fill="#0f654d"/>
      </g>
    </g>
  </g>
</svg>
