<svg xmlns="http://www.w3.org/2000/svg" xmlns:xlink="http://www.w3.org/1999/xlink" width="98" height="98" viewBox="0 0 98 98">
  <defs>
    <clipPath id="clip-path">
      <rect id="Rectángulo_456312" data-name="Rectángulo 456312" width="98" height="98" transform="translate(0.059 0.059)" fill="none"/>
    </clipPath>
    <clipPath id="clip-path-3">
      <rect id="Rectángulo_464506" data-name="Rectángulo 464506" width="58.483" height="58.49" fill="#19538d"/>
    </clipPath>
  </defs>
  <g id="Grupo_1179973" data-name="Grupo 1179973" transform="translate(-307.117 -10093.059)">
    <g id="Grupo_1179968" data-name="Grupo 1179968" transform="translate(307.059 10093)">
      <g id="Grupo_1179959" data-name="Grupo 1179959" clip-path="url(#clip-path)">
        <path id="Trazado_999654" data-name="Trazado 999654" d="M1.5,5.146H81.261A12.087,12.087,0,0,1,93.377,17.2V96.585H13.616A12.087,12.087,0,0,1,1.5,84.527Z" transform="translate(0.014 0.025)" fill="#fff"/>
      </g>
      <g id="Grupo_1179960" data-name="Grupo 1179960">
        <g id="Grupo_1179956" data-name="Grupo 1179956" clip-path="url(#clip-path)">
          <path id="Trazado_999651" data-name="Trazado 999651" d="M92.229,30a5.024,5.024,0,1,1-5.048,5.024A5.037,5.037,0,0,1,92.229,30" transform="translate(0.84 0.145)" fill="#19538d"/>
          <path id="Trazado_999652" data-name="Trazado 999652" d="M63.229,0a5.024,5.024,0,1,1-5.048,5.024A5.037,5.037,0,0,1,63.229,0" transform="translate(0.56 0)" fill="#19538d"/>
          <path id="Trazado_999653" data-name="Trazado 999653" d="M93.377,35.144V96.585H13.616A12.087,12.087,0,0,1,1.5,84.527V5.146H64.459" transform="translate(0.014 0.025)" fill="none" stroke="#19538d" stroke-miterlimit="10" stroke-width="3"/>
        </g>
      </g>
    </g>
    <g id="Grupo_1211872" data-name="Grupo 1211872" transform="translate(327.875 10114.805)">
      <g id="Grupo_1211871" data-name="Grupo 1211871" clip-path="url(#clip-path-3)">
        <path id="Trazado_1274820" data-name="Trazado 1274820" d="M4.719,50.082,2.237,47.537,3.31,45.215c.045-.739-.6-1.538-.786-2.229L0,42.192l0-7.056,2.522-.792c.186-.69.835-1.49.786-2.227L2.235,29.794l2.477-2.522L4.716,0l39.6,0,.029,3.819a15.077,15.077,0,0,1,2.764,29.663,6.615,6.615,0,0,1-.224,2.756,3.572,3.572,0,0,1,1.231,2.429L48.1,46.215a4.651,4.651,0,0,1-3.757,4.612l-.019,7.661-39.607,0ZM24.883,52.49c-.94-.3-1.5-1.017-2.3-1.092-.738-.07-1.536.611-2.228.778l-.8,2.537L12.517,54.7a11.14,11.14,0,0,0-.923-2.532A5.134,5.134,0,0,0,9.5,51.386l-2.036.971c-.326.155-.58-.092-.845-.342L6.613,56.6H42.442l-.009-5.783A4.554,4.554,0,0,1,38.694,46.4l-.046-7.726c-.006-1.11.753-1.732,1.185-2.452a12.478,12.478,0,0,1-.214-2.757,15.073,15.073,0,0,1,2.8-29.643l0-1.933L6.6,1.886,6.607,25.28c.248-.133.389-.369.744-.363,2.2,1.206,2.016,1.352,4.367.236l.794-2.512,7.044.008c.378.817.375,1.867.921,2.48a9.267,9.267,0,0,0,2.1.92l2.344-1.205,4.935,4.934-1.2,2.345a10.927,10.927,0,0,0,.906,2.115l2.509.963,0,6.988-2.523.8c-.186.69-.832,1.491-.787,2.227l1.09,2.343Zm17-46.741A13.2,13.2,0,1,0,56.506,17.342,13.213,13.213,0,0,0,41.878,5.748M18.243,52.758l.673-2.184a12.988,12.988,0,0,0,3.516-1.439l2.1,1.044,3.02-3.016-1.033-2.095a13.931,13.931,0,0,0,1.428-3.527l2.238-.772L30.147,36.5l-2.2-.7a13.829,13.829,0,0,0-1.428-3.531l1.034-2.1-3.018-3.016-2.1,1.037a13.562,13.562,0,0,0-3.526-1.428L18.2,24.548H13.867l-.708,2.208a13.768,13.768,0,0,0-3.531,1.431L7.542,27.154,4.518,30.169l1.038,2.1a13.519,13.519,0,0,0-1.432,3.524l-2.239.77.038,4.266,2.2.711a13.593,13.593,0,0,0,1.432,3.524l-1.04,2.1L7.536,50.18l2.1-1.046a12.977,12.977,0,0,0,3.525,1.444l.77,2.242ZM44.9,35.587c.6-.344.375-1.328.354-1.768a14.727,14.727,0,0,1-3.734.018c-.034.63-.166,1.525.4,1.789a3.871,3.871,0,0,0,2.977-.039m1.341,10.356-.025-7.271a.93.93,0,0,0-.938-.944H41.506a.936.936,0,0,0-.941.943v7.544a2.8,2.8,0,0,0,2.913,2.82,2.872,2.872,0,0,0,2.76-3.094" fill="#19538d"/>
        <path id="Trazado_1274821" data-name="Trazado 1274821" d="M63.856,29.42l-18.871.016V20H63.854Zm-1.89-1.881,0-5.657H46.875V27.55Z" transform="translate(-36.498 -16.223)" fill="#19538d"/>
        <path id="Trazado_1274822" data-name="Trazado 1274822" d="M62.985,101.884l-17.866,0,0-1.892H62.991Z" transform="translate(-36.605 -81.132)" fill="#19538d"/>
        <path id="Trazado_1274823" data-name="Trazado 1274823" d="M79.205,81.878l-14.1.006,0-1.893H79.209Z" transform="translate(-52.821 -64.9)" fill="#19538d"/>
        <path id="Trazado_1274824" data-name="Trazado 1274824" d="M167.587,261.858l-7.513.009,0-1.9h7.515Z" transform="translate(-129.874 -210.924)" fill="#19538d"/>
        <path id="Trazado_1274825" data-name="Trazado 1274825" d="M167.587,281.858l-7.513.009,0-1.9h7.515Z" transform="translate(-129.874 -227.151)" fill="#19538d"/>
        <path id="Trazado_1274826" data-name="Trazado 1274826" d="M46.912,81.834l-1.884.015V79.966l1.873,0Z" transform="translate(-36.532 -64.879)" fill="#19538d"/>
        <path id="Trazado_1274827" data-name="Trazado 1274827" d="M39.065,150.086a10.371,10.371,0,1,1-8.943,11.756,10.354,10.354,0,0,1,8.943-11.756m-3.285,9.322a4.6,4.6,0,0,1,3.65-3.651v-3.815a8.478,8.478,0,0,0-7.473,7.477Zm9.225.027,3.815-.016a8.473,8.473,0,0,0-7.474-7.475l0,3.8a4.64,4.64,0,0,1,3.657,3.686m-5.378-1.785a2.825,2.825,0,1,0,3.486,1.952,2.8,2.8,0,0,0-3.486-1.952m-.235,7.3a4.565,4.565,0,0,1-3.615-3.628H31.961a8.5,8.5,0,0,0,7.47,7.471Zm1.965,3.836a8.486,8.486,0,0,0,7.461-7.46L45,161.321A4.677,4.677,0,0,1,41.318,165Z" transform="translate(-24.354 -121.699)" fill="#19538d"/>
        <path id="Trazado_1274828" data-name="Trazado 1274828" d="M180,40.072a11.314,11.314,0,1,1-9.9,12.707A11.311,11.311,0,0,1,180,40.072m0,1.9a9.425,9.425,0,1,0,10.658,8,9.4,9.4,0,0,0-10.658-8" transform="translate(-137.935 -32.446)" fill="#19538d"/>
        <path id="Trazado_1274829" data-name="Trazado 1274829" d="M196.806,78.564a4.261,4.261,0,0,1,1.249-1.408l2.191,2.093,7.806-7.78,1.332,1.335-9.139,9.168Z" transform="translate(-159.677 -57.987)" fill="#19538d"/>
      </g>
    </g>
  </g>
</svg>
