<svg xmlns="http://www.w3.org/2000/svg" xmlns:xlink="http://www.w3.org/1999/xlink" width="98" height="98" viewBox="0 0 98 98">
  <defs>
    <clipPath id="clip-path">
      <rect id="Rectángulo_456312" data-name="Rectángulo 456312" width="98" height="98" transform="translate(0.059 0.059)" fill="none"/>
    </clipPath>
    <clipPath id="clip-path-3">
      <rect id="Rectángulo_464505" data-name="Rectángulo 464505" width="43.279" height="52.559" fill="#19538d"/>
    </clipPath>
  </defs>
  <g id="Grupo_1179973" data-name="Grupo 1179973" transform="translate(-307.117 -10093.059)">
    <g id="Grupo_1179968" data-name="Grupo 1179968" transform="translate(307.059 10093)">
      <g id="Grupo_1179959" data-name="Grupo 1179959" clip-path="url(#clip-path)">
        <path id="Trazado_999654" data-name="Trazado 999654" d="M1.5,5.146H81.261A12.087,12.087,0,0,1,93.377,17.2V96.585H13.616A12.087,12.087,0,0,1,1.5,84.527Z" transform="translate(0.014 0.025)" fill="#fff"/>
      </g>
      <g id="Grupo_1179960" data-name="Grupo 1179960">
        <g id="Grupo_1179956" data-name="Grupo 1179956" clip-path="url(#clip-path)">
          <path id="Trazado_999651" data-name="Trazado 999651" d="M92.229,30a5.024,5.024,0,1,1-5.048,5.024A5.037,5.037,0,0,1,92.229,30" transform="translate(0.84 0.145)" fill="#19538d"/>
          <path id="Trazado_999652" data-name="Trazado 999652" d="M63.229,0a5.024,5.024,0,1,1-5.048,5.024A5.037,5.037,0,0,1,63.229,0" transform="translate(0.56 0)" fill="#19538d"/>
          <path id="Trazado_999653" data-name="Trazado 999653" d="M93.377,35.144V96.585H13.616A12.087,12.087,0,0,1,1.5,84.527V5.146H64.459" transform="translate(0.014 0.025)" fill="none" stroke="#19538d" stroke-miterlimit="10" stroke-width="3"/>
        </g>
      </g>
    </g>
    <g id="Grupo_1211870" data-name="Grupo 1211870" transform="translate(333.478 10116.779)">
      <g id="Grupo_1211869" data-name="Grupo 1211869" clip-path="url(#clip-path-3)">
        <path id="Trazado_1274812" data-name="Trazado 1274812" d="M39.454,52.549l-35.535.011A3.813,3.813,0,0,1,0,48.735L.006,9.069A3.7,3.7,0,0,1,3.718,5.386l8.833-.016a2.364,2.364,0,0,1,1.866-1.418l2.171-.039A5.05,5.05,0,0,1,21.639,0a5.045,5.045,0,0,1,5.054,3.921L29,3.975c.786.019,1.33.716,1.728,1.377l9,.053a3.645,3.645,0,0,1,3.549,3.662l0,39.668a3.773,3.773,0,0,1-3.825,3.814M28.858,9.494,28.8,6l-4.108-.06a3.054,3.054,0,0,0-2.7-3.851A3.149,3.149,0,0,0,19.236,3.1a3.6,3.6,0,0,0-.67,2.836L14.481,6l-.06,3.5Zm9.584.053c.446.005.72.635.72,1.014v36.18a1.033,1.033,0,0,1-1.122,1.1H5.24a1.028,1.028,0,0,1-1.121-1.1V10.564a1,1,0,0,1,.926-1.055l7.315-.049,0-2.036L3.887,7.411c-.758,0-1.8.536-1.8,1.479V49.07a1.647,1.647,0,0,0,1.665,1.42H39.524a1.647,1.647,0,0,0,1.665-1.42V8.89c0-.945-1.041-1.482-1.8-1.481l-8.477.012,0,2.036ZM37.089,45.808l0-34.27H6.192V45.814Z" transform="translate(0 0)" fill="#19538d"/>
        <path id="Trazado_1274813" data-name="Trazado 1274813" d="M85.918,90.708a8.647,8.647,0,1,1-6.665,10.247,8.608,8.608,0,0,1,6.665-10.247m.81,1.939a6.586,6.586,0,1,0,7.5,5.491,6.565,6.565,0,0,0-7.5-5.491" transform="translate(-66.076 -75.648)" fill="#19538d"/>
        <path id="Trazado_1274814" data-name="Trazado 1274814" d="M115.838,220.323l-13.832.016a1.072,1.072,0,0,1-.951-1.048,1.012,1.012,0,0,1,1-1l13.52-.017a1.085,1.085,0,0,1,1.112.891c.06.363-.208,1.155-.853,1.156" transform="translate(-84.455 -182.42)" fill="#19538d"/>
        <path id="Trazado_1274815" data-name="Trazado 1274815" d="M115.682,250.492l-13.829-.025c-.511,0-.833-.707-.814-1.045a1.023,1.023,0,0,1,1.039-.972l13.456,0a1.03,1.03,0,0,1,1.142.881,1.045,1.045,0,0,1-.994,1.166" transform="translate(-84.441 -207.633)" fill="#19538d"/>
        <path id="Trazado_1274816" data-name="Trazado 1274816" d="M70.492,220.364l-2.236.015a1.058,1.058,0,0,1-1.066-1.057,1.035,1.035,0,0,1,1.108-1.007h2.07a1.026,1.026,0,1,1,.125,2.048" transform="translate(-56.152 -182.453)" fill="#19538d"/>
        <path id="Trazado_1274817" data-name="Trazado 1274817" d="M70.627,250.46l-2.531.019a1.022,1.022,0,1,1,.227-2.03l2.141.011a.962.962,0,0,1,1.005.876c.063.4-.2,1.12-.843,1.125" transform="translate(-56.146 -207.636)" fill="#19538d"/>
        <path id="Trazado_1274818" data-name="Trazado 1274818" d="M123.075,21.291a1.648,1.648,0,0,1,1.909,1.2,1.641,1.641,0,0,1-3.169.854,1.647,1.647,0,0,1,1.26-2.058" transform="translate(-101.755 -17.761)" fill="#19538d"/>
        <path id="Trazado_1274819" data-name="Trazado 1274819" d="M110.3,130.325l-1.763-1.759a1.029,1.029,0,0,1,1.451-1.46L111,128.124l4.33-4.286a1.042,1.042,0,0,1,1.387.187,1.094,1.094,0,0,1-.109,1.422l-4.827,4.841a1.081,1.081,0,0,1-1.49.037" transform="translate(-90.442 -103.334)" fill="#19538d"/>
      </g>
    </g>
  </g>
</svg>
