<svg xmlns="http://www.w3.org/2000/svg" xmlns:xlink="http://www.w3.org/1999/xlink" width="98" height="98" viewBox="0 0 98 98">
  <defs>
    <clipPath id="clip-path">
      <rect id="Rectángulo_456312" data-name="Rectángulo 456312" width="98" height="98" transform="translate(0.059 0.059)" fill="none"/>
    </clipPath>
    <clipPath id="clip-path-3">
      <rect id="Rectángulo_464503" data-name="Rectángulo 464503" width="55.019" height="55.015" fill="#19538d"/>
    </clipPath>
  </defs>
  <g id="Grupo_1179973" data-name="Grupo 1179973" transform="translate(-307.117 -10093.059)">
    <g id="Grupo_1179968" data-name="Grupo 1179968" transform="translate(307.059 10093)">
      <g id="Grupo_1179959" data-name="Grupo 1179959" clip-path="url(#clip-path)">
        <path id="Trazado_999654" data-name="Trazado 999654" d="M1.5,5.146H81.261A12.087,12.087,0,0,1,93.377,17.2V96.585H13.616A12.087,12.087,0,0,1,1.5,84.527Z" transform="translate(0.014 0.025)" fill="#fff"/>
      </g>
      <g id="Grupo_1179960" data-name="Grupo 1179960">
        <g id="Grupo_1179956" data-name="Grupo 1179956" clip-path="url(#clip-path)">
          <path id="Trazado_999651" data-name="Trazado 999651" d="M92.229,30a5.024,5.024,0,1,1-5.048,5.024A5.037,5.037,0,0,1,92.229,30" transform="translate(0.84 0.145)" fill="#19538d"/>
          <path id="Trazado_999652" data-name="Trazado 999652" d="M63.229,0a5.024,5.024,0,1,1-5.048,5.024A5.037,5.037,0,0,1,63.229,0" transform="translate(0.56 0)" fill="#19538d"/>
          <path id="Trazado_999653" data-name="Trazado 999653" d="M93.377,35.144V96.585H13.616A12.087,12.087,0,0,1,1.5,84.527V5.146H64.459" transform="translate(0.014 0.025)" fill="none" stroke="#19538d" stroke-miterlimit="10" stroke-width="3"/>
        </g>
      </g>
    </g>
    <g id="Grupo_1211866" data-name="Grupo 1211866" transform="translate(328.608 10117.165)">
      <g id="Grupo_1211865" data-name="Grupo 1211865" clip-path="url(#clip-path-3)">
        <path id="Trazado_1274782" data-name="Trazado 1274782" d="M111.239,45.566l0-42.95c0-.472-.243-.888-.741-.888H72.444a.784.784,0,0,0-.74.849l.006,6.7c0,.6-.264.992-.793,1.024-.6.037-.947-.357-.945-1.024l.015-6.7A2.5,2.5,0,0,1,72.584,0L110.53.013a2.418,2.418,0,0,1,2.418,2.422l.013,43.091a2.518,2.518,0,0,1-2.6,2.607l-20.424.013c-.565,0-.92-.2-1.02-.66-.088-.4.085-1.054.691-1.054l20.747-.014a.81.81,0,0,0,.879-.852" transform="translate(-57.943 0)" fill="#19538d"/>
        <path id="Trazado_1274783" data-name="Trazado 1274783" d="M11.26,195.139l12.817.009a4.32,4.32,0,0,0-4.125-3.437.85.85,0,0,1-.934-.787.834.834,0,0,1,.938-.942,6.088,6.088,0,0,1,5.875,5.222,3.029,3.029,0,0,1,2.425.452,2.615,2.615,0,0,1,.977,2.067v13.73a.826.826,0,0,1-.889.883H.9a.834.834,0,0,1-.9-.882l.029-15.626a5.866,5.866,0,0,1,6.276-5.8c.529.035.614.727.551,1.028-.1.472-.477.646-1.009.663A4.221,4.221,0,0,0,1.728,196l-.006,14.621H8.6l0-3.447-2.411.007c-.528,0-.905-.2-1-.654s.1-1.044.677-1.05l2.732-.027,0-7.734a2.522,2.522,0,0,1,2.655-2.58m16.256,15.474,0-12.881a.81.81,0,0,0-.723-.868H11.046a.818.818,0,0,0-.725.867l0,12.894Z" transform="translate(0 -157.321)" fill="#19538d"/>
        <path id="Trazado_1274784" data-name="Trazado 1274784" d="M48.774,76.405c0,.489-.275,1-.774,1l-12.225,0A.873.873,0,0,1,35,76.478l.011-1.759a4.179,4.179,0,0,1,4.11-4.171l5.346-.011a4.233,4.233,0,0,1,4.286,4.189Zm-3.866-4.071-6.117.009c-1.559,0-2.294,1.817-2.031,3.342H47.013c.253-1.519-.458-3.353-2.1-3.35" transform="translate(-28.987 -58.411)" fill="#19538d"/>
        <path id="Trazado_1274785" data-name="Trazado 1274785" d="M47.129,121.258a.732.732,0,0,1,.751-.68c.356-.039.893.138.9.607l.034,2.912a6.869,6.869,0,0,1-13.737,0l.03-2.912c0-.421.464-.578.739-.607.364-.038.894.136.9.608l.054,3.07a5.152,5.152,0,0,0,10.3-.166Z" transform="translate(-29.045 -99.845)" fill="#19538d"/>
        <path id="Trazado_1274786" data-name="Trazado 1274786" d="M138.705,124.2c.222-.44.3-1.068.745-1.139a.863.863,0,0,1,1.1.662,1.955,1.955,0,0,1-1.928,2.211h-4.126a2.034,2.034,0,0,1-1.98-2.082l.024-4.517a2.075,2.075,0,0,1,2.157-1.9l3.718-.006c.555,0,.91.25.97.7a.84.84,0,0,1-.828,1.047l-4.287.05.028,5Z" transform="translate(-109.732 -97.238)" fill="#19538d"/>
        <path id="Trazado_1274787" data-name="Trazado 1274787" d="M138.687,43.162c.245-.341.28-.965.639-1.081s.957-.15,1.138.341a1.917,1.917,0,0,1-1.841,2.487l-4.141.005a2.039,2.039,0,0,1-1.971-2.081l.024-4.522a2.086,2.086,0,0,1,2.155-1.907l3.865.009a.82.82,0,0,1,.844.753c.041.333-.121.907-.6.917l-4.524.1.023,5.01Z" transform="translate(-109.731 -30.146)" fill="#19538d"/>
        <path id="Trazado_1274788" data-name="Trazado 1274788" d="M213.424,129.238l-15.412,0a.9.9,0,0,1-.928-.9.837.837,0,0,1,.93-.862l15.629.01a.767.767,0,0,1,.708.848.862.862,0,0,1-.927.9" transform="translate(-163.202 -105.561)" fill="#19538d"/>
        <path id="Trazado_1274789" data-name="Trazado 1274789" d="M213.821,201.05l-15.7.051c-.621,0-1.018-.3-1.031-.853a.842.842,0,0,1,.894-.879l15.381-.007a.962.962,0,0,1,.974.617c.091.28.024,1.069-.518,1.071" transform="translate(-163.208 -165.089)" fill="#19538d"/>
        <path id="Trazado_1274790" data-name="Trazado 1274790" d="M213.672,47.667l-15.513.02a.9.9,0,0,1-1-.657c-.1-.389.08-1.056.674-1.056l15.772-.014a.8.8,0,0,1,.779.781c.029.314-.133.925-.713.926" transform="translate(-163.244 -38.059)" fill="#19538d"/>
        <path id="Trazado_1274791" data-name="Trazado 1274791" d="M208.35,148.8l-10.2.031a.908.908,0,0,1-.991-.667c-.1-.407.078-1.046.671-1.046h10.6c.428,0,.589.508.612.751.03.325-.132.928-.688.93" transform="translate(-163.24 -121.828)" fill="#19538d"/>
        <path id="Trazado_1274792" data-name="Trazado 1274792" d="M208.5,220.728l-10.506.039a.837.837,0,0,1-.849-.79c-.033-.371.165-.915.689-.915l10.6.007c.428,0,.583.51.611.754s-.089.9-.55.906" transform="translate(-163.248 -181.402)" fill="#19538d"/>
        <path id="Trazado_1274793" data-name="Trazado 1274793" d="M208.035,67.232l-10.164-.021a.827.827,0,0,1-.787-.854c.007-.592.405-.854,1.024-.853l10.148.015c.6,0,.793.511.738,1-.05.447-.38.716-.959.714" transform="translate(-163.202 -54.242)" fill="#19538d"/>
        <path id="Trazado_1274794" data-name="Trazado 1274794" d="M57.608,190.49c.411-.441.716-.672,1.269-.41a.789.789,0,0,1,.375,1.084,4.96,4.96,0,0,1-4.048,2.149c-2.986.078-5.244-2.294-4.132-3.165a.925.925,0,0,1,1.176.13,3.59,3.59,0,0,0,5.36.212" transform="translate(-42.053 -157.311)" fill="#19538d"/>
        <path id="Trazado_1274795" data-name="Trazado 1274795" d="M149.628,42.586l-1.342-1.316a.83.83,0,0,1-.044-1.16.848.848,0,0,1,1.256-.052,3,3,0,0,0,.732.625l3.391-3.365a.839.839,0,0,1,1.231.045.867.867,0,0,1-.117,1.253l-3.958,3.93a.769.769,0,0,1-1.149.04" transform="translate(-122.579 -30.698)" fill="#19538d"/>
        <path id="Trazado_1274796" data-name="Trazado 1274796" d="M149.563,123.978l-1.343-1.336a.831.831,0,0,1-.044-1.08.851.851,0,0,1,1.245-.116l.725.716,3.59-3.546c.275-.272.831-.1,1.057.1a.819.819,0,0,1,.115,1.087l-4.2,4.21a.823.823,0,0,1-1.144-.032" transform="translate(-122.555 -98.108)" fill="#19538d"/>
        <path id="Trazado_1274797" data-name="Trazado 1274797" d="M86.4,243.115a4.718,4.718,0,1,1-3.794,5.5,4.724,4.724,0,0,1,3.794-5.5m.163,1.718a3,3,0,1,0,3.616,2.256,2.991,2.991,0,0,0-3.616-2.256" transform="translate(-68.34 -201.249)" fill="#19538d"/>
      </g>
    </g>
  </g>
</svg>
