<svg xmlns="http://www.w3.org/2000/svg" xmlns:xlink="http://www.w3.org/1999/xlink" width="128" height="128" viewBox="0 0 128 128">
  <defs>
    <clipPath id="clip-path">
      <rect id="Rectángulo_456267" data-name="Rectángulo 456267" width="128" height="128" fill="none"/>
    </clipPath>
    <clipPath id="clip-path-2">
      <rect id="Rectángulo_464481" data-name="Rectángulo 464481" width="63.35" height="58.45" fill="#19538d"/>
    </clipPath>
  </defs>
  <g id="Grupo_1211777" data-name="Grupo 1211777" transform="translate(511.746 8527) rotate(180)">
    <path id="Trazado_999622" data-name="Trazado 999622" d="M59.07,0A59.07,59.07,0,1,1,0,59.07,59.071,59.071,0,0,1,59.07,0" transform="translate(388.676 8403.93)" fill="#fff"/>
    <g id="Grupo_1179902" data-name="Grupo 1179902" transform="translate(383.746 8399)">
      <g id="Grupo_1179905" data-name="Grupo 1179905" clip-path="url(#clip-path)">
        <path id="Trazado_999618" data-name="Trazado 999618" d="M64,0A64,64,0,1,1,0,64,64,64,0,0,1,64,0" fill="none"/>
        <path id="Trazado_999619" data-name="Trazado 999619" d="M5,59a5,5,0,1,1-5,5,5,5,0,0,1,5-5" fill="#19538d"/>
        <path id="Trazado_999620" data-name="Trazado 999620" d="M21,19a5,5,0,1,1-5,5,5,5,0,0,1,5-5" fill="#19538d"/>
        <path id="Trazado_999621" data-name="Trazado 999621" d="M64,124A60.068,60.068,0,0,1,4,64H7A57,57,0,1,0,22.408,25.024L20.22,22.972A60,60,0,1,1,64,124" fill="#19538d"/>
        <rect id="Rectángulo_456268" data-name="Rectángulo 456268" width="128" height="128" fill="none"/>
        <rect id="Rectángulo_456269" data-name="Rectángulo 456269" width="128" height="128" fill="none"/>
      </g>
    </g>
    <g id="Grupo_1211820" data-name="Grupo 1211820" transform="translate(479.421 8493.225) rotate(180)">
      <g id="Grupo_1211821" data-name="Grupo 1211821" clip-path="url(#clip-path-2)">
        <path id="Trazado_1274529" data-name="Trazado 1274529" d="M36.271,58.418l-8.112.031a4.855,4.855,0,0,1-4.784-4.857l0-5.962a4.861,4.861,0,0,1,4.915-4.791l1.924-.044V34.221l-13.2-.017a6.3,6.3,0,0,0-6.334,5.312,17.941,17.941,0,0,0-.049,3.323l2.623.061a4.925,4.925,0,0,1,4.192,4.919l0,5.58A4.847,4.847,0,0,1,12.8,58.434l-8,.015A4.919,4.919,0,0,1,0,53.4l0-5.574a4.911,4.911,0,0,1,4.54-4.96l2.323-.024L6.883,40.1a9.705,9.705,0,0,1,9.643-9.573l13.684-.059.015-8.581-5.283.01a5.029,5.029,0,0,1-5.195-5.15l.025-11.877A4.893,4.893,0,0,1,24.756,0L39.562.013a4.887,4.887,0,0,1,4.854,5.059l-.009,11.671a4.99,4.99,0,0,1-4.436,5.131l-6.034,0v8.6l12.756.03A9.911,9.911,0,0,1,56.564,40.3l.041,2.545L59,42.88a4.911,4.911,0,0,1,4.348,4.941l0,5.576a4.922,4.922,0,0,1-4.806,5.052l-8-.013A4.849,4.849,0,0,1,45.9,53.4l0-5.579a4.92,4.92,0,0,1,4.374-4.941l2.579-.036,0-2.364a6.24,6.24,0,0,0-6.138-6.244l-12.789-.022V42.8l2.325.045a4.878,4.878,0,0,1,4.531,4.77l-.013,6.18a4.666,4.666,0,0,1-4.5,4.619m3.4-40.267a1.387,1.387,0,0,0,1.052-1.418l0-11.627c0-.629-.421-1.4-1.137-1.4L24.764,3.691a1.281,1.281,0,0,0-1.286,1.376l.014,11.879a1.2,1.2,0,0,0,1.254,1.2ZM12.547,54.769a1.322,1.322,0,0,0,1.19-1.385l-.011-5.56a1.208,1.208,0,0,0-1.179-1.264l-7.519-.011a1.268,1.268,0,0,0-1.294,1.079l0,5.944A1.231,1.231,0,0,0,4.96,54.756Zm23.363-.027a1.263,1.263,0,0,0,1.2-1.35l-.008-5.57a1.223,1.223,0,0,0-1.193-1.263l-7.67.009a1.2,1.2,0,0,0-1.153,1.255l.021,5.745a1.2,1.2,0,0,0,1.214,1.192Zm22.572.032a1.32,1.32,0,0,0,1.137-1.392l0-5.567a1.217,1.217,0,0,0-1.141-1.252l-7.676,0a1.211,1.211,0,0,0-1.179,1.264l-.012,5.566a1.286,1.286,0,0,0,1.276,1.368Z" transform="translate(0 0.001)" fill="#19538d"/>
      </g>
    </g>
  </g>
</svg>
