<svg xmlns="http://www.w3.org/2000/svg" xmlns:xlink="http://www.w3.org/1999/xlink" width="128" height="128" viewBox="0 0 128 128">
  <defs>
    <clipPath id="clip-path">
      <rect id="Rectángulo_456267" data-name="Rectángulo 456267" width="128" height="128" fill="none"/>
    </clipPath>
    <clipPath id="clip-path-2">
      <rect id="Rectángulo_464480" data-name="Rectángulo 464480" width="67.627" height="63.534" fill="#19538d"/>
    </clipPath>
  </defs>
  <g id="Grupo_1211775" data-name="Grupo 1211775" transform="translate(511.746 8527) rotate(180)">
    <path id="Trazado_999622" data-name="Trazado 999622" d="M59.07,0A59.07,59.07,0,1,1,0,59.07,59.071,59.071,0,0,1,59.07,0" transform="translate(388.676 8403.93)" fill="#fff"/>
    <g id="Grupo_1179902" data-name="Grupo 1179902" transform="translate(383.746 8399)">
      <g id="Grupo_1179905" data-name="Grupo 1179905" clip-path="url(#clip-path)">
        <path id="Trazado_999618" data-name="Trazado 999618" d="M64,0A64,64,0,1,1,0,64,64,64,0,0,1,64,0" fill="none"/>
        <path id="Trazado_999619" data-name="Trazado 999619" d="M5,59a5,5,0,1,1-5,5,5,5,0,0,1,5-5" fill="#19538d"/>
        <path id="Trazado_999620" data-name="Trazado 999620" d="M21,19a5,5,0,1,1-5,5,5,5,0,0,1,5-5" fill="#19538d"/>
        <path id="Trazado_999621" data-name="Trazado 999621" d="M64,124A60.068,60.068,0,0,1,4,64H7A57,57,0,1,0,22.408,25.024L20.22,22.972A60,60,0,1,1,64,124" fill="#19538d"/>
        <rect id="Rectángulo_456268" data-name="Rectángulo 456268" width="128" height="128" fill="none"/>
        <rect id="Rectángulo_456269" data-name="Rectángulo 456269" width="128" height="128" fill="none"/>
      </g>
    </g>
    <g id="Grupo_1211818" data-name="Grupo 1211818" transform="translate(481.56 8494.767) rotate(180)">
      <g id="Grupo_1211819" data-name="Grupo 1211819" clip-path="url(#clip-path-2)">
        <path id="Trazado_1274525" data-name="Trazado 1274525" d="M43.739,41.408c-2.215.855-1.213,3.694-3.721,3.548L39.97,50.62l5.254,5.264a1.153,1.153,0,0,1,.146,1.54l-5.787,5.8a1.016,1.016,0,0,1-1.465,0l-5.788-5.8a1.154,1.154,0,0,1,.147-1.537l5.254-5.253-.053-5.672c-2.435.139-1.579-2.59-3.549-3.495-1.86-.854-3.649,1.261-4.515.42l-2.591-2.517a1.377,1.377,0,0,1-.325-1.5l.744-2.18a2.168,2.168,0,0,0-.781-1.933L24.1,32.477a2.04,2.04,0,0,1-.318-1.551l-12.547,0,.042,15.147c.593-.658,1.083-.961,1.612-.872a1.028,1.028,0,0,1,.8,1.443,19.07,19.07,0,0,1-2.21,2.7c-.325.443-.614.813-1.041.88A1.463,1.463,0,0,1,9,49.587L6.656,46.8a1.056,1.056,0,0,1,.558-1.549c.565-.21,1.164.106,1.773.82l.042-16.3a1.19,1.19,0,0,1,1.319-1.1l13.387,0c.035-.52-.059-1.229.348-1.435l2.525-1.273a.84.84,0,0,0,.411-.718l-5.5-.028a1.364,1.364,0,0,1-1.193-.764L18.358,20.7l-2.185.008a3.733,3.733,0,0,1-3.884,2.522,3.652,3.652,0,1,1,3.855-4.8l2.446.022a1.575,1.575,0,0,1,1.568.837c.644,1.289,1.255,2.52,2,3.754l5.011-.085c-.246-.716-.922-1.732-.448-2.212l3.1-3.143c.544-.251,1.3.228,2.064.455L32,13.024l-3.834-1.98a1.22,1.22,0,0,1-.672-1.1l-.033-2.83a3.674,3.674,0,0,1-2.428-4.117,3.652,3.652,0,1,1,4.744,4.1,6.361,6.361,0,0,0,.053,2.281l4.337,2.365.092,6.28c1.339-.181,1.106-2.495,2.365-3.154a14.979,14.979,0,0,1,4.456-.021c1.284.794,1.076,3.065,2.357,3.158l.092-6.26,4.335-2.351A6.534,6.534,0,0,0,47.92,7.1a3.628,3.628,0,1,1,2.313.012l-.018,2.611a1.439,1.439,0,0,1-.832,1.405l-3.663,1.938.025,4.992c.671-.123,1.53-.746,2.122-.439l3.113,3.132c.479.482-.2,1.5-.445,2.21l5.075.027,2.017-3.833A1.529,1.529,0,0,1,59.1,18.46l2.455-.026A3.654,3.654,0,1,1,65.592,23.2a3.711,3.711,0,0,1-4.065-2.49L59.341,20.7l-1.966,3.764a1.37,1.37,0,0,1-1.194.765l-5.573.063c.875,1.721,3.664.947,3.328,3.4l13.415-.022a1.194,1.194,0,0,1,1.319,1.1l.041,16.295c.58-.642,1.082-.965,1.614-.864.671.127,1.188,1.03.713,1.6L68.7,49.587a1.5,1.5,0,0,1-1.24.655c-.546-.008-.845-.426-1.239-.893l-2.148-2.544a1.025,1.025,0,0,1,.568-1.563c.549-.181,1.159.11,1.782.834l.039-15.171-12.5.005c-.041.533.081,1.3-.386,1.534l-2.544,1.3a2.48,2.48,0,0,0-.778,1.791c-.006,1.253,1.453,2.815.525,3.721l-2.7,2.633c-.837.816-2.569-1.165-4.346-.479M28.367,2.273A1.392,1.392,0,0,0,27.31,4.183,1.45,1.45,0,0,0,29.058,5a1.49,1.49,0,0,0,.973-1.678,1.391,1.391,0,0,0-1.664-1.047M48.84,2.256a1.349,1.349,0,0,0-1.132,1.757,1.417,1.417,0,0,0,2.763-.607,1.436,1.436,0,0,0-1.631-1.15M39.976,42.446c.593-.673.613-1.844,1.275-2.255A9.383,9.383,0,0,1,44.4,38.9c.935-.165,1.818.535,2.684.743A5.479,5.479,0,0,0,48.679,38c-.181-.8-.906-1.635-.778-2.473a8.443,8.443,0,0,1,1.371-3.344c.527-.736,1.635-.735,2.339-1.231.092-.649.327-1.782-.091-2.248-.554-.618-1.881-.566-2.3-1.272a10.383,10.383,0,0,1-1.343-3.284l.769-2.631a7.211,7.211,0,0,0-1.431-1.49l-2.591.743a9.231,9.231,0,0,1-3.455-1.37l-1.295-2.286c-.409-.3-1.828-.4-2.055,0l-1.293,2.3a10.663,10.663,0,0,1-3.313,1.352l-2.736-.729a7.087,7.087,0,0,0-1.433,1.478l.785,2.637a10.836,10.836,0,0,1-1.422,3.38l-2.362,1.194a6.64,6.64,0,0,0,.037,2.229c.689.466,1.813.509,2.334,1.22a8.661,8.661,0,0,1,1.391,3.368l-.749,2.589a7.12,7.12,0,0,0,1.536,1.5c.822-.166,1.609-.822,2.5-.749a7.489,7.489,0,0,1,3.442,1.4l1.292,2.252a2.332,2.332,0,0,0,2.147-.094M12.2,18.259a1.4,1.4,0,0,0-.83,1.9,1.451,1.451,0,0,0,1.819.756A1.412,1.412,0,0,0,14,19.087a1.432,1.432,0,0,0-1.8-.828m52.272.051a1.373,1.373,0,0,0-.689,1.978,1.423,1.423,0,0,0,2.557-1.233,1.384,1.384,0,0,0-1.867-.745m-25.59,42.5L42.9,56.771l-4.053-4.053L34.8,56.8Z" transform="translate(-5.035 0.001)" fill="#19538d"/>
        <path id="Trazado_1274526" data-name="Trazado 1274526" d="M4.425,232.14a5.1,5.1,0,1,1-4.35,5.878,5.067,5.067,0,0,1,4.35-5.878m.237,2.211a2.873,2.873,0,1,0,3.274,2.288,2.911,2.911,0,0,0-3.274-2.288" transform="translate(0 -180.419)" fill="#19538d"/>
        <path id="Trazado_1274527" data-name="Trazado 1274527" d="M262.349,232.127a5.1,5.1,0,1,1-4.368,5.912,5.08,5.08,0,0,1,4.368-5.912m.236,2.216a2.871,2.871,0,1,0,3.255,2.3,2.878,2.878,0,0,0-3.255-2.3" transform="translate(-200.487 -180.412)" fill="#19538d"/>
        <path id="Trazado_1274528" data-name="Trazado 1274528" d="M126.624,103.635a6.788,6.788,0,1,1-5.057,8.158,6.757,6.757,0,0,1,5.057-8.158m.238,2.245a4.526,4.526,0,0,0-3.056,5.668,4.562,4.562,0,1,0,3.056-5.668" transform="translate(-94.358 -80.417)" fill="#19538d"/>
      </g>
    </g>
  </g>
</svg>
