<svg xmlns="http://www.w3.org/2000/svg" xmlns:xlink="http://www.w3.org/1999/xlink" width="128" height="128" viewBox="0 0 128 128">
  <defs>
    <clipPath id="clip-path">
      <rect id="Rectángulo_456267" data-name="Rectángulo 456267" width="128" height="128" fill="none"/>
    </clipPath>
    <clipPath id="clip-path-2">
      <rect id="Rectángulo_464479" data-name="Rectángulo 464479" width="67.198" height="57.253" fill="#19538d"/>
    </clipPath>
  </defs>
  <g id="Grupo_1211773" data-name="Grupo 1211773" transform="translate(511.746 8527) rotate(180)">
    <path id="Trazado_999622" data-name="Trazado 999622" d="M59.07,0A59.07,59.07,0,1,1,0,59.07,59.071,59.071,0,0,1,59.07,0" transform="translate(388.676 8403.93)" fill="#fff"/>
    <g id="Grupo_1179902" data-name="Grupo 1179902" transform="translate(383.746 8399)">
      <g id="Grupo_1179905" data-name="Grupo 1179905" clip-path="url(#clip-path)">
        <path id="Trazado_999618" data-name="Trazado 999618" d="M64,0A64,64,0,1,1,0,64,64,64,0,0,1,64,0" fill="none"/>
        <path id="Trazado_999619" data-name="Trazado 999619" d="M5,59a5,5,0,1,1-5,5,5,5,0,0,1,5-5" fill="#19538d"/>
        <path id="Trazado_999620" data-name="Trazado 999620" d="M21,19a5,5,0,1,1-5,5,5,5,0,0,1,5-5" fill="#19538d"/>
        <path id="Trazado_999621" data-name="Trazado 999621" d="M64,124A60.068,60.068,0,0,1,4,64H7A57,57,0,1,0,22.408,25.024L20.22,22.972A60,60,0,1,1,64,124" fill="#19538d"/>
        <rect id="Rectángulo_456268" data-name="Rectángulo 456268" width="128" height="128" fill="none"/>
        <rect id="Rectángulo_456269" data-name="Rectángulo 456269" width="128" height="128" fill="none"/>
      </g>
    </g>
    <g id="Grupo_1211817" data-name="Grupo 1211817" transform="translate(483.423 8492.627) rotate(180)">
      <g id="Grupo_1211817-2" data-name="Grupo 1211817" transform="translate(5 1)" clip-path="url(#clip-path-2)">
        <path id="Trazado_1274499" data-name="Trazado 1274499" d="M64.816,51.362l-10.6.084c.366,2.587-1.312,5.7-4.246,5.713l-34.4.093a.9.9,0,0,1-.849-.976.953.953,0,0,1,1.069-.957l33.332,0A3.1,3.1,0,0,0,51.6,54.256a3.628,3.628,0,0,0,.68-2.851L19.138,51.4a2.529,2.529,0,0,1-2.62-2.594l.019-10.736a2.487,2.487,0,0,1,2.437-2.409l33.3-.027,0-3.564-33.136,0a2.519,2.519,0,0,1-2.62-2.6l.023-10.726a2.531,2.531,0,0,1,2.618-2.428l33.121-.012,0-3.882-50.306,0,0,4.455c0,.713-.362,1.141-1.021,1.123a1,1,0,0,1-.947-1.124L0,5.068C0,2.767,1.611.117,4.223.11L49.123,0A4.877,4.877,0,0,1,54.24,4.9l.009,11.363,3.054.052a.963.963,0,0,1,.973,1.078,1.052,1.052,0,0,1-1.19.922l-38.574.014-.045,11.132a.612.612,0,0,0,.688.657H64.448c.357,0,.8-.18.8-.519l-.017-11.155L61.8,18.272a.975.975,0,0,1-.851-1.071A1.033,1.033,0,0,1,62,16.314l2.834.026A2.426,2.426,0,0,1,67.2,18.767L67.191,29.66a2.438,2.438,0,0,1-2.483,2.4l-10.433.012-.024,3.551,10.4.023A2.486,2.486,0,0,1,67.2,38.091l-.008,10.9a2.387,2.387,0,0,1-2.374,2.374M52.284,10.415l.021-5.521a2.973,2.973,0,0,0-2.98-2.934l-44.647,0a2.843,2.843,0,0,0-2.685,2.81c-.071,1.9-.065,3.775,0,5.651ZM65.275,48.66l-.048-11.01L18.5,37.645l.007,11.788,46.292,0c.281,0,.475-.518.474-.769" transform="translate(0 0.001)" fill="#19538d"/>
        <path id="Trazado_1274500" data-name="Trazado 1274500" d="M11.055,133.135a.957.957,0,0,1,1.025.947.967.967,0,0,1-.921.976l-6.94-.071c-2.42-.025-4.172-2.375-4.173-4.812L.035,99.55a.968.968,0,0,1,.957-1.039.916.916,0,0,1,.995,1.028l.026,30.75a2.824,2.824,0,0,0,2.835,2.823Z" transform="translate(-0.028 -77.816)" fill="#19538d"/>
        <path id="Trazado_1274501" data-name="Trazado 1274501" d="M216.877,123.819l-13.048.015a.98.98,0,0,1,.171-1.953l12.813-.009a.974.974,0,0,1,.065,1.947" transform="translate(-160.307 -96.271)" fill="#19538d"/>
        <path id="Trazado_1274502" data-name="Trazado 1274502" d="M154.511,101.242l-12.473.036a.993.993,0,0,1-1.05-1.017,1.011,1.011,0,0,1,1.064-.969l12.366,0a.957.957,0,0,1,.912.759.929.929,0,0,1-.819,1.189" transform="translate(-111.371 -78.434)" fill="#19538d"/>
        <path id="Trazado_1274503" data-name="Trazado 1274503" d="M263.17,101.279l-5.993.008a.994.994,0,0,1-1-1.02,1,1,0,0,1,1.018-.952l6.078,0a.982.982,0,0,1-.1,1.961" transform="translate(-202.361 -78.452)" fill="#19538d"/>
        <path id="Trazado_1274504" data-name="Trazado 1274504" d="M172.47,123.826l-3.828.009a.922.922,0,0,1-.937-.906.982.982,0,0,1,1.1-1.027H172.4a.933.933,0,0,1,.985.863.95.95,0,0,1-.911,1.062" transform="translate(-132.476 -96.295)" fill="#19538d"/>
        <path id="Trazado_1274505" data-name="Trazado 1274505" d="M225.141,101.282l-3.574.029a.994.994,0,1,1-.2-1.973h3.772a.97.97,0,0,1,.94.945.929.929,0,0,1-.939,1" transform="translate(-174.102 -78.471)" fill="#19538d"/>
        <path id="Trazado_1274506" data-name="Trazado 1274506" d="M30.379,134.46l-2.015.037a.978.978,0,0,1-1.058-.89.928.928,0,0,1,.81-1.051l2.236-.008a.92.92,0,0,1,.856.912.9.9,0,0,1-.829,1" transform="translate(-21.565 -104.704)" fill="#19538d"/>
        <path id="Trazado_1274507" data-name="Trazado 1274507" d="M30.347,89.1l-1.982.037a.98.98,0,0,1-.25-1.941c1.638-.224,3.025-.139,3.093.906a.9.9,0,0,1-.861,1" transform="translate(-21.566 -68.801)" fill="#19538d"/>
        <path id="Trazado_1274508" data-name="Trazado 1274508" d="M30.424,224.442l-2.237-.007a.913.913,0,0,1-.838-1.02.988.988,0,0,1,.975-.939l2.061.028a.961.961,0,0,1,.86.9,1.022,1.022,0,0,1-.821,1.042" transform="translate(-21.602 -175.742)" fill="#19538d"/>
        <path id="Trazado_1274509" data-name="Trazado 1274509" d="M30.413,179.488l-2.021.039a.97.97,0,0,1-1.049-.88c-.039-.408.243-1.066.8-1.066h2.236a.964.964,0,0,1,.861.9.9.9,0,0,1-.827,1" transform="translate(-21.596 -140.277)" fill="#19538d"/>
        <path id="Trazado_1274510" data-name="Trazado 1274510" d="M30.168,111.857H28.291a.97.97,0,0,1-.967-.78.87.87,0,0,1,.573-1.063A8,8,0,0,1,30.565,110a.867.867,0,0,1,.623,1.082.96.96,0,0,1-1.02.776" transform="translate(-21.567 -86.808)" fill="#19538d"/>
        <path id="Trazado_1274511" data-name="Trazado 1274511" d="M143.309,123.8l-2.123.057a.953.953,0,0,1-1.027-.934.923.923,0,0,1,1.006-1l1.908,0a.947.947,0,0,1,.992.858c.054.331-.163,1.009-.755,1.025" transform="translate(-110.715 -96.307)" fill="#19538d"/>
        <path id="Trazado_1274512" data-name="Trazado 1274512" d="M30.168,156.9H28.291a.968.968,0,0,1-.968-.782c-.081-.36.064-.974.573-1.059a8.544,8.544,0,0,1,2.67-.015.866.866,0,0,1,.623,1.08.955.955,0,0,1-1.021.778" transform="translate(-21.567 -122.397)" fill="#19538d"/>
        <path id="Trazado_1274513" data-name="Trazado 1274513" d="M30.169,201.927l-1.879-.005a.969.969,0,0,1-.967-.783c-.081-.363.063-.969.571-1.054a8.268,8.268,0,0,1,2.669-.01.85.85,0,0,1,.625,1.071.96.96,0,0,1-1.019.782" transform="translate(-21.567 -157.964)" fill="#19538d"/>
        <path id="Trazado_1274514" data-name="Trazado 1274514" d="M110.368,101.254l-2,0a.956.956,0,0,1-.963-1,1.023,1.023,0,0,1,.962-.944l1.884-.007a.975.975,0,0,1,1.048.763.951.951,0,0,1-.927,1.195" transform="translate(-84.839 -78.437)" fill="#19538d"/>
        <path id="Trazado_1274515" data-name="Trazado 1274515" d="M110.5,123.567l-2.146.024a.985.985,0,0,1-.952-.784.885.885,0,0,1,.55-1.054c1.662-.354,3.426-.2,3.338.912-.027.339-.231.9-.791.9" transform="translate(-84.826 -96.043)" fill="#19538d"/>
        <path id="Trazado_1274516" data-name="Trazado 1274516" d="M285.589,122.11a.988.988,0,0,1,1.416.217,1.092,1.092,0,0,1-.347,1.408,1.012,1.012,0,0,1-1.221-.209.971.971,0,0,1,.153-1.416" transform="translate(-225.288 -96.298)" fill="#19538d"/>
        <path id="Trazado_1274517" data-name="Trazado 1274517" d="M133.923,193.391a1.023,1.023,0,0,1-1.2.74.955.955,0,0,1-.688-1.266l2.733-7.512a1.04,1.04,0,0,1,1.218-.588.991.991,0,0,1,.588,1.319Z" transform="translate(-104.248 -145.925)" fill="#19538d"/>
        <path id="Trazado_1274518" data-name="Trazado 1274518" d="M112.016,195.05a.989.989,0,1,1-1.4,1.393l-2.494-2.551c-.362-.371-.094-1,.23-1.32l2.326-2.293a1.043,1.043,0,0,1,1.379-.023.992.992,0,0,1,.012,1.421l-1.68,1.745Z" transform="translate(-85.276 -150.092)" fill="#19538d"/>
        <path id="Trazado_1274519" data-name="Trazado 1274519" d="M160.135,196.326a.99.99,0,0,1-1.451.093,1.017,1.017,0,0,1-.01-1.449l1.708-1.757-1.643-1.587a1.069,1.069,0,0,1-.28-1.207.964.964,0,0,1,1.433-.343l2.449,2.357a1.117,1.117,0,0,1,.046,1.632Z" transform="translate(-125.107 -149.992)" fill="#19538d"/>
        <path id="Trazado_1274520" data-name="Trazado 1274520" d="M102.794,24.848c.813,0,1.232.225,1.315.862a1.012,1.012,0,0,1-1,1.1l-23.27.013c-.732,0-1.109-.4-1.126-.944-.021-.655.368-1.022,1.122-1.023Z" transform="translate(-62.178 -19.628)" fill="#19538d"/>
        <path id="Trazado_1274521" data-name="Trazado 1274521" d="M211.92,26.823l-3.853.019a.978.978,0,0,1-1.053-.948.942.942,0,0,1,1.037-1.01l3.8-.007a.969.969,0,0,1,1.1.833.945.945,0,0,1-1.023,1.113" transform="translate(-163.527 -19.651)" fill="#19538d"/>
        <path id="Trazado_1274522" data-name="Trazado 1274522" d="M27.657,25.127a1,1,0,0,1,1.483.325,1.053,1.053,0,0,1-.331,1.24.972.972,0,0,1-1.152-1.565" transform="translate(-21.547 -19.691)" fill="#19538d"/>
        <path id="Trazado_1274523" data-name="Trazado 1274523" d="M59.533,25.116a1.006,1.006,0,0,1,1.342.285,1.092,1.092,0,0,1-.354,1.4.98.98,0,0,1-1.3-.337.934.934,0,0,1,.315-1.351" transform="translate(-46.651 -19.735)" fill="#19538d"/>
        <path id="Trazado_1274524" data-name="Trazado 1274524" d="M43.6,25.144a1,1,0,0,1,1.4.231,1.04,1.04,0,0,1-.342,1.387.988.988,0,0,1-1.216-.213.939.939,0,0,1,.159-1.4" transform="translate(-34.119 -19.715)" fill="#19538d"/>
      </g>
    </g>
  </g>
</svg>
