<svg xmlns="http://www.w3.org/2000/svg" xmlns:xlink="http://www.w3.org/1999/xlink" width="128" height="128" viewBox="0 0 128 128">
  <defs>
    <clipPath id="clip-path">
      <rect id="Rectángulo_456267" data-name="Rectángulo 456267" width="128" height="128" fill="none"/>
    </clipPath>
    <clipPath id="clip-path-2">
      <rect id="Rectángulo_464476" data-name="Rectángulo 464476" width="63.641" height="69.605" fill="#19538d"/>
    </clipPath>
  </defs>
  <g id="Grupo_1179906" data-name="Grupo 1179906" transform="translate(511.746 8527) rotate(180)">
    <path id="Trazado_999622" data-name="Trazado 999622" d="M59.07,0A59.07,59.07,0,1,1,0,59.07,59.071,59.071,0,0,1,59.07,0" transform="translate(388.676 8403.93)" fill="#fff"/>
    <g id="Grupo_1179902" data-name="Grupo 1179902" transform="translate(383.746 8399)">
      <g id="Grupo_1179905" data-name="Grupo 1179905" clip-path="url(#clip-path)">
        <path id="Trazado_999618" data-name="Trazado 999618" d="M64,0A64,64,0,1,1,0,64,64,64,0,0,1,64,0" fill="none"/>
        <path id="Trazado_999619" data-name="Trazado 999619" d="M5,59a5,5,0,1,1-5,5,5,5,0,0,1,5-5" fill="#19538d"/>
        <path id="Trazado_999620" data-name="Trazado 999620" d="M21,19a5,5,0,1,1-5,5,5,5,0,0,1,5-5" fill="#19538d"/>
        <path id="Trazado_999621" data-name="Trazado 999621" d="M64,124A60.068,60.068,0,0,1,4,64H7A57,57,0,1,0,22.408,25.024L20.22,22.972A60,60,0,1,1,64,124" fill="#19538d"/>
        <rect id="Rectángulo_456268" data-name="Rectángulo 456268" width="128" height="128" fill="none"/>
        <rect id="Rectángulo_456269" data-name="Rectángulo 456269" width="128" height="128" fill="none"/>
      </g>
    </g>
    <g id="Grupo_1211812" data-name="Grupo 1211812" transform="translate(480.001 8497.803) rotate(180)">
      <g id="Grupo_1211811" data-name="Grupo 1211811" clip-path="url(#clip-path-2)">
        <path id="Trazado_1274471" data-name="Trazado 1274471" d="M61.232,5.972A2.372,2.372,0,0,1,63.641,8.5V41.926a2.37,2.37,0,0,1-2.334,2.524l-17.96.047a2.985,2.985,0,0,0-.977,1.46l4.237,4.169c.824-.112,1.855-.374,2.566.342l10.812,10.9c1.827,1.842,1.395,4.915-.259,6.635-1.766,1.835-4.908,2.256-6.769.419l-3.837-3.788a1.02,1.02,0,0,1,.164-1.39,1.061,1.061,0,0,1,1.367.082l3.617,3.538a2.834,2.834,0,0,0,4-.311,2.9,2.9,0,0,0,.087-4.01L47.7,51.86l-4.236,4.227,3.818,3.858a1.015,1.015,0,0,1,.072,1.358.918.918,0,0,1-1.385.175L42.36,57.933a2.863,2.863,0,0,1-.63-2.917l-4.11-4.195A20.169,20.169,0,0,1,21.277,54.25,11.183,11.183,0,0,1,.042,52.822c-.153-.732.11-1.294.782-1.367a1.051,1.051,0,0,1,1.217.923A9.1,9.1,0,0,0,11.962,59.2a9.132,9.132,0,1,0-9.923-11.4c-.185.677-.594.989-1.2.891-2.353-.383,1.118-7.123,5.411-8.738a20.129,20.129,0,0,1,7.875-21.835,12.729,12.729,0,0,1,22.3-12.177l14.864.037a1.016,1.016,0,0,1,.956,1.076,1.073,1.073,0,0,1-1.114.966l-13.645.023a12.513,12.513,0,0,1,.907,5.078l10.5.027a.976.976,0,0,1,1.037,1.089c-.05.722-.634.949-1.389.948l-10.375,0a17.32,17.32,0,0,1-.96,2.943,32.789,32.789,0,0,1,2.633,2.151l9.1.007a.967.967,0,0,1,.991.918,1,1,0,0,1-.991,1.132l-7.256.03a22.28,22.28,0,0,1,2.774,5.021l4.521.028a1.048,1.048,0,0,1,.982.962.988.988,0,0,1-.883,1.065l-3.9.088a20.86,20.86,0,0,1,.583,5.256l3.22.013a1.041,1.041,0,0,1,.981.968,1.06,1.06,0,0,1-1.188,1.057L45.7,36.8a20.783,20.783,0,0,1-1.5,5.634l17.431-.007,0-34.3-5.654-.129A.97.97,0,0,1,55,7.059c-.035-.444.195-1.072.795-1.074ZM26.64,12.862A3.315,3.315,0,0,1,30.977,11.2a3.194,3.194,0,0,1,1.693,3.948,3.239,3.239,0,0,1-4.163,1.96l0,8.075c.481.139,1.348.212,1.622-.092a18.518,18.518,0,0,1,3.089-4.772A10.7,10.7,0,1,0,17.67,19.8a17.176,17.176,0,0,1,3.512,5.4,4.065,4.065,0,0,0,1.689-.006l-.047-8.074a3.241,3.241,0,0,1-4.146-1.932,3.2,3.2,0,0,1,6.01-2.188c.494.1,1.674.324,1.952-.131m-5.661.326a1.093,1.093,0,0,0-.172,1.627,1.14,1.14,0,0,0,1.884-1.266,1.178,1.178,0,0,0-1.712-.361M29,13.156a1.157,1.157,0,0,0-.2,1.708,1.19,1.19,0,0,0,1.463.2,1.127,1.127,0,0,0,.353-1.6A1.145,1.145,0,0,0,29,13.156M26.483,25.119l-.022-9.9a2.574,2.574,0,0,0-1.609,0v9.963a2.463,2.463,0,0,0,1.63-.064M11.59,38.871a14.8,14.8,0,0,1,5.725-16.38l-2.2-2.579A18.082,18.082,0,0,0,8.2,39.289a15.979,15.979,0,0,1,3.394-.418m10.442,10a19.587,19.587,0,0,1-.181,3.428A18.089,18.089,0,0,0,36.21,19.917l-2.2,2.6A14.7,14.7,0,0,1,22.033,48.867M28.7,38.27c-.639,1.241-2.011,1.1-3.184,1.129-1.289.029-2.437-.166-3.053-1.381L21.02,35.163a2.642,2.642,0,0,1-2.084-2.782,6.914,6.914,0,0,1,.438-2.127,4.63,4.63,0,0,1,.036-3.946,5.652,5.652,0,0,0-1.039-2.06,12.709,12.709,0,0,0-4.43,15.107,11.394,11.394,0,0,1,7.519,7.168A12.638,12.638,0,0,0,32.912,24.247a7.376,7.376,0,0,0-.986,2.054,4.261,4.261,0,0,1-.076,4.04,2.952,2.952,0,0,1,.538,2.017,2.731,2.731,0,0,1-2.1,2.845Zm1.437-9.049a1.834,1.834,0,0,0-.1-1.858l-8.818.013c-.363.374-.357,1.75.111,1.754Zm-.056,4a1.7,1.7,0,0,0-.054-1.913l-8.8.007a1.569,1.569,0,0,0,.056,1.811Zm-3.211,3.935a4.7,4.7,0,0,0,1.044-1.905H23.373l1.1,2.082c.71.011,1.807.29,2.4-.176M43.2,53.472l1.866-1.883-4.024-4-1.834,1.891Z" transform="translate(0 0)" fill="#19538d"/>
        <path id="Trazado_1274472" data-name="Trazado 1274472" d="M26.754,220.582l-4.009-4.351a1.085,1.085,0,0,1-.1-1.366c.271-.354,1.068-.595,1.435-.191l3.27,3.608,5-5.954a1.123,1.123,0,0,1,1.378-.244,1.019,1.019,0,0,1,.262,1.455l-5.849,6.954a.976.976,0,0,1-1.388.088" transform="translate(-17.57 -165.886)" fill="#19538d"/>
        <path id="Trazado_1274473" data-name="Trazado 1274473" d="M245.582,157l-3.15,0a1.386,1.386,0,0,1-1.387-1.5l.008-2.838a1.454,1.454,0,0,1,1.584-1.482l2.811.011a1.365,1.365,0,0,1,1.412,1.377l.008,2.986A1.355,1.355,0,0,1,245.582,157m-.75-1.977a5.794,5.794,0,0,0-.027-1.709,4.176,4.176,0,0,0-1.709.015v1.679Z" transform="translate(-188.658 -118.323)" fill="#19538d"/>
        <path id="Trazado_1274474" data-name="Trazado 1274474" d="M241.24,54.346l-1.968-1.975a.957.957,0,0,1,.156-1.364c.87-.7,1.414.183,2.365.957l2.169-2.848a1.034,1.034,0,0,1,1.393-.1,1.058,1.058,0,0,1,.153,1.432l-2.894,3.836a.927.927,0,0,1-1.374.063" transform="translate(-187.095 -38.189)" fill="#19538d"/>
        <path id="Trazado_1274475" data-name="Trazado 1274475" d="M239.364,118.109a.967.967,0,0,1,.075-1.435c.871-.724,1.415.148,2.368.961l2.153-2.847a1,1,0,0,1,1.616,1.173l-2.772,3.747a1.082,1.082,0,0,1-1.653.2Z" transform="translate(-187.118 -89.533)" fill="#19538d"/>
        <path id="Trazado_1274476" data-name="Trazado 1274476" d="M241.179,87.141l-1.905-1.908a.952.952,0,0,1,.141-1.373,1.071,1.071,0,0,1,1.4.065l.955.9,2.282-2.951c.3-.387,1.044-.268,1.343-.037a1.063,1.063,0,0,1,.176,1.314l-2.887,3.861a1.009,1.009,0,0,1-1.5.128" transform="translate(-187.088 -63.884)" fill="#19538d"/>
      </g>
    </g>
  </g>
</svg>
