<svg xmlns="http://www.w3.org/2000/svg" xmlns:xlink="http://www.w3.org/1999/xlink" width="160" height="160" viewBox="0 0 160 160">
  <defs>
    <clipPath id="clip-path">
      <rect id="Rectángulo_456312" data-name="Rectángulo 456312" width="160" height="160" fill="none"/>
    </clipPath>
    <clipPath id="clip-path-3">
      <rect id="Rectángulo_464482" data-name="Rectángulo 464482" width="85.962" height="76.366" fill="#19538d"/>
    </clipPath>
  </defs>
  <g id="Grupo_1179962" data-name="Grupo 1179962" transform="translate(-422.059 -9435)">
    <g id="Grupo_1179959" data-name="Grupo 1179959" transform="translate(422.059 9435)" clip-path="url(#clip-path)">
      <path id="Trazado_999654" data-name="Trazado 999654" d="M1.5,5.146H131.567a19.711,19.711,0,0,1,19.757,19.663V154.256H21.257A19.711,19.711,0,0,1,1.5,134.593Z" transform="translate(0.97 3.287)" fill="#fff"/>
    </g>
    <g id="Grupo_1179960" data-name="Grupo 1179960" transform="translate(422.059 9435)">
      <g id="Grupo_1179956" data-name="Grupo 1179956" clip-path="url(#clip-path)">
        <path id="Trazado_999651" data-name="Trazado 999651" d="M95.413,30a8.193,8.193,0,1,1-8.232,8.193A8.213,8.213,0,0,1,95.413,30" transform="translate(56.355 19.158)" fill="#19538d"/>
        <path id="Trazado_999652" data-name="Trazado 999652" d="M66.413,0a8.193,8.193,0,1,1-8.232,8.193A8.213,8.213,0,0,1,66.413,0" transform="translate(37.609 0)" fill="#19538d"/>
        <path id="Trazado_999653" data-name="Trazado 999653" d="M151.324,54.064V154.256H21.257A19.711,19.711,0,0,1,1.5,134.593V5.146H104.167" transform="translate(0.97 3.287)" fill="none" stroke="#19538d" stroke-miterlimit="10" stroke-width="4"/>
      </g>
    </g>
    <g id="Grupo_1211824" data-name="Grupo 1211824" transform="translate(458.077 9481.91)">
      <g id="Grupo_1211823" data-name="Grupo 1211823" clip-path="url(#clip-path-3)">
        <path id="Trazado_1274530" data-name="Trazado 1274530" d="M56.807,76.366l-27.773-.008a2.508,2.508,0,0,1-.038-5l3.96-.035.022-9.543L7.281,61.7A7.469,7.469,0,0,1,0,53.972L.02,7.518C.021,3.692,3,0,7.013,0h71.94c4.012,0,6.99,3.694,6.992,7.517l.019,46.459c0,4-2.906,7.669-7.039,7.688l-25.937.122.022,9.542,3.691.021a2.509,2.509,0,1,1,.108,5.017m24.082-31L80.9,7.544A2.5,2.5,0,0,0,78.5,4.93H7.684A2.522,2.522,0,0,0,5.067,7.537l.012,37.836ZM78.755,56.684c1.266-.3,2.1-1.109,2.1-2.157l-.015-4.148H5.126l.032,4.377c.008,1.035,1.064,1.769,2.152,1.928ZM47.934,71.355l-.026-9.607H38.052l0,9.617Z" transform="translate(0)" fill="#19538d"/>
        <path id="Trazado_1274531" data-name="Trazado 1274531" d="M76.37,79.623A2.463,2.463,0,0,1,77.1,82.97a2.387,2.387,0,0,1-3.269.946L63.58,76.982a2.53,2.53,0,0,1,.084-4.092L73.7,66.055a2.462,2.462,0,0,1,3.336.774,2.51,2.51,0,0,1-.685,3.469L69.587,74.99Z" transform="translate(-45.768 -48.041)" fill="#19538d"/>
        <path id="Trazado_1274532" data-name="Trazado 1274532" d="M205.761,83.855a2.369,2.369,0,0,1-3.261-.729,2.465,2.465,0,0,1,.544-3.449l6.859-4.7-6.765-4.69a2.512,2.512,0,0,1-.788-3.3,2.461,2.461,0,0,1,3.438-.941l10.042,6.832a2.519,2.519,0,0,1,1.077,1.878,2.457,2.457,0,0,1-1,2.207Z" transform="translate(-147.762 -48.033)" fill="#19538d"/>
        <path id="Trazado_1274533" data-name="Trazado 1274533" d="M136.566,78.857a2.573,2.573,0,0,1-3.247,1.393c-1.06-.376-2.172-1.95-1.434-3.269l10.275-18.364a2.525,2.525,0,0,1,3.325-.921,2.459,2.459,0,0,1,1.039,3.408Z" transform="translate(-96.283 -41.998)" fill="#19538d"/>
      </g>
    </g>
  </g>
</svg>
