<svg xmlns="http://www.w3.org/2000/svg" xmlns:xlink="http://www.w3.org/1999/xlink" width="160" height="160" viewBox="0 0 160 160">
  <defs>
    <clipPath id="clip-path">
      <rect id="Rectángulo_456312" data-name="Rectángulo 456312" width="160" height="160" fill="none"/>
    </clipPath>
    <clipPath id="clip-path-3">
      <rect id="Rectángulo_464483" data-name="Rectángulo 464483" width="71.515" height="97.941" fill="#19538d"/>
    </clipPath>
  </defs>
  <g id="Grupo_1211778" data-name="Grupo 1211778" transform="translate(-422.059 -9435)">
    <g id="Grupo_1179959" data-name="Grupo 1179959" transform="translate(422.059 9435)" clip-path="url(#clip-path)">
      <path id="Trazado_999654" data-name="Trazado 999654" d="M1.5,5.146H131.567a19.711,19.711,0,0,1,19.757,19.663V154.256H21.257A19.711,19.711,0,0,1,1.5,134.593Z" transform="translate(0.97 3.287)" fill="#fff"/>
    </g>
    <g id="Grupo_1179960" data-name="Grupo 1179960" transform="translate(422.059 9435)">
      <g id="Grupo_1179956" data-name="Grupo 1179956" clip-path="url(#clip-path)">
        <path id="Trazado_999651" data-name="Trazado 999651" d="M95.413,30a8.193,8.193,0,1,1-8.232,8.193A8.213,8.213,0,0,1,95.413,30" transform="translate(56.355 19.158)" fill="#19538d"/>
        <path id="Trazado_999652" data-name="Trazado 999652" d="M66.413,0a8.193,8.193,0,1,1-8.232,8.193A8.213,8.213,0,0,1,66.413,0" transform="translate(37.609 0)" fill="#19538d"/>
        <path id="Trazado_999653" data-name="Trazado 999653" d="M151.324,54.064V154.256H21.257A19.711,19.711,0,0,1,1.5,134.593V5.146H104.167" transform="translate(0.97 3.287)" fill="none" stroke="#19538d" stroke-miterlimit="10" stroke-width="4"/>
      </g>
    </g>
    <g id="Grupo_1211826" data-name="Grupo 1211826" transform="translate(464.311 9470.061)">
      <g id="Grupo_1211825" data-name="Grupo 1211825" clip-path="url(#clip-path-3)">
        <path id="Trazado_1274534" data-name="Trazado 1274534" d="M66.646,97.921l-61.623.02A4.862,4.862,0,0,1,.035,93.295L0,4.629A4.928,4.928,0,0,1,4.727,0L57.575.02,71.51,14.048l.006,79.247a4.873,4.873,0,0,1-4.869,4.627m1.613-5.178v-76.4l-8.145-.028a4.938,4.938,0,0,1-4.858-4.68l-.013-8.36-50.217,0A1.652,1.652,0,0,0,3.265,5V92.916A1.641,1.641,0,0,0,5.035,94.64H66.487a1.66,1.66,0,0,0,1.772-1.9M60.17,13.107l5.647-.178-7.2-7.245L58.5,11.337a1.848,1.848,0,0,0,1.673,1.77" fill="#19538d"/>
        <path id="Trazado_1274535" data-name="Trazado 1274535" d="M85.619,147.279l-30.641-.011a1.6,1.6,0,0,1-1.611-1.581,1.624,1.624,0,0,1,1.559-1.663H85.94a1.6,1.6,0,0,1,1.528,1.656c-.01,1-.723,1.6-1.849,1.6" transform="translate(-37.11 -99.944)" fill="#19538d"/>
        <path id="Trazado_1274536" data-name="Trazado 1274536" d="M85.619,227.279l-30.641-.011a1.6,1.6,0,0,1-1.611-1.581,1.624,1.624,0,0,1,1.559-1.663H85.94a1.6,1.6,0,0,1,1.528,1.656c-.01,1-.723,1.6-1.849,1.6" transform="translate(-37.11 -155.46)" fill="#19538d"/>
        <path id="Trazado_1274537" data-name="Trazado 1274537" d="M127.444,253.876l-24.794-.027c-.83,0-1.177-.93-1.223-1.448-.053-.594.321-1.706,1.222-1.708l24.654-.047a1.649,1.649,0,0,1,1.7,1.525,1.584,1.584,0,0,1-1.561,1.7" transform="translate(-70.526 -173.935)" fill="#19538d"/>
        <path id="Trazado_1274538" data-name="Trazado 1274538" d="M77.475,93.9,54.65,93.849c-.912,0-1.271-1.11-1.217-1.686a1.5,1.5,0,0,1,1.507-1.489l22.534-.016c1.138,0,1.832.511,1.894,1.478.072,1.126-.637,1.772-1.892,1.769" transform="translate(-37.152 -62.912)" fill="#19538d"/>
        <path id="Trazado_1274539" data-name="Trazado 1274539" d="M74.8,200.618l-19.89-.026a1.619,1.619,0,0,1-1.552-1.654,1.579,1.579,0,0,1,1.6-1.567l19.914.028c.8,0,1.253.994,1.242,1.525a1.692,1.692,0,0,1-1.313,1.695" transform="translate(-37.106 -136.964)" fill="#19538d"/>
        <path id="Trazado_1274540" data-name="Trazado 1274540" d="M72.694,120.615l-17.782-.02a1.618,1.618,0,0,1-1.551-1.653,1.576,1.576,0,0,1,1.6-1.566l18.1.016a1.622,1.622,0,0,1-.359,3.223" transform="translate(-37.105 -81.453)" fill="#19538d"/>
        <path id="Trazado_1274541" data-name="Trazado 1274541" d="M152.694,120.615l-17.782-.02a1.618,1.618,0,0,1-1.551-1.653,1.576,1.576,0,0,1,1.6-1.566l18.1.016a1.622,1.622,0,0,1-.359,3.223" transform="translate(-92.735 -81.453)" fill="#19538d"/>
        <path id="Trazado_1274542" data-name="Trazado 1274542" d="M71.18,280.6,54.909,280.6a1.622,1.622,0,0,1-1.549-1.654,1.577,1.577,0,0,1,1.6-1.566l16.578.021c.838,0,1.292.95,1.308,1.556A1.607,1.607,0,0,1,71.18,280.6" transform="translate(-37.105 -192.484)" fill="#19538d"/>
        <path id="Trazado_1274543" data-name="Trazado 1274543" d="M130.293,173.825l-16.585.062a1.529,1.529,0,0,1-1.6-1.463,1.55,1.55,0,0,1,1.6-1.752l16.154-.023a1.723,1.723,0,0,1,1.679,1.3c.174.551-.208,1.873-1.25,1.877" transform="translate(-77.952 -118.422)" fill="#19538d"/>
        <path id="Trazado_1274544" data-name="Trazado 1274544" d="M104.012,44.732a1.639,1.639,0,0,1-2.1.056,1.516,1.516,0,0,1-.235-2.231l3.86-3.908-3.959-4.063a1.537,1.537,0,0,1,.467-2.189,1.77,1.77,0,0,1,2.253.358l4.7,4.774a1.607,1.607,0,0,1-.025,2.257Z" transform="translate(-70.426 -22.302)" fill="#19538d"/>
        <path id="Trazado_1274545" data-name="Trazado 1274545" d="M28.844,42.071a1.678,1.678,0,0,1,.217,2.391,1.56,1.56,0,0,1-2.27.145l-5.039-5.043a1.568,1.568,0,0,1,.108-2.178l4.886-4.9A1.615,1.615,0,0,1,29,32.418a1.675,1.675,0,0,1,.038,2.378l-3.709,3.748Z" transform="translate(-14.853 -22.203)" fill="#19538d"/>
        <path id="Trazado_1274546" data-name="Trazado 1274546" d="M61.669,44.409a1.646,1.646,0,0,1-2.383.285,1.72,1.72,0,0,1-.16-2.377l6.606-9.848c.422-.63,1.529-.411,1.981-.2a1.606,1.606,0,0,1,.565,2.126Z" transform="translate(-40.839 -22.244)" fill="#19538d"/>
        <path id="Trazado_1274547" data-name="Trazado 1274547" d="M66.375,173.89l-11.739-.06c-.891,0-1.259-1.065-1.2-1.674a1.5,1.5,0,0,1,1.494-1.482l11.294-.021a1.6,1.6,0,0,1,1.8,1.5,1.552,1.552,0,0,1-1.645,1.737" transform="translate(-37.151 -118.424)" fill="#19538d"/>
        <path id="Trazado_1274548" data-name="Trazado 1274548" d="M185.777,147.215H177.8a1.649,1.649,0,0,1-1.658-1.58c-.034-1.11.734-1.7,1.9-1.691l7.919.035a1.625,1.625,0,0,1,1.53,1.652,1.6,1.6,0,0,1-1.714,1.584" transform="translate(-122.484 -99.89)" fill="#19538d"/>
        <path id="Trazado_1274549" data-name="Trazado 1274549" d="M62.868,253.891l-8.234-.079c-.89-.009-1.256-1.039-1.2-1.67a1.492,1.492,0,0,1,1.491-1.479l7.945-.028c1.109,0,1.813.532,1.882,1.487.079,1.094-.657,1.781-1.883,1.77" transform="translate(-37.152 -173.928)" fill="#19538d"/>
        <path id="Trazado_1274550" data-name="Trazado 1274550" d="M182.687,227.18l-5.122-.007a1.562,1.562,0,0,1-1.408-1.83c.1-.924.829-1.4,1.889-1.393l4.566.014a1.609,1.609,0,0,1,.076,3.217" transform="translate(-122.487 -155.41)" fill="#19538d"/>
        <path id="Trazado_1274551" data-name="Trazado 1274551" d="M193.78,173.821l-5.327.1a1.606,1.606,0,1,1,0-3.206l5.2.051c.794.008,1.153.838,1.2,1.43.045.529-.2,1.606-1.069,1.623" transform="translate(-129.859 -118.468)" fill="#19538d"/>
        <path id="Trazado_1274552" data-name="Trazado 1274552" d="M26.883,120.4a13.508,13.508,0,0,1-4.225.084,1.579,1.579,0,0,1-1.247-1.85,1.678,1.678,0,0,1,1.825-1.318l2.976.008a1.67,1.67,0,0,1,1.551,1.054,1.516,1.516,0,0,1-.88,2.022" transform="translate(-14.873 -81.411)" fill="#19538d"/>
        <path id="Trazado_1274553" data-name="Trazado 1274553" d="M26.337,147.226l-3.366.019a1.548,1.548,0,0,1-1.58-1.567,1.6,1.6,0,0,1,1.529-1.651l3.339-.017a1.609,1.609,0,0,1,.079,3.216" transform="translate(-14.874 -99.935)" fill="#19538d"/>
        <path id="Trazado_1274554" data-name="Trazado 1274554" d="M26.883,200.4a13.508,13.508,0,0,1-4.225.084,1.579,1.579,0,0,1-1.247-1.85,1.678,1.678,0,0,1,1.825-1.318l2.976.008a1.67,1.67,0,0,1,1.551,1.054,1.516,1.516,0,0,1-.88,2.022" transform="translate(-14.873 -136.927)" fill="#19538d"/>
        <path id="Trazado_1274555" data-name="Trazado 1274555" d="M26.337,227.225l-3.366.019a1.548,1.548,0,0,1-1.58-1.567,1.6,1.6,0,0,1,1.529-1.651l3.34-.017a1.609,1.609,0,0,1,.078,3.217" transform="translate(-14.874 -155.45)" fill="#19538d"/>
        <path id="Trazado_1274556" data-name="Trazado 1274556" d="M26.883,280.4a13.508,13.508,0,0,1-4.225.084,1.579,1.579,0,0,1-1.247-1.85,1.678,1.678,0,0,1,1.825-1.318l2.976.008a1.67,1.67,0,0,1,1.551,1.054,1.516,1.516,0,0,1-.88,2.022" transform="translate(-14.873 -192.443)" fill="#19538d"/>
        <path id="Trazado_1274557" data-name="Trazado 1274557" d="M26.953,93.571a13.155,13.155,0,0,1-4.569.036c-.75-.113-1-1.072-.953-1.591.149-1.8,2.167-1.655,5.155-1.439a1.417,1.417,0,0,1,1.262,1.149c.144.586,0,1.659-.9,1.845" transform="translate(-14.899 -62.77)" fill="#19538d"/>
        <path id="Trazado_1274558" data-name="Trazado 1274558" d="M26.953,173.853a13.155,13.155,0,0,1-4.569.036c-.75-.113-1-1.072-.953-1.591.05-.6.406-1.427,1.2-1.429l3.954-.01a1.36,1.36,0,0,1,1.262,1.149c.144.586,0,1.659-.9,1.845" transform="translate(-14.899 -118.567)" fill="#19538d"/>
        <path id="Trazado_1274559" data-name="Trazado 1274559" d="M26.953,253.853a13.155,13.155,0,0,1-4.569.036c-.75-.113-1-1.072-.953-1.591.05-.6.406-1.427,1.2-1.429l3.954-.01a1.36,1.36,0,0,1,1.262,1.149c.144.586,0,1.659-.9,1.845" transform="translate(-14.899 -174.083)" fill="#19538d"/>
      </g>
    </g>
  </g>
</svg>
