<svg xmlns="http://www.w3.org/2000/svg" xmlns:xlink="http://www.w3.org/1999/xlink" width="130" height="130" viewBox="0 0 130 130">
  <defs>
    <clipPath id="clip-path">
      <rect id="Rectángulo_456267" data-name="Rectángulo 456267" width="130" height="130" fill="none"/>
    </clipPath>
    <clipPath id="clip-path-2">
      <rect id="Rectángulo_464484" data-name="Rectángulo 464484" width="62.748" height="62.729" fill="#19538d"/>
    </clipPath>
  </defs>
  <g id="Grupo_1211779" data-name="Grupo 1211779" transform="translate(513.746 8529) rotate(180)">
    <path id="Trazado_999622" data-name="Trazado 999622" d="M60.629,0A60.629,60.629,0,1,1,0,60.629,60.629,60.629,0,0,1,60.629,0" transform="translate(388.117 8403.371)" fill="#e1f5ff"/>
    <g id="Grupo_1179902" data-name="Grupo 1179902" transform="translate(383.746 8399)">
      <g id="Grupo_1179905" data-name="Grupo 1179905" clip-path="url(#clip-path)">
        <path id="Trazado_999618" data-name="Trazado 999618" d="M65,0A65,65,0,1,1,0,65,65,65,0,0,1,65,0" fill="none"/>
        <path id="Trazado_999619" data-name="Trazado 999619" d="M5.078,59A5.078,5.078,0,1,1,0,64.078,5.079,5.079,0,0,1,5.078,59" transform="translate(0 0.922)" fill="#19538d"/>
        <path id="Trazado_999620" data-name="Trazado 999620" d="M21.078,19A5.078,5.078,0,1,1,16,24.078,5.079,5.079,0,0,1,21.078,19" transform="translate(0.25 0.297)" fill="#19538d"/>
        <path id="Trazado_999621" data-name="Trazado 999621" d="M64.938,125.875A61.007,61.007,0,0,1,4,64.938H7.047A57.89,57.89,0,1,0,22.7,25.353l-2.222-2.084A60.937,60.937,0,1,1,64.938,125.875" transform="translate(0.063 0.063)" fill="#19538d"/>
        <rect id="Rectángulo_456268" data-name="Rectángulo 456268" width="130" height="130" fill="none"/>
        <rect id="Rectángulo_456269" data-name="Rectángulo 456269" width="130" height="130" fill="none"/>
      </g>
    </g>
    <g id="Grupo_1211828" data-name="Grupo 1211828" transform="translate(480.12 8495.365) rotate(180)">
      <g id="Grupo_1211827" data-name="Grupo 1211827" clip-path="url(#clip-path-2)">
        <path id="Trazado_1274560" data-name="Trazado 1274560" d="M57.05,62.729H5.7A5.713,5.713,0,0,1,0,57.03L0,5.668A5.653,5.653,0,0,1,5.5,0H57.252a5.614,5.614,0,0,1,5.478,5.472l.017,51.557a5.716,5.716,0,0,1-5.7,5.7M30.144,30.112V2.481L5.316,2.5A3.292,3.292,0,0,0,2.479,5.672l0,24.449ZM60.268,5.567A3.293,3.293,0,0,0,57.43,2.5L32.6,2.48l0,27.637,27.662,0ZM30.146,60.235,30.14,32.585,2.483,32.579l0,24.061A3.291,3.291,0,0,0,5.7,60.228ZM60.27,56.948l-.005-24.369-27.657,0,0,27.666,24.445-.023a3.259,3.259,0,0,0,3.221-3.279" transform="translate(0)" fill="#19538d"/>
        <path id="Trazado_1274561" data-name="Trazado 1274561" d="M201.054,70.32l-14.031.024a3.676,3.676,0,0,1-3.641-3.648,3.616,3.616,0,0,1,3.446-3.778h14.313a3.71,3.71,0,0,1-.087,7.4m-.213-2.47a1.218,1.218,0,0,0,1.24-1.3,1.234,1.234,0,0,0-1.327-1.178l-13.534,0a1.252,1.252,0,0,0-1.342,1.34,1.273,1.273,0,0,0,1.35,1.154Z" transform="translate(-147.411 -50.577)" fill="#19538d"/>
        <path id="Trazado_1274562" data-name="Trazado 1274562" d="M221.807,22.1l-14.673,0a1.36,1.36,0,0,1-1.281-1.218,1.264,1.264,0,0,1,1.4-1.329l14.7.015a1.257,1.257,0,0,1,1.263,1.309,1.3,1.3,0,0,1-1.408,1.22" transform="translate(-165.476 -15.72)" fill="#19538d"/>
        <path id="Trazado_1274563" data-name="Trazado 1274563" d="M178.213,22.037c-1.772.307-3.487.123-3.55-1.164a1.236,1.236,0,0,1,1.224-1.311l1.978-.012a1.294,1.294,0,0,1,1.362.961,1.223,1.223,0,0,1-1.015,1.526" transform="translate(-140.403 -15.715)" fill="#19538d"/>
        <path id="Trazado_1274564" data-name="Trazado 1274564" d="M43.4,45.319a3.745,3.745,0,0,1-7.481.075L35.9,42.062l-3.152-.007a3.745,3.745,0,0,1-3.691-3.832,3.909,3.909,0,0,1,4.082-3.66l2.757-.022.024-3.28a3.753,3.753,0,0,1,7.5.194l.017,3.062a17.815,17.815,0,0,0,2.668.046,3.759,3.759,0,1,1,.409,7.5l-3.094,0ZM40.89,45.2l.021-4.327a1.233,1.233,0,0,1,1.282-1.309l4.3-.012a1.239,1.239,0,0,0,1.245-1.319A1.2,1.2,0,0,0,46.5,37.082l-4.436-.037a1.21,1.21,0,0,1-1.142-1.26l-.005-4.251a1.2,1.2,0,0,0-1.384-1.285,1.256,1.256,0,0,0-1.114,1.4l0,4.119A1.249,1.249,0,0,1,37.2,37.056l-4.254.007a1.257,1.257,0,1,0,0,2.5l4.119-.012a1.308,1.308,0,0,1,1.35,1.328l0,4.117a1.239,1.239,0,0,0,1.112,1.39A1.224,1.224,0,0,0,40.89,45.2" transform="translate(-23.355 -22.274)" fill="#19538d"/>
        <path id="Trazado_1274565" data-name="Trazado 1274565" d="M206.454,199.458l-10.323,0a3.69,3.69,0,0,1-3.609-3.631,3.621,3.621,0,0,1,3.416-3.78l10.791.005a3.593,3.593,0,0,1,3.392,3.772,3.681,3.681,0,0,1-3.666,3.638m-.026-2.491a1.241,1.241,0,0,0-.1-2.48l-10,0a1.234,1.234,0,0,0-1.3,1.318,1.252,1.252,0,0,0,1.295,1.184Z" transform="translate(-154.759 -154.375)" fill="#19538d"/>
        <path id="Trazado_1274566" data-name="Trazado 1274566" d="M206.8,249.319l-10.661.048a3.738,3.738,0,0,1-3.6-3.4c-.163-1.838,1.178-3.964,3.207-3.964l11.185,0c1.893,0,3.175,1.909,3.2,3.595a3.607,3.607,0,0,1-3.328,3.721m-.459-2.428A1.252,1.252,0,0,0,207.6,245.6a1.187,1.187,0,0,0-1.116-1.2l-10.141-.02a1.259,1.259,0,1,0-.019,2.517Z" transform="translate(-154.759 -194.537)" fill="#19538d"/>
        <path id="Trazado_1274567" data-name="Trazado 1274567" d="M53.146,201.523a3.972,3.972,0,0,1-5.541,5.643l-2.822-2.752L42.1,207.042a4,4,0,0,1-5.66-5.653l2.639-2.689-2.311-2.283a4.084,4.084,0,0,1-.5-5.5,3.944,3.944,0,0,1,5.531-.712l2.929,2.838,2.7-2.643a4,4,0,0,1,5.554,5.76l-2.567,2.586Zm-2.036,1.449L47.9,199.784c-.417-.414-.749-1.249-.274-1.735l3.584-3.662a1.5,1.5,0,0,0-2.118-2.111l-3.551,3.5a1.178,1.178,0,0,1-1.644-.02l-3.327-3.33a1.51,1.51,0,0,0-2.157-.145,1.479,1.479,0,0,0-.063,2.162l3.414,3.45a1.18,1.18,0,0,1,.054,1.6l-3.593,3.659a1.5,1.5,0,0,0,2.205,2.023l3.657-3.594c.443-.435,1.227-.167,1.614.213l3.563,3.5a1.405,1.405,0,0,0,2.019-.342,1.529,1.529,0,0,0-.178-1.986" transform="translate(-28.445 -152.22)" fill="#19538d"/>
      </g>
    </g>
  </g>
</svg>
