<svg xmlns="http://www.w3.org/2000/svg" xmlns:xlink="http://www.w3.org/1999/xlink" width="128" height="128" viewBox="0 0 128 128">
  <defs>
    <clipPath id="clip-path">
      <rect id="Rectángulo_456267" data-name="Rectángulo 456267" width="128" height="128" fill="none"/>
    </clipPath>
    <clipPath id="clip-path-2">
      <rect id="Rectángulo_464458" data-name="Rectángulo 464458" width="72.241" height="72.26" fill="#19538d"/>
    </clipPath>
  </defs>
  <g id="Grupo_1211626" data-name="Grupo 1211626" transform="translate(511.746 8527) rotate(180)">
    <path id="Trazado_999622" data-name="Trazado 999622" d="M59.07,0A59.07,59.07,0,1,1,0,59.07,59.071,59.071,0,0,1,59.07,0" transform="translate(388.676 8403.93)" fill="#fff"/>
    <g id="Grupo_1179902" data-name="Grupo 1179902" transform="translate(383.746 8399)">
      <g id="Grupo_1179905" data-name="Grupo 1179905" clip-path="url(#clip-path)">
        <path id="Trazado_999618" data-name="Trazado 999618" d="M64,0A64,64,0,1,1,0,64,64,64,0,0,1,64,0" fill="none"/>
        <path id="Trazado_999619" data-name="Trazado 999619" d="M5,59a5,5,0,1,1-5,5,5,5,0,0,1,5-5" fill="#19538d"/>
        <path id="Trazado_999620" data-name="Trazado 999620" d="M21,19a5,5,0,1,1-5,5,5,5,0,0,1,5-5" fill="#19538d"/>
        <path id="Trazado_999621" data-name="Trazado 999621" d="M64,124A60.068,60.068,0,0,1,4,64H7A57,57,0,1,0,22.408,25.024L20.22,22.972A60,60,0,1,1,64,124" fill="#19538d"/>
        <rect id="Rectángulo_456268" data-name="Rectángulo 456268" width="128" height="128" fill="none"/>
        <rect id="Rectángulo_456269" data-name="Rectángulo 456269" width="128" height="128" fill="none"/>
      </g>
    </g>
    <g id="Grupo_1211776" data-name="Grupo 1211776" transform="translate(483.867 8499.131) rotate(180)">
      <g id="Grupo_1211775" data-name="Grupo 1211775" clip-path="url(#clip-path-2)">
        <path id="Trazado_1274333" data-name="Trazado 1274333" d="M31.508,60.758l3.545-.026V51.239l-12.514-.017-3.173,3.147a5.734,5.734,0,1,1-1.5-1.5l3.143-3.087.017-12.595-9.516,0-.037,3.638a1.066,1.066,0,0,1-1.083,1.02l-9.27,0a1.048,1.048,0,0,1-1.115-1V31.383a1.062,1.062,0,0,1,1.117-1l9.269.014a1.094,1.094,0,0,1,1.093,1.215l.03,3.448,9.514,0-.017-12.6-3.139-3.085a5.7,5.7,0,1,1,1.5-1.484c1.119.942,1.99,2.342,3.228,3.04l4.856.167a.9.9,0,0,1,.794,1.127,1.152,1.152,0,0,1-1.014.948c-1.339.115-2.609.006-4.076.029l0,25.9,25.937,0v-25.9L31.475,23.2c-.66-.112-1.018-.454-1.072-.979a.961.961,0,0,1,.83-1.144L35.052,21l0-9.5-3.448-.006a1.115,1.115,0,0,1-1.218-1.1l0-9.269a1.049,1.049,0,0,1,1-1.112l9.471,0a1.053,1.053,0,0,1,1,1.114v9.271a1.1,1.1,0,0,1-1.224,1.083l-3.444.026,0,9.533,12.5.012,3.189-3.172a5.722,5.722,0,1,1,1.5,1.5l-3.139,3.084-.016,12.6h9.514l.038-3.646a1.078,1.078,0,0,1,1.084-1.028h9.269a1.059,1.059,0,0,1,1.116,1v9.469a1.048,1.048,0,0,1-1.117.994H61.853a1.1,1.1,0,0,1-1.09-1.219l-.029-3.44-9.515,0,.016,12.593,3.144,3.079a5.735,5.735,0,1,1-1.506,1.51l-3.08-3.134-12.6-.005,0,9.5,3.642.037a1.078,1.078,0,0,1,1.026,1.087v9.263a1.112,1.112,0,0,1-1.213,1.143H31.6a1.111,1.111,0,0,1-1.214-1.142V61.854a1.094,1.094,0,0,1,1.123-1.1M39.741,9.275l-.012-7.186H32.511l0,7.223ZM13.547,11.2a3.6,3.6,0,0,0-2.3,4.727,3.619,3.619,0,0,0,6.843-2.344A3.579,3.579,0,0,0,13.547,11.2m42.916.006a3.61,3.61,0,1,0,4.58,2.316,3.606,3.606,0,0,0-4.58-2.316M9.328,39.708l-.022-7.2-7.214,0v7.221Zm60.822,0v-7.2l-7.217,0V39.73ZM13.986,54.064A3.564,3.564,0,0,0,11.133,58.5a3.613,3.613,0,0,0,7.044-1.6,3.578,3.578,0,0,0-4.191-2.834m42.905,0a3.61,3.61,0,1,0,4.248,2.772,3.591,3.591,0,0,0-4.248-2.772M39.736,70.147l0-7.217H32.509l0,7.223Z" fill="#19538d"/>
        <path id="Trazado_1274334" data-name="Trazado 1274334" d="M182.967,148.534a1.1,1.1,0,0,1-1.513.047,1.07,1.07,0,0,1-.053-1.491l2.731-2.791-2.73-2.791a1.059,1.059,0,0,1,1.5-1.492l3.4,3.35a1.238,1.238,0,0,1,0,1.865Z" transform="translate(-140.225 -108.18)" fill="#19538d"/>
        <path id="Trazado_1274335" data-name="Trazado 1274335" d="M119.18,146.933a1.166,1.166,0,0,1,.2,1.564,1.07,1.07,0,0,1-1.552.128l-3.4-3.366a1.23,1.23,0,0,1-.005-1.858l3.273-3.251a1.133,1.133,0,0,1,1.577-.1,1.072,1.072,0,0,1,.051,1.49l-2.733,2.793Z" transform="translate(-88.267 -108.215)" fill="#19538d"/>
        <path id="Trazado_1274336" data-name="Trazado 1274336" d="M146.838,148.4a1.1,1.1,0,0,1-1.486.333,1.056,1.056,0,0,1-.348-1.37l4.771-7.16a1.079,1.079,0,0,1,1.432-.266,1.054,1.054,0,0,1,.347,1.37Z" transform="translate(-112.159 -108.219)" fill="#19538d"/>
        <path id="Trazado_1274337" data-name="Trazado 1274337" d="M155.267,20.662a1,1,0,0,1,.616,1.368c-.4.921-2.577.869-3.047.161a1.01,1.01,0,0,1,.3-1.42,2.948,2.948,0,0,1,2.128-.108" transform="translate(-118.196 -15.885)" fill="#19538d"/>
        <path id="Trazado_1274338" data-name="Trazado 1274338" d="M22.135,152.8c.7.433.685,2.347.138,2.864a1.035,1.035,0,0,1-1.273.12c-.739-.474-.712-2.375-.142-2.89a1.054,1.054,0,0,1,1.276-.095" transform="translate(-15.823 -118.162)" fill="#19538d"/>
        <path id="Trazado_1274339" data-name="Trazado 1274339" d="M291.274,152.828c.733.436.726,2.355.145,2.885a1.032,1.032,0,0,1-1.277.1c-.707-.474-.671-2.391-.137-2.87a1.1,1.1,0,0,1,1.269-.12" transform="translate(-224.215 -118.206)" fill="#19538d"/>
        <path id="Trazado_1274340" data-name="Trazado 1274340" d="M155.4,289.89a.976.976,0,0,1,.4,1.436,2.265,2.265,0,0,1-2.976,0,1,1,0,0,1,.328-1.41,2.978,2.978,0,0,1,2.249-.027" transform="translate(-118.194 -224.273)" fill="#19538d"/>
      </g>
    </g>
  </g>
</svg>
