<svg xmlns="http://www.w3.org/2000/svg" xmlns:xlink="http://www.w3.org/1999/xlink" width="128" height="128" viewBox="0 0 128 128">
  <defs>
    <clipPath id="clip-path">
      <rect id="Rectángulo_456267" data-name="Rectángulo 456267" width="128" height="128" fill="none"/>
    </clipPath>
    <clipPath id="clip-path-2">
      <rect id="Rectángulo_464459" data-name="Rectángulo 464459" width="65.595" height="59.677" transform="translate(0 0)" fill="#19538d"/>
    </clipPath>
  </defs>
  <g id="Grupo_1211635" data-name="Grupo 1211635" transform="translate(511.746 8527) rotate(180)">
    <path id="Trazado_999622" data-name="Trazado 999622" d="M59.07,0A59.07,59.07,0,1,1,0,59.07,59.071,59.071,0,0,1,59.07,0" transform="translate(388.676 8403.93)" fill="#fff"/>
    <g id="Grupo_1179902" data-name="Grupo 1179902" transform="translate(383.746 8399)">
      <g id="Grupo_1179905" data-name="Grupo 1179905" clip-path="url(#clip-path)">
        <path id="Trazado_999618" data-name="Trazado 999618" d="M64,0A64,64,0,1,1,0,64,64,64,0,0,1,64,0" fill="none"/>
        <path id="Trazado_999619" data-name="Trazado 999619" d="M5,59a5,5,0,1,1-5,5,5,5,0,0,1,5-5" fill="#19538d"/>
        <path id="Trazado_999620" data-name="Trazado 999620" d="M21,19a5,5,0,1,1-5,5,5,5,0,0,1,5-5" fill="#19538d"/>
        <path id="Trazado_999621" data-name="Trazado 999621" d="M64,124A60.068,60.068,0,0,1,4,64H7A57,57,0,1,0,22.408,25.024L20.22,22.972A60,60,0,1,1,64,124" fill="#19538d"/>
        <rect id="Rectángulo_456268" data-name="Rectángulo 456268" width="128" height="128" fill="none"/>
        <rect id="Rectángulo_456269" data-name="Rectángulo 456269" width="128" height="128" fill="none"/>
      </g>
    </g>
    <g id="Grupo_1211777" data-name="Grupo 1211777" transform="translate(480.543 8492.838) rotate(180)" clip-path="url(#clip-path-2)">
      <path id="Trazado_1274341" data-name="Trazado 1274341" d="M62.085,59.676,3.619,59.65A3.729,3.729,0,0,1,0,55.822V3.805A3.7,3.7,0,0,1,3.41,0H62.186a3.707,3.707,0,0,1,3.409,3.808l0,52.006a3.8,3.8,0,0,1-3.507,3.863m1.628-47.807.012-8.293a2.016,2.016,0,0,0-1.762-1.734H3.63A1.88,1.88,0,0,0,1.906,3.578l-.024,8.3ZM61.644,57.842a2,2,0,0,0,2.065-1.821l.009-42.289H1.877l.011,42.291a2.014,2.014,0,0,0,2.161,1.819Z" transform="translate(0 0.001)" fill="#19538d"/>
      <path id="Trazado_1274342" data-name="Trazado 1274342" d="M62.506,111.23a3.055,3.055,0,0,1,2.025,3.3,3,3,0,0,1-5.861.353,3.037,3.037,0,0,1,1.854-3.615c.215-.092.213-.845,0-.9l-5.46-.042a1.468,1.468,0,0,1-1.539-1.6l-.015-2.609L41.8,106.073c-.654,0-.914-.586-.916-1.159l-.014-3.382-3.01-.014a1.379,1.379,0,0,1-1.363-1.383l0-7.835c0-1.9,2.246-1.235,4.406-1.476l0-3.663a.872.872,0,0,1,.8-.849l9.81-.056c-.1-2.455,2.026-1.489,2.5-2.557.486-1.093-1.506-2.068-.247-3.31l1.488-1.467c1.118-1.1,2.081.639,3.179.326.963-.275.514-2.454,1.867-2.476l2.33-.037c1.56-.025,1.144,2.078,1.915,2.45,1.151.555,2.177-1.423,3.333-.262l1.579,1.587c1.089,1.095-.822,2.139-.341,3.189s2.605.116,2.5,2.556l9.623.04a.923.923,0,0,1,.988.869l.04,3.723,3.228.046a1.345,1.345,0,0,1,1.147,1.36l-.006,7.838a1.37,1.37,0,0,1-1.368,1.378l-3,.021-.029,3.56a.976.976,0,0,1-1.072.994L69.62,106.1l-.031,2.833a1.334,1.334,0,0,1-1.339,1.375l-5.646.026a1.077,1.077,0,0,0-.1.895m-.391-16.382a3.275,3.275,0,0,1,1.731-2.214,3.373,3.373,0,0,1,3.057.236c.259.122.893-.568.761-.81a3.144,3.144,0,0,1-.258-2.971,3.19,3.19,0,0,1,2.229-1.749c.3-.083.256-1.092-.055-1.168a3.155,3.155,0,0,1-2.208-1.807,2.938,2.938,0,0,1,.361-2.922A2.034,2.034,0,0,0,66.9,80.6a2.9,2.9,0,0,1-2.994.339,3.112,3.112,0,0,1-1.721-2.1c-.114-.419-1.132-.422-1.247,0A3.129,3.129,0,0,1,59.076,81a2.9,2.9,0,0,1-2.846-.4,2.013,2.013,0,0,0-.833.848,2.935,2.935,0,0,1,.36,2.921,3.135,3.135,0,0,1-2.207,1.806c-.312.074-.351,1.089-.053,1.173a3.183,3.183,0,0,1,2.227,1.742,3.255,3.255,0,0,1-.244,2.983c-.154.315.588.939.9.763a3.1,3.1,0,0,1,3.056-.134,3.242,3.242,0,0,1,1.562,2.178c.178.21,1.049.212,1.122-.028m15.4-3.956,2.865.019,0-2.746-8.809.005c-.667,1.4-2.129.76-2.49,1.723-.393,1.051,1.534,2.043.254,3.331l-1.26,1.267c-1.385,1.393-2.446-.716-3.433-.161-.92.516-.491,2.493-2.057,2.493H60.542c-1.627,0-1.072-2.107-2.2-2.556-.863-.345-1.952,1.566-3.293.221l-1.26-1.264c-1.28-1.284.641-2.273.252-3.33-.349-.951-1.822-.322-2.49-1.724l-8.808-.005,0,2.746,2.96-.014a1.371,1.371,0,0,1,1.44,1.34l.01,7.8a1.438,1.438,0,0,1-1.247,1.451l-3.175.032.006,2.718,10.774-.011.026-2.913A1.292,1.292,0,0,1,54.8,100l13.327-.016a1.328,1.328,0,0,1,1.462,1.345l.025,2.909,10.773-.01.008-2.7-3.176-.034a1.454,1.454,0,0,1-1.247-1.457l.01-7.8a1.4,1.4,0,0,1,1.535-1.347M45.272,99.618l-.011-6.912-6.9.016-.014,6.92Zm39.511.02-.014-6.916-6.9-.014v6.932Zm-17.062,8.821-.041-6.623H55.448l-.039,6.639ZM61.2,113.039a1.09,1.09,0,0,0-.606,1.6,1.121,1.121,0,0,0,2.039-.908,1.1,1.1,0,0,0-1.433-.693" transform="translate(-28.767 -60.496)" fill="#19538d"/>
      <path id="Trazado_1274343" data-name="Trazado 1274343" d="M266.546,23.959a1.737,1.737,0,0,1,2.283,1.1,1.755,1.755,0,0,1-1.19,2.291,1.781,1.781,0,0,1-1.093-3.388" transform="translate(-209.191 -18.799)" fill="#19538d"/>
      <path id="Trazado_1274344" data-name="Trazado 1274344" d="M216.836,23.962a1.786,1.786,0,1,1-.9,2.551,1.8,1.8,0,0,1,.9-2.551" transform="translate(-170.069 -18.788)" fill="#19538d"/>
      <path id="Trazado_1274345" data-name="Trazado 1274345" d="M241.7,23.96a1.785,1.785,0,1,1-.986,2.432,1.765,1.765,0,0,1,.986-2.432" transform="translate(-189.642 -18.795)" fill="#19538d"/>
      <path id="Trazado_1274346" data-name="Trazado 1274346" d="M134.341,99.2a5.28,5.28,0,0,1,6.085,4.295,5.309,5.309,0,0,1-10.432,1.968,5.247,5.247,0,0,1,4.347-6.263m0,1.894a3.442,3.442,0,1,0,4.2,2.55,3.427,3.427,0,0,0-4.2-2.55" transform="translate(-102.398 -78.147)" fill="#19538d"/>
    </g>
  </g>
</svg>
