<svg xmlns="http://www.w3.org/2000/svg" xmlns:xlink="http://www.w3.org/1999/xlink" width="128" height="128" viewBox="0 0 128 128">
  <defs>
    <clipPath id="clip-path">
      <rect id="Rectángulo_456267" data-name="Rectángulo 456267" width="128" height="128" fill="none"/>
    </clipPath>
    <clipPath id="clip-path-2">
      <rect id="Rectángulo_464461" data-name="Rectángulo 464461" width="66.862" height="66.838" fill="#19538d"/>
    </clipPath>
  </defs>
  <g id="Grupo_1211653" data-name="Grupo 1211653" transform="translate(511.746 8527) rotate(180)">
    <path id="Trazado_999622" data-name="Trazado 999622" d="M59.07,0A59.07,59.07,0,1,1,0,59.07,59.071,59.071,0,0,1,59.07,0" transform="translate(388.676 8403.93)" fill="#fff"/>
    <g id="Grupo_1179902" data-name="Grupo 1179902" transform="translate(383.746 8399)">
      <g id="Grupo_1179905" data-name="Grupo 1179905" clip-path="url(#clip-path)">
        <path id="Trazado_999618" data-name="Trazado 999618" d="M64,0A64,64,0,1,1,0,64,64,64,0,0,1,64,0" fill="none"/>
        <path id="Trazado_999619" data-name="Trazado 999619" d="M5,59a5,5,0,1,1-5,5,5,5,0,0,1,5-5" fill="#19538d"/>
        <path id="Trazado_999620" data-name="Trazado 999620" d="M21,19a5,5,0,1,1-5,5,5,5,0,0,1,5-5" fill="#19538d"/>
        <path id="Trazado_999621" data-name="Trazado 999621" d="M64,124A60.068,60.068,0,0,1,4,64H7A57,57,0,1,0,22.408,25.024L20.22,22.972A60,60,0,1,1,64,124" fill="#19538d"/>
        <rect id="Rectángulo_456268" data-name="Rectángulo 456268" width="128" height="128" fill="none"/>
        <rect id="Rectángulo_456269" data-name="Rectángulo 456269" width="128" height="128" fill="none"/>
      </g>
    </g>
    <g id="Grupo_1211803" data-name="Grupo 1211803" transform="translate(481.177 8496.419) rotate(180)">
      <g id="Grupo_1211781" data-name="Grupo 1211781" clip-path="url(#clip-path-2)">
        <path id="Trazado_1274354" data-name="Trazado 1274354" d="M46.867,66.822l-26.775.016a1.14,1.14,0,0,1-.926-1.805l3.586-4.653c.325-.421,1.256-.245,1.871-.194l.81-4.5L3.356,55.681A3.276,3.276,0,0,1,0,52.314V16.694a3.192,3.192,0,0,1,3.124-3.328l16.264-.045-1.866-2.6a2.389,2.389,0,0,1-.06-3.112l3.453-3.46a2.16,2.16,0,0,1,2.691-.374L26.6,5.9a4.745,4.745,0,0,0,1.656-.673l.634-3.6A2.084,2.084,0,0,1,30.757,0L36.1,0a2.24,2.24,0,0,1,1.964,1.99L38.6,5.249l1.605.687,2.518-1.818a2.473,2.473,0,0,1,3.365.133L49.294,7.49a2.416,2.416,0,0,1,.045,3.24l-1.871,2.593,16.053.019A3.254,3.254,0,0,1,66.862,16.7V52.312a3.271,3.271,0,0,1-3.355,3.37l-22.076.009.765,4.45c.515.044,1.554-.236,1.915.238l3.658,4.8a1.092,1.092,0,0,1-.9,1.64M35.849,37.815l.6-3.624c.278-1.088,1.211-1.5,2.16-1.874.915-.365,1.826-.751,2.712-.131l3.037,2.127,3.354-3.358-2.192-3.19c-.756-1.1.652-4.422,1.917-4.658l3.81-.711V17.605c-3.362-.611-4.357-.02-5.516-2.768-.388-.922-.754-1.828-.134-2.714l2.127-3.038L44.366,5.728,41.33,7.848c-1.287.9-4.619-.559-4.87-2.01l-.63-3.651h-4.8L30.4,5.84c-.259,1.5-3.647,2.831-4.719,2.092l-3.19-2.2L19.146,9.078l2.034,2.9a2.525,2.525,0,0,1,.006,2.712c-.374.822-.637,1.83-1.6,2.172a24.416,24.416,0,0,1-3.974.749l0,4.8,3.816.7c1.213.222,2.746,3.494,1.837,4.8l-2.116,3.043,3.348,3.371,3.046-2.137c1.256-.882,4.608.534,4.863,2.007l.63,3.645Zm2.7-2.977-.406,2.791a2.538,2.538,0,0,1-2.479,2.464l-4.479,0a2.242,2.242,0,0,1-2.3-1.7l-.626-3.595a8.77,8.77,0,0,0-1.6-.674l-3.215,2.2c-1.169.8-2.542-.175-3.366-1.322L17.977,37.1a.84.84,0,0,0-.124.806c.078.249,3.086,1.438,1.986,4.49a3.343,3.343,0,0,1-6.449-.876,3.263,3.263,0,0,1,2.2-3.452c.051-.612-.212-1.437.172-1.848l2.684-2.874c-1.085-.749-2.138-2.076-1.374-3.219l2.264-3.386-.67-1.543-3.617-.646c-1.8-.322-1.772-2.435-1.673-4.53l-4.462,0,.005,11.347A3.336,3.336,0,0,1,7.7,37.853a3.336,3.336,0,0,1-1.017-6.479L6.711,18.72A1.061,1.061,0,0,1,7.793,17.8l5.562,0a2.676,2.676,0,0,1,1.207-2.227L3.349,15.567a1.092,1.092,0,0,0-1.122,1.142l0,30.072h62.4l0-30.072a1.107,1.107,0,0,0-1.118-1.15L52.3,15.582A2.7,2.7,0,0,1,53.509,17.8l5.554-.008a1.091,1.091,0,0,1,1.107,1.118l.011,12.457a3.345,3.345,0,1,1-2.234,0l0-11.35H53.49l-.07,2.841c-.029,1.173-1.281,1.7-2.365,1.868l-2.859.442-.667,1.6,2.2,3.22c.8,1.167-.177,2.563-1.317,3.36l2.6,2.73c.436.457.23,1.292.235,1.974a3.338,3.338,0,1,1-4.289,4.178c-.909-3.007,1.945-4.029,2.041-4.327a.836.836,0,0,0-.122-.8l-2.11-2.119c-.9,1.323-2.386,2.1-3.647,1.206L40.164,34.1ZM7.353,33.5a1.1,1.1,0,1,0,.9,2.012,1.107,1.107,0,0,0,.556-1.462A1.086,1.086,0,0,0,7.353,33.5m51.264,0a1.1,1.1,0,1,0,.9,2.012,1.107,1.107,0,0,0,.556-1.462,1.086,1.086,0,0,0-1.453-.551M16.268,40.187a1.1,1.1,0,1,0,.9,2.012,1.107,1.107,0,0,0,.556-1.462,1.086,1.086,0,0,0-1.453-.551m33.433,0a1.1,1.1,0,1,0,.9,2.012,1.107,1.107,0,0,0,.556-1.462,1.086,1.086,0,0,0-1.453-.551M63.538,53.465c.812-.117,1.082-.58,1.08-1.133l-.011-3.326H2.256L2.24,52.329A1.092,1.092,0,0,0,3.4,53.464ZM39.916,60.132l-.742-4.454-11.487,0-.751,4.464Zm4.665,4.47-1.644-2.226-19.013,0L22.281,64.6Z" transform="translate(0 0)" fill="#19538d"/>
        <path id="Trazado_1274355" data-name="Trazado 1274355" d="M113.693,44.955a10.021,10.021,0,1,1-8.559,11.471,9.986,9.986,0,0,1,8.559-11.471m.222,2.226a7.785,7.785,0,1,0,8.832,6.567,7.744,7.744,0,0,0-8.832-6.567" transform="translate(-81.608 -34.861)" fill="#19538d"/>
        <path id="Trazado_1274356" data-name="Trazado 1274356" d="M98.647,131.883a7.018,7.018,0,0,1-1.682-1.526L98.52,128.8a7.919,7.919,0,0,1,1.57,1.56Z" transform="translate(-75.353 -100.091)" fill="#19538d"/>
        <path id="Trazado_1274357" data-name="Trazado 1274357" d="M98.574,39.995,97,38.462a7.732,7.732,0,0,1,1.622-1.621l1.5,1.551Z" transform="translate(-75.378 -28.63)" fill="#19538d"/>
        <path id="Trazado_1274358" data-name="Trazado 1274358" d="M190.465,131.917l-1.529-1.563,1.562-1.564,1.557,1.5Z" transform="translate(-146.825 -100.084)" fill="#19538d"/>
        <path id="Trazado_1274359" data-name="Trazado 1274359" d="M190.659,40.054l-1.567-1.485a9.6,9.6,0,0,1,1.428-1.615,7.5,7.5,0,0,1,1.654,1.6Z" transform="translate(-146.946 -28.717)" fill="#19538d"/>
        <path id="Trazado_1274360" data-name="Trazado 1274360" d="M147.252,22.026l-2.226.018,0-2.225,2.213,0Z" transform="translate(-112.7 -15.4)" fill="#19538d"/>
        <path id="Trazado_1274361" data-name="Trazado 1274361" d="M82.252,87.026l-2.226.018,0-2.225,2.213,0Z" transform="translate(-62.188 -65.912)" fill="#19538d"/>
        <path id="Trazado_1274362" data-name="Trazado 1274362" d="M212.252,87.026l-2.226.018,0-2.225,2.213,0Z" transform="translate(-163.213 -65.912)" fill="#19538d"/>
        <path id="Trazado_1274363" data-name="Trazado 1274363" d="M147.252,152.026l-2.226.018,0-2.225,2.213,0Z" transform="translate(-112.7 -116.425)" fill="#19538d"/>
        <path id="Trazado_1274364" data-name="Trazado 1274364" d="M147.252,227.026l-2.226.018,0-2.225,2.213,0Z" transform="translate(-112.7 -174.708)" fill="#19538d"/>
      </g>
    </g>
  </g>
</svg>
