<svg xmlns="http://www.w3.org/2000/svg" xmlns:xlink="http://www.w3.org/1999/xlink" width="128" height="128" viewBox="0 0 128 128">
  <defs>
    <clipPath id="clip-path">
      <rect id="Rectángulo_456267" data-name="Rectángulo 456267" width="128" height="128" fill="none"/>
    </clipPath>
    <clipPath id="clip-path-2">
      <rect id="Rectángulo_464465" data-name="Rectángulo 464465" width="62.694" height="62.619" fill="#19538d"/>
    </clipPath>
  </defs>
  <g id="Grupo_1211689" data-name="Grupo 1211689" transform="translate(511.746 8527) rotate(180)">
    <path id="Trazado_999622" data-name="Trazado 999622" d="M59.07,0A59.07,59.07,0,1,1,0,59.07,59.071,59.071,0,0,1,59.07,0" transform="translate(388.676 8403.93)" fill="#fff"/>
    <g id="Grupo_1179902" data-name="Grupo 1179902" transform="translate(383.746 8399)">
      <g id="Grupo_1179905" data-name="Grupo 1179905" clip-path="url(#clip-path)">
        <path id="Trazado_999618" data-name="Trazado 999618" d="M64,0A64,64,0,1,1,0,64,64,64,0,0,1,64,0" fill="none"/>
        <path id="Trazado_999619" data-name="Trazado 999619" d="M5,59a5,5,0,1,1-5,5,5,5,0,0,1,5-5" fill="#19538d"/>
        <path id="Trazado_999620" data-name="Trazado 999620" d="M21,19a5,5,0,1,1-5,5,5,5,0,0,1,5-5" fill="#19538d"/>
        <path id="Trazado_999621" data-name="Trazado 999621" d="M64,124A60.068,60.068,0,0,1,4,64H7A57,57,0,1,0,22.408,25.024L20.22,22.972A60,60,0,1,1,64,124" fill="#19538d"/>
        <rect id="Rectángulo_456268" data-name="Rectángulo 456268" width="128" height="128" fill="none"/>
        <rect id="Rectángulo_456269" data-name="Rectángulo 456269" width="128" height="128" fill="none"/>
      </g>
    </g>
    <g id="Grupo_1211807" data-name="Grupo 1211807" transform="translate(479.093 8494.309) rotate(180)">
      <g id="Grupo_1211789" data-name="Grupo 1211789" clip-path="url(#clip-path-2)">
        <path id="Trazado_1274379" data-name="Trazado 1274379" d="M37.568,32.363l-.009,21.9,8.727-.021a1.046,1.046,0,0,0,1.04-.861A5.024,5.024,0,0,1,52.767,51.1a6.3,6.3,0,0,1,9.45,7.381,6.238,6.238,0,0,1-5.88,4.131l-8.133.005a4.388,4.388,0,0,1-3.962-6.26l-7.716-.009a1.042,1.042,0,0,1-1.048-1.068l0-22.911H32.345l-.006,27.094a3.077,3.077,0,0,1-3.142,3.15l-26.05,0A3.074,3.074,0,0,1,0,59.447V3.17A3.043,3.043,0,0,1,3.141.02L28.992,0a3.116,3.116,0,0,1,3.347,3.156l.006,27.1,3.131,0,0-22.923c0-.753.587-1.067,1.243-1.067l9.456,0a8.348,8.348,0,1,1,3.985,9.356L47.29,16.638a1.013,1.013,0,0,1-1.012-.2,1.033,1.033,0,0,1-.306-1.121l1.009-2.855a8.567,8.567,0,0,1-1.067-4.1l-8.354,0V30.277l8.612-.007a8.443,8.443,0,1,1-.259,2.093ZM29.113,2.095l-4.9,0-.042,2.92a2.072,2.072,0,0,1-2.063,1.835H10.233A2.073,2.073,0,0,1,8.171,5.02L8.129,2.1l-5,0A1.026,1.026,0,0,0,2.084,3.185l0,56.244a1.067,1.067,0,0,0,1.073,1.107H29.182a1.067,1.067,0,0,0,1.073-1.107l0-56.244a1.055,1.055,0,0,0-1.145-1.09M22.09,4.749l-.045-2.577H10.295L10.248,4.75ZM48.9,13.8c.584-.082,1.252-.6,1.676-.322a6.373,6.373,0,0,0,8.56-1.194,6.263,6.263,0,0,0-8.925-8.709,6.4,6.4,0,0,0-1.077,8.467c.311.48-.453,1.185-.234,1.758M59.172,36.186a6.222,6.222,0,0,0-.754-8.521,6.292,6.292,0,0,0-8.436.1,6.2,6.2,0,0,0-.623,8.422,5.139,5.139,0,0,1,5-3.482,5.2,5.2,0,0,1,4.813,3.477m-1.851,1.639a3.051,3.051,0,1,0-6.1.014,6.43,6.43,0,0,0,6.1-.014M45.931,58.511a2.259,2.259,0,0,0,2.278,2.012l8.131,0a4.2,4.2,0,1,0-2.664-7.464,1.1,1.1,0,0,1-1.134.2,2.762,2.762,0,0,0-3.667,1.863c-.3,1.216-3.246.649-2.945,3.39" transform="translate(0 0)" fill="#19538d"/>
        <path id="Trazado_1274380" data-name="Trazado 1274380" d="M37.759,119.163a6.979,6.979,0,0,1-3.54.033c-1.215-.311-1.569-1.5-1.473-2.789a3.6,3.6,0,0,1-1.637,1.118,2.149,2.149,0,0,1-1.974-.583l-1.868-1.886c-1.067-1.076-.49-2.623.7-3.5a3.4,3.4,0,0,1-2.1-.386,2.1,2.1,0,0,1-.87-1.774l.015-2.282c.01-1.5,1.368-2.081,2.873-2-1.225-1.05-1.6-2.472-.619-3.469l1.756-1.782a2.246,2.246,0,0,1,1.9-.724,3.327,3.327,0,0,1,1.827,1.162c-.093-1.283.256-2.505,1.463-2.769a9.526,9.526,0,0,1,3.318-.045c1.285.187,1.752,1.459,1.621,2.811a3.8,3.8,0,0,1,1.641-1.125,2.254,2.254,0,0,1,2.09.686l1.664,1.67c1.047,1.051.721,2.54-.586,3.644a3.035,3.035,0,0,1,2.2.455,2.317,2.317,0,0,1,.751,1.888l-.021,2.079c-.015,1.5-1.37,2.086-2.872,2,1.212,1.037,1.61,2.474.609,3.461l-2.1,2.069c-.994.98-2.472.406-3.341-.745-.006,1.236-.186,2.418-1.43,2.784m-.689-2.047.018-3.293a5.961,5.961,0,0,0,1.727-.715l2.445,2.379,1.8-1.87-2.3-2.33.728-1.829,3.312,0v-2.2l-3.312,0-.728-1.835,2.293-2.329-1.8-1.873-2.423,2.368-1.8-.81.011-3.213-2.192-.016-.04,3.326a6.029,6.029,0,0,0-1.727.727l-2.436-2.377-1.807,1.868,2.3,2.329-.73,1.845-3.31-.006v2.2l3.376.039.66,1.792-2.288,2.4,1.806,1.8,2.429-2.374a6.248,6.248,0,0,0,1.732.723l.038,3.309a5.289,5.289,0,0,0,2.216-.028" transform="translate(-19.78 -77.045)" fill="#19538d"/>
        <path id="Trazado_1274381" data-name="Trazado 1274381" d="M22.561,202.751a.952.952,0,0,1,.122-1.369,1,1,0,0,1,1.384-.053,13.642,13.642,0,0,0,15.644,2.706,3.1,3.1,0,0,1,1.45-3.616,3.144,3.144,0,1,1-.206,5.366,15.775,15.775,0,0,1-18.394-3.034m19.719-.534a1.032,1.032,0,1,0,.839,1.885,1.039,1.039,0,0,0,.522-1.37,1.017,1.017,0,0,0-1.361-.515" transform="translate(-17.658 -158.285)" fill="#19538d"/>
        <path id="Trazado_1274382" data-name="Trazado 1274382" d="M41.855,65.55a13.7,13.7,0,0,0-15.755-2.8,3.1,3.1,0,0,1-1.447,3.619,3.142,3.142,0,1,1,.212-5.356,15.8,15.8,0,0,1,18.352,2.973,1.068,1.068,0,0,1-.044,1.395c-.249.253-.935.559-1.318.173M22.768,62.659a1.032,1.032,0,1,0,.77,1.914,1.041,1.041,0,0,0,.521-1.369,1.009,1.009,0,0,0-1.291-.545" transform="translate(-15.814 -46.93)" fill="#19538d"/>
        <path id="Trazado_1274383" data-name="Trazado 1274383" d="M51.374,267.109l-7.712.012a1.053,1.053,0,0,1-1.135-.952,1.034,1.034,0,0,1,1.131-1.145l7.721.009a1,1,0,0,1,1.032.947,1.031,1.031,0,0,1-1.036,1.129" transform="translate(-33.648 -209.716)" fill="#19538d"/>
        <path id="Trazado_1274384" data-name="Trazado 1274384" d="M100.656,265.155a1,1,0,0,1,1.363.512,1.034,1.034,0,1,1-1.363-.512" transform="translate(-79.167 -209.741)" fill="#19538d"/>
        <path id="Trazado_1274385" data-name="Trazado 1274385" d="M247.457,29.619l-6.187.02a1.072,1.072,0,0,1-1.068-.921.994.994,0,0,1,.9-1.189l6.277-.016a1.019,1.019,0,0,1,1.069.887,1.042,1.042,0,0,1-.987,1.22" transform="translate(-190.064 -21.77)" fill="#19538d"/>
        <path id="Trazado_1274386" data-name="Trazado 1274386" d="M255.426,47.1l-3.877.014a1.092,1.092,0,0,1-1.158-.985A1.07,1.07,0,0,1,251.546,45h3.776a1.072,1.072,0,0,1,1.156.974,1.042,1.042,0,0,1-1.052,1.119" transform="translate(-198.133 -35.611)" fill="#19538d"/>
        <path id="Trazado_1274387" data-name="Trazado 1274387" d="M252.655,131.356a1.817,1.817,0,0,1,2.181,1.348,1.823,1.823,0,0,1-3.507.986,1.8,1.8,0,0,1,1.326-2.334" transform="translate(-198.803 -103.902)" fill="#19538d"/>
        <path id="Trazado_1274388" data-name="Trazado 1274388" d="M64.9,135.158a3.106,3.106,0,0,1,3.788,2.322,3.124,3.124,0,0,1-6.045,1.569,3.087,3.087,0,0,1,2.257-3.891m.235,2.119a1.031,1.031,0,0,0-.344,1.515,1.089,1.089,0,0,0,1.329.3,1.019,1.019,0,0,0,.449-1.387,1.072,1.072,0,0,0-1.434-.429" transform="translate(-49.469 -106.876)" fill="#19538d"/>
      </g>
    </g>
  </g>
</svg>
