<svg xmlns="http://www.w3.org/2000/svg" xmlns:xlink="http://www.w3.org/1999/xlink" width="128" height="128" viewBox="0 0 128 128">
  <defs>
    <clipPath id="clip-path">
      <rect id="Rectángulo_456267" data-name="Rectángulo 456267" width="128" height="128" fill="none"/>
    </clipPath>
    <clipPath id="clip-path-2">
      <rect id="Rectángulo_464467" data-name="Rectángulo 464467" width="64.03" height="63.999" fill="#19538d"/>
    </clipPath>
  </defs>
  <g id="Grupo_1211708" data-name="Grupo 1211708" transform="translate(511.746 8527) rotate(180)">
    <path id="Trazado_999622" data-name="Trazado 999622" d="M59.07,0A59.07,59.07,0,1,1,0,59.07,59.071,59.071,0,0,1,59.07,0" transform="translate(388.676 8403.93)" fill="#fff"/>
    <g id="Grupo_1179902" data-name="Grupo 1179902" transform="translate(383.746 8399)">
      <g id="Grupo_1179905" data-name="Grupo 1179905" clip-path="url(#clip-path)">
        <path id="Trazado_999618" data-name="Trazado 999618" d="M64,0A64,64,0,1,1,0,64,64,64,0,0,1,64,0" fill="none"/>
        <path id="Trazado_999619" data-name="Trazado 999619" d="M5,59a5,5,0,1,1-5,5,5,5,0,0,1,5-5" fill="#19538d"/>
        <path id="Trazado_999620" data-name="Trazado 999620" d="M21,19a5,5,0,1,1-5,5,5,5,0,0,1,5-5" fill="#19538d"/>
        <path id="Trazado_999621" data-name="Trazado 999621" d="M64,124A60.068,60.068,0,0,1,4,64H7A57,57,0,1,0,22.408,25.024L20.22,22.972A60,60,0,1,1,64,124" fill="#19538d"/>
        <rect id="Rectángulo_456268" data-name="Rectángulo 456268" width="128" height="128" fill="none"/>
        <rect id="Rectángulo_456269" data-name="Rectángulo 456269" width="128" height="128" fill="none"/>
      </g>
    </g>
    <g id="Grupo_1211794" data-name="Grupo 1211794" transform="translate(478.472 8494.999) rotate(180)">
      <g id="Grupo_1211793" data-name="Grupo 1211793" clip-path="url(#clip-path-2)">
        <path id="Trazado_1274392" data-name="Trazado 1274392" d="M10.188,93.709c-.981-.994.845-2.685.706-3.123a7.943,7.943,0,0,0-.934-2.112c-.234-.34-2.652-.153-2.653-1.778V82.662c0-1.621,2.416-1.435,2.653-1.777a7.922,7.922,0,0,0,.935-2.113c.14-.44-1.687-2.122-.705-3.12l2.919-2.965a1.678,1.678,0,0,1,2.192.087c.743.744,1.256.5,2.077.174.856-.337,1.406-.612,1.426-1.657a1.712,1.712,0,0,1,1.82-1.617l3.259,0a1.859,1.859,0,0,1,1.806,1.162,19.02,19.02,0,0,1,28.856,24.1,1.766,1.766,0,0,0,.353,2.221,3.548,3.548,0,0,1,3.134.767l10.476,10.521a4.883,4.883,0,0,1-6.9,6.9l-10.61-10.579c-.87-.867-.751-2-.7-3.025-.31-.673-1.556-.744-2.209-.353A19,19,0,0,1,25.359,99.07a1.871,1.871,0,0,1-1.478.607H20.63c-2.31,0-1.619-2.453-2.268-2.79a9.813,9.813,0,0,0-2.149-.853c-1.133.709-2.236,1.514-3.107.631Zm15.923,3.257a17.029,17.029,0,0,0,21.13,2.6,4.05,4.05,0,0,1,4.453.518l1.536-1.611a3.953,3.953,0,0,1-.514-4.387A17.009,17.009,0,0,0,26.676,72.669a4.2,4.2,0,0,0,1.78.665c.625-.723,1.494-.727,2.174-1.113a14.942,14.942,0,1,1-2.512,23.822,10.336,10.336,0,0,0-2.006.924m-2.252.6c.088-.768.06-1.815.627-2.119a17.265,17.265,0,0,1,3.881-1.579c.691-.175,1.369.721,1.968.993l2.122-2.074-1.11-1.862,1.684-4.151a6.8,6.8,0,0,1,2.146-.574l.062-2.973-2.193-.621-1.7-4.17,1.111-1.861-2.079-2.09L28.492,75.6a23.987,23.987,0,0,1-4.109-1.759c-.485-.452-.432-1.425-.56-2.089l-3.067.021L20.3,73.837a34.491,34.491,0,0,1-4.291,1.768l-1.862-1.124-2.058,2.06c.429.952,1.313,1.568.964,2.387l-1.618,3.8-2.123.525,0,2.869,2.2.589,1.576,4.067c.244.63-.632,1.308-1.016,1.9a12.876,12.876,0,0,0,2.111,2.2c.614-.3,1.271-1.154,1.981-1.009A24.193,24.193,0,0,1,20.3,95.509l.517,2.123ZM37.247,86.6c-.008,1.779-2.448,1.507-2.691,1.876a8.948,8.948,0,0,0-.917,2.122c-.155.466,1.807,2.009.612,3.236l-2.386,2.45a12.888,12.888,0,1,0,.587-22.708l1.8,1.94c1.185,1.276-.774,2.765-.614,3.243a8.817,8.817,0,0,0,.917,2.118c.268.4,2.716.07,2.707,1.982Zm25.862,27.334a2.755,2.755,0,0,0,4-.281,2.816,2.816,0,0,0-.146-3.872L56.561,99.372a.849.849,0,0,0-1.239-.03l-2.82,2.819a.856.856,0,0,0,.029,1.243Z" transform="translate(-5.827 -52.704)" fill="#19538d"/>
        <path id="Trazado_1274393" data-name="Trazado 1274393" d="M10.846,16.133C10.666,17.2,9.144,17.3,7.6,17.149,6.157,17,6.408,15.638,5.855,15.361c-.718-.359-1.686.891-2.539.011L1.627,13.633c-.63-.649.437-1.614.175-2.284C1.572,10.759.247,10.887.1,9.917A10.508,10.508,0,0,1,.071,7.345C.173,6.178,1.5,6.4,1.766,5.9c.411-.782-.979-1.66.143-2.783L3.119,1.9c1.119-1.119,2,.263,2.783-.143C6.4,1.5,6.191.037,7.53.043L9.754.052c1.037,0,1.077,1.426,1.461,1.671.732.468,1.742-.767,2.426-.1l1.739,1.689c.841.816-.258,1.8-.071,2.392.241.766,1.835.491,1.826,1.892l-.013,2.035c-.01,1.622-2.593.94-1.616,2.639.569.99-.172,1.718-.841,2.389-2,2.01-2.467.349-3.268.666a.893.893,0,0,0-.55.811m1.1-3.161a2.229,2.229,0,0,0,1.01.4.516.516,0,0,0,.426-.639c-.052-.141-.364-.421-.332-.648a5.859,5.859,0,0,1,1.223-2.855c.135-.157.6-.157.727-.273s.187-.69,0-.751a1.915,1.915,0,0,1-1.439-1.491c-.154-.537-.648-1.119-.47-1.742a4.42,4.42,0,0,0,.284-.747c0-.18-.352-.532-.54-.488a1.686,1.686,0,0,1-1.979.024c-.514-.3-1.337-.347-1.623-.987-.129-.287-.194-.625-.413-.715-.2-.083-.659-.01-.686.163-.134.86-.6,1.09-1.359,1.342-.592.2-1.32.774-1.975.41-.378-.21-.656-.35-.94-.008-.212.256-.053.517.113.825.368.681-.237,1.37-.4,1.98A1.705,1.705,0,0,1,2.13,8.18c-.152.083-.129.651.008.757a5.85,5.85,0,0,0,.65.287c.624.307.681,1.1.981,1.626a1.716,1.716,0,0,1-.025,1.98c-.051.182.3.54.484.538a4.332,4.332,0,0,0,.75-.283c.618-.179,1.2.324,1.739.474a1.909,1.909,0,0,1,1.494,1.433c.064.193.628.153.75.006.232-.278-.219-1.074,2.986-2.026" transform="translate(-0.003 -0.034)" fill="#19538d"/>
        <path id="Trazado_1274394" data-name="Trazado 1274394" d="M9.84,248.594l-2.311.028c-1.325.016-1.136-1.46-1.629-1.72-.784-.414-1.656.991-2.783-.139l-1.211-1.214c-1.123-1.125.267-2-.143-2.783-.264-.5-1.59-.283-1.7-1.45a10.557,10.557,0,0,1,.025-2.571c.14-.92,1.382-.895,1.634-1.291.468-.736-.769-1.75-.1-2.425l1.8-1.825c.669-.677,1.709.325,2.276.156.742-.22.474-1.821,1.893-1.818l2.037,0c1.343,0,1.05,1.5,1.758,1.8.753.318,1.374-1.319,3.169.567.638.67,1.448,1.3,1.012,2.352-.1.234-.3.5-.3.711.045,1.154,1.834.559,1.842,2.066l.011,1.993c.008,1.408-1.5,1.238-1.77,1.78-.353.714.891,1.676.018,2.541l-1.629,1.614c-.771.764-1.7-.373-2.4-.1-.564.219-.55,1.717-1.511,1.729M11,244.838a1.577,1.577,0,0,1,1.836.092c.187.043.53-.313.537-.492s-.213-.509-.282-.747c-.181-.623.316-1.206.469-1.743a1.906,1.906,0,0,1,1.436-1.488c.191-.063.143-.633.007-.753s-.607-.111-.73-.26a5.917,5.917,0,0,1-1.22-2.879l.338-.792c.053-.123-.134-.475-.434-.487a2.4,2.4,0,0,0-1.012.4c-3.135-.92-2.713-1.667-2.985-2.017-.124-.16-.691-.185-.752,0A1.915,1.915,0,0,1,6.716,235.1c-.535.153-1.123.64-1.74.47-.246-.068-.554-.285-.75-.284-.18,0-.543.361-.483.536a1.714,1.714,0,0,1,.019,1.987c-.295.51-.347,1.337-.985,1.619-.294.129-.624.2-.717.416-.4.945.936.273,1.5,2.046.19.594.766,1.317.4,1.969-.209.378-.335.665,0,.943.259.216.518.053.828-.123.671-.381,1.374.25,1.972.408a1.743,1.743,0,0,1,1.432,1.45c.1.185.762.1.83-.128.4-1.33,1.121-1.082,1.97-1.577" transform="translate(0 -184.676)" fill="#19538d"/>
        <path id="Trazado_1274395" data-name="Trazado 1274395" d="M155.193,8.591a1.006,1.006,0,0,1-2,.1l-.012-7.677A.958.958,0,0,1,154.1,0a.979.979,0,0,1,1.095,1.013Z" transform="translate(-122.172 0)" fill="#19538d"/>
        <path id="Trazado_1274396" data-name="Trazado 1274396" d="M155.2,277.229a1.022,1.022,0,0,1-.928,1.122.979.979,0,0,1-1.095-1.023l0-7.469a1.009,1.009,0,1,1,2.016,0Z" transform="translate(-122.169 -214.391)" fill="#19538d"/>
        <path id="Trazado_1274397" data-name="Trazado 1274397" d="M277.679,155.041H270.21a1.03,1.03,0,0,1-1.014-.926,1,1,0,0,1,1.007-1.088l7.478,0a.966.966,0,0,1,1.013.916.99.99,0,0,1-1.015,1.1" transform="translate(-214.706 -122.052)" fill="#19538d"/>
        <path id="Trazado_1274398" data-name="Trazado 1274398" d="M149.215,131.073c-.907-.416-1.025-4.018,1.341-5.213a2.869,2.869,0,0,0,1.627-2.508,2.79,2.79,0,0,0-1.67-2.571c-2.809-1.1-3.451,2.15-4.789,1a1.1,1.1,0,0,1,0-1.578,4.919,4.919,0,0,1,5.478-1.333,4.843,4.843,0,0,1,3.015,4.276,5.1,5.1,0,0,1-2.942,4.662c-1,.516-.2,2.458-.954,3.159a1.074,1.074,0,0,1-1.1.111" transform="translate(-115.962 -94.536)" fill="#19538d"/>
        <path id="Trazado_1274399" data-name="Trazado 1274399" d="M162.823,188.19a1,1,0,0,1-.731-1.129,1.054,1.054,0,0,1,.68-1.073,1.029,1.029,0,0,1,1.36.889c.11.782-.313,1.521-1.309,1.313" transform="translate(-129.282 -148.298)" fill="#19538d"/>
        <path id="Trazado_1274400" data-name="Trazado 1274400" d="M47.148,117.794a8.176,8.176,0,1,1-6.118,9.9,8.149,8.149,0,0,1,6.118-9.9m.386,1.987a6.149,6.149,0,1,0,7.421,4.517,6.142,6.142,0,0,0-7.421-4.517" transform="translate(-32.537 -93.778)" fill="#19538d"/>
        <path id="Trazado_1274401" data-name="Trazado 1274401" d="M22.278,18.17a4.872,4.872,0,1,1-3.923,5.776,4.832,4.832,0,0,1,3.923-5.776m.2,2.019A2.852,2.852,0,1,0,25.9,22.266,2.85,2.85,0,0,0,22.48,20.19" transform="translate(-14.56 -14.427)" fill="#19538d"/>
        <path id="Trazado_1274402" data-name="Trazado 1274402" d="M21.871,249.926a4.87,4.87,0,1,1,2.424,9.433,4.882,4.882,0,0,1-5.843-3.379,4.822,4.822,0,0,1,3.418-6.054m.224,2.054a2.842,2.842,0,1,0,3.717,1.64,2.811,2.811,0,0,0-3.717-1.64" transform="translate(-14.563 -199.206)" fill="#19538d"/>
      </g>
    </g>
  </g>
</svg>
