<svg xmlns="http://www.w3.org/2000/svg" xmlns:xlink="http://www.w3.org/1999/xlink" width="128" height="128" viewBox="0 0 128 128">
  <defs>
    <clipPath id="clip-path">
      <rect id="Rectángulo_456267" data-name="Rectángulo 456267" width="128" height="128" fill="none"/>
    </clipPath>
    <clipPath id="clip-path-2">
      <rect id="Rectángulo_464471" data-name="Rectángulo 464471" width="71.478" height="58.207" fill="#19538d"/>
    </clipPath>
  </defs>
  <g id="Grupo_1211744" data-name="Grupo 1211744" transform="translate(511.746 8527) rotate(180)">
    <path id="Trazado_999622" data-name="Trazado 999622" d="M59.07,0A59.07,59.07,0,1,1,0,59.07,59.071,59.071,0,0,1,59.07,0" transform="translate(388.676 8403.93)" fill="#fff"/>
    <g id="Grupo_1179902" data-name="Grupo 1179902" transform="translate(383.746 8399)">
      <g id="Grupo_1179905" data-name="Grupo 1179905" clip-path="url(#clip-path)">
        <path id="Trazado_999618" data-name="Trazado 999618" d="M64,0A64,64,0,1,1,0,64,64,64,0,0,1,64,0" fill="none"/>
        <path id="Trazado_999619" data-name="Trazado 999619" d="M5,59a5,5,0,1,1-5,5,5,5,0,0,1,5-5" fill="#19538d"/>
        <path id="Trazado_999620" data-name="Trazado 999620" d="M21,19a5,5,0,1,1-5,5,5,5,0,0,1,5-5" fill="#19538d"/>
        <path id="Trazado_999621" data-name="Trazado 999621" d="M64,124A60.068,60.068,0,0,1,4,64H7A57,57,0,1,0,22.408,25.024L20.22,22.972A60,60,0,1,1,64,124" fill="#19538d"/>
        <rect id="Rectángulo_456268" data-name="Rectángulo 456268" width="128" height="128" fill="none"/>
        <rect id="Rectángulo_456269" data-name="Rectángulo 456269" width="128" height="128" fill="none"/>
      </g>
    </g>
    <g id="Grupo_1211810" data-name="Grupo 1211810" transform="translate(483.485 8492.104) rotate(180)">
      <g id="Grupo_1211801" data-name="Grupo 1211801" clip-path="url(#clip-path-2)">
        <path id="Trazado_1274423" data-name="Trazado 1274423" d="M5.591,43.8l1.8-2.7L5.136,35.545l-3.5-.745A2.081,2.081,0,0,1,0,32.823V25.375A2.067,2.067,0,0,1,1.637,23.4l3.447-.7L7.39,17.1,5.553,14.334a2.274,2.274,0,0,1,.28-2.879l4.745-4.78A2.412,2.412,0,0,1,13.7,6.2l2.764,1.844L22,5.769l.7-3.316A2.219,2.219,0,0,1,24.978.627l6.8-.018A2.417,2.417,0,0,1,34.259,2.64l.6,3.087,5.587,2.327,2.79-1.866a2.284,2.284,0,0,1,2.869.284l5.077,5.109a2.281,2.281,0,0,1,.16,2.829l7.067.02.005-6.5A4.036,4.036,0,0,1,55.43,3.561,3.943,3.943,0,0,1,59.448,0a4.032,4.032,0,0,1,3.937,3.368A4.062,4.062,0,0,1,60.42,7.914l0,7.522a.993.993,0,0,1-1.091.977l-20.686,0a16.268,16.268,0,1,0,.007,25.374l20.679,0a1,1,0,0,1,1.091.981l0,7.522a4.026,4.026,0,0,1-.975,7.923,3.955,3.955,0,0,1-3.986-3.357,4.032,4.032,0,0,1,2.962-4.585l-.054-6.525-7.02.057a2.284,2.284,0,0,1-.158,2.821l-5.2,5.2a2.1,2.1,0,0,1-2.6.282l-2.933-1.949-5.594,2.323-.6,3.083A2.429,2.429,0,0,1,31.781,57.6l-7-.038a2.076,2.076,0,0,1-2.026-1.632l-.752-3.5-5.542-2.269-2.773,1.85a2.1,2.1,0,0,1-2.627-.086l-5.23-5.178A2.309,2.309,0,0,1,5.591,43.8M58.462,2.237a2.016,2.016,0,1,0,2.8.948,2,2,0,0,0-2.8-.948M23.782,51.089l.948,4.494,7.461.023.974-4.565,7.489-3.083,3.833,2.5,5.3-5.256a5.211,5.211,0,0,0-.929-1.448l-9.5,0A18.257,18.257,0,1,1,39.423,14.5l9.357-.011a4.457,4.457,0,0,0,1-1.485L44.538,7.753l-3.959,2.485L33.167,7.155,32.2,2.618H24.731l-1,4.517-7.385,3.1-4-2.5L7.09,12.99l2.091,3.169a1.444,1.444,0,0,1,.225,1.334L6.49,24.374l-4.525.987v7.481l4.526.992,2.851,6.682a1.666,1.666,0,0,1-.25,1.67l-2,3.022,5.258,5.281,3.928-2.536ZM58.466,52.42a2.015,2.015,0,0,0,1.826,3.591,2.027,2.027,0,0,0,.97-2.655,2.006,2.006,0,0,0-2.8-.937" transform="translate(0 0)" fill="#19538d"/>
        <path id="Trazado_1274424" data-name="Trazado 1274424" d="M115.3,84.169a2.774,2.774,0,0,1-2.952,2.866,2.6,2.6,0,0,1-2.87-2.353l-.934-14.464c-.1-1.5.455-3,2.062-3.363a10.42,10.42,0,0,1,3.115-.078,2.726,2.726,0,0,1,2.419,2.967Zm-2.071.454.932-15.478c-.988-.821-3.652-.557-3.606.177l.962,15.379c.028.452,1.678.492,1.712-.079" transform="translate(-83.9 -51.559)" fill="#19538d"/>
        <path id="Trazado_1274425" data-name="Trazado 1274425" d="M195.458,85.514a.98.98,0,1,1,.1-1.947h10.4l2.614-3.061,5.634-.052a3.99,3.99,0,0,1,3.959-2.851,3.823,3.823,0,0,1,.591,7.555,3.781,3.781,0,0,1-4.481-2.678,22.419,22.419,0,0,0-4.77.091l-2.7,2.9Zm22.108-5.867a1.8,1.8,0,0,0-1.32,2.431,1.821,1.821,0,0,0,2.273,1.088,1.824,1.824,0,0,0-.953-3.519" transform="translate(-150.298 -59.982)" fill="#19538d"/>
        <path id="Trazado_1274426" data-name="Trazado 1274426" d="M214.238,149.027l-5.658-.065-2.611-3.052-10.625-.009a.961.961,0,0,1-.9-.88.948.948,0,0,1,.9-1.057H206.7c1.156.722,1.751,2.148,2.827,2.91l4.71.191a3.835,3.835,0,1,1,4.283,4.76,3.927,3.927,0,0,1-4.281-2.8m2.906-2.6a1.782,1.782,0,0,0-.691,2.662,1.834,1.834,0,0,0,3.177-1.8,1.8,1.8,0,0,0-2.486-.864" transform="translate(-150.304 -111.285)" fill="#19538d"/>
        <path id="Trazado_1274427" data-name="Trazado 1274427" d="M212.439,128.831l-2.6-2.906-11.985-.026c-.543,0-.715-.533-.748-.85-.03-.28.07-1.014.548-1.016l13.115-.049,2.985,3.439a1.031,1.031,0,0,1,0,1.274c-.2.253-.925.571-1.315.135" transform="translate(-152.362 -95.839)" fill="#19538d"/>
        <path id="Trazado_1274428" data-name="Trazado 1274428" d="M112.636,159.282a3.45,3.45,0,0,1,1.862,6.643,3.475,3.475,0,0,1-4.242-2.231,3.407,3.407,0,0,1,2.38-4.412m.266,2.033a1.464,1.464,0,0,0-.659,2.011,1.48,1.48,0,0,0,1.764.679,1.445,1.445,0,0,0,.861-1.976,1.414,1.414,0,0,0-1.966-.715" transform="translate(-85.084 -123.026)" fill="#19538d"/>
        <path id="Trazado_1274429" data-name="Trazado 1274429" d="M197.275,85.751l-10.552.014a1,1,0,0,1-1.07-.908.969.969,0,0,1,1.069-1.06l10.668,0a1.019,1.019,0,0,1,.888.9.963.963,0,0,1-1,1.053" transform="translate(-143.505 -64.773)" fill="#19538d"/>
        <path id="Trazado_1274430" data-name="Trazado 1274430" d="M197.394,165.88l-10.667.006a.991.991,0,0,1-1.073-.891,1,1,0,0,1,1.072-1.084l10.449.008a.987.987,0,1,1,.22,1.961" transform="translate(-143.509 -126.704)" fill="#19538d"/>
      </g>
    </g>
  </g>
</svg>
