<svg xmlns="http://www.w3.org/2000/svg" xmlns:xlink="http://www.w3.org/1999/xlink" width="128" height="128" viewBox="0 0 128 128">
  <defs>
    <clipPath id="clip-path">
      <rect id="Rectángulo_456267" data-name="Rectángulo 456267" width="128" height="128" fill="none"/>
    </clipPath>
    <clipPath id="clip-path-2">
      <rect id="Rectángulo_464473" data-name="Rectángulo 464473" width="69.226" height="69.212" fill="#19538d"/>
    </clipPath>
  </defs>
  <g id="Grupo_1211762" data-name="Grupo 1211762" transform="translate(511.746 8527) rotate(180)">
    <path id="Trazado_999622" data-name="Trazado 999622" d="M59.07,0A59.07,59.07,0,1,1,0,59.07,59.071,59.071,0,0,1,59.07,0" transform="translate(388.676 8403.93)" fill="#fff"/>
    <g id="Grupo_1179902" data-name="Grupo 1179902" transform="translate(383.746 8399)">
      <g id="Grupo_1179905" data-name="Grupo 1179905" clip-path="url(#clip-path)">
        <path id="Trazado_999618" data-name="Trazado 999618" d="M64,0A64,64,0,1,1,0,64,64,64,0,0,1,64,0" fill="none"/>
        <path id="Trazado_999619" data-name="Trazado 999619" d="M5,59a5,5,0,1,1-5,5,5,5,0,0,1,5-5" fill="#19538d"/>
        <path id="Trazado_999620" data-name="Trazado 999620" d="M21,19a5,5,0,1,1-5,5,5,5,0,0,1,5-5" fill="#19538d"/>
        <path id="Trazado_999621" data-name="Trazado 999621" d="M64,124A60.068,60.068,0,0,1,4,64H7A57,57,0,1,0,22.408,25.024L20.22,22.972A60,60,0,1,1,64,124" fill="#19538d"/>
        <rect id="Rectángulo_456268" data-name="Rectángulo 456268" width="128" height="128" fill="none"/>
        <rect id="Rectángulo_456269" data-name="Rectángulo 456269" width="128" height="128" fill="none"/>
      </g>
    </g>
    <g id="Grupo_1211812" data-name="Grupo 1211812" transform="translate(482.359 8497.605) rotate(180)">
      <g id="Grupo_1211805" data-name="Grupo 1211805" clip-path="url(#clip-path-2)">
        <path id="Trazado_1274441" data-name="Trazado 1274441" d="M95.545,89.916a2.063,2.063,0,0,0-.752-1.475,3.545,3.545,0,0,1,2.7-6.253,1.855,1.855,0,0,0,1.43-.489,2.013,2.013,0,0,0,.657-1.48V75.247a2,2,0,0,0-.652-1.468,1.872,1.872,0,0,0-1.437-.5,3.534,3.534,0,0,1-3.734-2.192,3.5,3.5,0,0,1,1.036-4.064,2.066,2.066,0,0,0,.751-1.476,2.027,2.027,0,0,0-.636-1.5l-3.43-3.43a2.024,2.024,0,0,0-1.5-.633,2.064,2.064,0,0,0-1.476.75,3.511,3.511,0,0,1-4.223.969,3.553,3.553,0,0,1-2.029-3.668,1.865,1.865,0,0,0-.494-1.438,2.007,2.007,0,0,0-1.476-.656H75.312a2.007,2.007,0,0,0-1.476.657,1.862,1.862,0,0,0-.491,1.438,3.542,3.542,0,0,1-6.252,2.7,2.062,2.062,0,0,0-1.476-.75,2.019,2.019,0,0,0-1.5.634l-3.43,3.43a2.025,2.025,0,0,0-.635,1.493,2.07,2.07,0,0,0,.75,1.479,3.543,3.543,0,0,1-2.7,6.252,1.86,1.86,0,0,0-1.431.491,2.013,2.013,0,0,0-.655,1.479V80.22a2.007,2.007,0,0,0,.655,1.474,1.861,1.861,0,0,0,1.432.492,3.564,3.564,0,0,1,3.736,2.189A3.5,3.5,0,0,1,60.8,88.441a2.065,2.065,0,0,0-.751,1.476,2.027,2.027,0,0,0,.636,1.5l3.429,3.43a2.026,2.026,0,0,0,1.5.635,2.058,2.058,0,0,0,1.473-.75,3.543,3.543,0,0,1,6.252,2.7,1.85,1.85,0,0,0,.493,1.429,2.007,2.007,0,0,0,1.474.655h0l5.072-.013a1.84,1.84,0,0,0,1.368-.623,1.9,1.9,0,0,0,.5-1.446A3.539,3.539,0,0,1,84.441,93.7a3.473,3.473,0,0,1,4.064,1.029,2.044,2.044,0,0,0,1.467.755,2.023,2.023,0,0,0,1.507-.633l3.43-3.431a2.028,2.028,0,0,0,.636-1.5m-15.23,7.611-5.022.07a5.387,5.387,0,0,0-3.379-5.691,5.681,5.681,0,0,0-2.133-.429,5.569,5.569,0,0,0-4.249,2.075l-3.546-3.614a5.318,5.318,0,0,0,1.648-6.315,5.443,5.443,0,0,0-5.693-3.385l0-5.01A5.407,5.407,0,0,0,63.56,72a5.291,5.291,0,0,0-1.577-6.472l3.542-3.609a5.509,5.509,0,0,0,9.77-4.033l5.011.005A5.409,5.409,0,0,0,83.533,63.5a5.288,5.288,0,0,0,6.473-1.578l3.62,3.542a5.5,5.5,0,0,0,4.029,9.769l0,5.01a5.426,5.426,0,0,0-5.62,3.231,5.29,5.29,0,0,0,1.577,6.471l-3.547,3.611a5.468,5.468,0,0,0-6.217-1.711,5.331,5.331,0,0,0-3.537,5.687" transform="translate(-43.189 -43.133)" fill="#19538d"/>
        <path id="Trazado_1274442" data-name="Trazado 1274442" d="M236.334,2.041a7.181,7.181,0,0,0-10.757,9.452l-5.672,5.678a1.126,1.126,0,0,0-.148,1.433.927.927,0,0,0,.668.324c.029,0,.058,0,.087,0a1.053,1.053,0,0,0,.747-.3L227,12.911a7.178,7.178,0,0,0,9.332-10.87m.1,4.113a5.164,5.164,0,0,1-.768,3.906,5.333,5.333,0,0,1-3.433,2.263,5.22,5.22,0,0,1-5.311-7.98,5.085,5.085,0,0,1,3.3-2.263,5.278,5.278,0,0,1,4.031.762,5.188,5.188,0,0,1,2.179,3.312" transform="translate(-169.279 0)" fill="#19538d"/>
        <path id="Trazado_1274443" data-name="Trazado 1274443" d="M18.607,219.621c-.2-.14-.856-.358-1.179-.038L11.5,225.451a7.181,7.181,0,1,0-4.292,12.927,7.028,7.028,0,0,0,4.707-1.788,7.193,7.193,0,0,0,1.014-9.735l5.861-5.909a.714.714,0,0,0,.174-.59,1.09,1.09,0,0,0-.356-.735M7.852,236.387a5.226,5.226,0,1,1,4.533-5.781,5.225,5.225,0,0,1-4.533,5.781" transform="translate(0 -169.166)" fill="#19538d"/>
        <path id="Trazado_1274444" data-name="Trazado 1274444" d="M222.5,221.022l-1.475-1.453a.731.731,0,0,0-.587-.183,1.03,1.03,0,0,0-.71.35,1.076,1.076,0,0,0,.049,1.3l1.344,1.353a7.111,7.111,0,1,0,1.38-1.37m4.8,10.993a5.237,5.237,0,0,1-4.557-8.535,5.316,5.316,0,0,1,7.389-.7,5.244,5.244,0,0,1-2.833,9.236" transform="translate(-169.251 -169.139)" fill="#19538d"/>
        <path id="Trazado_1274445" data-name="Trazado 1274445" d="M26.689,34.637a7.336,7.336,0,0,0,4.419-1.5L32.5,34.4a.807.807,0,0,0,.641.181.967.967,0,0,0,.667-.347A1.039,1.039,0,0,0,33.8,33L32.552,31.66a7.185,7.185,0,1,0-11.2.545,7.081,7.081,0,0,0,5.34,2.433M22.461,24.412a5.244,5.244,0,0,1,9.417,2.161,5.226,5.226,0,1,1-9.417-2.161" transform="translate(-15.061 -15.629)" fill="#19538d"/>
        <path id="Trazado_1274446" data-name="Trazado 1274446" d="M124.9,112.767a11.087,11.087,0,1,0-9.833,12.168,11.026,11.026,0,0,0,9.833-12.168m-12.8-7.752a8.928,8.928,0,0,1,6.9,1.369,9.172,9.172,0,0,1,3.833,5.752,8.944,8.944,0,0,1-1.318,6.773,9.114,9.114,0,0,1-5.819,3.946,8.9,8.9,0,0,1-1.784.181,9.165,9.165,0,0,1-8.889-7.121,9.088,9.088,0,0,1,7.078-10.9" transform="translate(-79.302 -79.326)" fill="#19538d"/>
        <path id="Trazado_1274447" data-name="Trazado 1274447" d="M126.391,138.028a2.455,2.455,0,0,0,3.365-.014l5.591-5.623a2.519,2.519,0,0,0-.165-3.437,2.6,2.6,0,0,0-3.6-.121L128,132.346a2.853,2.853,0,0,0-1.895-1.25,2.537,2.537,0,0,0-2.068.592,2.665,2.665,0,0,0-.942,1.926,2.623,2.623,0,0,0,.812,1.978Zm-1.235-4.764a.648.648,0,0,1,.518-.26.6.6,0,0,1,.414.165l1.183,1.116a1.079,1.079,0,0,0,1.577.064l4-4.015a.627.627,0,0,1,.479-.2.669.669,0,0,1,.476.232.71.71,0,0,1-.15,1l-5.037,5.035a.866.866,0,0,1-.591.276.588.588,0,0,1-.442-.194l-2.345-2.355a.723.723,0,0,1-.08-.871" transform="translate(-94.899 -98.813)" fill="#19538d"/>
      </g>
    </g>
  </g>
</svg>
