<svg xmlns="http://www.w3.org/2000/svg" xmlns:xlink="http://www.w3.org/1999/xlink" width="292" height="239" viewBox="0 0 292 239">
  <defs>
    <clipPath id="clip-path">
      <rect id="Rectángulo_460902" data-name="Rectángulo 460902" width="236.482" height="233.572" fill="none"/>
    </clipPath>
    <clipPath id="clip-path-2">
      <path id="Trazado_1273311" data-name="Trazado 1273311" d="M119.585,95.353a96.47,96.47,0,0,1-10.941,2.033,85.424,85.424,0,0,1,2.458,24.878c-.305,5.486-1.659,8.972-5.561,12.786a2.139,2.139,0,0,0-.444,1.467c-.051,1.349,1.576,1.621,2.547,2.1,2.828,1.4,5.573,2.97,8.345,4.474l4.348,2.11c8.565-21.244,5.174-35.776,1.557-50.137-.77.1-1.54.192-2.31.286" transform="translate(-105.096 -95.067)" fill="none"/>
    </clipPath>
    <clipPath id="clip-path-4">
      <path id="Trazado_1273320" data-name="Trazado 1273320" d="M97.412,126.829c-1.857.6-4.353,2.023-4.818,4.06a7.583,7.583,0,0,0,.07,2.833q.267,1.741.572,3.477c.305,1.74.628,3.48,1.022,5.2a1.055,1.055,0,0,1-.217,1.041,1.292,1.292,0,0,1-.876.2,7.2,7.2,0,0,0,3.743,2.824,7.01,7.01,0,0,0,4.681-.152,6.249,6.249,0,0,0,1.339-.629,3.63,3.63,0,0,0,.954-1.126.124.124,0,0,0,.021-.115.13.13,0,0,0-.091-.052,1.4,1.4,0,0,1-.953-.627,1.613,1.613,0,0,1-.143-.634,9.177,9.177,0,0,1,0-1.345c.011-.153-.032-.429.15-.457a2.583,2.583,0,0,1,.475.07,2.924,2.924,0,0,0,1.643-.357,4.757,4.757,0,0,0,2.136-3.657c.332-2.994-1.157-8.06-3.72-9.938a6.079,6.079,0,0,0-3.539-.981,8.122,8.122,0,0,0-2.446.366" transform="translate(-92.485 -126.463)" fill="none"/>
    </clipPath>
  </defs>
  <g id="Grupo_1211601" data-name="Grupo 1211601" transform="translate(-1122 -2500)">
    <rect id="Rectángulo_464433" data-name="Rectángulo 464433" width="292" height="239" transform="translate(1122 2500)" fill="#fff"/>
    <g id="Grupo_1211166" data-name="Grupo 1211166" transform="translate(28.56)">
      <rect id="Rectángulo_460557" data-name="Rectángulo 460557" width="236" height="239" transform="translate(1122.482 2500)" fill="none"/>
      <g id="Grupo_1211165" data-name="Grupo 1211165" transform="translate(1122 2502.43)">
        <g id="Grupo_1211156" data-name="Grupo 1211156">
          <g id="Grupo_1211155" data-name="Grupo 1211155" clip-path="url(#clip-path)">
            <path id="Trazado_1273275" data-name="Trazado 1273275" d="M42.794,76.651a56.237,56.237,0,0,0-30.68-2.041,20.555,20.555,0,0,0-8.441,3.462c-2.4,1.874-4.059,4.852-3.6,7.8A8.791,8.791,0,0,0,4.47,91.742a21.577,21.577,0,0,0,7.288,2.4,66.691,66.691,0,0,0,25.279-.294,21.288,21.288,0,0,0,8.572-3.342c6.216-4.65,3.877-11.444-2.815-13.857" transform="translate(0 -32.118)" fill="#ffeebc"/>
            <path id="Trazado_1273276" data-name="Trazado 1273276" d="M201.78,246.82a49.579,49.579,0,0,0,13.915-9.444,46.162,46.162,0,0,0,2.2-63.944c-4-4.462-8.84-8.106-12.961-12.461-15.555-16.434-15.524-40.265-29.453-57.218C169.7,96.709,161.8,91.66,153.514,87.863c-16.292-7.465-34.95-10.429-52.414-6.407-22.4,5.16-42.148,24.792-49.123,46.7-3.36,10.557-2.876,22.626,2.836,32.119,5.857,9.734,16.242,15.67,24.366,23.609,11.426,11.166,18.2,26.1,26.781,39.577,4.652,7.3,10.026,14.365,17.208,19.2,8.272,5.564,18.328,7.764,28.206,9.122,16.859,2.318,35.331,1.982,50.406-4.961" transform="translate(-21.835 -34.87)" fill="#ffeebc"/>
            <ellipse id="Elipse_13709" data-name="Elipse 13709" cx="2.578" cy="3.85" rx="2.578" ry="3.85" transform="translate(145.785 127.379)" fill="none" stroke="#000" stroke-linecap="round" stroke-miterlimit="10" stroke-width="1"/>
            <path id="Trazado_1273277" data-name="Trazado 1273277" d="M403.778,73.841a8.574,8.574,0,0,1,.327,9.417" transform="translate(-176.76 -32.325)" fill="none" stroke="#000" stroke-linecap="round" stroke-miterlimit="10" stroke-width="1"/>
            <path id="Trazado_1273278" data-name="Trazado 1273278" d="M379.466,83.212c-3.908,0-7.077-3.455-7.077-3.455s3.169-3.456,7.077-3.456,7.077,3.456,7.077,3.456S383.375,83.212,379.466,83.212Z" transform="translate(-163.018 -33.402)" fill="none" stroke="#1c1c1b" stroke-miterlimit="10" stroke-width="1"/>
            <path id="Trazado_1273279" data-name="Trazado 1273279" d="M382.527,83.221a3.482,3.482,0,1,1,3.087-3.46,3.29,3.29,0,0,1-3.087,3.46" transform="translate(-166.105 -33.402)"/>
            <line id="Línea_3255" data-name="Línea 3255" x1="2.163" y2="5.817" transform="translate(200.152 43.048)" fill="none" stroke="#000" stroke-linecap="round" stroke-miterlimit="10" stroke-width="1"/>
            <line id="Línea_3256" data-name="Línea 3256" x1="2.163" y2="5.817" transform="translate(202.904 43.048)" fill="none" stroke="#000" stroke-linecap="round" stroke-miterlimit="10" stroke-width="1"/>
            <path id="Trazado_1273280" data-name="Trazado 1273280" d="M22.673,237.147a.53.53,0,1,1-.53-.518.524.524,0,0,1,.53.518" transform="translate(-9.461 -103.588)"/>
            <path id="Trazado_1273281" data-name="Trazado 1273281" d="M22.673,237.147a.53.53,0,1,1-.53-.518A.524.524,0,0,1,22.673,237.147Z" transform="translate(-9.461 -103.588)" fill="none" stroke="#000" stroke-miterlimit="10" stroke-width="1"/>
            <path id="Trazado_1273282" data-name="Trazado 1273282" d="M22.673,241.755a.53.53,0,1,1-.53-.518.524.524,0,0,1,.53.518" transform="translate(-9.461 -105.605)"/>
            <path id="Trazado_1273283" data-name="Trazado 1273283" d="M22.673,241.755a.53.53,0,1,1-.53-.518A.524.524,0,0,1,22.673,241.755Z" transform="translate(-9.461 -105.605)" fill="none" stroke="#000" stroke-miterlimit="10" stroke-width="1"/>
            <path id="Trazado_1273284" data-name="Trazado 1273284" d="M34.394,237.232c0,1.86-1.068,3.368-2.385,3.368s-2.384-1.508-2.384-3.368,1.068-3.368,2.384-3.368S34.394,235.372,34.394,237.232Z" transform="translate(-12.969 -102.377)" fill="none" stroke="#000" stroke-linecap="round" stroke-miterlimit="10" stroke-width="1"/>
            <path id="Trazado_1273285" data-name="Trazado 1273285" d="M47.59,237.232c0,1.86-1.068,3.368-2.384,3.368s-2.385-1.508-2.385-3.368,1.068-3.368,2.385-3.368S47.59,235.372,47.59,237.232Z" transform="translate(-18.745 -102.377)" fill="none" stroke="#000" stroke-linecap="round" stroke-miterlimit="10" stroke-width="1"/>
            <path id="Trazado_1273286" data-name="Trazado 1273286" d="M197.335,393.323l-5.43,4.017,5.129,3.4" transform="translate(-84.009 -172.182)" fill="none" stroke="#000" stroke-linecap="round" stroke-miterlimit="10" stroke-width="1"/>
            <line id="Línea_3257" data-name="Línea 3257" x1="2.414" y2="6.798" transform="translate(127.203 221.449)" fill="none" stroke="#000" stroke-linecap="round" stroke-miterlimit="10" stroke-width="1"/>
            <line id="Línea_3258" data-name="Línea 3258" x1="2.414" y2="6.798" transform="translate(130.824 221.449)" fill="none" stroke="#000" stroke-linecap="round" stroke-miterlimit="10" stroke-width="1"/>
            <rect id="Rectángulo_460892" data-name="Rectángulo 460892" width="5.687" height="4.817" transform="translate(117.149 222.29)"/>
            <line id="Línea_3259" data-name="Línea 3259" x1="10.672" transform="translate(113.495 35.986)" fill="none" stroke="#000" stroke-linecap="round" stroke-miterlimit="10" stroke-width="1"/>
            <path id="Trazado_1273287" data-name="Trazado 1273287" d="M225.048,57.25l5.992,4.232-5.659,3.58" transform="translate(-98.518 -25.062)" fill="none" stroke="#000" stroke-linecap="round" stroke-miterlimit="10" stroke-width="1"/>
            <path id="Trazado_1273288" data-name="Trazado 1273288" d="M229.123,114.466H195.042A2.043,2.043,0,0,1,193,112.423v-9.958a2.043,2.043,0,0,1,2.044-2.044h34.082a2.043,2.043,0,0,1,2.043,2.044v9.958a2.043,2.043,0,0,1-2.043,2.043" transform="translate(-84.488 -43.961)" fill="#68eae0"/>
            <line id="Línea_3260" data-name="Línea 3260" y1="7.581" x2="4.793" transform="translate(136.169 46.379)" fill="none" stroke="#000" stroke-linecap="round" stroke-linejoin="round" stroke-width="1"/>
            <line id="Línea_3261" data-name="Línea 3261" x2="4.297" y2="6.998" transform="translate(125.986 74.628)" fill="none" stroke="#000" stroke-linecap="round" stroke-linejoin="round" stroke-width="1"/>
            <line id="Línea_3262" data-name="Línea 3262" x2="11.989" y2="0.016" transform="translate(150.947 64.144)" fill="none" stroke="#000" stroke-linecap="round" stroke-linejoin="round" stroke-width="1"/>
            <line id="Línea_3263" data-name="Línea 3263" y1="7.581" x2="4.792" transform="translate(100.535 74.337)" fill="none" stroke="#000" stroke-linecap="round" stroke-linejoin="round" stroke-width="1"/>
            <line id="Línea_3264" data-name="Línea 3264" x2="11.066" y2="10.775" transform="translate(96.41 42.244)" fill="none" stroke="#000" stroke-linecap="round" stroke-linejoin="round" stroke-width="1"/>
            <line id="Línea_3265" data-name="Línea 3265" x1="0.291" y2="13.105" transform="translate(101.361 104.859)" fill="none" stroke="#000" stroke-linecap="round" stroke-linejoin="round" stroke-width="1"/>
            <line id="Línea_3266" data-name="Línea 3266" y1="7.581" x2="4.052" transform="translate(175.111 75.143)" fill="none" stroke="#000" stroke-linecap="round" stroke-linejoin="round" stroke-width="1"/>
            <path id="Trazado_1273289" data-name="Trazado 1273289" d="M244.623,166.524H210.542a2.044,2.044,0,0,1-2.044-2.043v-9.958a2.044,2.044,0,0,1,2.044-2.044h34.082a2.043,2.043,0,0,1,2.043,2.044v9.958a2.043,2.043,0,0,1-2.043,2.043" transform="translate(-91.273 -66.75)" fill="#68c6ea"/>
            <path id="Rectángulo_460893" data-name="Rectángulo 460893" d="M3.634,0h30.9a3.634,3.634,0,0,1,3.634,3.634V10.41a3.635,3.635,0,0,1-3.635,3.635H3.634A3.634,3.634,0,0,1,0,10.411V3.634A3.634,3.634,0,0,1,3.634,0Z" transform="translate(118.909 87.418)" fill="none" stroke="#000" stroke-linecap="round" stroke-linejoin="round" stroke-width="1"/>
            <path id="Rectángulo_460894" data-name="Rectángulo 460894" d="M3.634,0h30.9a3.635,3.635,0,0,1,3.635,3.635V10.41a3.635,3.635,0,0,1-3.635,3.635H3.634A3.634,3.634,0,0,1,0,10.411V3.634A3.634,3.634,0,0,1,3.634,0Z" transform="translate(110.194 58.149)" fill="none" stroke="#000" stroke-linecap="round" stroke-linejoin="round" stroke-width="1"/>
            <path id="Trazado_1273290" data-name="Trazado 1273290" d="M324.759,166.778H290.678a2.043,2.043,0,0,1-2.044-2.043v-9.958a2.043,2.043,0,0,1,2.044-2.044h34.082a2.043,2.043,0,0,1,2.043,2.044v9.958a2.043,2.043,0,0,1-2.043,2.043" transform="translate(-126.354 -66.861)" fill="#68eae0"/>
            <path id="Rectángulo_460895" data-name="Rectángulo 460895" d="M3.634,0h30.9a3.635,3.635,0,0,1,3.635,3.635V10.41a3.635,3.635,0,0,1-3.635,3.635H3.634A3.634,3.634,0,0,1,0,10.411V3.634A3.634,3.634,0,0,1,3.634,0Z" transform="translate(164.532 87.561)" fill="none" stroke="#000" stroke-linecap="round" stroke-linejoin="round" stroke-width="1"/>
            <path id="Trazado_1273291" data-name="Trazado 1273291" d="M326.368,167.909l-5.179-7.062-6.519,7.062Z" transform="translate(-137.751 -70.413)" fill="#1d1d1b"/>
            <path id="Trazado_1273292" data-name="Trazado 1273292" d="M330.29,114.6H296.209a2.044,2.044,0,0,1-2.044-2.043V102.6a2.044,2.044,0,0,1,2.044-2.044H330.29a2.044,2.044,0,0,1,2.044,2.044v9.958a2.044,2.044,0,0,1-2.044,2.043" transform="translate(-128.775 -44.021)" fill="#68c6ea"/>
            <path id="Rectángulo_460896" data-name="Rectángulo 460896" d="M3.634,0h30.9a3.635,3.635,0,0,1,3.635,3.635V10.41a3.635,3.635,0,0,1-3.635,3.635H3.635A3.635,3.635,0,0,1,0,10.41V3.634A3.634,3.634,0,0,1,3.634,0Z" transform="translate(167.642 58.226)" fill="none" stroke="#000" stroke-linecap="round" stroke-linejoin="round" stroke-width="1"/>
            <path id="Trazado_1273293" data-name="Trazado 1273293" d="M330.646,113.858l-5.179-7.062-6.519,7.062Z" transform="translate(-139.624 -46.751)" fill="#1d1d1b"/>
            <path id="Trazado_1273294" data-name="Trazado 1273294" d="M229.844,111.718a3.825,3.825,0,1,1-3.825-3.825,3.825,3.825,0,0,1,3.825,3.825" transform="translate(-97.269 -47.232)" fill="#1d1d1b"/>
            <path id="Trazado_1273295" data-name="Trazado 1273295" d="M202.865,227.9H168.784a2.044,2.044,0,0,1-2.044-2.043V215.9a2.044,2.044,0,0,1,2.044-2.044h34.082a2.044,2.044,0,0,1,2.044,2.044v9.958a2.044,2.044,0,0,1-2.044,2.043" transform="translate(-72.993 -93.618)" fill="#68eae0"/>
            <path id="Rectángulo_460897" data-name="Rectángulo 460897" d="M3.635,0h30.9a3.635,3.635,0,0,1,3.635,3.635V10.41a3.635,3.635,0,0,1-3.635,3.635H3.634A3.634,3.634,0,0,1,0,10.411V3.635A3.635,3.635,0,0,1,3.635,0Z" transform="translate(95.999 121.926)" fill="none" stroke="#000" stroke-linecap="round" stroke-linejoin="round" stroke-width="1"/>
            <path id="Trazado_1273296" data-name="Trazado 1273296" d="M200.329,228.973a3.822,3.822,0,0,0,0-7.641Z" transform="translate(-87.697 -96.891)" fill="#1d1d1b"/>
            <path id="Trazado_1273297" data-name="Trazado 1273297" d="M295.4,63.439H255.966a2.043,2.043,0,0,1-2.043-2.044V49.468a2.043,2.043,0,0,1,2.043-2.044H295.4a2.044,2.044,0,0,1,2.044,2.044V61.4a2.044,2.044,0,0,1-2.044,2.044" transform="translate(-111.158 -20.761)" fill="#68eae0"/>
            <path id="Rectángulo_460898" data-name="Rectángulo 460898" d="M3.634,0H39.889a3.634,3.634,0,0,1,3.634,3.634v8.747a3.634,3.634,0,0,1-3.634,3.634H3.635A3.635,3.635,0,0,1,0,12.38V3.634A3.634,3.634,0,0,1,3.634,0Z" transform="translate(145.332 28.589)" fill="none" stroke="#000" stroke-linecap="round" stroke-linejoin="round" stroke-width="1"/>
            <path id="Trazado_1273298" data-name="Trazado 1273298" d="M294.9,60.391a4.362,4.362,0,1,1-4.362-4.362,4.362,4.362,0,0,1,4.362,4.362" transform="translate(-125.277 -24.527)" fill="#1d1d1b"/>
            <path id="Trazado_1273299" data-name="Trazado 1273299" d="M160.456,166.524H126.375a2.044,2.044,0,0,1-2.044-2.043v-9.958a2.044,2.044,0,0,1,2.044-2.044h34.082a2.044,2.044,0,0,1,2.044,2.044v9.958a2.044,2.044,0,0,1-2.044,2.043" transform="translate(-54.428 -66.75)" fill="#68eae0"/>
            <path id="Rectángulo_460899" data-name="Rectángulo 460899" d="M3.634,0h30.9a3.635,3.635,0,0,1,3.635,3.635V10.41a3.635,3.635,0,0,1-3.635,3.635H3.634A3.634,3.634,0,0,1,0,10.411V3.634A3.634,3.634,0,0,1,3.634,0Z" transform="translate(71.587 87.418)" fill="none" stroke="#000" stroke-linecap="round" stroke-linejoin="round" stroke-width="1"/>
            <rect id="Rectángulo_460900" data-name="Rectángulo 460900" width="11.77" height="5.297" transform="translate(83.933 90.518)" fill="#1d1d1b"/>
            <path id="Trazado_1273300" data-name="Trazado 1273300" d="M50.461,371.527l-12.045-5.942A75.624,75.624,0,0,0,38.288,376c.235,4.088-.2,10.986,2.937,11.213,2.2.159,6.29-.241,8.509-.242a41.653,41.653,0,0,1,.173-8.311c.228-2.153.4-4.645.554-7.136" transform="translate(-16.708 -160.04)" fill="#ff6363"/>
            <path id="Trazado_1273301" data-name="Trazado 1273301" d="M37.579,402.943c0-.036-.008-.072-.011-.107-.157-1.914-.372-3.683-.344-5.626a12.583,12.583,0,0,1,.462-4.3c3.8.22,7.668-.079,11.505.182.766.052.918,1.742,1.388,2.216a9.658,9.658,0,0,0,3.985,1.775c2.576.719,5.22,1.144,7.357,2.9,1.111.914,3.657,4.235,1.535,5.337-.865.449-2.585.038-3.509,0q-2.291-.105-4.579-.251-8.671-.551-17.292-1.685a.627.627,0,0,1-.377-.138.5.5,0,0,1-.12-.3" transform="translate(-16.294 -172.001)" fill="#0f654d"/>
            <path id="Trazado_1273302" data-name="Trazado 1273302" d="M37.547,407.606q13.537,1.053,27.012,2.762" transform="translate(-16.437 -178.435)" fill="none" stroke="#000" stroke-linecap="round" stroke-linejoin="round" stroke-width="1"/>
            <path id="Trazado_1273303" data-name="Trazado 1273303" d="M68.581,401.343a3.464,3.464,0,0,0,1.582-1.312.66.66,0,0,0,.142-.44.5.5,0,0,0-.558-.36,1.462,1.462,0,0,0-.657.309l-1.508,1.051a1.076,1.076,0,0,1-.468.223.367.367,0,0,1-.409-.244.942.942,0,0,1,.4-.7,2.893,2.893,0,0,0,.608-.561.583.583,0,0,0-.042-.756.606.606,0,0,0-.5-.082c-.844.172-1.3,1.189-2.131,1.4a.355.355,0,0,1-.247-.006.343.343,0,0,1-.113-.4c.148-.569.826-.927.851-1.515a.435.435,0,0,0-.074-.282.5.5,0,0,0-.53-.111c-.8.212-1.195,1.1-1.475,1.883" transform="translate(-27.777 -174.028)" fill="none" stroke="#000" stroke-linecap="round" stroke-linejoin="round" stroke-width="1"/>
            <path id="Trazado_1273304" data-name="Trazado 1273304" d="M42.586,401.817a1.385,1.385,0,0,0,1.693-2.085.935.935,0,0,0-.4-.324,1.315,1.315,0,0,0-.684-.016,2,2,0,0,0-1.212.538,1.111,1.111,0,0,0,.629,1.827" transform="translate(-18.257 -174.823)" fill="none" stroke="#000" stroke-linecap="round" stroke-linejoin="round" stroke-width="1"/>
            <path id="Trazado_1273305" data-name="Trazado 1273305" d="M116.478,370.785l-12.045-5.942a75.535,75.535,0,0,0-.128,10.419c.234,4.088-.2,10.986,2.937,11.213,2.2.159,6.29-.241,8.509-.242a41.654,41.654,0,0,1,.173-8.311c.228-2.153.4-4.645.554-7.136" transform="translate(-45.608 -159.715)" fill="#ff6363"/>
            <path id="Trazado_1273306" data-name="Trazado 1273306" d="M103.6,402.2c0-.036-.008-.072-.011-.107-.157-1.914-.372-3.683-.344-5.626a12.583,12.583,0,0,1,.462-4.3c3.8.22,7.668-.079,11.505.182.766.052.918,1.742,1.388,2.215a9.652,9.652,0,0,0,3.985,1.776c2.576.719,5.22,1.144,7.357,2.9,1.111.914,3.657,4.235,1.534,5.337-.864.449-2.584.038-3.508,0q-2.291-.105-4.579-.251-8.671-.551-17.292-1.685a.627.627,0,0,1-.377-.138.5.5,0,0,1-.12-.3" transform="translate(-45.194 -171.676)" fill="#0f654d"/>
            <path id="Trazado_1273307" data-name="Trazado 1273307" d="M109.179,52.914c.079.587.144,1.178.171,1.775.254,5.591.936,11.155,1.03,16.771.066,4,.206,12.529,6.184,12.219a9.375,9.375,0,0,0,3.6-1.174,5.72,5.72,0,0,0,2.873-2.391,5.974,5.974,0,0,0-.024-3.834l-2.607-11.327c-.79-3.431-1.957-6.837-2.342-10.345-.1-.9-.017-3.366-1.21-3.642a.826.826,0,0,0-.861.354,2.735,2.735,0,0,0-.233-.9.928.928,0,0,0-.72-.53c-.49-.03-.845.442-1.1.861a3.355,3.355,0,0,0-.292-.967,1.131,1.131,0,0,0-.767-.607,1.1,1.1,0,0,0-.984.423,2.642,2.642,0,0,0-.467,1.01c-.151.542-.1,1.784-.474,2.162a3.131,3.131,0,0,1-.454-2.08,10.748,10.748,0,0,1,.4-2.165,1.5,1.5,0,0,0-.063-1.3c-1.2-1.519-2.171,1.541-2.1,2.364.088,1.1.291,2.207.441,3.326" transform="translate(-47.6 -20.491)" fill="#ff6363"/>
            <path id="Trazado_1273308" data-name="Trazado 1273308" d="M119.585,95.354a96.419,96.419,0,0,1-10.941,2.033,85.4,85.4,0,0,1,2.456,24.879c-.3,5.486-1.658,8.971-5.561,12.785a2.141,2.141,0,0,0-.444,1.467c-.051,1.349,1.575,1.621,2.546,2.1,2.829,1.4,5.573,2.97,8.345,4.474l4.349,2.11c8.565-21.244,5.174-35.776,1.557-50.137-.769.1-1.539.192-2.309.286" transform="translate(-46.007 -41.617)" fill="#0f654d"/>
            <path id="Trazado_1273309" data-name="Trazado 1273309" d="M115.74,51.716H64.918a2.043,2.043,0,0,1-2.043-2.044V36.647A2.043,2.043,0,0,1,64.918,34.6H115.74a2.044,2.044,0,0,1,2.044,2.044V49.672a2.044,2.044,0,0,1-2.044,2.044" transform="translate(-27.524 -15.148)" fill="#68eae0"/>
            <path id="Rectángulo_460901" data-name="Rectángulo 460901" d="M3.635,0h47.64a3.634,3.634,0,0,1,3.634,3.634v9.844a3.635,3.635,0,0,1-3.635,3.635H3.635A3.635,3.635,0,0,1,0,13.478V3.635A3.635,3.635,0,0,1,3.635,0Z" transform="translate(38.589 21.513)" fill="none" stroke="#000" stroke-linecap="round" stroke-linejoin="round" stroke-width="1"/>
          </g>
        </g>
        <g id="Grupo_1211158" data-name="Grupo 1211158" transform="translate(59.089 53.45)">
          <g id="Grupo_1211157" data-name="Grupo 1211157" clip-path="url(#clip-path-2)">
            <path id="Trazado_1273310" data-name="Trazado 1273310" d="M138.305,137.743c1.7.149,4.469-1.054,4.166-3.1a2.791,2.791,0,0,0-.377-.92c-.948-1.7-2.1-3.13-4.218-1.753a4.4,4.4,0,0,0-1.728,2.5,3.04,3.04,0,0,0-.117,1.438,2.514,2.514,0,0,0,2.257,1.836l.017,0" transform="translate(-118.62 -110.98)"/>
          </g>
        </g>
        <g id="Grupo_1211160" data-name="Grupo 1211160">
          <g id="Grupo_1211159" data-name="Grupo 1211159" clip-path="url(#clip-path)">
            <path id="Trazado_1273312" data-name="Trazado 1273312" d="M46.929,238.573l.164-.561c1.639-5.632,3.3-11.26,4.919-16.9,1.021-3.549.358-7.608,1.315-10.831,1.986-6.693,17.9-3.906,23.771-4.52,3.077-.322,8.328-1.884,10.925.57,2.324,2.195,2.4,7.681,2.942,10.686,2.557,14.243,1.664,28.852.763,43.295q-.908,14.543-1.816,29.086c-.329,5.27-.254,10.735-1.276,15.883-7.58,1.459-16.416.534-24.049-.32l4.662-36.278c1.467-11.421,3.071-22.889,3.549-34.414-1.178,5.591-3.426,11.056-5.022,16.556-1.809,6.233-3.485,12.506-5.346,18.725-.951,3.179-9.489,35.911-10.716,35.825L28,303.613l18.934-65.041" transform="translate(-12.255 -89.731)"/>
            <path id="Trazado_1273313" data-name="Trazado 1273313" d="M101.688,160.248a23.239,23.239,0,0,0-7.916-2.907,44.4,44.4,0,0,0-9.929-.417c-3.917.148-6.507,1.145-9.206,4.138-3.193,3.541-4.137,7.895-4.47,12.505q-.611,8.438-1.222,16.874c13.251-.379,26.918.142,40.089-1.222,1.645-.171-2.729-21.144-3.089-22.912a9.9,9.9,0,0,0-1.09-3.285,8.2,8.2,0,0,0-2.614-2.428q-.277-.18-.553-.348" transform="translate(-30.182 -68.659)" fill="#0f654d"/>
            <path id="Trazado_1273314" data-name="Trazado 1273314" d="M112.612,127.247a8.33,8.33,0,0,1,.022,1.426,1.661,1.661,0,0,1-.348,1.045c-1.156,1.231-3.7-3.021-4.154-3.786A5.939,5.939,0,0,1,107.084,122a1.762,1.762,0,0,1,1.494-1.416c.827-.039,1.695.95,2.1,1.568a11.485,11.485,0,0,1,1.932,5.094" transform="translate(-46.848 -52.787)"/>
            <path id="Trazado_1273315" data-name="Trazado 1273315" d="M97.754,126.026q-.373.178-.73.376c-1.3.717-2.727,1.647-2.971,3.23a14.655,14.655,0,0,0-.156,2.236,37.583,37.583,0,0,0,.36,4.5q.235,1.95.471,3.9c.07.575.439,2.282-.209,2.648a.783.783,0,0,1-.333.069,2.972,2.972,0,0,0-.671.133c.026-.008.717.847.823.925.3.22.566.483.863.712a7.106,7.106,0,0,0,2.158,1.137,7,7,0,0,0,4.681-.152,6.2,6.2,0,0,0,1.339-.629,3.1,3.1,0,0,0,.866-.974.655.655,0,0,0-.293-.912,1.991,1.991,0,0,1-.365-.232,1.17,1.17,0,0,1-.446-.761c-.046-.441-.135-1.315.265-1.577a16.519,16.519,0,0,1,1.692-.509c1.749-.823,2.1-2.307,2-4.124a20.211,20.211,0,0,0-1.048-5.418c-.376-1.1-.847-2.175-1.121-3.306a3.4,3.4,0,0,0-.463-1.276c-.394-.529-.868-.482-1.441-.557-.548-.07-1.06-.277-1.629-.3a7.77,7.77,0,0,0-3.644.863" transform="translate(-40.937 -54.789)" fill="#ff6363"/>
            <path id="Trazado_1273316" data-name="Trazado 1273316" d="M72.022,137.841a17.364,17.364,0,0,0,2.195,3.223c.891,1.049,1.661.794,2.89.293a12.834,12.834,0,0,1,6.458-.841,2.554,2.554,0,0,0,.871.021c.825-.182.965-1.168,1.171-1.85.549-1.815.28-3.621.522-5.477a5.683,5.683,0,0,1,.784-2.3c.4-.632,1.025-.931,1.481-1.481,1.058-1.275-.355-2.921.58-4.041a4.512,4.512,0,0,1,1.933-1.105c1.385-.467,3.312-.525,4.123-1.947a2.747,2.747,0,0,0-.506-3.1,5.075,5.075,0,0,0-2.976-1.424,9.1,9.1,0,0,0-7.123,1.912c-1.063.869-1.869,2.1-3.118,2.681a27.8,27.8,0,0,0-4.118,1.81,22.386,22.386,0,0,0-1.846,1.542c-1.661,1.4-3.847,2.955-4.6,5.085-.667,1.882-.1,3.974.708,5.8.177.4.368.8.573,1.2" transform="translate(-30.839 -51.525)"/>
            <path id="Trazado_1273317" data-name="Trazado 1273317" d="M96.263,139.333c.344,1.312,2.548,2.283,3.01.577.266-.982-.193-2.627-1.375-2.754a1.716,1.716,0,0,0-1.634,2.177" transform="translate(-42.118 -60.038)" fill="#ff6363"/>
            <path id="Trazado_1273318" data-name="Trazado 1273318" d="M97.026,139.472a.674.674,0,0,1,.394-.368,1.183,1.183,0,0,1,.959.053,1.558,1.558,0,0,1,.681.7" transform="translate(-42.474 -60.861)" fill="none" stroke="#000" stroke-linecap="round" stroke-linejoin="round" stroke-width="1"/>
          </g>
        </g>
        <g id="Grupo_1211162" data-name="Grupo 1211162" transform="translate(51.998 71.102)">
          <g id="Grupo_1211161" data-name="Grupo 1211161" clip-path="url(#clip-path-4)">
            <path id="Trazado_1273319" data-name="Trazado 1273319" d="M110.622,152.539a3.541,3.541,0,0,1-1.926-.4,2.518,2.518,0,0,0-.946-.4.362.362,0,0,0-.337.12c-.111.166.046.387.22.484s.389.153.494.323.07.371.157.537a.87.87,0,0,0,.631.346,7.07,7.07,0,0,1,1.6.5" transform="translate(-99.004 -137.526)"/>
          </g>
        </g>
        <g id="Grupo_1211164" data-name="Grupo 1211164">
          <g id="Grupo_1211163" data-name="Grupo 1211163" clip-path="url(#clip-path)">
            <path id="Trazado_1273321" data-name="Trazado 1273321" d="M65.635,53.588c-.21.741-.391,1.492-.59,2.235-1.573,5.887-3.47,11.7-5.21,17.555q-.372,1.251-.745,2.5c-.57,1.913-1.141,3.965-.54,5.868A6.163,6.163,0,0,0,63.532,85.7a9.087,9.087,0,0,0,4.349-.484c1.7-.593,2.011-1.066,2.517-2.735.828-2.727.3-6.178.537-9.044a86.961,86.961,0,0,1,1.356-9.613A62.907,62.907,0,0,1,75.007,53.3a3.4,3.4,0,0,0,.263-.924,1.088,1.088,0,0,0-.288-.887.89.89,0,0,0-1.276.213,1.748,1.748,0,0,0,.351-.821,1.336,1.336,0,0,0-.136-.844c-.421-.547-1.334.165-1.684.444.3-.381.75-.966.645-1.487a.69.69,0,0,0-.5-.539,1.012,1.012,0,0,0-.688.158A7.418,7.418,0,0,0,69.906,50.2a19.129,19.129,0,0,0-2.018,2.732,6.632,6.632,0,0,1,2.063-3.765c.323-.314.854-.525.6-1.084A.777.777,0,0,0,69.7,47.7a3.527,3.527,0,0,0-1.357.861,8.417,8.417,0,0,0-2.157,3.36c-.214.544-.391,1.1-.551,1.664" transform="translate(-25.519 -20.876)" fill="#ff6363"/>
            <path id="Trazado_1273322" data-name="Trazado 1273322" d="M71.22,118.915a67.618,67.618,0,0,1-.372-22.8l-.125.021q-1.516.237-3.034.461c-3.917-.229-6.872-1.277-10.456-.633-3.2,15.1-.624,34.185,7.526,47.3,2.288,3.684,5.2,7.292,9.283,8.758a61.78,61.78,0,0,0,8.873-12.186c-6.172-5.3-10.011-12.967-11.694-20.926" transform="translate(-24.471 -41.921)" fill="#0f654d"/>
            <rect id="Rectángulo_460904" data-name="Rectángulo 460904" width="17.906" height="5.134" transform="translate(57.322 25.538)" fill="#1d1d1b"/>
            <path id="Trazado_1273323" data-name="Trazado 1273323" d="M84.491,54.487a12.153,12.153,0,0,0-2.007,3.873" transform="translate(-36.109 -23.852)" fill="none" stroke="#1c1c1b" stroke-linecap="round" stroke-linejoin="round" stroke-width="1"/>
            <path id="Trazado_1273324" data-name="Trazado 1273324" d="M81.1,52.382a11.521,11.521,0,0,0-2.9,4.245" transform="translate(-34.232 -22.931)" fill="none" stroke="#1c1c1b" stroke-linecap="round" stroke-linejoin="round" stroke-width="1"/>
            <path id="Trazado_1273325" data-name="Trazado 1273325" d="M75.124,56.856a3.463,3.463,0,0,1-.265.819" transform="translate(-32.771 -24.89)" fill="none" stroke="#1c1c1b" stroke-linecap="round" stroke-linejoin="round" stroke-width="1"/>
            <path id="Trazado_1273326" data-name="Trazado 1273326" d="M69.178,53.589a1.309,1.309,0,0,1,.427-.446.756.756,0,0,1,.979.125,1.219,1.219,0,0,1,.042.986A12.725,12.725,0,0,0,70.361,57a19.45,19.45,0,0,1,.041,2.549,1.183,1.183,0,0,1-.4.866.8.8,0,0,1-.851-.032,1.535,1.535,0,0,1-.545-.7,4.79,4.79,0,0,1-.28-2.232,9.167,9.167,0,0,1,.855-3.859" transform="translate(-29.901 -23.211)" fill="#ff6363"/>
            <path id="Trazado_1273327" data-name="Trazado 1273327" d="M71.8,54.439a13.994,13.994,0,0,0-1.068,3.5" transform="translate(-30.963 -23.831)" fill="none" stroke="#1c1c1b" stroke-linecap="round" stroke-linejoin="round" stroke-width="1"/>
            <path id="Trazado_1273328" data-name="Trazado 1273328" d="M110.817,144.52a2.512,2.512,0,0,0,2.519.661.989.989,0,0,0,.526-.33" transform="translate(-48.512 -63.266)" fill="none" stroke="#000" stroke-linecap="round" stroke-linejoin="round" stroke-width="1"/>
            <path id="Trazado_1273329" data-name="Trazado 1273329" d="M71.907,179.843l.811,2.421" transform="translate(-31.478 -78.729)" fill="none" stroke="#000" stroke-linecap="round" stroke-linejoin="round" stroke-width="1"/>
            <path id="Trazado_1273330" data-name="Trazado 1273330" d="M134.4,174.536a22.019,22.019,0,0,0-1.466,4.516" transform="translate(-58.192 -76.406)" fill="none" stroke="#000" stroke-linecap="round" stroke-linejoin="round" stroke-width="1"/>
            <path id="Trazado_1273331" data-name="Trazado 1273331" d="M60.717,133.088a2.247,2.247,0,0,1,1.634-1.618,2.123,2.123,0,0,1,2.089,1.1,3.884,3.884,0,0,1,.38,2.437c-.163,1.295-1.276,3.484-2.944,2.867-1.478-.546-1.527-3.575-1.158-4.784" transform="translate(-26.495 -57.543)"/>
            <path id="Trazado_1273332" data-name="Trazado 1273332" d="M103.563,406.865q13.537,1.053,27.012,2.762" transform="translate(-45.336 -178.111)" fill="none" stroke="#000" stroke-linecap="round" stroke-linejoin="round" stroke-width="1"/>
            <path id="Trazado_1273333" data-name="Trazado 1273333" d="M134.6,400.6a3.464,3.464,0,0,0,1.582-1.312.66.66,0,0,0,.142-.44.5.5,0,0,0-.558-.36,1.464,1.464,0,0,0-.657.309l-1.508,1.051a1.076,1.076,0,0,1-.468.223.367.367,0,0,1-.409-.244.942.942,0,0,1,.4-.7,2.88,2.88,0,0,0,.608-.561.583.583,0,0,0-.042-.756.608.608,0,0,0-.5-.082c-.844.173-1.3,1.189-2.131,1.4a.354.354,0,0,1-.247-.006.344.344,0,0,1-.113-.4c.148-.569.826-.927.851-1.515a.435.435,0,0,0-.074-.282.5.5,0,0,0-.53-.111c-.8.212-1.194,1.1-1.475,1.883" transform="translate(-56.677 -173.703)" fill="none" stroke="#000" stroke-linecap="round" stroke-linejoin="round" stroke-width="1"/>
            <path id="Trazado_1273334" data-name="Trazado 1273334" d="M108.6,401.075a1.385,1.385,0,0,0,1.693-2.085.936.936,0,0,0-.4-.324,1.313,1.313,0,0,0-.683-.016,2,2,0,0,0-1.213.538,1.111,1.111,0,0,0,.629,1.827" transform="translate(-47.157 -174.498)" fill="none" stroke="#000" stroke-linecap="round" stroke-linejoin="round" stroke-width="1"/>
            <path id="Trazado_1273335" data-name="Trazado 1273335" d="M107.233,250.2a91.052,91.052,0,0,0,2.063-13.646" transform="translate(-46.943 -103.555)" fill="none" stroke="#0f654d" stroke-linecap="round" stroke-linejoin="round" stroke-width="1"/>
            <path id="Trazado_1273336" data-name="Trazado 1273336" d="M104.572,157.427a3.79,3.79,0,0,1-1.962,2.354,7.436,7.436,0,0,1-5.526.284,5.59,5.59,0,0,1-1.038-.44,7.6,7.6,0,0,1-2.156-2.048" transform="translate(-41.102 -68.916)" fill="none" stroke="#000" stroke-linecap="round" stroke-linejoin="round" stroke-width="1"/>
            <line id="Línea_3267" data-name="Línea 3267" x2="221.917" transform="translate(14.283 233.291)" fill="none" stroke="#000" stroke-linecap="round" stroke-linejoin="round" stroke-width="1"/>
            <path id="Trazado_1273337" data-name="Trazado 1273337" d="M190.752,270.366H170.731a2.219,2.219,0,1,0,0,4.438h20.021a2.219,2.219,0,1,0,0-4.438" transform="translate(-73.747 -118.356)" fill="#1d1d1b"/>
            <path id="Trazado_1273338" data-name="Trazado 1273338" d="M237.461,270.366H222.6a2.318,2.318,0,0,0-2.356,2A2.239,2.239,0,0,0,222.5,274.8h14.959a2.219,2.219,0,1,0,0-4.438" transform="translate(-96.41 -118.356)" fill="#0f654d"/>
            <path id="Trazado_1273339" data-name="Trazado 1273339" d="M262.2,272.585h0a2.245,2.245,0,0,0,2.269,2.219h43.671a2.22,2.22,0,1,0,0-4.438H264.472a2.245,2.245,0,0,0-2.269,2.219" transform="translate(-114.783 -118.356)" fill="#1d1d1b"/>
            <path id="Trazado_1273340" data-name="Trazado 1273340" d="M373.342,270.366H359.386a2.219,2.219,0,1,0,0,4.438h13.956a2.219,2.219,0,1,0,0-4.438" transform="translate(-156.333 -118.356)" fill="#0f654d"/>
            <path id="Trazado_1273341" data-name="Trazado 1273341" d="M328.468,289.8H288.74a2.219,2.219,0,1,0,0,4.438h39.729a2.219,2.219,0,1,0,0-4.438" transform="translate(-125.406 -126.862)" fill="#0f654d"/>
            <path id="Trazado_1273342" data-name="Trazado 1273342" d="M372.044,292.015h0a2.245,2.245,0,0,0,2.269,2.219h8.459a2.22,2.22,0,1,0,0-4.438h-8.459a2.245,2.245,0,0,0-2.269,2.219" transform="translate(-162.867 -126.862)" fill="#0f654d"/>
            <path id="Trazado_1273343" data-name="Trazado 1273343" d="M269.473,289.8h-5a2.219,2.219,0,1,0,0,4.438h5a2.219,2.219,0,1,0,0-4.438" transform="translate(-114.783 -126.862)" fill="#1d1d1b"/>
            <path id="Trazado_1273344" data-name="Trazado 1273344" d="M243.574,308.961h-5a2.219,2.219,0,1,0,0,4.438h5a2.219,2.219,0,1,0,0-4.438" transform="translate(-103.445 -135.252)" fill="#ffb758"/>
            <path id="Trazado_1273345" data-name="Trazado 1273345" d="M150.757,292.015h0a2.219,2.219,0,0,0,2.219,2.219h43.615a2.219,2.219,0,0,0,0-4.438H152.976a2.219,2.219,0,0,0-2.219,2.219" transform="translate(-65.996 -126.862)" fill="#1d1d1b"/>
            <path id="Trazado_1273346" data-name="Trazado 1273346" d="M131.347,289.8h-.616a2.219,2.219,0,1,0,0,4.438h.616a2.219,2.219,0,1,0,0-4.438" transform="translate(-56.236 -126.862)" fill="#0f654d"/>
            <path id="Trazado_1273347" data-name="Trazado 1273347" d="M128.16,311.444h0a2.5,2.5,0,0,0,2.71,2.219h47.81a2.264,2.264,0,1,0,0-4.438H130.87a2.5,2.5,0,0,0-2.71,2.219" transform="translate(-56.104 -135.368)" fill="#ffb758"/>
            <path id="Trazado_1273348" data-name="Trazado 1273348" d="M266.912,311.444h0c0,1.226.728,2.219,1.627,2.219H315.7c.9,0,1.627-.993,1.627-2.219s-.728-2.219-1.627-2.219h-47.16c-.9,0-1.627.993-1.627,2.219" transform="translate(-116.844 -135.368)" fill="#1d1d1b"/>
            <path id="Trazado_1273349" data-name="Trazado 1273349" d="M365.219,311.444h0a2.245,2.245,0,0,0,2.269,2.219H381.4a2.22,2.22,0,1,0,0-4.438H367.488a2.245,2.245,0,0,0-2.269,2.219" transform="translate(-159.88 -135.368)" fill="#1d1d1b"/>
            <path id="Trazado_1273350" data-name="Trazado 1273350" d="M292.942,330.874h0a2.245,2.245,0,0,0,2.269,2.219h49.432a2.22,2.22,0,1,0,0-4.438H295.211a2.245,2.245,0,0,0-2.269,2.219" transform="translate(-128.239 -143.873)" fill="#ffb758"/>
            <path id="Trazado_1273351" data-name="Trazado 1273351" d="M150.033,330.874h0a2.245,2.245,0,0,0,2.269,2.219h37.91a2.22,2.22,0,1,0,0-4.438H152.3a2.245,2.245,0,0,0-2.269,2.219" transform="translate(-65.679 -143.873)" fill="#1d1d1b"/>
            <path id="Trazado_1273352" data-name="Trazado 1273352" d="M230.386,330.874h0a2.245,2.245,0,0,0,2.269,2.219h23.053a2.22,2.22,0,1,0,0-4.438H232.655a2.245,2.245,0,0,0-2.269,2.219" transform="translate(-100.855 -143.873)" fill="#0f654d"/>
            <path id="Trazado_1273353" data-name="Trazado 1273353" d="M180.232,350.3h0a2.245,2.245,0,0,0,2.269,2.219h3.648a2.22,2.22,0,1,0,0-4.438H182.5a2.245,2.245,0,0,0-2.269,2.219" transform="translate(-78.899 -152.379)" fill="#1d1d1b"/>
            <path id="Trazado_1273354" data-name="Trazado 1273354" d="M153.257,350.3a2.219,2.219,0,0,0-2.219-2.219H133.6a2.22,2.22,0,1,0,0,4.438h17.434a2.219,2.219,0,0,0,2.219-2.219" transform="translate(-57.494 -152.379)" fill="#0f654d"/>
            <path id="Trazado_1273355" data-name="Trazado 1273355" d="M200.186,350.3h0a2.245,2.245,0,0,0,2.269,2.219H205.5a2.22,2.22,0,1,0,0-4.438h-3.042a2.245,2.245,0,0,0-2.269,2.219" transform="translate(-87.634 -152.379)" fill="#1d1d1b"/>
            <path id="Trazado_1273356" data-name="Trazado 1273356" d="M219.061,350.3h0a2.245,2.245,0,0,0,2.269,2.219h29.723a2.22,2.22,0,1,0,0-4.438H221.33a2.245,2.245,0,0,0-2.269,2.219" transform="translate(-95.897 -152.379)" fill="#ffb758"/>
            <path id="Trazado_1273357" data-name="Trazado 1273357" d="M288.628,350.3h0a2.245,2.245,0,0,0,2.269,2.219h10.925a2.22,2.22,0,1,0,0-4.438H290.9a2.245,2.245,0,0,0-2.269,2.219" transform="translate(-126.351 -152.379)" fill="#0f654d"/>
            <path id="Trazado_1273358" data-name="Trazado 1273358" d="M328,350.3h0a2.245,2.245,0,0,0,2.269,2.219h11.228a2.22,2.22,0,1,0,0-4.438H330.264A2.245,2.245,0,0,0,328,350.3" transform="translate(-143.584 -152.379)" fill="#1d1d1b"/>
            <path id="Trazado_1273359" data-name="Trazado 1273359" d="M370.059,350.3h0a2.245,2.245,0,0,0,2.269,2.219H378.4a2.22,2.22,0,1,0,0-4.438h-6.074a2.245,2.245,0,0,0-2.269,2.219" transform="translate(-161.999 -152.379)" fill="#1d1d1b"/>
            <path id="Trazado_1273360" data-name="Trazado 1273360" d="M175.721,369.733h0a2.245,2.245,0,0,0,2.269,2.219h27.982a2.22,2.22,0,1,0,0-4.438H177.99a2.245,2.245,0,0,0-2.269,2.219" transform="translate(-76.924 -160.884)" fill="#0f654d"/>
            <path id="Trazado_1273361" data-name="Trazado 1273361" d="M244.946,369.733h0a2.245,2.245,0,0,0,2.269,2.219h4.254a2.22,2.22,0,1,0,0-4.438h-4.254a2.245,2.245,0,0,0-2.269,2.219" transform="translate(-107.229 -160.884)" fill="#0f654d"/>
            <path id="Trazado_1273362" data-name="Trazado 1273362" d="M276.57,369.733h0a2.245,2.245,0,0,0,2.269,2.219H300.2a2.22,2.22,0,1,0,0-4.438H278.839a2.245,2.245,0,0,0-2.269,2.219" transform="translate(-121.072 -160.884)" fill="#1d1d1b"/>
            <path id="Trazado_1273363" data-name="Trazado 1273363" d="M330.812,369.733h0a2.245,2.245,0,0,0,2.269,2.219h16.685a2.22,2.22,0,1,0,0-4.438H333.081a2.245,2.245,0,0,0-2.269,2.219" transform="translate(-144.818 -160.884)" fill="#ffb758"/>
            <path id="Trazado_1273364" data-name="Trazado 1273364" d="M298.679,216.525h0a2.245,2.245,0,0,0,2.269,2.219H350.38a2.22,2.22,0,1,0,0-4.438H300.948a2.245,2.245,0,0,0-2.269,2.219" transform="translate(-130.751 -93.815)" fill="#1d1d1b"/>
            <path id="Trazado_1273365" data-name="Trazado 1273365" d="M324.337,197.519h-6.042a2.219,2.219,0,1,0,0,4.438h6.042a2.219,2.219,0,1,0,0-4.438" transform="translate(-138.344 -86.467)" fill="#ffb758"/>
            <path id="Trazado_1273366" data-name="Trazado 1273366" d="M285.989,197.519H265.467a2.219,2.219,0,1,0,0,4.438h20.522a2.219,2.219,0,1,0,0-4.438" transform="translate(-115.219 -86.467)" fill="#0f654d"/>
            <path id="Trazado_1273367" data-name="Trazado 1273367" d="M341.117,199.738h0a2.245,2.245,0,0,0,2.269,2.219h25.571a2.22,2.22,0,1,0,0-4.438H343.386a2.245,2.245,0,0,0-2.269,2.219" transform="translate(-149.329 -86.467)" fill="#0f654d"/>
            <path id="Trazado_1273368" data-name="Trazado 1273368" d="M294.364,235.955h0a2.245,2.245,0,0,0,2.269,2.219h10.925a2.22,2.22,0,1,0,0-4.438H296.633a2.245,2.245,0,0,0-2.269,2.219" transform="translate(-128.862 -102.321)" fill="#ffb758"/>
            <path id="Trazado_1273369" data-name="Trazado 1273369" d="M333.732,235.955h0A2.245,2.245,0,0,0,336,238.174h11.228a2.22,2.22,0,1,0,0-4.438H336a2.245,2.245,0,0,0-2.269,2.219" transform="translate(-146.096 -102.321)" fill="#1d1d1b"/>
            <path id="Trazado_1273370" data-name="Trazado 1273370" d="M373.473,235.955h0a2.245,2.245,0,0,0,2.269,2.219h8.27a2.22,2.22,0,1,0,0-4.438h-8.27a2.245,2.245,0,0,0-2.269,2.219" transform="translate(-163.493 -102.321)" fill="#ffb758"/>
            <path id="Trazado_1273371" data-name="Trazado 1273371" d="M312.865,255.384h0a2.245,2.245,0,0,0,2.269,2.219h12.744a2.22,2.22,0,1,0,0-4.438H315.134a2.245,2.245,0,0,0-2.269,2.219" transform="translate(-136.961 -110.827)" fill="#ffb758"/>
            <path id="Trazado_1273372" data-name="Trazado 1273372" d="M250.683,255.384h0a2.245,2.245,0,0,0,2.269,2.219h4.254a2.22,2.22,0,1,0,0-4.438h-4.254a2.245,2.245,0,0,0-2.269,2.219" transform="translate(-109.74 -110.827)" fill="#0f654d"/>
            <path id="Trazado_1273373" data-name="Trazado 1273373" d="M273.872,255.384h0a2.245,2.245,0,0,0,2.269,2.219h9.409a2.22,2.22,0,1,0,0-4.438h-9.409a2.245,2.245,0,0,0-2.269,2.219" transform="translate(-119.891 -110.827)" fill="#ffb758"/>
            <path id="Trazado_1273374" data-name="Trazado 1273374" d="M358.539,255.384h0a2.245,2.245,0,0,0,2.269,2.219h16.685a2.22,2.22,0,1,0,0-4.438H360.808a2.245,2.245,0,0,0-2.269,2.219" transform="translate(-156.955 -110.827)" fill="#0f654d"/>
            <path id="Trazado_1273375" data-name="Trazado 1273375" d="M244.232,202.021a1.083,1.083,0,0,1-.729-.279l-5.4-4.883,5.361-5.4a1.093,1.093,0,0,1,1.52-.022,1.035,1.035,0,0,1,.023,1.487l-3.827,3.855,3.786,3.421a1.034,1.034,0,0,1,.06,1.485,1.084,1.084,0,0,1-.79.338" transform="translate(-104.231 -83.673)" fill="#0f654d"/>
            <path id="Trazado_1273376" data-name="Trazado 1273376" d="M255.822,202.021a1.083,1.083,0,0,1-.729-.279l-5.4-4.883,5.361-5.4a1.093,1.093,0,0,1,1.52-.022,1.035,1.035,0,0,1,.023,1.487l-3.827,3.855,3.786,3.421a1.035,1.035,0,0,1,.06,1.485,1.084,1.084,0,0,1-.79.338" transform="translate(-109.305 -83.673)" fill="#0f654d"/>
            <path id="Trazado_1273377" data-name="Trazado 1273377" d="M385.382,373.2a1.083,1.083,0,0,1-.79-.338,1.034,1.034,0,0,1,.06-1.485l3.786-3.421L384.61,364.1a1.035,1.035,0,0,1,.024-1.487,1.093,1.093,0,0,1,1.52.023l5.361,5.4-5.4,4.882a1.083,1.083,0,0,1-.729.279" transform="translate(-168.236 -158.61)" fill="#0f654d"/>
            <path id="Trazado_1273378" data-name="Trazado 1273378" d="M373.792,373.2a1.083,1.083,0,0,1-.79-.338,1.034,1.034,0,0,1,.06-1.485l3.786-3.421L373.02,364.1a1.035,1.035,0,0,1,.024-1.487,1.093,1.093,0,0,1,1.52.023l5.361,5.4-5.4,4.882a1.083,1.083,0,0,1-.729.279" transform="translate(-163.162 -158.61)" fill="#0f654d"/>
            <path id="Trazado_1273379" data-name="Trazado 1273379" d="M183.044,1.583a19.093,19.093,0,0,0-8.155,4.267,9.339,9.339,0,0,0-2.943,8.4c.923,4.22,5.254,6.706,9.309,8.192,9.758,3.578,20.809,4.373,30.5.618,5.562-2.154,12.461-9.324,7.066-15.233C214.3,2.881,204.352.728,198.067.166a41.108,41.108,0,0,0-15.022,1.417" transform="translate(-75.199 0)" fill="#ffeebc"/>
          </g>
        </g>
      </g>
    </g>
  </g>
</svg>
