<svg xmlns="http://www.w3.org/2000/svg" xmlns:xlink="http://www.w3.org/1999/xlink" width="130" height="130" viewBox="0 0 130 130">
  <defs>
    <clipPath id="clip-path">
      <rect id="Rectángulo_456267" data-name="Rectángulo 456267" width="130" height="130" fill="none"/>
    </clipPath>
    <clipPath id="clip-path-2">
      <rect id="Rectángulo_464474" data-name="Rectángulo 464474" width="68.161" height="67.144" fill="#19538d"/>
    </clipPath>
  </defs>
  <g id="Grupo_1211763" data-name="Grupo 1211763" transform="translate(513.746 8529) rotate(180)">
    <path id="Trazado_999622" data-name="Trazado 999622" d="M60.629,0A60.629,60.629,0,1,1,0,60.629,60.629,60.629,0,0,1,60.629,0" transform="translate(388.117 8403.371)" fill="#e1f5ff"/>
    <g id="Grupo_1179902" data-name="Grupo 1179902" transform="translate(383.746 8399)">
      <g id="Grupo_1179905" data-name="Grupo 1179905" clip-path="url(#clip-path)">
        <path id="Trazado_999618" data-name="Trazado 999618" d="M65,0A65,65,0,1,1,0,65,65,65,0,0,1,65,0" fill="none"/>
        <path id="Trazado_999619" data-name="Trazado 999619" d="M5.078,59A5.078,5.078,0,1,1,0,64.078,5.079,5.079,0,0,1,5.078,59" transform="translate(0 0.922)" fill="#19538d"/>
        <path id="Trazado_999620" data-name="Trazado 999620" d="M21.078,19A5.078,5.078,0,1,1,16,24.078,5.079,5.079,0,0,1,21.078,19" transform="translate(0.25 0.297)" fill="#19538d"/>
        <path id="Trazado_999621" data-name="Trazado 999621" d="M64.938,125.875A61.007,61.007,0,0,1,4,64.938H7.047A57.89,57.89,0,1,0,22.7,25.353l-2.222-2.084A60.937,60.937,0,1,1,64.938,125.875" transform="translate(0.063 0.063)" fill="#19538d"/>
        <rect id="Rectángulo_456268" data-name="Rectángulo 456268" width="130" height="130" fill="none"/>
        <rect id="Rectángulo_456269" data-name="Rectángulo 456269" width="130" height="130" fill="none"/>
      </g>
    </g>
    <g id="Grupo_1211808" data-name="Grupo 1211808" transform="translate(482.826 8497.572) rotate(180)">
      <g id="Grupo_1211807" data-name="Grupo 1211807" clip-path="url(#clip-path-2)">
        <path id="Trazado_1274448" data-name="Trazado 1274448" d="M3.3,57.386c.49-.446.953-.608,1.437-.336a.968.968,0,0,1,.234,1.466l-1.738,1.65c-1.158,1.1-1.6,2.631-.709,3.851a2.7,2.7,0,0,0,4.072.352L21.628,48.119l-2.535-2.575L8.442,55.358a1.034,1.034,0,0,1-1.455.086.983.983,0,0,1-.07-1.4l10.84-10a3.675,3.675,0,0,1,.736-4.373l1.125-1.095a19.1,19.1,0,0,1,3.1-20.981A4.326,4.326,0,0,1,22,15.038l.03-7.664A2.75,2.75,0,0,1,24.5,4.6l8.528-.074a5.4,5.4,0,0,1,1.991.613,4.855,4.855,0,0,1,1.835-.606H45.17A4.67,4.67,0,0,1,47,5.143a5.224,5.224,0,0,1,1.992-.616l4.233.025L55.146,1.38A2.821,2.821,0,0,1,57.454,0,2.941,2.941,0,0,1,60.076,1.2l7.643,12.768a2.944,2.944,0,0,1,.023,3.066,2.982,2.982,0,0,1-2.552,1.48l-5.268.014.1,9.054a5.688,5.688,0,0,1-.613,1.906,5.77,5.77,0,0,1,.622,2.582l-.043,7.644a2.94,2.94,0,0,1-3.1,2.818L51.4,42.492a17.406,17.406,0,0,1-3.391,3.24l.013,5.511a2.922,2.922,0,0,1-2.849,3.039l-8.315,0a2.865,2.865,0,0,1-2.833-2.822l-.027-2.285a17.969,17.969,0,0,1-5.253-1.541c-.317-.007-.691.515-.885.734a3.933,3.933,0,0,1-4.72,1.063L8.661,65.154c-1.957,2.126-4.749,2.754-6.971.871a4.647,4.647,0,0,1-.216-6.976Zm61.748-40.85a1.052,1.052,0,0,0,.973-.56.914.914,0,0,0,.011-.957L58.551,2.509c-.3-.5-1.278-.776-1.63-.188L49.283,15.082a1.04,1.04,0,0,0,.142,1.113,1.3,1.3,0,0,0,.871.337ZM34.028,11.591,34,7.439a.926.926,0,0,0-.978-.925l-8.086,0a.948.948,0,0,0-.926.854l.106,8.818a18.974,18.974,0,0,1,9.907-4.6m11.958,2.141.031-6.36a.907.907,0,0,0-.862-.861H36.873a.893.893,0,0,0-.857.861l.008,4.023a19.467,19.467,0,0,1,9.963,2.336m2.083-.62,3.995-6.575L48.994,6.52a.92.92,0,0,0-.973.921ZM44.879,45.359A17.011,17.011,0,1,0,25.361,43a17.016,17.016,0,0,0,19.518,2.363M58.017,27.483l0-7.988a.94.94,0,0,0-.967-.983l-5.375.037a18.6,18.6,0,0,1,4,9.873c1.389.231,2.338.122,2.338-.939m.023,11.925-.156-8.378c-.012-.641-1.549-.636-2.053-.409a19.584,19.584,0,0,1-2.86,9.771c2.554.174,5.1.656,5.069-.984M24.158,47.634c.781.766,1.954-.21,2.546-1.069a20.939,20.939,0,0,1-6.084-6.149c-1,.607-1.79,1.993-.922,2.844Zm21,4.656a.839.839,0,0,0,.842-.852l-.015-4.366a19.581,19.581,0,0,1-9.981,2.307l.013,2.062a.827.827,0,0,0,.85.838Z" transform="translate(0 0)" fill="#19538d"/>
        <path id="Trazado_1274449" data-name="Trazado 1274449" d="M236.254,262.418l-4.415-.022c-1.067-.005-1.683-1.136-1.68-2.132l.015-3.856a1.966,1.966,0,0,1,2.1-1.943l3.861,0a1.871,1.871,0,0,1,2,1.779v4.382a1.848,1.848,0,0,1-1.884,1.789m-.1-1.989-.017-4.008-3.993.008v4.006Z" transform="translate(-181.157 -200.289)" fill="#19538d"/>
        <path id="Trazado_1274450" data-name="Trazado 1274450" d="M51.233,76.078l-4.381,0a1.909,1.909,0,0,1-1.956-1.916l.016-4.27c.009-2.245,2.989-1.782,6.01-1.759A1.827,1.827,0,0,1,52.863,69.9l.015,4.26a2,2,0,0,1-1.646,1.917m-.36-1.945L50.866,70.1H46.874v4.019Z" transform="translate(-35.337 -53.585)" fill="#19538d"/>
        <path id="Trazado_1274451" data-name="Trazado 1274451" d="M128.862,82.773a13.412,13.412,0,1,0,.28,4.339,1,1,0,0,1,1.071-.914.982.982,0,0,1,.9,1.2,15.4,15.4,0,1,1-.349-5.246,1.043,1.043,0,0,1-.564,1.276,1,1,0,0,1-1.336-.653" transform="translate(-79.002 -55.401)" fill="#19538d"/>
        <path id="Trazado_1274452" data-name="Trazado 1274452" d="M155.968,119.254a3.4,3.4,0,0,1,1.968-3.105,2.4,2.4,0,0,0,1.339-2.566,2.319,2.319,0,0,0-1.909-1.962A2.355,2.355,0,0,0,154.8,113a1.036,1.036,0,0,1-1.347.639,1.009,1.009,0,0,1-.522-1.413,4.381,4.381,0,1,1,5.925,5.685c-1.266.617-.589,2.2-1.832,2.317a.988.988,0,0,1-1.05-.971" transform="translate(-120.281 -86.268)" fill="#19538d"/>
        <path id="Trazado_1274453" data-name="Trazado 1274453" d="M168.339,166.672a.969.969,0,0,1,1.264.39.983.983,0,0,1-.3,1.332,1.017,1.017,0,0,1-1.4-.313.964.964,0,0,1,.433-1.409" transform="translate(-132.039 -131.113)" fill="#19538d"/>
        <path id="Trazado_1274454" data-name="Trazado 1274454" d="M268.152,30.709a1.009,1.009,0,0,1-1.029,1.14,1.024,1.024,0,0,1-.974-1.05l.014-3.394a.9.9,0,0,1,.95-.875,1,1,0,0,1,1.033,1.075Z" transform="translate(-209.484 -20.882)" fill="#19538d"/>
        <path id="Trazado_1274455" data-name="Trazado 1274455" d="M266.837,58.951a.966.966,0,0,1,1.271.624,1.008,1.008,0,0,1-.654,1.273,1.026,1.026,0,0,1-1.189-.549.976.976,0,0,1,.571-1.349" transform="translate(-209.495 -46.343)" fill="#19538d"/>
      </g>
    </g>
  </g>
</svg>
