<svg xmlns="http://www.w3.org/2000/svg" xmlns:xlink="http://www.w3.org/1999/xlink" width="150" height="150" viewBox="0 0 150 150">
  <defs>
    <clipPath id="clip-path">
      <rect id="Rectángulo_456312" data-name="Rectángulo 456312" width="150" height="150" fill="none"/>
    </clipPath>
    <clipPath id="clip-path-3">
      <rect id="Rectángulo_464490" data-name="Rectángulo 464490" width="78.578" height="78.581" fill="#19538d"/>
    </clipPath>
  </defs>
  <g id="Grupo_1211783" data-name="Grupo 1211783" transform="translate(-307.059 -10093)">
    <g id="Grupo_1179968" data-name="Grupo 1179968" transform="translate(-115 658)">
      <g id="Grupo_1179959" data-name="Grupo 1179959" transform="translate(422.059 9435)" clip-path="url(#clip-path)">
        <path id="Trazado_999654" data-name="Trazado 999654" d="M1.5,5.146H123.437A18.479,18.479,0,0,1,141.96,23.58V144.937H20.022A18.479,18.479,0,0,1,1.5,126.5Z" transform="translate(0.815 2.76)" fill="#fff"/>
      </g>
      <g id="Grupo_1179960" data-name="Grupo 1179960" transform="translate(422.059 9435)">
        <g id="Grupo_1179956" data-name="Grupo 1179956" clip-path="url(#clip-path)">
          <path id="Trazado_999651" data-name="Trazado 999651" d="M94.9,30a7.681,7.681,0,1,1-7.718,7.681A7.7,7.7,0,0,1,94.9,30" transform="translate(47.384 16.085)" fill="#19538d"/>
          <path id="Trazado_999652" data-name="Trazado 999652" d="M65.9,0a7.681,7.681,0,1,1-7.718,7.681A7.7,7.7,0,0,1,65.9,0" transform="translate(31.622 0)" fill="#19538d"/>
          <path id="Trazado_999653" data-name="Trazado 999653" d="M141.96,51.007v93.93H20.022A18.479,18.479,0,0,1,1.5,126.5V5.146H97.75" transform="translate(0.815 2.76)" fill="none" stroke="#19538d" stroke-miterlimit="10" stroke-width="4"/>
        </g>
      </g>
    </g>
    <g id="Grupo_1211840" data-name="Grupo 1211840" transform="translate(341.231 10133.117)">
      <g id="Grupo_1211839" data-name="Grupo 1211839" clip-path="url(#clip-path-3)">
        <path id="Trazado_1274644" data-name="Trazado 1274644" d="M52.815,78.581l-27.047-.009.033-2.689,3.986,0,.021-13.53L5.28,62.3A5.37,5.37,0,0,1,0,56.782V5.534A5.419,5.419,0,0,1,5.543,0h67.49a5.418,5.418,0,0,1,5.542,5.535l0,51.245a5.443,5.443,0,0,1-5.517,5.545l-24.271.016-.016,13.523,4,.013ZM75.873,48.776l0-43.73A2.867,2.867,0,0,0,73.527,2.7l-68.481,0c-1.1.256-2.315,1.078-2.316,2.335L2.7,48.783ZM73.14,59.627a2.658,2.658,0,0,0,2.706-2.551l.007-5.6H2.724L2.73,57.08a2.678,2.678,0,0,0,2.818,2.548ZM46.076,75.876l-.022-13.543-13.547.02V75.879Z" fill="#19538d"/>
        <path id="Trazado_1274645" data-name="Trazado 1274645" d="M32.393,55.238l3.2-2.523a7.038,7.038,0,0,1-.269-5.665l-7.544-5a4.072,4.072,0,1,1-.635-6.943,4.121,4.121,0,0,1,2.172,4.68l7.518,5a6.842,6.842,0,0,1,10.365.966l4.211-1.829a9.483,9.483,0,1,1,9.368,7.061L59.71,59.55A4.061,4.061,0,1,1,54.051,61.8L45.9,54.943a6.893,6.893,0,0,1-8.612-.116L34.109,57.38a6.761,6.761,0,1,1-1.716-2.142M59.465,34.832a6.76,6.76,0,1,0,7.785,5.478,6.729,6.729,0,0,0-7.785-5.478M24.713,37.641a1.29,1.29,0,0,0-.524,1.781,1.338,1.338,0,0,0,2.4-1.174,1.313,1.313,0,0,0-1.877-.607m15.7,8.135a4.008,4.008,0,0,0-2.555,5.345,4.053,4.053,0,0,0,7.673-2.578,3.994,3.994,0,0,0-5.118-2.767M54.914,58.96c.441.371.711.639,1.11.581.315-.046.955-.184,1.008-.608l1.035-8.287a9.486,9.486,0,0,1-5.538-4.2l-4.284,1.882a7.012,7.012,0,0,1-.626,4.49Zm-27.2-2.519A4.048,4.048,0,1,0,32.1,60.017a4.041,4.041,0,0,0-4.385-3.576m29.523,5.578a1.328,1.328,0,0,0,1.277,2.328,1.328,1.328,0,1,0-1.277-2.328" transform="translate(-15.882 -23.888)" fill="#19538d"/>
        <path id="Trazado_1274646" data-name="Trazado 1274646" d="M242.876,34.677l-13.434.014-.055-2.683,13.484-.017Z" transform="translate(-171.111 -23.864)" fill="#19538d"/>
        <path id="Trazado_1274647" data-name="Trazado 1274647" d="M242.872,98.572l-13.44,0-.054-2.734,13.485-.033Z" transform="translate(-171.104 -71.47)" fill="#19538d"/>
        <path id="Trazado_1274648" data-name="Trazado 1274648" d="M242.877,162.672H229.442l-.054-2.7,13.48-.02Z" transform="translate(-171.113 -119.319)" fill="#19538d"/>
        <path id="Trazado_1274649" data-name="Trazado 1274649" d="M240.25,77.345l-10.775.07-.033-2.761,10.775,0Z" transform="translate(-171.152 -55.685)" fill="#19538d"/>
        <path id="Trazado_1274650" data-name="Trazado 1274650" d="M240.073,141.344l-10.763.016a8.735,8.735,0,0,1,0-2.715l10.691,0Z" transform="translate(-170.975 -103.419)" fill="#19538d"/>
        <path id="Trazado_1274651" data-name="Trazado 1274651" d="M237.592,120.008l-8.088.036-.005-2.706,8.088.042Z" transform="translate(-171.195 -87.528)" fill="#19538d"/>
        <path id="Trazado_1274652" data-name="Trazado 1274652" d="M234.837,56.072l-5.362.024,0-2.665,5.355.01Z" transform="translate(-171.173 -39.856)" fill="#19538d"/>
        <path id="Trazado_1274653" data-name="Trazado 1274653" d="M149.387,216.009l-5.433.013,0-2.634,5.382-.035Z" transform="translate(-107.38 -159.15)" fill="#19538d"/>
      </g>
    </g>
  </g>
</svg>
