<svg xmlns="http://www.w3.org/2000/svg" xmlns:xlink="http://www.w3.org/1999/xlink" width="150" height="150" viewBox="0 0 150 150">
  <defs>
    <clipPath id="clip-path">
      <rect id="Rectángulo_456267" data-name="Rectángulo 456267" width="150" height="150" fill="none"/>
    </clipPath>
    <clipPath id="clip-path-2">
      <rect id="Rectángulo_464493" data-name="Rectángulo 464493" width="74.134" height="74.146" fill="#19538d"/>
    </clipPath>
  </defs>
  <g id="Grupo_1211785" data-name="Grupo 1211785" transform="translate(533.746 8549) rotate(180)">
    <path id="Trazado_999622" data-name="Trazado 999622" d="M70.07,0A70.07,70.07,0,1,1,0,70.07,70.071,70.071,0,0,1,70.07,0" transform="translate(388.676 8403.93)" fill="#e1f5ff"/>
    <g id="Grupo_1179902" data-name="Grupo 1179902" transform="translate(383.746 8399)">
      <g id="Grupo_1179905" data-name="Grupo 1179905" clip-path="url(#clip-path)">
        <path id="Trazado_999618" data-name="Trazado 999618" d="M75,0A75,75,0,1,1,0,75,75,75,0,0,1,75,0" fill="none"/>
        <path id="Trazado_999619" data-name="Trazado 999619" d="M5.859,59A5.859,5.859,0,1,1,0,64.859,5.86,5.86,0,0,1,5.859,59" transform="translate(0 10.141)" fill="#19538d"/>
        <path id="Trazado_999620" data-name="Trazado 999620" d="M21.859,19A5.859,5.859,0,1,1,16,24.859,5.86,5.86,0,0,1,21.859,19" transform="translate(2.75 3.266)" fill="#19538d"/>
        <path id="Trazado_999621" data-name="Trazado 999621" d="M74.313,144.625A70.392,70.392,0,0,1,4,74.313H7.516A66.8,66.8,0,1,0,25.572,28.638l-2.564-2.4a70.312,70.312,0,1,1,51.3,118.392" transform="translate(0.688 0.688)" fill="#19538d"/>
        <rect id="Rectángulo_456268" data-name="Rectángulo 456268" width="150" height="150" fill="none"/>
        <rect id="Rectángulo_456269" data-name="Rectángulo 456269" width="150" height="150" fill="none"/>
      </g>
    </g>
    <g id="Grupo_1211846" data-name="Grupo 1211846" transform="translate(501.813 8515.606) rotate(180)">
      <g id="Grupo_1211845" data-name="Grupo 1211845" transform="translate(7 2)" clip-path="url(#clip-path-2)">
        <path id="Trazado_1274666" data-name="Trazado 1274666" d="M38.157,87.336l-.085,3.931,8.347.006a.973.973,0,0,1,.951.994l.008,13.884a1.032,1.032,0,0,1-1.059,1.106l-18.5,0a1.019,1.019,0,0,1-1.057-1.111l.007-13.881a.959.959,0,0,1,.954-.986l8.327-.032-.038-3.883a5.7,5.7,0,0,1-4.512-4.49l-20.16-.017.012,8.414,8.216-.01a1.07,1.07,0,0,1,1.089,1.086L20.639,106.3a1.055,1.055,0,0,1-1.128.977H1.147a1.058,1.058,0,0,1-1.135-.973L0,92.347a1.052,1.052,0,0,1,1.1-1.064l8.169,0,.007-9.329a1.19,1.19,0,0,1,.993-1.182l21.251-.012a5.681,5.681,0,0,1,4.525-4.483l.026-5.093-16.5-.008a.966.966,0,0,1-.958-.878.979.979,0,0,1,.954-1.083,2.5,2.5,0,0,0,2.516-2.486l.023-22.174a1.028,1.028,0,0,1,1.086-.963l34.705,0a1.051,1.051,0,0,1,1.109,1.049l.023,20.7a5.693,5.693,0,0,1-4.718,5.777,21.151,21.151,0,0,1-4.5.036c-.476-.027-.581-.59-.6-.839-.024-.337.1-1.031.6-1.038l3.59-.053a3.66,3.66,0,0,0,3.519-3.367l.046-20.17H24.115l0,21.376a5.25,5.25,0,0,1-.681,2.116l22.97-.007a1,1,0,0,1,.963.918.951.951,0,0,1-.941,1.082l-8.334.018-.006,5.042a5.807,5.807,0,0,1,4.555,4.531H63.662a1.169,1.169,0,0,1,1.188,1.2l.015,9.329,8.173-.008a1.055,1.055,0,0,1,1.1,1.073l-.011,13.961a1,1,0,0,1-.945.944l-18.55.014a1.041,1.041,0,0,1-1.13-1.01L53.481,92.35a1.1,1.1,0,0,1,.874-1.08l8.428,0,0-8.41-20.16.007a5.588,5.588,0,0,1-4.463,4.467m-1.576-9.1A3.619,3.619,0,0,0,33.5,82.481a3.633,3.633,0,1,0,3.086-4.249M18.6,105.194l-.009-11.915H2.057v11.932Zm26.758-.026L45.355,93.29l-16.534-.015,0,11.942Zm26.724.025L72.08,93.277l-16.534,0v11.934Z" transform="translate(0 -33.135)" fill="#19538d"/>
        <path id="Trazado_1274667" data-name="Trazado 1274667" d="M76.4,5.515,73.929,2.048l-8.843-.012,0,31.634c0,1.44,1.5,1.878,1.062,2.866-.141.321-.7.854-1.165.6a3.821,3.821,0,0,1-1.931-3.368L63.039,1.007A1.018,1.018,0,0,1,63.981,0l11,.015,2.416,3.467,23.877,0a.987.987,0,0,1,1.01.961l.006,3.591a1,1,0,0,1-1.1.963,1.055,1.055,0,0,1-.93-1.187l0-2.271Z" transform="translate(-47.922 0)" fill="#19538d"/>
        <path id="Trazado_1274668" data-name="Trazado 1274668" d="M139.522,81.006a7.758,7.758,0,0,1-3.965.067c-.665-.352-.671-1.529-.668-2.166-.838.006-1.254,1.07-2.261.943-.481-.061-2.156-1.788-2.965-2.938a8.875,8.875,0,0,1,1.173-2.108c-.735-.12-1.858-.04-2.265-.668a10.149,10.149,0,0,1-.026-4.046c.511-.835,1.914-.461,2.159-.791.214-.288-1.483-1.7-.842-2.373l2.224-2.351a1.066,1.066,0,0,1,1.355-.11l1.4.919c.067-.657.021-1.809.6-2.256a9.283,9.283,0,0,1,4.159-.008c.579.314.553,1.443.579,2.055.932.1,1.918-1.619,2.784-.623.722.83,1.8,1.488,2.284,2.505.358.753-.579,1.587-1.062,2.206.856.3,1.59.134,2.367.677.135,1.26.424,2.951-.11,4.182-.3.7-1.6.518-2.192.722.238.62,1.4,1.434,1,2.2a8.839,8.839,0,0,1-2.721,2.73c-.74.438-1.561-.651-2.2-.953-.29.519.006,1.866-.808,2.188m2.5-3.593c.32.1,1.1-.729.876-.95a1.933,1.933,0,0,1-.495-2.558c.93-1.754,2.188-.591,2.342-1.632.225-1.519-1.646-.147-2.437-2.28-.621-1.673.9-2.147.6-2.626-1.035-1.622-1.114.576-3.164-.02a2.013,2.013,0,0,1-1.54-2.178c-.018-.357-1.321-.37-1.326-.012a1.925,1.925,0,0,1-1.409,2.126c-2.009.667-2.181-1.263-3.024-.3-.383.438-.215.842.149,1.227.681.722.276,1.487-.023,2.208-.316.762-1.137.919-2,1.017-.278.137-.273,1.087,0,1.24.839.131,1.658.235,1.988.991.306.7.714,1.522.055,2.221-.431.457-.572.909-.036,1.338.384.307.678.145,1.187-.265a2.067,2.067,0,0,1,2.994,1.16c.07.5-.02.966.4,1.055,1.719.366.45-1.236,2.082-2.159,1.047-.592,1.793-.363,2.782.4" transform="translate(-97.574 -47.808)" fill="#19538d"/>
        <path id="Trazado_1274669" data-name="Trazado 1274669" d="M86.757,20.348c.146,1.245-1.344,1.284-3.355,1.125a1.051,1.051,0,0,1-.994-.917,1,1,0,0,1,1-1.081l2.392,0a.954.954,0,0,1,.96.875" transform="translate(-62.642 -14.803)" fill="#19538d"/>
        <path id="Trazado_1274670" data-name="Trazado 1274670" d="M29.8,263.9l-9.291-.016a1,1,0,0,1-1.027-1.029.959.959,0,0,1,1.022-1.006l9.267,0a.98.98,0,0,1,1.052,1A1.027,1.027,0,0,1,29.8,263.9" transform="translate(-14.81 -199.06)" fill="#19538d"/>
        <path id="Trazado_1274671" data-name="Trazado 1274671" d="M25.006,283.443l-4.56-.022a1.01,1.01,0,0,1-.983-.882.95.95,0,0,1,.979-1.082l5,.039c.574,0,.722.688.681,1a1.014,1.014,0,0,1-1.117.941" transform="translate(-14.79 -213.963)" fill="#19538d"/>
        <path id="Trazado_1274672" data-name="Trazado 1274672" d="M141.434,263.833l-9.392.053a1.117,1.117,0,0,1-1.121-1.053,1.055,1.055,0,0,1,1.123-1.015l9.307.013a1.059,1.059,0,0,1,.921.823c.1.333-.2,1.174-.838,1.178" transform="translate(-99.526 -199.034)" fill="#19538d"/>
        <path id="Trazado_1274673" data-name="Trazado 1274673" d="M136.684,283.366l-4.667.044a1.028,1.028,0,0,1-1.1-.93.931.931,0,0,1,.869-1.062l4.8-.011a.982.982,0,0,1,.1,1.959" transform="translate(-99.515 -213.924)" fill="#19538d"/>
        <path id="Trazado_1274674" data-name="Trazado 1274674" d="M252.66,263.912l-9.175-.024a1.02,1.02,0,0,1-1.035-1.028.969.969,0,0,1,1.029-1l9.272,0a.969.969,0,0,1,1.043,1,1.04,1.04,0,0,1-1.135,1.055" transform="translate(-184.31 -199.062)" fill="#19538d"/>
        <path id="Trazado_1274675" data-name="Trazado 1274675" d="M248.087,283.342l-4.68-.007a1.045,1.045,0,0,1-.995-.889.97.97,0,0,1,.989-1.088l4.567-.027a1.015,1.015,0,0,1,1.138.906.98.98,0,0,1-1.019,1.1" transform="translate(-184.275 -213.867)" fill="#19538d"/>
        <path id="Trazado_1274676" data-name="Trazado 1274676" d="M151.935,83.614a4.254,4.254,0,1,1-2.876,5.258,4.238,4.238,0,0,1,2.876-5.258m.927,1.905a2.153,2.153,0,0,0-1.9,2.581,2.241,2.241,0,0,0,2.488,1.805,2.213,2.213,0,1,0-.588-4.387" transform="translate(-113.182 -63.424)" fill="#19538d"/>
      </g>
    </g>
  </g>
</svg>
