<svg xmlns="http://www.w3.org/2000/svg" xmlns:xlink="http://www.w3.org/1999/xlink" width="150" height="150" viewBox="0 0 150 150">
  <defs>
    <clipPath id="clip-path">
      <rect id="Rectángulo_456312" data-name="Rectángulo 456312" width="150" height="150" fill="none"/>
    </clipPath>
    <clipPath id="clip-path-3">
      <rect id="Rectángulo_464489" data-name="Rectángulo 464489" width="88.9" height="88.88" fill="#19538d"/>
    </clipPath>
  </defs>
  <g id="Grupo_1211782" data-name="Grupo 1211782" transform="translate(-307.059 -10093)">
    <g id="Grupo_1179968" data-name="Grupo 1179968" transform="translate(-115 658)">
      <g id="Grupo_1179959" data-name="Grupo 1179959" transform="translate(422.059 9435)" clip-path="url(#clip-path)">
        <path id="Trazado_999654" data-name="Trazado 999654" d="M1.5,5.146H123.437A18.479,18.479,0,0,1,141.96,23.58V144.937H20.022A18.479,18.479,0,0,1,1.5,126.5Z" transform="translate(0.815 2.76)" fill="#fff"/>
      </g>
      <g id="Grupo_1179960" data-name="Grupo 1179960" transform="translate(422.059 9435)">
        <g id="Grupo_1179956" data-name="Grupo 1179956" clip-path="url(#clip-path)">
          <path id="Trazado_999651" data-name="Trazado 999651" d="M94.9,30a7.681,7.681,0,1,1-7.718,7.681A7.7,7.7,0,0,1,94.9,30" transform="translate(47.384 16.085)" fill="#19538d"/>
          <path id="Trazado_999652" data-name="Trazado 999652" d="M65.9,0a7.681,7.681,0,1,1-7.718,7.681A7.7,7.7,0,0,1,65.9,0" transform="translate(31.622 0)" fill="#19538d"/>
          <path id="Trazado_999653" data-name="Trazado 999653" d="M141.96,51.007v93.93H20.022A18.479,18.479,0,0,1,1.5,126.5V5.146H97.75" transform="translate(0.815 2.76)" fill="none" stroke="#19538d" stroke-miterlimit="10" stroke-width="4"/>
        </g>
      </g>
    </g>
    <g id="Grupo_1211838" data-name="Grupo 1211838" transform="translate(337.078 10128.031)">
      <g id="Grupo_1211837" data-name="Grupo 1211837" clip-path="url(#clip-path-3)">
        <path id="Trazado_1274637" data-name="Trazado 1274637" d="M70.987,87.878a1.592,1.592,0,0,1-1.585,1l-6.118-.166c-.919-.852-.91-2.438-1.628-3.322l-4.193-1.94a12.227,12.227,0,0,1-3.578,1.429l-4.648-4.542a1.285,1.285,0,0,1-.3-1.336l1.208-2.931A22.6,22.6,0,0,1,48.6,72.623c-7.135.45-18.947-.244-24.3-4.319a4.479,4.479,0,0,1-2.09-3.3L22.156,44.08c-1.323-.04-2.909.407-3.842-.458-.841-.781-.864-2.184-1.444-3.15a22.636,22.636,0,0,1-4.061-1.743l-2.325.987a1.7,1.7,0,0,1-1.946-.083l-4.563-4.65A13.622,13.622,0,0,1,5.416,31.4L3.472,27.223c-.853-.743-2.48-.706-3.315-1.641L0,19.469a1.7,1.7,0,0,1,1.189-1.686l2.457-.968a16.981,16.981,0,0,1,1.737-4.031L4.147,9.891a1.326,1.326,0,0,1,.323-1.443l4.7-4.517,3.545,1.434a19.647,19.647,0,0,1,4.138-1.729L17.917.957A1.446,1.446,0,0,1,19.223,0l6.392.115c.918.876.919,2.447,1.629,3.345l4.19,1.925A14.352,14.352,0,0,1,35,3.946l4.523,4.4a1.5,1.5,0,0,1,.377,1.706l-1.138,2.722a23.967,23.967,0,0,1,1.541,3.442c7.175-.369,18.615.2,24.145,4.209.978.71,2.212,1.834,2.217,3.173l.076,21.1,2.643.042a1.755,1.755,0,0,1,1.685,1.152l.985,2.518a25.828,25.828,0,0,1,4.172,1.725l2.6-1.158a1.4,1.4,0,0,1,1.533.238l4.556,4.649A13.555,13.555,0,0,1,83.5,57.417a29.022,29.022,0,0,1,1.81,4.291,11.386,11.386,0,0,1,3.456,1.54l.135,6.125a1.582,1.582,0,0,1-.993,1.587l-2.657,1.06a16.646,16.646,0,0,1-1.732,4.035l1.235,2.891a1.319,1.319,0,0,1-.323,1.439L80.417,84.4a1.458,1.458,0,0,1-1.65.25l-2.7-1.148a17.2,17.2,0,0,1-4.013,1.721ZM23.838,41.025c.673-1.022.718-2.143,1.382-2.978a27.639,27.639,0,0,0,6-2.494L34.385,36.8l2.451-2.446-1.259-3.175a31.167,31.167,0,0,0,2.586-6.132l3.084-1.274-.111-3.591c-.9-.476-2.47-.6-3.036-1.494a31.66,31.66,0,0,0-2.547-5.8l1.272-3.163L34.225,7.2c-.965.371-2.172,1.346-3.228,1.143a37.879,37.879,0,0,0-5.7-2.367c-.84-.716-.946-2.187-1.443-3.072H20.183A14.179,14.179,0,0,1,18.89,6.042c-2.075.383-3.793,1.44-5.723,2.219-1.031.417-2.306-.642-3.219-1.071L7.223,9.913c.419.932,1.474,2.178,1.065,3.19a31.289,31.289,0,0,0-2.217,5.748,13.812,13.812,0,0,1-3.137,1.3l.034,3.75a12.1,12.1,0,0,1,3.124,1.327,27.248,27.248,0,0,0,2.244,5.749c.265,1.1-.843,2.323-1.1,3.288l2.514,2.518,3.162-1.263a31.748,31.748,0,0,0,5.819,2.552c.942.463.79,2.322,1.6,2.921a4.8,4.8,0,0,0,3.5.03m39.33-15.7a1.5,1.5,0,0,0,.657-1.343,2.2,2.2,0,0,0-.788-1.05c-4.5-3.356-12.846-3.794-18.884-4.013l-.112,6.219c-.03,1.677-4.126.787-4.161,4.079,6.516.509,18.325.058,23.288-3.892M28.06,40.256a35.541,35.541,0,0,0,9.97,2.291c7.433.7,16.437.45,23.257-2.506.785-.495,2.276-1.071,2.45-2.09l.092-9.508a26.068,26.068,0,0,1-6.777,2.51,61.165,61.165,0,0,1-18.059,1.117c.38.95,1.585,2.33.854,3.1L35.632,39.6c-1,1.049-2.444-.319-4.156-.773ZM49.091,53.55l4.18-4.327a1.455,1.455,0,0,1,1.531-.277l2.766,1.16a23.842,23.842,0,0,1,4.052-1.694L62.9,45.374l.9-.737a8.876,8.876,0,0,0-.042-2.664,28.893,28.893,0,0,1-9.1,2.945c-8.758,1.44-20.019,1.233-28.2-2.245a3.347,3.347,0,0,1-1.5,1.539l.3,7.4c.846,1.578,3.137,2.354,4.838,2.868a51.955,51.955,0,0,0,19.514,1.641c-.421-.819-1.189-1.878-.522-2.568M68.647,85.716c.691-.632.634-2.332,1.391-2.811a54.4,54.4,0,0,0,5.941-2.425c1.073-.1,2.175.845,3.063,1.173l2.629-2.731c-.4-.911-1.484-2.194-1.065-3.215.792-1.931,1.841-3.649,2.218-5.72a14.72,14.72,0,0,1,3.147-1.308,13.435,13.435,0,0,0-.1-3.77c-.872-.411-2.639-.524-3-1.5a42.884,42.884,0,0,0-2.342-5.545c-.186-1.036.77-2.255,1.141-3.219l-2.528-2.6L75.993,53.3a27.892,27.892,0,0,0-6.015-2.534L68.55,47.624l-3.562.072a14.636,14.636,0,0,1-1.3,3.108,27.188,27.188,0,0,0-6,2.482l-3.171-1.223-2.446,2.422,1.252,3.171a28.075,28.075,0,0,0-2.507,6l-3.08,1.477a13.494,13.494,0,0,0,0,3.505L50.8,69.954a26.64,26.64,0,0,0,2.516,5.972l-1.241,3.191,2.6,2.527c.977-.378,2.175-1.309,3.231-1.173a38.938,38.938,0,0,0,5.527,2.369c1,.383,1.064,2.1,1.538,3,1.046.165,2.756.5,3.678-.129M42.287,65.968a1.344,1.344,0,0,1-1.339-1.594A1.465,1.465,0,0,1,42.472,63.1l2.258-.03,3.694-1.451.9-2.6a58.35,58.35,0,0,1-17.713-1.127,28.536,28.536,0,0,1-6.532-2.444l.006,9.677a10.144,10.144,0,0,0,4.8,2.779c4.8,1.569,9.733,1.911,14.863,2.006L44.753,66Z" transform="translate(0 0)" fill="#19538d"/>
        <path id="Trazado_1274638" data-name="Trazado 1274638" d="M52.445,195.013c1.119,0,1.691.533,1.759,1.362a1.456,1.456,0,0,1-1.61,1.528l-30.62-.022a1.444,1.444,0,0,1-1.466-1.426L20.5,170.081c-.507.18-.609.748-.906,1.084a1.518,1.518,0,0,1-1.947.236,1.451,1.451,0,0,1-.348-1.942l3.593-5.31a1.467,1.467,0,0,1,1.925-.1l3.655,5.233a1.527,1.527,0,0,1-.088,1.987,1.547,1.547,0,0,1-2.242-.233c-.191-.384-.355-.776-.766-.943l-.01,24.928Z" transform="translate(-12.176 -116.79)" fill="#19538d"/>
        <path id="Trazado_1274639" data-name="Trazado 1274639" d="M196.4,60.4a1.5,1.5,0,0,1-2.641-.065l-3.139-4.591a1.651,1.651,0,0,1-.259-1.667,1.333,1.333,0,0,1,1.588-.754c.654.126,1,.725,1.642,1.567l.072-24.947-29.349.005a1.431,1.431,0,0,1-1.514-1.359,1.385,1.385,0,0,1,1.539-1.54l30.594,0a1.413,1.413,0,0,1,1.587,1.417l0,26.339c.424-.239.644-.735,1.017-1.128a1.458,1.458,0,0,1,1.926-.054,1.425,1.425,0,0,1,.231,1.895Z" transform="translate(-116.12 -19.29)" fill="#19538d"/>
        <path id="Trazado_1274640" data-name="Trazado 1274640" d="M201.793,191.291a12,12,0,1,1-10.427,13.549,11.954,11.954,0,0,1,10.427-13.549m.29,2.854a9.132,9.132,0,1,0,10.227,7.814,9.148,9.148,0,0,0-10.227-7.814" transform="translate(-136.418 -136.377)" fill="#19538d"/>
        <path id="Trazado_1274641" data-name="Trazado 1274641" d="M45.076,35.142a11.948,11.948,0,0,1,13.84,9.93,12.011,12.011,0,0,1-23.662,4.123,11.953,11.953,0,0,1,9.823-14.053m.568,2.818A9.13,9.13,0,1,0,48.472,56a9.13,9.13,0,1,0-2.829-18.04" transform="translate(-25.001 -24.945)" fill="#19538d"/>
        <path id="Trazado_1274642" data-name="Trazado 1274642" d="M148.443,176l-4.172.019a1.414,1.414,0,0,1-.23-2.819h4.488a1.373,1.373,0,0,1,1.257,1.235A1.316,1.316,0,0,1,148.443,176" transform="translate(-101.834 -123.539)" fill="#19538d"/>
        <path id="Trazado_1274643" data-name="Trazado 1274643" d="M148.712,128.779l-4.708.035a1.314,1.314,0,0,1-1.221-1.548,1.421,1.421,0,0,1,1.516-1.286l3.988,0a1.462,1.462,0,0,1,1.471,1.023c.177.665-.082,1.766-1.044,1.773" transform="translate(-101.841 -89.86)" fill="#19538d"/>
      </g>
    </g>
  </g>
</svg>
