<svg xmlns="http://www.w3.org/2000/svg" xmlns:xlink="http://www.w3.org/1999/xlink" width="150" height="150" viewBox="0 0 150 150">
  <defs>
    <clipPath id="clip-path">
      <rect id="Rectángulo_456267" data-name="Rectángulo 456267" width="150" height="150" fill="none"/>
    </clipPath>
    <clipPath id="clip-path-2">
      <rect id="Rectángulo_464492" data-name="Rectángulo 464492" width="68.255" height="75.936" fill="#19538d"/>
    </clipPath>
  </defs>
  <g id="Grupo_1211784" data-name="Grupo 1211784" transform="translate(533.746 8549) rotate(180)">
    <path id="Trazado_999622" data-name="Trazado 999622" d="M70.07,0A70.07,70.07,0,1,1,0,70.07,70.071,70.071,0,0,1,70.07,0" transform="translate(388.676 8403.93)" fill="#e1f5ff"/>
    <g id="Grupo_1179902" data-name="Grupo 1179902" transform="translate(383.746 8399)">
      <g id="Grupo_1179905" data-name="Grupo 1179905" clip-path="url(#clip-path)">
        <path id="Trazado_999618" data-name="Trazado 999618" d="M75,0A75,75,0,1,1,0,75,75,75,0,0,1,75,0" fill="none"/>
        <path id="Trazado_999619" data-name="Trazado 999619" d="M5.859,59A5.859,5.859,0,1,1,0,64.859,5.86,5.86,0,0,1,5.859,59" transform="translate(0 10.141)" fill="#19538d"/>
        <path id="Trazado_999620" data-name="Trazado 999620" d="M21.859,19A5.859,5.859,0,1,1,16,24.859,5.86,5.86,0,0,1,21.859,19" transform="translate(2.75 3.266)" fill="#19538d"/>
        <path id="Trazado_999621" data-name="Trazado 999621" d="M74.313,144.625A70.392,70.392,0,0,1,4,74.313H7.516A66.8,66.8,0,1,0,25.572,28.638l-2.564-2.4a70.312,70.312,0,1,1,51.3,118.392" transform="translate(0.688 0.688)" fill="#19538d"/>
        <rect id="Rectángulo_456268" data-name="Rectángulo 456268" width="150" height="150" fill="none"/>
        <rect id="Rectángulo_456269" data-name="Rectángulo 456269" width="150" height="150" fill="none"/>
      </g>
    </g>
    <g id="Grupo_1211844" data-name="Grupo 1211844" transform="translate(492.981 8512.855) rotate(180)">
      <g id="Grupo_1211843" data-name="Grupo 1211843" clip-path="url(#clip-path-2)">
        <path id="Trazado_1274660" data-name="Trazado 1274660" d="M54.659,57.268l0,27.321,9.309-.014a1.689,1.689,0,0,0,1.777-1.411l0-37.759L53.165,45.4a1.2,1.2,0,0,1-1.25-1.326c.057-.778.625-1.131,1.481-1.131l12.348,0-.008-6.071c0-1.135-.909-1.574-1.964-1.571l-12.814.046-.05,1.744a1.241,1.241,0,0,1-1.121,1.22,1.262,1.262,0,0,1-1.359-1.228l0-11.443a1.97,1.97,0,0,1,1.992-1.979l8.395,0c.818.352.961,1.064.988,2.157l5.189-4.007-5.168-3.98c-.114.861-.1,1.287-.393,1.677a1.6,1.6,0,0,1-1.34.48l-11.112.056A2.571,2.571,0,0,0,44.7,22.677l0,5.15a1.182,1.182,0,0,1-1.1,1.231,1.164,1.164,0,0,1-1.38-1.221l.034-5.614a4.979,4.979,0,0,1,5.2-4.709l9.8-.017a2.41,2.41,0,0,1,.794-2.51,2.023,2.023,0,0,1,2.475.2L66.88,20.12a2.1,2.1,0,0,1,.916,1.5,1.962,1.962,0,0,1-.86,1.79l-6.471,5.05a2.019,2.019,0,0,1-2.361.2,2.306,2.306,0,0,1-.847-2.47l-6.339-.079.005,6.77,13.091-.01a4.1,4.1,0,0,1,4.241,4.261l-.066,46.29a3.95,3.95,0,0,1-3.973,3.594H4.04A3.943,3.943,0,0,1,.066,83.419L0,37.129a4.107,4.107,0,0,1,4.24-4.263l13.092.012.023-6.712L11,26.174a2.338,2.338,0,0,1-.849,2.484,2.109,2.109,0,0,1-2.51-.3L1.322,23.408a1.975,1.975,0,0,1-.865-1.783,2.224,2.224,0,0,1,1.063-1.6l6.206-4.832a2.046,2.046,0,0,1,2.48-.206A2.414,2.414,0,0,1,11,17.51l9.8,0a5.055,5.055,0,0,1,5.226,4.95v5.614A1.289,1.289,0,0,1,24.838,29.2a1.19,1.19,0,0,1-1.267-1.155l-.013-5.372a2.574,2.574,0,0,0-2.281-2.627l-11.11-.06a1.567,1.567,0,0,1-1.34-.473,4.089,4.089,0,0,1-.392-1.681L3.263,21.821l5.2,3.98c.022-1.045.165-1.789.981-2.14l8.393,0a1.965,1.965,0,0,1,2,1.978l0,11.442a1.24,1.24,0,0,1-2.48.009l-.056-1.763-13.3.006a1.492,1.492,0,0,0-1.472,1.525l-.005,6.091H15.093a1.173,1.173,0,0,1,1.246,1.115A1.193,1.193,0,0,1,15.09,45.4L2.5,45.4,2.52,83.164a1.582,1.582,0,0,0,1.542,1.4l9.532.017,0-9.924a1.166,1.166,0,0,1,1.27-1.217l5.685-.018a1.3,1.3,0,0,1,1.39,1.28l.026,9.87,2.524.026L24.479,69.05a1.4,1.4,0,0,1,1.483-1.474h5.476c.555,0,1.383.367,1.384,1.044l.042,15.958,2.543-.012.009-21.83a1.3,1.3,0,0,1,1.411-1.253H42.3a1.361,1.361,0,0,1,1.457,1.247l.007,21.854,2.533-.006.016-27.405a1.122,1.122,0,0,1,1.137-1.1l5.962-.013a1.154,1.154,0,0,1,1.245,1.211M52.17,84.527l-.007-25.969-3.385,0,.008,25.981Zm-10.876.015,0-20.588H37.887L37.9,84.543Zm-10.923-.009V70.042l-3.411,0,0,14.536Zm-10.891.011V75.886l-3.392,0,0,8.693Z" transform="translate(0 -11.077)" fill="#19538d"/>
        <path id="Trazado_1274661" data-name="Trazado 1274661" d="M90.926,97.513c-1.687.52-3.633.2-5.312.157-.843-.6-.657-1.8-1.374-2.418A5.97,5.97,0,0,0,81.2,94.077c-.95.022-1.611.843-2.618.727l-3.668-3.745c-.3-.742.756-1.724.716-2.476A6.558,6.558,0,0,0,74.4,85.476c-.444-.6-2.1-.477-2.329-1.272a24.169,24.169,0,0,1-.09-5.25c.566-.807,1.817-.628,2.446-1.3a6.17,6.17,0,0,0,1.2-3.03c-.046-.959-.861-1.589-.768-2.6l3.664-3.47c.772-.487,1.942.356,2.752.782l3.011-1.416c.76-.357.5-1.854,1.309-2.4a27.277,27.277,0,0,1,5.463.05l1.2,2.578c1,.116,1.969.975,2.879,1.029.88.052,1.708-.935,2.785-.806l3.658,3.73c.332.714-.742,1.728-.711,2.484a6.49,6.49,0,0,0,1.221,3.078c.6.646,1.889.488,2.426,1.283a28.1,28.1,0,0,1-.055,5.382l-2.37,1.178a6.439,6.439,0,0,0-1.214,3.07c-.038.758,1.017,1.738.713,2.479l-3.668,3.747c-.989.118-1.7-.71-2.588-.733a7.53,7.53,0,0,0-3.159,1.168c-.455.444-.39,1.952-1.242,2.272m-1.4-2.528c.455-.618.4-1.742,1.156-1.98a35.131,35.131,0,0,0,4.066-1.642c.718-.326,1.724.475,2.389.721a6.44,6.44,0,0,0,1.731-1.735c-.171-.607-.96-1.5-.741-2.19l1.7-4.186c.312-.768,1.537-.7,2.019-1.173a2.342,2.342,0,0,0,.006-2.431c-.515-.465-1.761-.39-2.031-1.182-.468-1.371-1.052-2.654-1.662-4.014-.325-.724.494-1.686.713-2.356a6.711,6.711,0,0,0-1.733-1.743c-.677.285-1.64,1.063-2.41.725-1.365-.6-2.671-1.163-4.048-1.637-.8-.275-.723-1.5-1.194-2.011a2.384,2.384,0,0,0-2.463,0c-.472.514-.392,1.729-1.193,2.011-1.372.484-2.685,1.044-4.047,1.638-.773.337-1.732-.435-2.411-.723a6.7,6.7,0,0,0-1.734,1.742c.219.664,1.041,1.642.719,2.351-.632,1.39-1.176,2.608-1.678,4.055-.254.734-1.686.662-2.1,1.246a2.486,2.486,0,0,0,.078,2.329c.5.462,1.756.4,2.027,1.174.477,1.369,1.049,2.654,1.67,4.012.331.723-.487,1.69-.714,2.357a6.6,6.6,0,0,0,1.739,1.753c.671-.265,1.651-1.057,2.381-.729,1.379.62,2.687,1.161,4.072,1.646.793.277.724,1.455,1.191,2.012a2.185,2.185,0,0,0,2.5-.038" transform="translate(-54.123 -49.457)" fill="#19538d"/>
        <path id="Trazado_1274662" data-name="Trazado 1274662" d="M116.291,2.916l-4.038,5.011c.71-.1,2.045-.037,2.062.7l.123,5.4a1.2,1.2,0,0,1-1.085,1.19,1.153,1.153,0,0,1-1.38-1.135l-.043-3.749a2.429,2.429,0,0,1-2.3-.6c-.391-.4-.847-1.433-.347-2.066L114.8.7a1.918,1.918,0,0,1,1.356-.7,1.89,1.89,0,0,1,1.554.7l5.512,6.965c.5.634.049,1.657-.35,2.069a2.571,2.571,0,0,1-2.293.621l-.016,3.483a1.241,1.241,0,0,1-1.214,1.4,1.3,1.3,0,0,1-1.295-1.427l.142-5.178c.02-.733,1.348-.836,2.043-.7Z" transform="translate(-82.125 0)" fill="#19538d"/>
        <path id="Trazado_1274663" data-name="Trazado 1274663" d="M30.655,108.535a1.644,1.644,0,1,1,1.659,2.837,1.738,1.738,0,0,1-2.157-.418,1.644,1.644,0,0,1,.5-2.419" transform="translate(-22.46 -81.889)" fill="#19538d"/>
        <path id="Trazado_1274664" data-name="Trazado 1274664" d="M56.688,108.448a1.648,1.648,0,0,1,2.206.663,1.685,1.685,0,0,1-.634,2.228A1.737,1.737,0,0,1,56,110.775a1.625,1.625,0,0,1,.691-2.326" transform="translate(-41.981 -81.857)" fill="#19538d"/>
        <path id="Trazado_1274665" data-name="Trazado 1274665" d="M111.369,98.016a8.261,8.261,0,1,1-7,9.563,8.323,8.323,0,0,1,7-9.563m.251,2.436a5.79,5.79,0,0,0-4.769,6.882,5.9,5.9,0,0,0,6.77,4.56,5.809,5.809,0,1,0-2-11.442" transform="translate(-78.493 -74.038)" fill="#19538d"/>
      </g>
    </g>
  </g>
</svg>
