<svg xmlns="http://www.w3.org/2000/svg" xmlns:xlink="http://www.w3.org/1999/xlink" width="150" height="150" viewBox="0 0 150 150">
  <defs>
    <clipPath id="clip-path">
      <rect id="Rectángulo_456267" data-name="Rectángulo 456267" width="150" height="150" fill="none"/>
    </clipPath>
    <clipPath id="clip-path-2">
      <rect id="Rectángulo_464491" data-name="Rectángulo 464491" width="74.752" height="74.735" fill="#19538d"/>
    </clipPath>
  </defs>
  <g id="Grupo_1179926" data-name="Grupo 1179926" transform="translate(533.746 8549) rotate(180)">
    <path id="Trazado_999622" data-name="Trazado 999622" d="M70.07,0A70.07,70.07,0,1,1,0,70.07,70.071,70.071,0,0,1,70.07,0" transform="translate(388.676 8403.93)" fill="#e1f5ff"/>
    <g id="Grupo_1179902" data-name="Grupo 1179902" transform="translate(383.746 8399)">
      <g id="Grupo_1179905" data-name="Grupo 1179905" clip-path="url(#clip-path)">
        <path id="Trazado_999618" data-name="Trazado 999618" d="M75,0A75,75,0,1,1,0,75,75,75,0,0,1,75,0" fill="none"/>
        <path id="Trazado_999619" data-name="Trazado 999619" d="M5.859,59A5.859,5.859,0,1,1,0,64.859,5.86,5.86,0,0,1,5.859,59" transform="translate(0 10.141)" fill="#19538d"/>
        <path id="Trazado_999620" data-name="Trazado 999620" d="M21.859,19A5.859,5.859,0,1,1,16,24.859,5.86,5.86,0,0,1,21.859,19" transform="translate(2.75 3.266)" fill="#19538d"/>
        <path id="Trazado_999621" data-name="Trazado 999621" d="M74.313,144.625A70.392,70.392,0,0,1,4,74.313H7.516A66.8,66.8,0,1,0,25.572,28.638l-2.564-2.4a70.312,70.312,0,1,1,51.3,118.392" transform="translate(0.688 0.688)" fill="#19538d"/>
        <rect id="Rectángulo_456268" data-name="Rectángulo 456268" width="150" height="150" fill="none"/>
        <rect id="Rectángulo_456269" data-name="Rectángulo 456269" width="150" height="150" fill="none"/>
      </g>
    </g>
    <g id="Grupo_1211842" data-name="Grupo 1211842" transform="translate(488.958 8512.53) rotate(180)">
      <g id="Grupo_1211841" data-name="Grupo 1211841" clip-path="url(#clip-path-2)">
        <path id="Trazado_1274654" data-name="Trazado 1274654" d="M36.675,57.62a34.636,34.636,0,0,1-4.2-3.077l-10.893-.011a1.109,1.109,0,0,1-.086-2.216l9-.023a19.42,19.42,0,0,1-3.613-8.145l-5.408-.012a1.126,1.126,0,0,1-1.053-1.068,1.156,1.156,0,0,1,1.059-1.075l5.115-.02c-.035-1.1-.029-2.1.027-3.164l-5.147-.017A1.118,1.118,0,0,1,20.43,37.7a1.105,1.105,0,0,1,1.061-1.038l5.435-.018a20.138,20.138,0,0,1,3.562-7.814l-8.994-.056a1.161,1.161,0,0,1-1.064-1.116,1.125,1.125,0,0,1,1.066-1.05l10.994.008a30.324,30.324,0,0,1,4.1-3.108l-15.01-.055a1.048,1.048,0,0,1-1.124-.946,1.1,1.1,0,0,1,1.06-1.263l23.774-.012a21.285,21.285,0,0,1,7.4,1.252l.043-6.677H42.522A3.312,3.312,0,0,1,39.151,12.7L39.116,2.163H3.349A1.122,1.122,0,0,0,2.2,3.291l-.009,9.074a1.1,1.1,0,0,1-.913,1.178A1.027,1.027,0,0,1,.017,12.59L.047,3A3.136,3.136,0,0,1,3.066.011L40.745,0l14.1,14.117.094,9.395a19.266,19.266,0,0,1,9.91,13.629,1.1,1.1,0,1,1-2.17.339,17.042,17.042,0,1,0,.272,3.971c.032-.559.793-.857,1.149-.831.392.029,1.041.389,1.014.982a19.472,19.472,0,0,1-3.039,9.438l2.649,2.571a1.657,1.657,0,0,1,1.88.3l6.621,6.666a5.226,5.226,0,0,1,.208,7.158c-1.783,1.992-5.14,2.479-7.146.489l-7.511-7.451c-.32-.317,0-1.1.16-1.433l-2.487-2.551a3.834,3.834,0,0,0-1.536.942l.01,13.483a3.406,3.406,0,0,1-3.569,3.526L3.536,74.729a3.281,3.281,0,0,1-3.5-3.089L0,17.073c0-.764.329-1.122.858-1.241a1.069,1.069,0,0,1,1.324,1.007l.009,54.526a1.179,1.179,0,0,0,1.169,1.209l47.973.007a1.279,1.279,0,0,0,1.4-1.384V58.6a18.526,18.526,0,0,1-6.506,1.221l-24.487.008c-.731,0-1.176-.264-1.3-.961A1.094,1.094,0,0,1,21.5,57.687Zm5.949-44.038,8.421-.066L41.373,3.847l-.03,8.74a1.105,1.105,0,0,0,1.281,1M60.6,57.847l2.558-2.539L60.728,52.88l-2.571,2.549Zm6.647,8.362a3.075,3.075,0,0,0,4.3.3,2.914,2.914,0,0,0,.322-4.1l-6.354-6.389-4.2,4.22Z" transform="translate(0)" fill="#19538d"/>
        <path id="Trazado_1274655" data-name="Trazado 1274655" d="M139.735,134.03a12.086,12.086,0,1,0-1.744-3.379,1.155,1.155,0,0,1-.723,1.284,1.064,1.064,0,0,1-1.357-.658,14.286,14.286,0,1,1,2.164,4.15,1.015,1.015,0,0,1,.116-1.426,1.053,1.053,0,0,1,1.544.03" transform="translate(-103.619 -86.297)" fill="#19538d"/>
        <path id="Trazado_1274656" data-name="Trazado 1274656" d="M167.866,158.95l-3.356-3.318a3.284,3.284,0,0,1,.5-4.838,3.528,3.528,0,0,1,5.01.815l3.841-3.785a3.248,3.248,0,0,1,4.384.3,3.363,3.363,0,0,1,.12,4.692l-6.024,6.124a3.247,3.247,0,0,1-4.478.014m-1.549-4.533,2.883,2.816a1.31,1.31,0,0,0,1.986-.174l5.411-5.546a1.3,1.3,0,0,0,.279-1.621c-.206-.373-1.152-.834-1.605-.384l-4.318,4.288a1.1,1.1,0,0,1-1.687.1l-1.3-1.258a1.2,1.2,0,0,0-1.773.036,1.223,1.223,0,0,0,.121,1.743" transform="translate(-125.437 -112.744)" fill="#19538d"/>
        <path id="Trazado_1274657" data-name="Trazado 1274657" d="M39.73,162l-5.21-.032a2.392,2.392,0,0,1-2.32-2.516l0-4.689a2.37,2.37,0,0,1,2.336-2.471l4.847-.006a2.366,2.366,0,0,1,2.5,2.3l.006,5.034A2.482,2.482,0,0,1,39.73,162m-.032-2.3-.028-5.179-5.3.043.046,5.167Z" transform="translate(-24.68 -116.719)" fill="#19538d"/>
        <path id="Trazado_1274658" data-name="Trazado 1274658" d="M39.4,96.038l-4.69.009a2.472,2.472,0,0,1-2.523-2.564l.008-4.688a2.3,2.3,0,0,1,2.159-2.418l5.027-.042a2.5,2.5,0,0,1,2.514,2.484l-.012,4.868A2.39,2.39,0,0,1,39.4,96.038m.289-2.238-.043-5.239-5.287.051.075,5.267Z" transform="translate(-24.67 -66.172)" fill="#19538d"/>
        <path id="Trazado_1274659" data-name="Trazado 1274659" d="M40,228.991l-5.711.041a2.252,2.252,0,0,1-2.016-2.077l-.031-5.135a2.3,2.3,0,0,1,2.191-2.416l4.957-.037a2.5,2.5,0,0,1,2.548,2.477l.011,4.683c0,1.04-.712,2.456-1.949,2.465m-.292-2.06L39.7,221.6l-5.254,0-.028,5.253Z" transform="translate(-24.712 -168.136)" fill="#19538d"/>
      </g>
    </g>
  </g>
</svg>
