<svg xmlns="http://www.w3.org/2000/svg" xmlns:xlink="http://www.w3.org/1999/xlink" width="130" height="130" viewBox="0 0 130 130">
  <defs>
    <clipPath id="clip-path">
      <rect id="Rectángulo_456267" data-name="Rectángulo 456267" width="130" height="130" fill="none"/>
    </clipPath>
    <clipPath id="clip-path-2">
      <rect id="Rectángulo_464456" data-name="Rectángulo 464456" width="63.955" height="66.84" fill="#19538d"/>
    </clipPath>
  </defs>
  <g id="Grupo_1211615" data-name="Grupo 1211615" transform="translate(513.746 8529) rotate(180)">
    <path id="Trazado_999622" data-name="Trazado 999622" d="M60.629,0A60.629,60.629,0,1,1,0,60.629,60.629,60.629,0,0,1,60.629,0" transform="translate(388.117 8403.371)" fill="#e1f5ff"/>
    <g id="Grupo_1179902" data-name="Grupo 1179902" transform="translate(383.746 8399)">
      <g id="Grupo_1179905" data-name="Grupo 1179905" clip-path="url(#clip-path)">
        <path id="Trazado_999618" data-name="Trazado 999618" d="M65,0A65,65,0,1,1,0,65,65,65,0,0,1,65,0" fill="none"/>
        <path id="Trazado_999619" data-name="Trazado 999619" d="M5.078,59A5.078,5.078,0,1,1,0,64.078,5.079,5.079,0,0,1,5.078,59" transform="translate(0 0.922)" fill="#19538d"/>
        <path id="Trazado_999620" data-name="Trazado 999620" d="M21.078,19A5.078,5.078,0,1,1,16,24.078,5.079,5.079,0,0,1,21.078,19" transform="translate(0.25 0.297)" fill="#19538d"/>
        <path id="Trazado_999621" data-name="Trazado 999621" d="M64.938,125.875A61.007,61.007,0,0,1,4,64.938H7.047A57.89,57.89,0,1,0,22.7,25.353l-2.222-2.084A60.937,60.937,0,1,1,64.938,125.875" transform="translate(0.063 0.063)" fill="#19538d"/>
        <rect id="Rectángulo_456268" data-name="Rectángulo 456268" width="130" height="130" fill="none"/>
        <rect id="Rectángulo_456269" data-name="Rectángulo 456269" width="130" height="130" fill="none"/>
      </g>
    </g>
    <g id="Grupo_1211772" data-name="Grupo 1211772" transform="translate(480.724 8497.42) rotate(180)">
      <g id="Grupo_1211771" data-name="Grupo 1211771" clip-path="url(#clip-path-2)">
        <path id="Trazado_1274325" data-name="Trazado 1274325" d="M20.488,62.257a6.1,6.1,0,0,1-7.048,4.5,5.692,5.692,0,0,1-4.7-7.495,6.151,6.151,0,0,1,7.878-3.525,5.775,5.775,0,0,1,3.857,4.271L25.495,60l.026-12.966a1.053,1.053,0,0,1,1.072-1.082l5.6-.074a12.478,12.478,0,0,0,10.82-8.319L20.59,37.547l-.007,8.731a1.119,1.119,0,0,1-1.258,1.181l-5.782.011a6.041,6.041,0,0,1-5.695,4.3A6.061,6.061,0,0,1,1.869,47.85,5.663,5.663,0,0,1,6.088,40.5a6.109,6.109,0,0,1,7.593,4.7l4.576.008.026-8.914a1.008,1.008,0,0,1,1.053-.962l24.135-.005a8.743,8.743,0,0,0,0-2.372l-24.054-.019a1.121,1.121,0,0,1-1.131-1.065l-.027-7.382-6.317.013a6.221,6.221,0,0,1-8.986,3.257A5.612,5.612,0,0,1,.008,22.509,5.683,5.683,0,0,1,3.69,17.563a6.417,6.417,0,0,1,5.6.384,5.8,5.8,0,0,1,2.879,4.318l7.372.021a1.071,1.071,0,0,1,1.048,1.1l.018,7.272,22.4-.007a12.59,12.59,0,0,0-11.383-8.243l-5.554-.039A1.136,1.136,0,0,1,24.891,21.2l0-14.339L20.517,6.8a6.072,6.072,0,0,1-6,4.645,5.9,5.9,0,0,1-6.022-4.9A5.777,5.777,0,0,1,14.287,0a5.97,5.97,0,0,1,6.2,4.6l5.607,0a1.086,1.086,0,0,1,1.141,1.125L27.236,20.1l2.8,0-.01-16.342a1.232,1.232,0,0,1,1.284-1.351l6.124.019A1.8,1.8,0,0,1,39.058,4.39l0,5.314a28.462,28.462,0,0,1,4.675,1.741l3.651-3.6a2.071,2.071,0,0,1,3.1.1l7.705,7.537a1.925,1.925,0,0,1,.744,1.481,2.3,2.3,0,0,1-.774,1.434L54.9,21.556a24.606,24.606,0,0,1,2.277,5.021l5.132.047a1.658,1.658,0,0,1,1.642,1.615l.007,11.022A1.65,1.65,0,0,1,62.3,40.9l-5.182.034a23.161,23.161,0,0,1-2.336,4.73l3.334,3.056a1.74,1.74,0,0,1,.065,2.855l-8.14,7.317a2.034,2.034,0,0,1-2.892.132L43.1,55.407a24.512,24.512,0,0,1-4.85,1.666l-.068,5.493A1.7,1.7,0,0,1,36.463,64.3l-5.284.013a1.161,1.161,0,0,1-1.147-1.241l0-14.842-2.2.023,0,12.866a1.108,1.108,0,0,1-1.109,1.118ZM18.233,5.823a3.642,3.642,0,0,0-4.685-3.467A3.543,3.543,0,0,0,10.753,5.4a3.47,3.47,0,0,0,2.309,3.534A3.89,3.89,0,0,0,16.607,8.6a3.364,3.364,0,0,0,1.626-2.781M55.217,39.344a1.206,1.206,0,0,1,1.166-.683h5.251l0-9.812-5.243,0a1.166,1.166,0,0,1-1.173-.8,22.773,22.773,0,0,0-2.734-5.972,1.188,1.188,0,0,1,.181-1.567l3.686-3.594L48.884,9.642,44.85,13.574a1.243,1.243,0,0,1-1.544.217,25.886,25.886,0,0,0-5.864-2.2,1.078,1.078,0,0,1-.737-1.069l-.029-5.914-4.265.024.018,15.585a15.154,15.154,0,0,1,9.2,4.16,13.271,13.271,0,0,1,1.524,17.864,15.167,15.167,0,0,1-10.741,5.886l-.006,13.885,3.389.04.045-5.953a1.1,1.1,0,0,1,.85-.925,27.829,27.829,0,0,0,6.029-2.074,1.251,1.251,0,0,1,1.465.167l4.288,3.907L56.3,50.2,52.61,46.8a1.135,1.135,0,0,1-.316-1.576,21.483,21.483,0,0,0,2.924-5.883M9.805,22.7a3.591,3.591,0,0,0-3.9-3.334,3.5,3.5,0,1,0,.2,6.98A3.588,3.588,0,0,0,9.805,22.7m1.563,23.48a3.569,3.569,0,0,0-3.832-3.6,3.54,3.54,0,0,0-3.616,3.9,3.738,3.738,0,0,0,3.923,3.069,3.649,3.649,0,0,0,3.525-3.367m6.871,14.846a3.392,3.392,0,0,0-1.92-2.944,3.869,3.869,0,0,0-3.565-.041,3.45,3.45,0,0,0-2.01,3.193,3.49,3.49,0,0,0,2.171,3.053,3.974,3.974,0,0,0,3.694-.267,3.389,3.389,0,0,0,1.631-2.994" transform="translate(0 0)" fill="#19538d"/>
      </g>
    </g>
  </g>
</svg>
