<svg xmlns="http://www.w3.org/2000/svg" xmlns:xlink="http://www.w3.org/1999/xlink" width="396" height="254" viewBox="0 0 396 254">
  <defs>
    <clipPath id="clip-path">
      <rect id="Rectángulo_461007" data-name="Rectángulo 461007" width="285.816" height="252.483" fill="none"/>
    </clipPath>
    <clipPath id="clip-path-3">
      <rect id="Rectángulo_460906" data-name="Rectángulo 460906" width="264.155" height="252.415" fill="#ffcc74"/>
    </clipPath>
    <clipPath id="clip-path-4">
      <rect id="Rectángulo_460909" data-name="Rectángulo 460909" width="7.827" height="7.827" fill="none"/>
    </clipPath>
    <clipPath id="clip-path-5">
      <rect id="Rectángulo_460919" data-name="Rectángulo 460919" width="22.625" height="11.807" fill="none"/>
    </clipPath>
    <clipPath id="clip-path-6">
      <rect id="Rectángulo_460927" data-name="Rectángulo 460927" width="22.625" height="11.806" fill="none"/>
    </clipPath>
  </defs>
  <g id="Grupo_1211600" data-name="Grupo 1211600" transform="translate(-186 -309)">
    <rect id="Rectángulo_464432" data-name="Rectángulo 464432" width="396" height="254" transform="translate(186 309)" fill="none"/>
    <g id="Grupo_1211194" data-name="Grupo 1211194" transform="translate(35.625)">
      <rect id="Rectángulo_460610" data-name="Rectángulo 460610" width="316" height="253" transform="translate(186.375 309)" fill="none"/>
      <g id="Grupo_1211193" data-name="Grupo 1211193" transform="translate(201.201 309.799)">
        <g id="Grupo_1211192" data-name="Grupo 1211192" clip-path="url(#clip-path)">
          <g id="Grupo_1211189" data-name="Grupo 1211189">
            <g id="Grupo_1211188" data-name="Grupo 1211188" clip-path="url(#clip-path)">
              <g id="Grupo_1211169" data-name="Grupo 1211169" transform="translate(11.809 0.068)" opacity="0.45">
                <g id="Grupo_1211168" data-name="Grupo 1211168">
                  <g id="Grupo_1211167" data-name="Grupo 1211167" clip-path="url(#clip-path-3)">
                    <path id="Trazado_1273380" data-name="Trazado 1273380" d="M365.724,275.913A53.809,53.809,0,1,1,311.914,222.1a53.81,53.81,0,0,1,53.809,53.809" transform="translate(-101.569 -77.308)" fill="#ffcc74"/>
                    <path id="Trazado_1273381" data-name="Trazado 1273381" d="M201.383,91.743A91.639,91.639,0,1,1,109.744.1a91.639,91.639,0,0,1,91.639,91.639" transform="translate(-18.105 -0.104)" fill="#ffcc74"/>
                  </g>
                </g>
              </g>
              <path id="Trazado_1273382" data-name="Trazado 1273382" d="M382.978,164.479l-.1,0-3.706-.145a2.421,2.421,0,0,1-2.323-2.513l.145-3.705c0-.039,0-.078.009-.116a18.07,18.07,0,0,1-5.213-2.411c-.026.025-.052.051-.08.076l-2.735,2.5a2.423,2.423,0,0,1-3.418-.15l-2.5-2.736a2.421,2.421,0,0,1,.151-3.417l2.735-2.505c.027-.025.055-.049.083-.072a18.1,18.1,0,0,1-1.912-5.236c-.038,0-.076,0-.114,0l-3.707-.146a2.423,2.423,0,0,1-2.322-2.512l.145-3.707a2.42,2.42,0,0,1,2.512-2.322l3.706.145q.059,0,.115.008a18.08,18.08,0,0,1,2.411-5.213c-.026-.025-.051-.052-.076-.079l-2.5-2.735a2.422,2.422,0,0,1,.151-3.418l2.735-2.5a2.423,2.423,0,0,1,3.418.15l2.505,2.735c.024.027.049.055.072.083a18.066,18.066,0,0,1,5.235-1.912c0-.038,0-.077,0-.115l.146-3.705a2.434,2.434,0,0,1,2.512-2.323l3.707.146a2.422,2.422,0,0,1,2.322,2.512l-.145,3.706c0,.039,0,.078-.008.116a18.06,18.06,0,0,1,5.212,2.411c.026-.026.052-.051.079-.076l2.736-2.5a2.421,2.421,0,0,1,3.418.151l2.505,2.735a2.423,2.423,0,0,1-.151,3.418L398,131.6c-.027.025-.055.048-.083.072a18.05,18.05,0,0,1,1.912,5.236c.039,0,.077,0,.115,0l3.706.145a2.423,2.423,0,0,1,2.323,2.512l-.145,3.706a2.4,2.4,0,0,1-.785,1.689,2.437,2.437,0,0,1-1.728.634l-3.705-.146c-.04,0-.078,0-.116-.008a18.058,18.058,0,0,1-2.411,5.213c.026.025.052.052.076.079l2.505,2.735a2.422,2.422,0,0,1-.151,3.418l-2.735,2.505a2.425,2.425,0,0,1-3.418-.151l-2.5-2.735-.072-.083a18.045,18.045,0,0,1-5.236,1.912c0,.038,0,.076,0,.114l-.145,3.707a2.424,2.424,0,0,1-2.418,2.325m-11.306-9.772.255.178a17.431,17.431,0,0,0,5.534,2.559l.3.08-.067.305a1.769,1.769,0,0,0-.044.308l-.145,3.707a1.767,1.767,0,0,0,1.7,1.835l3.706.145a1.735,1.735,0,0,0,1.263-.463,1.759,1.759,0,0,0,.573-1.233l.145-3.706a1.812,1.812,0,0,0-.02-.31l-.043-.31.308-.056a17.4,17.4,0,0,0,5.574-2.035l.27-.155.167.262a1.763,1.763,0,0,0,.186.245l2.5,2.735a1.769,1.769,0,0,0,2.5.11l2.735-2.505a1.768,1.768,0,0,0,.11-2.5l-2.5-2.736a1.754,1.754,0,0,0-.226-.2l-.248-.19.178-.256a17.4,17.4,0,0,0,2.559-5.534l.08-.3.306.067a1.782,1.782,0,0,0,.31.044l3.7.146a1.718,1.718,0,0,0,1.262-.464,1.751,1.751,0,0,0,.573-1.233l.145-3.707a1.769,1.769,0,0,0-1.7-1.835l-3.707-.145a1.84,1.84,0,0,0-.312.018l-.308.042-.056-.307a17.419,17.419,0,0,0-2.034-5.573l-.155-.27.262-.168a1.738,1.738,0,0,0,.245-.185l2.735-2.5a1.768,1.768,0,0,0,.11-2.5l-2.5-2.735a1.769,1.769,0,0,0-2.5-.11l-2.735,2.5a1.681,1.681,0,0,0-.206.228l-.19.247-.256-.178a17.409,17.409,0,0,0-5.533-2.559l-.3-.08.067-.305a1.822,1.822,0,0,0,.044-.31l.145-3.705a1.768,1.768,0,0,0-1.7-1.835l-3.707-.146a1.759,1.759,0,0,0-1.834,1.7l-.146,3.706a1.761,1.761,0,0,0,.018.311l.043.309-.307.056a17.432,17.432,0,0,0-5.574,2.034l-.27.155-.167-.262a1.814,1.814,0,0,0-.185-.244l-2.506-2.735a1.769,1.769,0,0,0-2.5-.11l-2.735,2.5a1.768,1.768,0,0,0-.11,2.5l2.5,2.735a1.648,1.648,0,0,0,.226.206l.247.19-.178.256A17.438,17.438,0,0,0,365,135.968l-.08.3-.3-.066a1.875,1.875,0,0,0-.311-.043l-3.705-.145a1.765,1.765,0,0,0-1.835,1.7l-.146,3.706a1.769,1.769,0,0,0,1.7,1.835l3.707.146a1.918,1.918,0,0,0,.31-.02l.31-.043.056.308a17.456,17.456,0,0,0,2.035,5.575l.155.27-.262.168a1.782,1.782,0,0,0-.245.185l-2.734,2.5a1.768,1.768,0,0,0-.11,2.5l2.5,2.736a1.77,1.77,0,0,0,2.5.11l2.735-2.505a1.72,1.72,0,0,0,.206-.226Zm10.311-4.077q-.229,0-.459-.01a10.168,10.168,0,1,1,.459.01m-.024-19.651a9.513,9.513,0,1,0,.429.009c-.143-.007-.286-.009-.429-.009" transform="translate(-124.489 -40.507)" fill="#0f1b63"/>
              <path id="Trazado_1273383" data-name="Trazado 1273383" d="M57.537,291.924H56.1a.482.482,0,0,1,0-.963h1.441a.482.482,0,1,1,0,.963m-4.653,0H49.671a.482.482,0,1,1,0-.963h3.212a.482.482,0,0,1,0,.963m-6.425,0H43.247a.482.482,0,1,1,0-.963h3.212a.482.482,0,0,1,0,.963m-6.425,0H36.822a.482.482,0,1,1,0-.963h3.212a.482.482,0,0,1,0,.963m-6.425,0H30.4a.482.482,0,1,1,0-.963H33.61a.482.482,0,1,1,0,.963m-6.425,0H23.973a.482.482,0,1,1,0-.963h3.212a.482.482,0,1,1,0,.963m-6.425,0h-.013a12.237,12.237,0,0,1-3.289-.544.482.482,0,0,1,.286-.92,11.286,11.286,0,0,0,3.029.5.482.482,0,0,1-.014.963M14.7,290.036a.476.476,0,0,1-.262-.078,12.284,12.284,0,0,1-2.524-2.176.482.482,0,0,1,.723-.638,11.294,11.294,0,0,0,2.326,2,.482.482,0,0,1-.263.886m-4.2-4.756a.483.483,0,0,1-.435-.272,12.269,12.269,0,0,1-1.027-3.171.482.482,0,0,1,.949-.169,11.242,11.242,0,0,0,.946,2.921.481.481,0,0,1-.433.691m-1.169-6.247a.482.482,0,0,1-.482-.482V275.34a.482.482,0,0,1,.963,0v3.212a.482.482,0,0,1-.481.482m0-6.424a.482.482,0,0,1-.482-.482v-3.212a.482.482,0,0,1,.963,0v3.212a.482.482,0,0,1-.481.482m0-6.425a.482.482,0,0,1-.482-.481v-3.212a.482.482,0,1,1,.963,0V265.7a.482.482,0,0,1-.481.481m0-6.425a.482.482,0,0,1-.482-.481v-3.212a.482.482,0,1,1,.963,0v3.212a.482.482,0,0,1-.481.481m0-6.425a.482.482,0,0,1-.482-.481v-3.212a.482.482,0,1,1,.963,0v3.212a.481.481,0,0,1-.481.481m0-6.424a.482.482,0,0,1-.482-.482v-3.212a.482.482,0,1,1,.963,0v3.212a.482.482,0,0,1-.481.482m0-6.425a.482.482,0,0,1-.482-.482v-3.212a.482.482,0,1,1,.963,0v3.212a.482.482,0,0,1-.481.482m0-6.425a.482.482,0,0,1-.482-.482v-3.212a.482.482,0,1,1,.963,0v3.212a.482.482,0,0,1-.481.482m0-6.425a.482.482,0,0,1-.482-.482v-3.212a.482.482,0,1,1,.963,0v3.212a.482.482,0,0,1-.481.482m0-6.425a.482.482,0,0,1-.482-.482V217.52a.482.482,0,1,1,.963,0v3.212a.482.482,0,0,1-.481.482m0-6.425a.482.482,0,0,1-.482-.482V211.1a.482.482,0,0,1,.963,0v3.212a.482.482,0,0,1-.481.482m0-6.424a.482.482,0,0,1-.482-.482v-3.212a.482.482,0,0,1,.963,0v3.212a.482.482,0,0,1-.481.482m0-6.425a.482.482,0,0,1-.482-.482v-.325a12.264,12.264,0,0,1,.364-2.974.482.482,0,0,1,.935.233,11.323,11.323,0,0,0-.335,2.741v.325a.482.482,0,0,1-.481.482m1.543-6.153a.488.488,0,0,1-.239-.063.482.482,0,0,1-.179-.657,12.3,12.3,0,0,1,2.031-2.642.482.482,0,1,1,.678.686,11.292,11.292,0,0,0-1.872,2.434.481.481,0,0,1-.419.243m4.513-4.459a.482.482,0,0,1-.235-.9,12.173,12.173,0,0,1,3.109-1.2.482.482,0,0,1,.222.938,11.2,11.2,0,0,0-2.863,1.109.482.482,0,0,1-.234.061m80.053-1.473H92.234a.482.482,0,0,1,0-.964h3.212a.482.482,0,0,1,0,.964m-6.424,0H85.81a.482.482,0,0,1,0-.964h3.212a.482.482,0,0,1,0,.964m-6.425,0H79.385a.482.482,0,0,1,0-.964H82.6a.482.482,0,0,1,0,.964m-6.425,0H72.961a.482.482,0,0,1,0-.964h3.212a.482.482,0,0,1,0,.964m-6.425,0H66.537a.482.482,0,0,1,0-.964h3.212a.482.482,0,0,1,0,.964m-6.424,0H60.112a.482.482,0,0,1,0-.964h3.213a.482.482,0,0,1,0,.964m-6.425,0H53.688a.482.482,0,0,1,0-.964H56.9a.482.482,0,0,1,0,.964m-6.425,0H47.263a.482.482,0,0,1,0-.964h3.212a.482.482,0,0,1,0,.964m-6.425,0H40.839a.482.482,0,0,1,0-.964h3.212a.482.482,0,0,1,0,.964m-6.425,0H34.414a.482.482,0,0,1,0-.964h3.212a.482.482,0,0,1,0,.964m-6.425,0H27.99a.482.482,0,0,1,0-.964H31.2a.482.482,0,0,1,0,.964m-6.425,0H21.565a.482.482,0,0,1,0-.964h3.212a.482.482,0,0,1,0,.964" transform="translate(-3.079 -65.69)" fill="#68c6ea"/>
              <path id="Trazado_1273384" data-name="Trazado 1273384" d="M10.573,266.975a2.1,2.1,0,1,1-2.1-2.1,2.1,2.1,0,0,1,2.1,2.1" transform="translate(-2.217 -92.114)" fill="#68c6ea"/>
              <path id="Trazado_1273385" data-name="Trazado 1273385" d="M7.495,269.931A3.935,3.935,0,1,1,11.43,266a3.939,3.939,0,0,1-3.935,3.935m0-7.388A3.453,3.453,0,1,0,10.948,266a3.457,3.457,0,0,0-3.453-3.453" transform="translate(-1.238 -91.136)" fill="#68c6ea"/>
              <path id="Trazado_1273386" data-name="Trazado 1273386" d="M175.089,111.371a.587.587,0,0,1-.586-.586v-3.908a.586.586,0,1,1,1.172,0v3.908a.587.587,0,0,1-.586.586m0-7.816a.587.587,0,0,1-.586-.586V99.06a.586.586,0,1,1,1.172,0v3.908a.587.587,0,0,1-.586.586m0-7.817a.586.586,0,0,1-.586-.586V91.243a.586.586,0,1,1,1.172,0v3.908a.586.586,0,0,1-.586.586m0-7.816a.586.586,0,0,1-.586-.586V83.426a.586.586,0,0,1,1.172,0v3.908a.586.586,0,0,1-.586.586m0-7.816a.586.586,0,0,1-.586-.586V75.61a.586.586,0,1,1,1.172,0v3.908a.586.586,0,0,1-.586.586m0-7.816a.587.587,0,0,1-.586-.586V67.793a.586.586,0,1,1,1.172,0V71.7a.587.587,0,0,1-.586.586m62.067-7.041a.586.586,0,0,1-.586-.586V62.491a.586.586,0,1,1,1.172,0v2.169a.586.586,0,0,1-.586.586m-62.067-.776a.587.587,0,0,1-.586-.586V59.977a.586.586,0,1,1,1.172,0v3.908a.587.587,0,0,1-.586.586m62.067-5.3a.586.586,0,0,1-.586-.586V54.675a.586.586,0,1,1,1.172,0v3.908a.586.586,0,0,1-.586.586m-62.067-2.514a.587.587,0,0,1-.586-.586V52.161a.586.586,0,1,1,1.172,0v3.908a.587.587,0,0,1-.586.586m62.067-5.3a.586.586,0,0,1-.586-.586V46.859a.586.586,0,1,1,1.172,0v3.908a.586.586,0,0,1-.586.586m-62.067-2.515a.586.586,0,0,1-.586-.586V44.344a.586.586,0,1,1,1.172,0v3.908a.586.586,0,0,1-.586.586m62.067-5.3a.586.586,0,0,1-.586-.586V39.042a.586.586,0,0,1,1.172,0V42.95a.586.586,0,0,1-.586.586m-62.067-2.514a.586.586,0,0,1-.586-.586V36.527a.586.586,0,0,1,1.172,0v3.908a.586.586,0,0,1-.586.586m62.067-5.3a.586.586,0,0,1-.586-.586V31.225a.586.586,0,1,1,1.172,0v3.908a.586.586,0,0,1-.586.586m-62.067-2.514a.586.586,0,0,1-.586-.586V28.711a.586.586,0,1,1,1.172,0v3.908a.586.586,0,0,1-.586.586m62.067-5.3a.586.586,0,0,1-.586-.586V23.409a.586.586,0,1,1,1.172,0v3.908a.586.586,0,0,1-.586.586m-62.067-2.514a.587.587,0,0,1-.586-.586V20.894a.586.586,0,1,1,1.172,0V24.8a.587.587,0,0,1-.586.586m62.043-5.3a.586.586,0,0,1-.585-.553,13.651,13.651,0,0,0-.717-3.666.586.586,0,0,1,1.109-.38,14.82,14.82,0,0,1,.779,3.979.587.587,0,0,1-.552.619h-.034M175.474,17.6a.561.561,0,0,1-.135-.016.586.586,0,0,1-.436-.706,14.758,14.758,0,0,1,1.468-3.782.586.586,0,1,1,1.023.571,13.632,13.632,0,0,0-1.351,3.482.585.585,0,0,1-.569.451m59.157-4.813a.585.585,0,0,1-.483-.252,13.831,13.831,0,0,0-2.522-2.76.586.586,0,1,1,.751-.9,15,15,0,0,1,2.735,2.992.585.585,0,0,1-.149.815.577.577,0,0,1-.333.1m-55.412-1.935a.586.586,0,0,1-.417-1,14.98,14.98,0,0,1,3.214-2.471A.586.586,0,1,1,182.6,8.4a13.788,13.788,0,0,0-2.962,2.277.582.582,0,0,1-.416.174M228.7,7.849a.59.59,0,0,1-.239-.051,13.651,13.651,0,0,0-3.586-1.047.586.586,0,0,1,.171-1.16,14.847,14.847,0,0,1,3.895,1.137.586.586,0,0,1-.24,1.121M185.92,7.028a.586.586,0,0,1-.142-1.155A14.964,14.964,0,0,1,189.4,5.43h.4a.586.586,0,1,1,0,1.173h-.4a13.781,13.781,0,0,0-3.336.408.586.586,0,0,1-.142.018M221.059,6.6H217.15a.586.586,0,0,1,0-1.173h3.909a.586.586,0,1,1,0,1.173m-7.817,0h-3.908a.586.586,0,1,1,0-1.173h3.908a.586.586,0,0,1,0,1.173m-7.816,0h-3.908a.586.586,0,1,1,0-1.173h3.908a.586.586,0,1,1,0,1.173m-7.816,0H193.7a.586.586,0,1,1,0-1.173h3.908a.586.586,0,0,1,0,1.173" transform="translate(-60.686 -1.888)" fill="#68c6ea"/>
              <path id="Trazado_1273387" data-name="Trazado 1273387" d="M221.808,7.357a2.2,2.2,0,1,0-2.2-2.2,2.2,2.2,0,0,0,2.2,2.2" transform="translate(-76.371 -1.027)" fill="#68c6ea"/>
              <path id="Trazado_1273388" data-name="Trazado 1273388" d="M220.781,8.256a4.128,4.128,0,1,1,4.128-4.128,4.133,4.133,0,0,1-4.128,4.128m0-7.751A3.623,3.623,0,1,0,224.4,4.128,3.627,3.627,0,0,0,220.781.505" transform="translate(-75.344 0)" fill="#68c6ea"/>
              <rect id="Rectángulo_460907" data-name="Rectángulo 460907" width="37.8" height="6.462" transform="translate(110.269 35.884)" fill="#c1c1c1"/>
              <path id="Trazado_1273389" data-name="Trazado 1273389" d="M236.215,51.289H209.2a7.661,7.661,0,0,0-5.1,1.8l-7.34,5.492H167.842a2.188,2.188,0,0,0-2.188,2.189V100.8a2.189,2.189,0,0,0,2.188,2.189H238.3a2.189,2.189,0,0,0,2.189-2.189V56.153c0-2.57-1.914-4.864-4.273-4.864" transform="translate(-57.609 -17.837)" fill="#ffc655"/>
              <path id="Trazado_1273390" data-name="Trazado 1273390" d="M56.607,294.583H56.57l-5.581-.061a3.475,3.475,0,0,1-3.438-3.513l.06-5.581a2.9,2.9,0,0,1,.02-.3,27.036,27.036,0,0,1-8.151-3.491c-.065.076-.132.145-.2.213l-4.007,3.886a3.481,3.481,0,0,1-4.915-.077l-3.885-4.007a3.48,3.48,0,0,1,.076-4.915l4.008-3.885c.068-.067.141-.13.219-.194a27.012,27.012,0,0,1-3.184-8c-.105.01-.2.012-.3.013l-5.581-.061a3.479,3.479,0,0,1-3.439-3.512l.061-5.581a3.476,3.476,0,0,1,3.474-3.439h.038l5.581.061c.1,0,.2.007.3.019A27.049,27.049,0,0,1,31.218,244c-.076-.064-.146-.13-.213-.2l-3.885-4.009a3.479,3.479,0,0,1,.076-4.915l4.007-3.885a3.365,3.365,0,0,1,2.473-.978,3.448,3.448,0,0,1,2.442,1.055L40,235.078q.1.1.194.219a27,27,0,0,1,8-3.184,3,3,0,0,1-.012-.3l.06-5.581a3.454,3.454,0,0,1,1.046-2.445,3.525,3.525,0,0,1,2.467-.993l5.581.061a3.48,3.48,0,0,1,3.438,3.512l-.06,5.582a2.892,2.892,0,0,1-.019.3,27.011,27.011,0,0,1,8.15,3.491c.065-.076.132-.146.2-.213l4.007-3.886a3.48,3.48,0,0,1,4.915.077l3.885,4.007a3.479,3.479,0,0,1-.076,4.915l-4.007,3.885c-.069.067-.142.131-.219.194a27.023,27.023,0,0,1,3.184,8c.105-.01.2-.012.3-.012l5.581.06a3.48,3.48,0,0,1,3.439,3.512L90,261.866a3.453,3.453,0,0,1-1.057,2.457,3.539,3.539,0,0,1-2.456.981l-5.581-.061a2.924,2.924,0,0,1-.3-.02,27.013,27.013,0,0,1-3.491,8.152c.076.065.147.131.214.2l3.885,4.009a3.479,3.479,0,0,1-.076,4.915l-4.007,3.885a3.506,3.506,0,0,1-2.473.978,3.453,3.453,0,0,1-2.442-1.055L68.329,282.3a2.764,2.764,0,0,1-.194-.22,27.014,27.014,0,0,1-8,3.184,2.835,2.835,0,0,1,.013.3l-.06,5.582a3.481,3.481,0,0,1-3.476,3.438m-17.28-13.826.26.171a26.43,26.43,0,0,0,8.487,3.634l.3.071-.058.307a2.76,2.76,0,0,0-.056.5l-.06,5.581A2.823,2.823,0,0,0,51,293.87l5.582.06a2.891,2.891,0,0,0,1.994-.8,2.8,2.8,0,0,0,.86-2l.06-5.581a2.7,2.7,0,0,0-.046-.494l-.052-.308.306-.065a26.384,26.384,0,0,0,8.35-3.321l.265-.162.175.257a2.851,2.851,0,0,0,.307.382l3.885,4.007a2.8,2.8,0,0,0,1.983.856,2.891,2.891,0,0,0,2.01-.8l4.007-3.885a2.824,2.824,0,0,0,.062-3.992l-3.885-4.009a2.949,2.949,0,0,0-.372-.318l-.252-.183.171-.26a26.368,26.368,0,0,0,3.635-8.486l.071-.3.307.059a2.78,2.78,0,0,0,.5.056l5.581.061a2.828,2.828,0,0,0,2.854-2.793l.061-5.582a2.828,2.828,0,0,0-2.793-2.854l-5.581-.06a2.923,2.923,0,0,0-.5.043l-.308.051-.065-.3a26.394,26.394,0,0,0-3.32-8.349l-.163-.265.258-.175a2.769,2.769,0,0,0,.381-.307l4.007-3.885a2.827,2.827,0,0,0,.062-3.992l-3.885-4.007a2.828,2.828,0,0,0-3.993-.062L69.507,236a2.748,2.748,0,0,0-.318.371l-.182.252-.261-.171a26.407,26.407,0,0,0-8.485-3.634l-.3-.071.058-.307a2.821,2.821,0,0,0,.054-.5l.06-5.581a2.827,2.827,0,0,0-2.793-2.854l-5.581-.061a2.936,2.936,0,0,0-2,.806,2.808,2.808,0,0,0-.85,1.987l-.06,5.582a2.8,2.8,0,0,0,.044.5l.051.308-.306.065a26.356,26.356,0,0,0-8.347,3.32l-.266.163-.175-.258a2.746,2.746,0,0,0-.306-.381l-3.885-4.008a2.828,2.828,0,0,0-3.993-.061l-4.007,3.885a2.825,2.825,0,0,0-.062,3.992l3.885,4.007a2.817,2.817,0,0,0,.372.318l.252.183-.171.26a26.39,26.39,0,0,0-3.635,8.486l-.071.3-.306-.057a2.794,2.794,0,0,0-.5-.054l-5.581-.061a2.853,2.853,0,0,0-2,.8,2.814,2.814,0,0,0-.858,2l-.06,5.581a2.826,2.826,0,0,0,2.792,2.853l5.581.061a2.8,2.8,0,0,0,.494-.045l.309-.052.065.306a26.378,26.378,0,0,0,3.321,8.351l.162.265-.258.175a2.762,2.762,0,0,0-.381.306L27,277.2a2.827,2.827,0,0,0-.062,3.992l3.885,4.007a2.827,2.827,0,0,0,3.993.062l4.007-3.885a2.816,2.816,0,0,0,.318-.371ZM54.173,273.8l-.241,0a15.116,15.116,0,1,1,.241,0m-.014-29.571a14.46,14.46,0,0,0-.217,28.918h.231a14.459,14.459,0,0,0,.217-28.917l-.231,0" transform="translate(-6.354 -77.48)" fill="#0f1b63"/>
              <rect id="Rectángulo_460908" data-name="Rectángulo 460908" width="59.987" height="28.756" transform="translate(113.239 200.146)" fill="#133c41"/>
              <path id="Trazado_1273391" data-name="Trazado 1273391" d="M266.119,94.643v131a7.619,7.619,0,0,1-7.624,7.618H74.445a7.623,7.623,0,0,1-7.624-7.618v-131a7.628,7.628,0,0,1,7.624-7.624H258.5a7.624,7.624,0,0,1,7.624,7.624" transform="translate(-23.238 -30.262)" fill="#0f654d"/>
              <g id="Grupo_1211172" data-name="Grupo 1211172" transform="translate(138.995 189.868)" opacity="0.5">
                <g id="Grupo_1211171" data-name="Grupo 1211171">
                  <g id="Grupo_1211170" data-name="Grupo 1211170" clip-path="url(#clip-path-4)">
                    <path id="Trazado_1273392" data-name="Trazado 1273392" d="M220.932,295.017a3.913,3.913,0,1,1-3.913-3.913,3.913,3.913,0,0,1,3.913,3.913" transform="translate(-213.105 -291.104)" fill="#fff"/>
                  </g>
                </g>
              </g>
              <path id="Trazado_1273393" data-name="Trazado 1273393" d="M265,216.768V97.467a6.438,6.438,0,0,0-6.322-6.548H76.814a6.438,6.438,0,0,0-6.322,6.548v119.3Z" transform="translate(-24.515 -31.618)" fill="#c0f6f2"/>
              <path id="Trazado_1273394" data-name="Trazado 1273394" d="M239.113,352.4H155.521v-.2a6,6,0,0,1,6-6h71.6a6,6,0,0,1,6,6Z" transform="translate(-54.085 -120.396)" fill="#0f654d"/>
              <path id="Trazado_1273395" data-name="Trazado 1273395" d="M61.66,73.926a11.245,11.245,0,0,0-9.955-11.168,9.983,9.983,0,0,0-9.953-11.173,9.971,9.971,0,0,0-4.152.909A15.01,15.01,0,0,0,9.947,60.587a15.168,15.168,0,0,0,.155,2.149,11.248,11.248,0,0,0,1.146,22.438H50.97v-.029A11.238,11.238,0,0,0,61.66,73.926" transform="translate(0 -15.849)" fill="#68c6ea"/>
              <path id="Trazado_1273396" data-name="Trazado 1273396" d="M48.23,110.129V92.654H33.822v17.475h-4.5L41.026,121.1l11.708-10.969Z" transform="translate(-10.196 -32.222)" fill="#ffc655"/>
              <path id="Trazado_1273397" data-name="Trazado 1273397" d="M280.32,89.124H244.945a5.923,5.923,0,0,1-5.923-5.922V71.437a5.923,5.923,0,0,1,5.923-5.923H280.32a5.923,5.923,0,0,1,5.923,5.923V83.2a5.923,5.923,0,0,1-5.923,5.922" transform="translate(-83.123 -22.783)" fill="#19538d"/>
              <path id="Trazado_1273398" data-name="Trazado 1273398" d="M77.862,349.619H42.487a5.923,5.923,0,0,1-5.923-5.923V331.932a5.923,5.923,0,0,1,5.923-5.924H77.862a5.923,5.923,0,0,1,5.923,5.924V343.7a5.923,5.923,0,0,1-5.923,5.923" transform="translate(-12.716 -113.374)" fill="#19538d"/>
              <path id="Trazado_1273399" data-name="Trazado 1273399" d="M103.942,196.48H68.567a5.923,5.923,0,0,1-5.923-5.923V178.793a5.923,5.923,0,0,1,5.923-5.924h35.375a5.923,5.923,0,0,1,5.923,5.924v11.764a5.923,5.923,0,0,1-5.923,5.923" transform="translate(-21.785 -60.118)" fill="#19538d"/>
              <path id="Trazado_1273400" data-name="Trazado 1273400" d="M315.9,324.432h-1.685a.505.505,0,1,1,0-1.011H315.9a.505.505,0,1,1,0,1.011" transform="translate(-109.099 -112.474)" fill="#b19cfe"/>
              <path id="Trazado_1273401" data-name="Trazado 1273401" d="M359.047,292.768h-3.371a.505.505,0,0,1,0-1.011h3.371a.505.505,0,1,1,0,1.011m-6.741,0h-3.369a.505.505,0,0,1,0-1.011h3.369a.505.505,0,0,1,0,1.011m-6.74,0h-3.371a.505.505,0,1,1,0-1.011h3.371a.505.505,0,1,1,0,1.011m-6.742,0h-3.371a.505.505,0,0,1,0-1.011h3.371a.505.505,0,1,1,0,1.011m-6.741,0h-3.37a.505.505,0,0,1,0-1.011h3.37a.505.505,0,1,1,0,1.011m-6.74,0h-3.371a.505.505,0,1,1,0-1.011h3.371a.505.505,0,0,1,0,1.011m37.043-.392a.505.505,0,0,1-.119-1,13.35,13.35,0,0,0,3.033-1.139.506.506,0,0,1,.468.9,14.4,14.4,0,0,1-3.263,1.225.539.539,0,0,1-.119.014m5.921-3.082a.506.506,0,0,1-.334-.885,13.548,13.548,0,0,0,2.161-2.415.505.505,0,1,1,.828.579,14.584,14.584,0,0,1-2.322,2.6.506.506,0,0,1-.334.125m3.822-5.47a.506.506,0,0,1-.472-.687,13.309,13.309,0,0,0,.791-3.141.506.506,0,0,1,1,.126,14.368,14.368,0,0,1-.851,3.379.5.5,0,0,1-.472.324m.933-6.625a.505.505,0,0,1-.505-.505v-3.371a.505.505,0,1,1,1.011,0v3.371a.505.505,0,0,1-.505.505m0-6.741a.506.506,0,0,1-.505-.506v-3.371a.505.505,0,0,1,1.011,0v3.371a.506.506,0,0,1-.505.506m0-6.742a.506.506,0,0,1-.505-.506v-3.37a.505.505,0,0,1,1.011,0v3.37a.506.506,0,0,1-.505.506m0-6.741a.505.505,0,0,1-.505-.505V253.1a.505.505,0,1,1,1.011,0v3.371a.505.505,0,0,1-.505.505m0-6.741a.506.506,0,0,1-.505-.505v-3.371a.505.505,0,1,1,1.011,0v3.371a.505.505,0,0,1-.505.505m0-6.741a.506.506,0,0,1-.505-.505v-3.37a.505.505,0,1,1,1.011,0v3.37a.506.506,0,0,1-.505.505m0-6.741a.506.506,0,0,1-.505-.505v-3.371a.505.505,0,1,1,1.011,0v3.371a.505.505,0,0,1-.505.505" transform="translate(-111.794 -80.81)" fill="#68c6ea"/>
              <path id="Trazado_1273402" data-name="Trazado 1273402" d="M399.8,227.291a.506.506,0,0,1-.506-.505v-1.179h-.424a.506.506,0,0,1,0-1.012h.929a.506.506,0,0,1,.505.505v1.685a.506.506,0,0,1-.505.505" transform="translate(-138.539 -78.106)" fill="#b19cfe"/>
              <path id="Trazado_1273403" data-name="Trazado 1273403" d="M350.369,147.1H306.145a4.813,4.813,0,0,0-4.814,4.813v91.906a4.813,4.813,0,0,0,4.814,4.813h44.225a4.813,4.813,0,0,0,4.814-4.813V151.912a4.813,4.813,0,0,0-4.814-4.813" transform="translate(-104.792 -51.156)" fill="#68c6ea"/>
              <path id="Trazado_1273404" data-name="Trazado 1273404" d="M344.4,154.351H320.07a.765.765,0,0,1-.764-.764v-.1a.765.765,0,0,1,.764-.764H344.4a.765.765,0,0,1,.764.764v.1a.765.765,0,0,1-.764.764" transform="translate(-111.043 -53.112)" fill="#0f1b63"/>
              <path id="Trazado_1273405" data-name="Trazado 1273405" d="M365.053,153.537a.814.814,0,1,1-.814-.814.814.814,0,0,1,.814.814" transform="translate(-126.386 -53.112)" fill="#0f1b63"/>
              <rect id="Rectángulo_460910" data-name="Rectángulo 460910" width="47.923" height="29.448" transform="translate(199.503 105.164)" fill="#fff"/>
              <path id="Trazado_1273406" data-name="Trazado 1273406" d="M341.727,176.543l-3.514,4.2-9.091-10.876-15.2,18.184h37.429Z" transform="translate(-109.171 -59.075)" fill="#ffc655"/>
              <rect id="Rectángulo_460911" data-name="Rectángulo 460911" width="22.625" height="13.27" transform="translate(199.503 173.617)" fill="#fff"/>
              <path id="Trazado_1273407" data-name="Trazado 1273407" d="M322.8,272.414l-1.659,1.984-4.292-5.134-7.177,8.585h17.67Z" transform="translate(-107.694 -93.64)" fill="#ffc655"/>
              <g id="Grupo_1211175" data-name="Grupo 1211175" transform="translate(199.503 139.522)" style="mix-blend-mode: multiply;isolation: isolate">
                <g id="Grupo_1211174" data-name="Grupo 1211174">
                  <g id="Grupo_1211173" data-name="Grupo 1211173" clip-path="url(#clip-path-5)">
                    <rect id="Rectángulo_460912" data-name="Rectángulo 460912" width="22.625" height="1.271" transform="translate(0 2.664)" fill="#b19cfe"/>
                    <rect id="Rectángulo_460913" data-name="Rectángulo 460913" width="22.625" height="1.271" transform="translate(0 0)" fill="#b19cfe"/>
                    <rect id="Rectángulo_460914" data-name="Rectángulo 460914" width="14.306" height="1.271" transform="translate(0 5.266)" fill="#b19cfe"/>
                    <rect id="Rectángulo_460915" data-name="Rectángulo 460915" width="7.302" height="1.271" transform="translate(15.324 5.266)" fill="#b19cfe"/>
                    <rect id="Rectángulo_460916" data-name="Rectángulo 460916" width="20.017" height="1.271" transform="translate(0 7.865)" fill="#b19cfe"/>
                    <rect id="Rectángulo_460917" data-name="Rectángulo 460917" width="6.952" height="1.271" transform="translate(0 10.536)" fill="#b19cfe"/>
                    <rect id="Rectángulo_460918" data-name="Rectángulo 460918" width="5.007" height="1.271" transform="translate(8.152 10.536)" fill="#b19cfe"/>
                  </g>
                </g>
              </g>
              <g id="Grupo_1211178" data-name="Grupo 1211178" transform="translate(224.801 157.324)" style="mix-blend-mode: multiply;isolation: isolate">
                <g id="Grupo_1211177" data-name="Grupo 1211177">
                  <g id="Grupo_1211176" data-name="Grupo 1211176" clip-path="url(#clip-path-6)">
                    <rect id="Rectángulo_460920" data-name="Rectángulo 460920" width="22.625" height="1.271" transform="translate(0 2.664)" fill="#b19cfe"/>
                    <rect id="Rectángulo_460921" data-name="Rectángulo 460921" width="22.625" height="1.271" transform="translate(0 0)" fill="#b19cfe"/>
                    <rect id="Rectángulo_460922" data-name="Rectángulo 460922" width="14.306" height="1.271" transform="translate(0 5.265)" fill="#b19cfe"/>
                    <rect id="Rectángulo_460923" data-name="Rectángulo 460923" width="7.302" height="1.271" transform="translate(15.324 5.265)" fill="#b19cfe"/>
                    <rect id="Rectángulo_460924" data-name="Rectángulo 460924" width="20.017" height="1.271" transform="translate(0 7.865)" fill="#b19cfe"/>
                    <rect id="Rectángulo_460925" data-name="Rectángulo 460925" width="6.952" height="1.271" transform="translate(0 10.535)" fill="#b19cfe"/>
                    <rect id="Rectángulo_460926" data-name="Rectángulo 460926" width="5.007" height="1.271" transform="translate(8.152 10.535)" fill="#b19cfe"/>
                  </g>
                </g>
              </g>
              <g id="Grupo_1211181" data-name="Grupo 1211181" transform="translate(224.801 139.522)" style="mix-blend-mode: multiply;isolation: isolate">
                <g id="Grupo_1211180" data-name="Grupo 1211180">
                  <g id="Grupo_1211179" data-name="Grupo 1211179" clip-path="url(#clip-path-5)">
                    <rect id="Rectángulo_460928" data-name="Rectángulo 460928" width="22.625" height="1.271" transform="translate(0 2.664)" fill="#b19cfe"/>
                    <rect id="Rectángulo_460929" data-name="Rectángulo 460929" width="22.625" height="1.271" transform="translate(0 0)" fill="#b19cfe"/>
                    <rect id="Rectángulo_460930" data-name="Rectángulo 460930" width="14.306" height="1.271" transform="translate(0 5.266)" fill="#b19cfe"/>
                    <rect id="Rectángulo_460931" data-name="Rectángulo 460931" width="7.302" height="1.271" transform="translate(15.324 5.266)" fill="#b19cfe"/>
                    <rect id="Rectángulo_460932" data-name="Rectángulo 460932" width="22.625" height="1.271" transform="translate(0 7.865)" fill="#b19cfe"/>
                    <rect id="Rectángulo_460933" data-name="Rectángulo 460933" width="6.952" height="1.271" transform="translate(0 10.536)" fill="#b19cfe"/>
                    <rect id="Rectángulo_460934" data-name="Rectángulo 460934" width="14.474" height="1.271" transform="translate(8.152 10.536)" fill="#b19cfe"/>
                  </g>
                </g>
              </g>
              <g id="Grupo_1211184" data-name="Grupo 1211184" transform="translate(199.503 157.324)" style="mix-blend-mode: multiply;isolation: isolate">
                <g id="Grupo_1211183" data-name="Grupo 1211183">
                  <g id="Grupo_1211182" data-name="Grupo 1211182" clip-path="url(#clip-path-6)">
                    <rect id="Rectángulo_460936" data-name="Rectángulo 460936" width="22.625" height="1.271" transform="translate(0 2.664)" fill="#b19cfe"/>
                    <rect id="Rectángulo_460937" data-name="Rectángulo 460937" width="22.625" height="1.271" transform="translate(0 0)" fill="#b19cfe"/>
                    <rect id="Rectángulo_460938" data-name="Rectángulo 460938" width="22.625" height="1.271" transform="translate(0 5.265)" fill="#b19cfe"/>
                    <rect id="Rectángulo_460939" data-name="Rectángulo 460939" width="22.625" height="1.271" transform="translate(0 7.865)" fill="#b19cfe"/>
                    <rect id="Rectángulo_460940" data-name="Rectángulo 460940" width="22.625" height="1.271" transform="translate(0 10.535)" fill="#b19cfe"/>
                  </g>
                </g>
              </g>
              <g id="Grupo_1211187" data-name="Grupo 1211187" transform="translate(224.801 174.051)" style="mix-blend-mode: multiply;isolation: isolate">
                <g id="Grupo_1211186" data-name="Grupo 1211186">
                  <g id="Grupo_1211185" data-name="Grupo 1211185" clip-path="url(#clip-path-5)">
                    <rect id="Rectángulo_460942" data-name="Rectángulo 460942" width="22.625" height="1.271" transform="translate(0 2.664)" fill="#b19cfe"/>
                    <rect id="Rectángulo_460943" data-name="Rectángulo 460943" width="22.625" height="1.271" fill="#b19cfe"/>
                    <rect id="Rectángulo_460944" data-name="Rectángulo 460944" width="14.306" height="1.271" transform="translate(8.319 5.266)" fill="#b19cfe"/>
                    <rect id="Rectángulo_460945" data-name="Rectángulo 460945" width="7.302" height="1.271" transform="translate(0 5.266)" fill="#b19cfe"/>
                    <rect id="Rectángulo_460946" data-name="Rectángulo 460946" width="17.373" height="1.271" transform="translate(0 7.865)" fill="#b19cfe"/>
                    <rect id="Rectángulo_460947" data-name="Rectángulo 460947" width="4.045" height="1.271" transform="translate(18.58 7.865)" fill="#b19cfe"/>
                    <rect id="Rectángulo_460948" data-name="Rectángulo 460948" width="16.689" height="1.271" transform="translate(5.936 10.536)" fill="#b19cfe"/>
                    <rect id="Rectángulo_460949" data-name="Rectángulo 460949" width="5.007" height="1.271" transform="translate(0 10.536)" fill="#b19cfe"/>
                  </g>
                </g>
              </g>
              <path id="Trazado_1273408" data-name="Trazado 1273408" d="M295.738,326.379H260.363a5.923,5.923,0,0,1-5.923-5.923V308.692a5.923,5.923,0,0,1,5.923-5.923h35.375a5.923,5.923,0,0,1,5.923,5.923v11.764a5.923,5.923,0,0,1-5.923,5.923" transform="translate(-88.485 -105.292)" fill="#19538d"/>
              <path id="Trazado_1273409" data-name="Trazado 1273409" d="M401.014,277.755a2.2,2.2,0,1,1-2.2-2.2,2.2,2.2,0,0,1,2.2,2.2" transform="translate(-137.927 -95.827)" fill="#68c6ea"/>
              <path id="Trazado_1273410" data-name="Trazado 1273410" d="M397.784,280.856a4.128,4.128,0,1,1,4.128-4.129,4.133,4.133,0,0,1-4.128,4.129m0-7.751a3.623,3.623,0,1,0,3.623,3.622,3.627,3.627,0,0,0-3.623-3.622" transform="translate(-136.9 -94.8)" fill="#68c6ea"/>
              <path id="Trazado_1273411" data-name="Trazado 1273411" d="M407.109,216.789H371.734a5.923,5.923,0,0,1-5.923-5.923V199.1a5.923,5.923,0,0,1,5.923-5.923h35.375a5.923,5.923,0,0,1,5.923,5.923v11.764a5.923,5.923,0,0,1-5.923,5.923" transform="translate(-127.216 -67.181)" fill="#19538d"/>
              <rect id="Rectángulo_460951" data-name="Rectángulo 460951" width="14.859" height="1.348" transform="translate(138.033 153.931)" fill="#0f1b63"/>
              <rect id="Rectángulo_460952" data-name="Rectángulo 460952" width="34.41" height="1.348" transform="translate(156.703 153.931)" fill="#0f1b63"/>
              <path id="Trazado_1273412" data-name="Trazado 1273412" d="M256.527,253.06c-5.907,0-11.826-.007-17.719-.022l0-1.348c11.783.029,23.676.029,35.35,0l0,1.348c-5.838.014-11.73.022-17.637.022" transform="translate(-83.049 -87.529)" fill="#0f1b63"/>
              <rect id="Rectángulo_460953" data-name="Rectángulo 460953" width="40.768" height="1.348" transform="translate(150.345 159.046)" fill="#0f1b63"/>
              <rect id="Rectángulo_460954" data-name="Rectángulo 460954" width="42.986" height="1.348" transform="translate(148.127 169.298)" fill="#0f1b63"/>
              <rect id="Rectángulo_460955" data-name="Rectángulo 460955" width="48.948" height="1.348" transform="translate(142.166 174.414)" fill="#0f1b63"/>
              <rect id="Rectángulo_460956" data-name="Rectángulo 460956" width="23.014" height="1.348" transform="translate(57.728 76.847)" fill="#68c6ea"/>
              <rect id="Rectángulo_460957" data-name="Rectángulo 460957" width="23.749" height="1.348" transform="translate(110.482 76.847)" fill="#68c6ea"/>
              <rect id="Rectángulo_460958" data-name="Rectángulo 460958" width="16.474" height="1.348" transform="translate(117.757 81.963)" fill="#ffc655"/>
              <rect id="Rectángulo_460959" data-name="Rectángulo 460959" width="23.251" height="1.348" transform="translate(110.98 92.214)" fill="#ffc655"/>
              <rect id="Rectángulo_460960" data-name="Rectángulo 460960" width="27.805" height="1.348" transform="translate(106.427 97.33)" fill="#ffc655"/>
              <rect id="Rectángulo_460961" data-name="Rectángulo 460961" width="35.765" height="1.348" transform="translate(98.466 103.31)" fill="#ffc655"/>
              <rect id="Rectángulo_460962" data-name="Rectángulo 460962" width="23.014" height="1.348" transform="translate(84.472 76.847)" fill="#ffc655"/>
              <path id="Trazado_1273413" data-name="Trazado 1273413" d="M167.354,134.876c-3.516,0-7.044-.005-14.1-.015l-4.587-.006v-1.348l4.588.007c14.109.02,14.11.02,28.12,0l4.557-.007v1.348l-4.555.006c-7.006.01-10.509.015-14.024.015" transform="translate(-51.701 -46.429)" fill="#ffc655"/>
              <path id="Trazado_1273414" data-name="Trazado 1273414" d="M106.143,134.876c-5.907,0-11.8-.007-17.637-.021l0-1.348c11.674.028,23.567.028,35.35,0l0,1.348c-5.892.014-11.813.021-17.719.021" transform="translate(-30.779 -46.429)" fill="#68c6ea"/>
              <rect id="Rectángulo_460963" data-name="Rectángulo 460963" width="56.761" height="1.348" transform="translate(57.728 81.963)" fill="#68c6ea"/>
              <rect id="Rectángulo_460964" data-name="Rectángulo 460964" width="37.587" height="1.348" transform="translate(57.728 103.31)" fill="#68c6ea"/>
              <rect id="Rectángulo_460965" data-name="Rectángulo 460965" width="50.317" height="1.348" transform="translate(57.728 92.214)" fill="#68c6ea"/>
              <rect id="Rectángulo_460966" data-name="Rectángulo 460966" width="45.602" height="1.348" transform="translate(57.727 97.33)" fill="#68c6ea"/>
              <path id="Trazado_1273415" data-name="Trazado 1273415" d="M81.556,118.359a.929.929,0,1,1-.929-.929.929.929,0,0,1,.929.929" transform="translate(-27.716 -40.838)" fill="#d42190"/>
              <path id="Trazado_1273416" data-name="Trazado 1273416" d="M81.556,126.2a.929.929,0,1,1-.929-.929.929.929,0,0,1,.929.929" transform="translate(-27.716 -43.566)" fill="#d42190"/>
              <path id="Trazado_1273417" data-name="Trazado 1273417" d="M81.556,134.045a.929.929,0,1,1-.929-.929.929.929,0,0,1,.929.929" transform="translate(-27.716 -46.293)" fill="#d42190"/>
              <path id="Trazado_1273418" data-name="Trazado 1273418" d="M81.556,141.888a.929.929,0,1,1-.929-.929.93.93,0,0,1,.929.929" transform="translate(-27.716 -49.021)" fill="#d42190"/>
              <path id="Trazado_1273419" data-name="Trazado 1273419" d="M81.556,149.763a.929.929,0,1,1-.929-.929.929.929,0,0,1,.929.929" transform="translate(-27.716 -51.759)" fill="#d42190"/>
              <path id="Trazado_1273420" data-name="Trazado 1273420" d="M81.556,158.932a.929.929,0,1,1-.929-.929.929.929,0,0,1,.929.929" transform="translate(-27.716 -54.948)" fill="#d42190"/>
              <path id="Trazado_1273421" data-name="Trazado 1273421" d="M215.028,147.783a.337.337,0,0,1-.337-.337V117.514a.337.337,0,0,1,.674,0v29.931a.337.337,0,0,1-.337.337" transform="translate(-74.662 -40.75)" fill="#c9e8f7"/>
              <path id="Trazado_1273422" data-name="Trazado 1273422" d="M120.893,251.431h-2.072a.345.345,0,0,1,0-.691h2.072a.345.345,0,0,1,0,.691m-4.144,0h-2.072a.345.345,0,0,1,0-.691h2.072a.345.345,0,0,1,0,.691m-4.144,0h-.839a2.781,2.781,0,0,1-1.348-.348.345.345,0,1,1,.335-.6,2.1,2.1,0,0,0,1.014.261h.839a.345.345,0,0,1,0,.691m-3.221-1.916a.345.345,0,0,1-.337-.272,2.808,2.808,0,0,1-.064-.594V247.1a.345.345,0,1,1,.691,0v1.546a2.158,2.158,0,0,0,.048.447.345.345,0,0,1-.264.411.369.369,0,0,1-.074.008m-.055-4.139a.345.345,0,0,1-.345-.346v-2.071a.345.345,0,1,1,.691,0v2.071a.345.345,0,0,1-.346.346m0-4.144a.345.345,0,0,1-.345-.346v-2.072a.345.345,0,1,1,.691,0v2.072a.345.345,0,0,1-.346.346m0-4.144a.345.345,0,0,1-.345-.346v-2.072a.345.345,0,1,1,.691,0v2.072a.345.345,0,0,1-.346.346m0-4.144a.345.345,0,0,1-.345-.346v-.252a2.773,2.773,0,0,1,.739-1.889.345.345,0,0,1,.507.469,2.086,2.086,0,0,0-.556,1.42v.252a.345.345,0,0,1-.346.346m12.858-2.69h-2.072a.345.345,0,1,1,0-.691h2.072a.345.345,0,1,1,0,.691m-4.144,0h-2.072a.345.345,0,0,1,0-.691h2.072a.345.345,0,0,1,0,.691m-4.144,0h-2.072a.345.345,0,1,1,0-.691H113.9a.345.345,0,0,1,0,.691" transform="translate(-37.901 -79.834)" fill="#0f1b63"/>
              <rect id="Rectángulo_460967" data-name="Rectángulo 460967" width="11.092" height="1.381" transform="translate(79.416 162.63)" fill="#0f1b63"/>
              <rect id="Rectángulo_460968" data-name="Rectángulo 460968" width="17.918" height="1.381" transform="translate(93.411 162.63)" fill="#0f1b63"/>
              <rect id="Rectángulo_460969" data-name="Rectángulo 460969" width="11.091" height="1.381" transform="translate(100.237 174.38)" fill="#0f1b63"/>
              <rect id="Rectángulo_460970" data-name="Rectángulo 460970" width="17.919" height="1.381" transform="translate(79.416 174.38)" fill="#0f1b63"/>
              <rect id="Rectángulo_460971" data-name="Rectángulo 460971" width="19.508" height="1.381" transform="translate(79.416 166.632)" fill="#0f1b63"/>
              <rect id="Rectángulo_460972" data-name="Rectángulo 460972" width="9.502" height="1.381" transform="translate(101.827 166.632)" fill="#0f1b63"/>
              <rect id="Rectángulo_460973" data-name="Rectángulo 460973" width="16.053" height="1.381" transform="translate(79.416 170.56)" fill="#0f1b63"/>
              <rect id="Rectángulo_460974" data-name="Rectángulo 460974" width="10.893" height="1.381" transform="translate(100.436 170.56)" fill="#0f1b63"/>
              <rect id="Rectángulo_460975" data-name="Rectángulo 460975" width="5.806" height="10.811" transform="translate(79.416 145.943)" fill="#ffc655"/>
              <rect id="Rectángulo_460976" data-name="Rectángulo 460976" width="5.806" height="14.915" transform="translate(88.525 141.838)" fill="#68c6ea"/>
              <rect id="Rectángulo_460977" data-name="Rectángulo 460977" width="5.806" height="23.424" transform="translate(97.334 133.329)" fill="#19538d"/>
              <rect id="Rectángulo_460978" data-name="Rectángulo 460978" width="2.084" height="1.381" transform="translate(97.004 170.56)" fill="#0f1b63"/>
              <rect id="Rectángulo_460979" data-name="Rectángulo 460979" width="43.464" height="48.494" transform="translate(147.127 96.633)" fill="#68eae0"/>
              <rect id="Rectángulo_460980" data-name="Rectángulo 460980" width="30.307" height="1.011" transform="translate(150.636 105.251)" fill="#fff"/>
              <path id="Trazado_1273423" data-name="Trazado 1273423" d="M246.074,173.654c-5.2,0-10.4-.005-15.122-.017l0-1.011c9.443.023,20.773.023,30.3,0l0,1.011c-4.766.012-9.982.017-15.187.017" transform="translate(-80.317 -60.033)" fill="#fff"/>
              <rect id="Rectángulo_460981" data-name="Rectángulo 460981" width="30.307" height="1.011" transform="translate(150.636 108.922)" fill="#fff"/>
              <rect id="Rectángulo_460982" data-name="Rectángulo 460982" width="22.094" height="1.011" transform="translate(150.636 116.28)" fill="#fff"/>
              <rect id="Rectángulo_460983" data-name="Rectángulo 460983" width="30.307" height="1.011" transform="translate(150.636 140.99)" fill="#fff"/>
              <path id="Trazado_1273424" data-name="Trazado 1273424" d="M261.259,205.912c-9.532-.023-20.862-.023-30.3,0l0-1.011c9.445-.022,20.776-.022,30.309,0Z" transform="translate(-80.317 -71.252)" fill="#fff"/>
              <rect id="Rectángulo_460984" data-name="Rectángulo 460984" width="30.307" height="1.011" transform="translate(150.636 137.32)" fill="#fff"/>
              <rect id="Rectángulo_460985" data-name="Rectángulo 460985" width="22.094" height="1.011" transform="translate(150.636 129.962)" fill="#fff"/>
              <path id="Trazado_1273425" data-name="Trazado 1273425" d="M269.351,196.956H224.539V147.1h44.812Zm-44.138-.674h43.464V147.773H225.213Z" transform="translate(-78.087 -51.156)" fill="#0f654d"/>
              <rect id="Rectángulo_460986" data-name="Rectángulo 460986" width="44.139" height="5.809" transform="translate(146.789 96.28)" fill="#0f654d"/>
              <path id="Trazado_1273426" data-name="Trazado 1273426" d="M271.323,191.557a.507.507,0,0,1-.335-.127l-3.4-3a.506.506,0,0,1,0-.757l3.4-3a.506.506,0,1,1,.671.757l-2.968,2.623,2.968,2.622a.506.506,0,0,1-.335.884" transform="translate(-93 -64.178)" fill="#fff"/>
              <path id="Trazado_1273427" data-name="Trazado 1273427" d="M281.166,191.557a.506.506,0,0,1-.335-.884l2.968-2.622-2.968-2.623a.506.506,0,1,1,.671-.757l3.4,3a.506.506,0,0,1,0,.757l-3.4,3a.507.507,0,0,1-.335.127" transform="translate(-97.604 -64.178)" fill="#fff"/>
              <path id="Trazado_1273428" data-name="Trazado 1273428" d="M230.363,151.182,231.54,150a.285.285,0,1,0-.4-.4l-1.177,1.177-1.177-1.177a.285.285,0,1,0-.4.4l1.178,1.177-1.178,1.177a.285.285,0,0,0,.4.4l1.177-1.178,1.177,1.178a.285.285,0,1,0,.4-.4Z" transform="translate(-79.393 -51.997)" fill="#fff"/>
              <path id="Trazado_1273429" data-name="Trazado 1273429" d="M238.321,152.846a1.664,1.664,0,1,1,1.664-1.665,1.667,1.667,0,0,1-1.664,1.665m0-2.8a1.131,1.131,0,1,0,1.131,1.131,1.132,1.132,0,0,0-1.131-1.131" transform="translate(-82.301 -51.997)" fill="#fff"/>
              <path id="Trazado_1273430" data-name="Trazado 1273430" d="M247.481,154.316h-2.712a.285.285,0,1,1,0-.57h2.712a.285.285,0,1,1,0,.57" transform="translate(-85.023 -53.467)" fill="#fff"/>
              <path id="Trazado_1273431" data-name="Trazado 1273431" d="M179.119,40.413l-3.925,1.242a2.283,2.283,0,0,0-.371.156,19.741,19.741,0,0,0-4.454-5.26,2.345,2.345,0,0,0,.222-.345l1.88-3.663a2.326,2.326,0,0,0-1.006-3.127L167.8,27.534a2.327,2.327,0,0,0-3.128,1.006L162.8,32.2a2.362,2.362,0,0,0-.151.38,19.739,19.739,0,0,0-6.684-.569,2.356,2.356,0,0,0-.086-.394l-1.241-3.925a2.326,2.326,0,0,0-2.916-1.514l-3.925,1.242a2.325,2.325,0,0,0-1.515,2.915l1.242,3.925a2.266,2.266,0,0,0,.156.371,19.739,19.739,0,0,0-5.26,4.454,2.34,2.34,0,0,0-.345-.222l-3.662-1.88a2.309,2.309,0,0,0-1.762-.149l-.011,0a2.308,2.308,0,0,0-1.355,1.151l-1.88,3.663a2.325,2.325,0,0,0,1.006,3.127l3.662,1.881a2.369,2.369,0,0,0,.38.149,19.745,19.745,0,0,0-.569,6.685,2.35,2.35,0,0,0-.394.085l-3.925,1.242a2.326,2.326,0,0,0-1.514,2.915l1.242,3.926A2.326,2.326,0,0,0,136.2,63.18l3.926-1.242a2.278,2.278,0,0,0,.37-.157,19.748,19.748,0,0,0,4.455,5.262,2.34,2.34,0,0,0-.222.344l-1.88,3.662a2.322,2.322,0,0,0,1.005,3.127l3.663,1.881a2.325,2.325,0,0,0,3.127-1.006l1.881-3.662a2.312,2.312,0,0,0,.149-.381,19.751,19.751,0,0,0,6.686.57,2.341,2.341,0,0,0,.085.393l1.242,3.925a2.326,2.326,0,0,0,2.916,1.514l3.925-1.241a2.327,2.327,0,0,0,1.515-2.916L167.8,69.33a2.285,2.285,0,0,0-.157-.371,19.748,19.748,0,0,0,5.262-4.455,2.339,2.339,0,0,0,.344.223l3.662,1.88a2.326,2.326,0,0,0,3.128-1.006l1.88-3.662a2.326,2.326,0,0,0-1.006-3.128l-3.662-1.88a2.312,2.312,0,0,0-.381-.151,19.74,19.74,0,0,0,.57-6.685,2.279,2.279,0,0,0,.393-.085l3.925-1.241a2.326,2.326,0,0,0,1.514-2.916l-1.241-3.925a2.326,2.326,0,0,0-2.916-1.514M160.951,62.2a10.911,10.911,0,1,1,7.113-13.694A10.924,10.924,0,0,1,160.951,62.2" transform="translate(-45.883 -9.067)" fill="#0f1b63"/>
              <path id="Trazado_1273432" data-name="Trazado 1273432" d="M186.808,187.307l-.954,2.336a1.461,1.461,0,0,0-.072.236,12.1,12.1,0,0,0-4.225.037,1.446,1.446,0,0,0-.076-.24l-.988-2.322a1.426,1.426,0,0,0-1.869-.753l-2.322.988a1.427,1.427,0,0,0-.753,1.869l.989,2.322a1.469,1.469,0,0,0,.12.22,12.1,12.1,0,0,0-2.889,2.926,1.361,1.361,0,0,0-.219-.114l-2.336-.954a1.426,1.426,0,0,0-1.857.78l-.954,2.336a1.427,1.427,0,0,0,.781,1.858l2.336.954a1.364,1.364,0,0,0,.236.072,12.1,12.1,0,0,0,.036,4.225,1.459,1.459,0,0,0-.24.076l-2.322.989a1.416,1.416,0,0,0-.761.772l0,.007a1.416,1.416,0,0,0,.01,1.09l.989,2.322a1.425,1.425,0,0,0,1.868.753l2.323-.988a1.424,1.424,0,0,0,.219-.121,12.1,12.1,0,0,0,2.927,2.89,1.489,1.489,0,0,0-.114.219l-.954,2.336a1.425,1.425,0,0,0,.78,1.857l2.336.954a1.426,1.426,0,0,0,1.857-.78l.954-2.337a1.485,1.485,0,0,0,.072-.236,12.093,12.093,0,0,0,4.226-.036,1.357,1.357,0,0,0,.075.24l.988,2.322a1.424,1.424,0,0,0,1.868.753l2.323-.989a1.426,1.426,0,0,0,.753-1.868l-.989-2.322a1.4,1.4,0,0,0-.121-.22,12.108,12.108,0,0,0,2.89-2.927,1.387,1.387,0,0,0,.218.114l2.337.954a1.426,1.426,0,0,0,1.857-.78l.954-2.337a1.426,1.426,0,0,0-.78-1.857L196,203.978a1.365,1.365,0,0,0-.236-.072,12.1,12.1,0,0,0-.036-4.226,1.393,1.393,0,0,0,.24-.074l2.323-.989a1.425,1.425,0,0,0,.752-1.868l-.988-2.323a1.426,1.426,0,0,0-1.868-.752l-2.323.988a1.4,1.4,0,0,0-.22.121,12.1,12.1,0,0,0-2.927-2.889,1.482,1.482,0,0,0,.114-.219l.954-2.336a1.426,1.426,0,0,0-.78-1.857l-2.336-.954a1.426,1.426,0,0,0-1.857.78m3.142,17.1a6.689,6.689,0,1,1-3.664-8.721,6.7,6.7,0,0,1,3.664,8.721" transform="translate(-58.528 -64.831)" fill="#68c6ea"/>
              <path id="Trazado_1273433" data-name="Trazado 1273433" d="M157.094,188.152a1.161,1.161,0,0,1-1.16-1.147l-.02-1.768c0-.017,0-.033,0-.049a8.616,8.616,0,0,1-2.531-1.019c-.01.012-.02.022-.031.034l-1.242,1.258a1.162,1.162,0,0,1-1.642.01l-1.259-1.242a1.163,1.163,0,0,1-.01-1.642l1.243-1.258c.01-.011.022-.022.033-.032a8.61,8.61,0,0,1-1.032-2.438l-.049,0-1.768.02a1.153,1.153,0,0,1-1.174-1.147l-.02-1.768a1.16,1.16,0,0,1,1.147-1.174l1.768-.02h.05a8.6,8.6,0,0,1,1.019-2.531c-.012-.01-.023-.02-.034-.031l-1.258-1.242a1.162,1.162,0,0,1-.011-1.642l1.242-1.258a1.161,1.161,0,0,1,1.642-.011l1.259,1.242.032.033a8.611,8.611,0,0,1,2.437-1.033q0-.024,0-.049l-.02-1.768a1.162,1.162,0,0,1,1.147-1.174l1.768-.02a1.162,1.162,0,0,1,1.174,1.147l.02,1.768c0,.017,0,.033,0,.05a8.631,8.631,0,0,1,2.53,1.019l.032-.034,1.242-1.258a1.163,1.163,0,0,1,1.642-.011l1.258,1.242a1.164,1.164,0,0,1,.011,1.642l-1.243,1.258-.033.032a8.617,8.617,0,0,1,1.032,2.437l.048,0,1.769-.02a1.107,1.107,0,0,1,.824.331,1.156,1.156,0,0,1,.35.817l.02,1.768a1.162,1.162,0,0,1-1.148,1.173l-1.768.02h-.05a8.608,8.608,0,0,1-1.018,2.53l.033.032,1.259,1.242a1.163,1.163,0,0,1,.011,1.641l-1.243,1.258a1.154,1.154,0,0,1-.819.345h-.008a1.153,1.153,0,0,1-.815-.335l-1.258-1.242c-.011-.01-.022-.021-.032-.033A8.6,8.6,0,0,1,160,185.141c0,.017,0,.033,0,.05l.02,1.768a1.161,1.161,0,0,1-1.148,1.173l-1.768.02Zm-3.793-4.419.132.083a8.276,8.276,0,0,0,2.694,1.083l.153.033-.026.154a.842.842,0,0,0-.014.147l.02,1.768a.835.835,0,0,0,.834.825h.01l1.768-.02a.836.836,0,0,0,.826-.844l-.02-1.768a.816.816,0,0,0-.017-.145l-.029-.154.153-.035a8.318,8.318,0,0,0,2.6-1.1l.13-.083.091.125a.877.877,0,0,0,.094.112l1.258,1.242a.829.829,0,0,0,.586.24h.006a.833.833,0,0,0,.589-.249l1.242-1.258a.836.836,0,0,0-.008-1.181l-1.258-1.242a.833.833,0,0,0-.112-.092l-.127-.089.082-.132a8.293,8.293,0,0,0,1.084-2.694l.032-.153.154.025a.815.815,0,0,0,.147.014l1.768-.02a.836.836,0,0,0,.825-.843l-.02-1.768a.829.829,0,0,0-.252-.587.786.786,0,0,0-.592-.238l-1.768.02a.843.843,0,0,0-.146.016l-.153.029L166,174.8a8.293,8.293,0,0,0-1.1-2.6l-.084-.131.127-.09a.876.876,0,0,0,.112-.093l1.241-1.258a.836.836,0,0,0-.008-1.181l-1.259-1.242a.836.836,0,0,0-1.18.008l-1.242,1.259a.772.772,0,0,0-.091.111l-.089.129-.132-.083a8.3,8.3,0,0,0-2.694-1.084l-.153-.032.025-.155a.777.777,0,0,0,.013-.146l-.02-1.768a.836.836,0,0,0-.835-.825h-.009l-1.768.02a.836.836,0,0,0-.825.844l.02,1.768a.86.86,0,0,0,.016.148l.028.152-.151.036a8.284,8.284,0,0,0-2.6,1.1l-.131.084-.09-.128a.87.87,0,0,0-.093-.111l-1.258-1.241a.836.836,0,0,0-1.181.008l-1.242,1.258a.836.836,0,0,0,.008,1.181l1.258,1.242a.816.816,0,0,0,.112.091l.128.089-.082.132a8.306,8.306,0,0,0-1.084,2.694l-.032.152-.155-.025a1.306,1.306,0,0,0-.147-.012l-1.768.02a.834.834,0,0,0-.825.844l.02,1.768a.827.827,0,0,0,.252.586.814.814,0,0,0,.592.239l1.768-.02a.765.765,0,0,0,.145-.017l.154-.029.036.152a8.28,8.28,0,0,0,1.1,2.6l.084.131-.127.091a.808.808,0,0,0-.11.092l-1.243,1.259a.835.835,0,0,0,.008,1.18l1.258,1.243a.836.836,0,0,0,1.181-.008l1.242-1.258a.783.783,0,0,0,.091-.112Zm4.562-2.165a4.817,4.817,0,1,1,.032,0Zm0-9.367h-.031a4.523,4.523,0,0,0-3.147,7.739,4.56,4.56,0,0,0,3.206,1.3,4.52,4.52,0,0,0-.029-9.041" transform="translate(-50.924 -57.483)" fill="#b19cfe"/>
              <rect id="Rectángulo_460987" data-name="Rectángulo 460987" width="8.058" height="1.348" transform="translate(5.449 94.179)" fill="#0f1b63"/>
              <rect id="Rectángulo_460988" data-name="Rectángulo 460988" width="20.555" height="1.348" transform="translate(16.837 94.179)" fill="#0f1b63"/>
              <rect id="Rectángulo_460989" data-name="Rectángulo 460989" width="12.723" height="1.348" transform="translate(24.669 108.651)" fill="#0f1b63"/>
              <rect id="Rectángulo_460990" data-name="Rectángulo 460990" width="15.89" height="1.348" transform="translate(5.449 108.651)" fill="#0f1b63"/>
              <rect id="Rectángulo_460991" data-name="Rectángulo 460991" width="17.713" height="1.348" transform="translate(5.449 99.107)" fill="#0f1b63"/>
              <rect id="Rectángulo_460992" data-name="Rectángulo 460992" width="10.9" height="1.348" transform="translate(26.492 99.107)" fill="#0f1b63"/>
              <rect id="Rectángulo_460993" data-name="Rectángulo 460993" width="13.75" height="1.348" transform="translate(5.449 103.947)" fill="#0f1b63"/>
              <rect id="Rectángulo_460994" data-name="Rectángulo 460994" width="12.496" height="1.348" transform="translate(24.896 103.947)" fill="#0f1b63"/>
              <rect id="Rectángulo_460995" data-name="Rectángulo 460995" width="2.39" height="1.348" transform="translate(20.96 103.947)" fill="#0f1b63"/>
              <rect id="Rectángulo_460996" data-name="Rectángulo 460996" width="8.058" height="1.348" transform="translate(217.835 220.424)" fill="#0f1b63"/>
              <rect id="Rectángulo_460997" data-name="Rectángulo 460997" width="20.555" height="1.348" transform="translate(229.223 220.424)" fill="#0f1b63"/>
              <rect id="Rectángulo_460998" data-name="Rectángulo 460998" width="12.723" height="1.348" transform="translate(237.054 234.897)" fill="#0f1b63"/>
              <rect id="Rectángulo_460999" data-name="Rectángulo 460999" width="15.89" height="1.348" transform="translate(217.835 234.897)" fill="#0f1b63"/>
              <rect id="Rectángulo_461000" data-name="Rectángulo 461000" width="17.713" height="1.348" transform="translate(217.835 225.352)" fill="#0f1b63"/>
              <rect id="Rectángulo_461001" data-name="Rectángulo 461001" width="10.9" height="1.348" transform="translate(238.878 225.352)" fill="#0f1b63"/>
              <rect id="Rectángulo_461002" data-name="Rectángulo 461002" width="13.75" height="1.348" transform="translate(217.835 230.192)" fill="#0f1b63"/>
              <rect id="Rectángulo_461003" data-name="Rectángulo 461003" width="12.496" height="1.348" transform="translate(237.281 230.192)" fill="#0f1b63"/>
              <rect id="Rectángulo_461004" data-name="Rectángulo 461004" width="2.39" height="1.348" transform="translate(233.345 230.192)" fill="#0f1b63"/>
              <path id="Trazado_1273434" data-name="Trazado 1273434" d="M354.69,75.84l-3.165.678a1.833,1.833,0,0,0-.3.095,15.52,15.52,0,0,0-3.091-4.45,1.808,1.808,0,0,0,.2-.254l1.746-2.725a1.829,1.829,0,0,0-.553-2.523L346.8,64.915a1.828,1.828,0,0,0-2.523.553l-1.746,2.725a1.889,1.889,0,0,0-.147.286,15.508,15.508,0,0,0-5.188-.946,1.79,1.79,0,0,0-.038-.314l-.677-3.165a1.829,1.829,0,0,0-2.169-1.4l-3.165.678a1.828,1.828,0,0,0-1.4,2.168l.678,3.165a1.827,1.827,0,0,0,.095.3,15.521,15.521,0,0,0-4.45,3.091,1.841,1.841,0,0,0-.253-.2l-2.726-1.745a1.809,1.809,0,0,0-1.367-.249l-.008,0a1.815,1.815,0,0,0-1.147.8l-1.745,2.725h0a1.829,1.829,0,0,0,.553,2.523l2.725,1.746a1.771,1.771,0,0,0,.287.145,15.5,15.5,0,0,0-.947,5.189,1.806,1.806,0,0,0-.314.038l-3.165.677a1.829,1.829,0,0,0-1.4,2.169l.678,3.165a1.829,1.829,0,0,0,2.169,1.4l3.165-.678a1.849,1.849,0,0,0,.3-.095,15.517,15.517,0,0,0,3.092,4.451,1.86,1.86,0,0,0-.2.252L324.013,97.1a1.826,1.826,0,0,0,.552,2.524l2.725,1.746a1.828,1.828,0,0,0,2.523-.553l1.745-2.725a1.768,1.768,0,0,0,.145-.287,15.52,15.52,0,0,0,5.189.947,1.8,1.8,0,0,0,.038.314l.678,3.165a1.828,1.828,0,0,0,2.168,1.4l3.165-.678a1.828,1.828,0,0,0,1.4-2.168l-.678-3.165a1.791,1.791,0,0,0-.095-.3,15.517,15.517,0,0,0,4.451-3.092,1.907,1.907,0,0,0,.252.2L351,96.173a1.828,1.828,0,0,0,2.523-.552l1.746-2.725a1.829,1.829,0,0,0-.552-2.523l-2.726-1.746a1.823,1.823,0,0,0-.286-.147,15.512,15.512,0,0,0,.946-5.188,1.787,1.787,0,0,0,.314-.038l3.165-.678a1.828,1.828,0,0,0,1.4-2.168l-.678-3.165a1.828,1.828,0,0,0-2.168-1.4M338.841,91.529a8.578,8.578,0,1,1,6.591-10.183,8.587,8.587,0,0,1-6.591,10.183" transform="translate(-110.072 -21.773)" fill="#0f1b63"/>
            </g>
          </g>
          <path id="Trazado_1273435" data-name="Trazado 1273435" d="M263.645,78.794l-5.428,1.989,5.428,1.973v2.038l-7.759-2.951V79.723l7.759-2.951Z" transform="translate(-88.988 -26.699)" fill="#fff"/>
          <path id="Trazado_1273436" data-name="Trazado 1273436" d="M273.865,70.624h2.267l-5.38,15.356h-2.267Z" transform="translate(-93.37 -24.561)" fill="#fff"/>
          <path id="Trazado_1273437" data-name="Trazado 1273437" d="M288.419,79.723v2.12l-7.759,2.95V82.755l5.429-1.972-5.429-1.989V76.772Z" transform="translate(-97.604 -26.699)" fill="#fff"/>
          <path id="Trazado_1273438" data-name="Trazado 1273438" d="M55.27,336.74v8.221h-1.9V341.59H49.633v3.371h-1.9V336.74h1.9v3.241h3.735V336.74Z" transform="translate(-16.599 -117.106)" fill="#fff"/>
          <path id="Trazado_1273439" data-name="Trazado 1273439" d="M63.484,338.289h-2.63v-1.55h7.164v1.55h-2.63v6.671h-1.9Z" transform="translate(-21.163 -117.106)" fill="#fff"/>
          <path id="Trazado_1273440" data-name="Trazado 1273440" d="M80.88,344.96l-.012-4.932-2.42,4.063h-.857l-2.407-3.957v4.826H73.4v-8.221h1.574l3.077,5.109,3.03-5.109h1.562l.023,8.221Z" transform="translate(-25.525 -117.106)" fill="#fff"/>
          <path id="Trazado_1273441" data-name="Trazado 1273441" d="M90.589,336.74h1.9v6.67h4.122v1.55H90.589Z" transform="translate(-31.503 -117.106)" fill="#fff"/>
          <g id="Grupo_1211191" data-name="Grupo 1211191">
            <g id="Grupo_1211190" data-name="Grupo 1211190" clip-path="url(#clip-path)">
              <path id="Trazado_1273442" data-name="Trazado 1273442" d="M88.212,191.213l1.132-1.359a2.023,2.023,0,0,0,1.635.969c.818,0,1.245-.491,1.245-1.459v-4.189H89.13v-1.636h5.12v5.711c0,2.176-1.094,3.246-3.171,3.246a3.541,3.541,0,0,1-2.867-1.283" transform="translate(-30.677 -63.828)" fill="#fff"/>
              <path id="Trazado_1273443" data-name="Trazado 1273443" d="M99.5,191.4l.692-1.535a5.176,5.176,0,0,0,2.906.918c1.208,0,1.7-.4,1.7-.944,0-1.648-5.12-.515-5.12-3.786,0-1.5,1.208-2.742,3.711-2.742a5.9,5.9,0,0,1,3.057.78l-.629,1.547a4.973,4.973,0,0,0-2.441-.693c-1.207,0-1.673.454-1.673,1.006,0,1.623,5.12.5,5.12,3.737,0,1.472-1.22,2.73-3.736,2.73A6.276,6.276,0,0,1,99.5,191.4" transform="translate(-34.602 -63.748)" fill="#fff"/>
              <path id="Trazado_1273444" data-name="Trazado 1273444" d="M270.29,316.335a6.123,6.123,0,0,1,10.611-3.78l-1.653,1.525a3.576,3.576,0,0,0-2.8-1.3,3.558,3.558,0,1,0,0,7.116,3.543,3.543,0,0,0,2.8-1.318L280.9,320.1a6.112,6.112,0,0,1-10.611-3.764" transform="translate(-93.997 -108.01)" fill="#fff"/>
              <path id="Trazado_1273445" data-name="Trazado 1273445" d="M296.109,318.413h-2.764v2.7H291.3v-2.7h-2.748v-1.938H291.3v-2.7h2.049v2.7h2.764Z" transform="translate(-100.347 -109.12)" fill="#fff"/>
              <path id="Trazado_1273446" data-name="Trazado 1273446" d="M310.838,318.413h-2.763v2.7h-2.049v-2.7h-2.748v-1.938h2.748v-2.7h2.049v2.7h2.763Z" transform="translate(-105.469 -109.12)" fill="#fff"/>
              <path id="Trazado_1273447" data-name="Trazado 1273447" d="M377.368,211.831l1.072-1.286a1.914,1.914,0,0,0,1.548.918c.774,0,1.179-.465,1.179-1.383v-3.967h-2.931v-1.549h4.849v5.409c0,2.062-1.036,3.073-3,3.073a3.355,3.355,0,0,1-2.716-1.215" transform="translate(-131.235 -71.14)" fill="#fff"/>
              <path id="Trazado_1273448" data-name="Trazado 1273448" d="M393.688,211.117h-3.872l-.739,1.786H387.1l3.716-8.339h1.907l3.729,8.339h-2.026Zm-.608-1.466-1.322-3.193-1.323,3.193Z" transform="translate(-134.62 -71.14)" fill="#fff"/>
              <path id="Trazado_1273449" data-name="Trazado 1273449" d="M409.507,204.565,405.9,212.9h-1.906l-3.6-8.339h2.085l2.537,5.956,2.574-5.956Z" transform="translate(-139.242 -71.14)" fill="#fff"/>
              <path id="Trazado_1273450" data-name="Trazado 1273450" d="M419.909,211.117h-3.872L415.3,212.9h-1.977l3.716-8.339h1.906l3.729,8.339h-2.026Zm-.608-1.466-1.322-3.193-1.323,3.193Z" transform="translate(-143.738 -71.14)" fill="#fff"/>
            </g>
          </g>
        </g>
      </g>
    </g>
  </g>
</svg>
