<svg xmlns="http://www.w3.org/2000/svg" xmlns:xlink="http://www.w3.org/1999/xlink" width="128" height="128" viewBox="0 0 128 128">
  <defs>
    <clipPath id="clip-path">
      <rect id="Rectángulo_456267" data-name="Rectángulo 456267" width="128" height="128" fill="none"/>
    </clipPath>
    <clipPath id="clip-path-2">
      <rect id="Rectángulo_464457" data-name="Rectángulo 464457" width="68.782" height="68.768" fill="#19538d"/>
    </clipPath>
  </defs>
  <g id="Grupo_1179906" data-name="Grupo 1179906" transform="translate(511.746 8527) rotate(180)">
    <path id="Trazado_999622" data-name="Trazado 999622" d="M59.07,0A59.07,59.07,0,1,1,0,59.07,59.071,59.071,0,0,1,59.07,0" transform="translate(388.676 8403.93)" fill="#fff"/>
    <g id="Grupo_1179902" data-name="Grupo 1179902" transform="translate(383.746 8399)">
      <g id="Grupo_1179905" data-name="Grupo 1179905" clip-path="url(#clip-path)">
        <path id="Trazado_999618" data-name="Trazado 999618" d="M64,0A64,64,0,1,1,0,64,64,64,0,0,1,64,0" fill="none"/>
        <path id="Trazado_999619" data-name="Trazado 999619" d="M5,59a5,5,0,1,1-5,5,5,5,0,0,1,5-5" fill="#19538d"/>
        <path id="Trazado_999620" data-name="Trazado 999620" d="M21,19a5,5,0,1,1-5,5,5,5,0,0,1,5-5" fill="#19538d"/>
        <path id="Trazado_999621" data-name="Trazado 999621" d="M64,124A60.068,60.068,0,0,1,4,64H7A57,57,0,1,0,22.408,25.024L20.22,22.972A60,60,0,1,1,64,124" fill="#19538d"/>
        <rect id="Rectángulo_456268" data-name="Rectángulo 456268" width="128" height="128" fill="none"/>
        <rect id="Rectángulo_456269" data-name="Rectángulo 456269" width="128" height="128" fill="none"/>
      </g>
    </g>
    <g id="Grupo_1211774" data-name="Grupo 1211774" transform="translate(482.137 8497.384) rotate(180)">
      <g id="Grupo_1211773" data-name="Grupo 1211773" clip-path="url(#clip-path-2)">
        <path id="Trazado_1274326" data-name="Trazado 1274326" d="M37.4,59.92H31.411l-.959-2.732-2.628,1.255-4.183-4.234L24.9,51.656,22.2,50.684l-.046-1.858-4.41.038.09,13.36c1.325.91,2.458,2.117,2.086,3.819a3.333,3.333,0,0,1-6.51.2c-.528-1.833.723-3.054,2.042-4.021l.119-13.333L8.851,48.81l-.023,4.581a4.425,4.425,0,1,1-5.4,5.122,4.366,4.366,0,0,1,3.224-5.1l.007-17.918L0,35.489V26.64l15.531,0,.014,8.847L8.851,35.5V46.607l13.28.018.045-1.928,2.737-.913-1.279-2.589,4.187-4.222,2.652,1.257.931-2.718,1.88-.05,0-6.645-11.1-.008,0-13.258L8.854,15.534l.008,6.181,2.53-2.476,1.564,1.5L7.838,25.933,2.574,20.764l1.539-1.549L6.652,21.6l.012-8.273,15.5,0,.025-5.983L29.514.008,46.584,0l.028,13.327,15.5,0L62.13,21.6l2.532-2.388L66.2,20.756,61,25.946l-5.168-5.19,1.552-1.517L59.9,21.693l.026-6.157-13.32,0L46.6,28.808l-11.1.009,0,6.644,1.88.051.929,2.716,2.585-1.283,4.233,4.188-1.259,2.655,2.681.856.1,1.983L59.931,46.6V35.5l-6.693-.013.014-8.846,15.53,0v8.853l-6.659,0L62.115,53.39a4.43,4.43,0,1,1-5.485,4.874,4.36,4.36,0,0,1,3.288-4.836l.015-4.612-6.7.04.086,13.368c1.316.92,2.493,2.09,2.1,3.84a3.333,3.333,0,0,1-6.513.153c-.506-1.783.72-3.037,2.029-4.012l.133-13.3-4.432-.087-.046,1.862-2.706.969,1.266,2.551-4.185,4.237L38.3,57.168ZM24.457,26.648l19.9,0,0-24.433-13.3.008-.017,6.607-6.624.057ZM28.824,6.635l-.055-2.8L26.1,6.6ZM13.342,33.253l-.019-4.441-11.084.023.042,4.442Zm53.209,0-.009-4.413-11.082-.025,0,4.474ZM35.812,57.482l.825-2.18a1.486,1.486,0,0,1,1.513-.63l2.28,1.044,1.986-1.977-1.04-2.259a1.566,1.566,0,0,1,.6-1.515l2.369-.911-.064-2.791-2.3-.829a1.615,1.615,0,0,1-.612-1.5l1.038-2.265-1.983-1.987-2.147,1.009a1.569,1.569,0,0,1-1.617-.581L35.852,37.8a9.884,9.884,0,0,0-2.926.015l-.812,2.29a1.576,1.576,0,0,1-1.487.608l-2.271-1.043-1.987,1.992,1.039,2.265a1.6,1.6,0,0,1-.6,1.5l-2.31.83-.053,2.783,2.451.994a1.536,1.536,0,0,1,.519,1.437l-1.045,2.259,1.986,1.978,2.283-1.051a1.588,1.588,0,0,1,1.492.623l.837,2.315c.823.052,2.088.316,2.85-.12M7.3,55.531a2.192,2.192,0,0,0-1.652,2.746,2.205,2.205,0,0,0,4.289-1.013A2.153,2.153,0,0,0,7.3,55.531m53.11.027a2.17,2.17,0,0,0-1.445,2.915,2.2,2.2,0,0,0,4.188-1.36A2.206,2.206,0,0,0,60.4,55.558m-43.871,8.8a1.089,1.089,0,1,0,1.183,1.073,1.1,1.1,0,0,0-1.183-1.073m35.446.015a1.086,1.086,0,1,0,.411,2.131,1.086,1.086,0,0,0-.411-2.131" transform="translate(0 0.001)" fill="#19538d"/>
        <path id="Trazado_1274327" data-name="Trazado 1274327" d="M139.512,105.426h-15.43l0-2.243h15.445Z" transform="translate(-97.411 -81.006)" fill="#19538d"/>
        <path id="Trazado_1274328" data-name="Trazado 1274328" d="M139.534,64.2l-15.42.006-.009-2.215h15.432Z" transform="translate(-97.431 -48.668)" fill="#19538d"/>
        <path id="Trazado_1274329" data-name="Trazado 1274329" d="M139.54,84.929l-15.423,0,0-2.19h15.42Z" transform="translate(-97.441 -64.957)" fill="#19538d"/>
        <path id="Trazado_1274330" data-name="Trazado 1274330" d="M163.686,43.416l-8.793.013-.038-2.25,8.836-.025Z" transform="translate(-121.572 -32.309)" fill="#19538d"/>
        <path id="Trazado_1274331" data-name="Trazado 1274331" d="M163.8,22.868l-8.789.006,0-2.217,8.787.012Z" transform="translate(-121.694 -16.217)" fill="#19538d"/>
        <path id="Trazado_1274332" data-name="Trazado 1274332" d="M138.946,196.26a5.5,5.5,0,0,1,6.329,4.6,5.531,5.531,0,1,1-6.329-4.6m.639,2.162a3.309,3.309,0,0,0-3.073,3.628,3.317,3.317,0,1,0,3.073-3.628" transform="translate(-105.418 -154.021)" fill="#19538d"/>
      </g>
    </g>
  </g>
</svg>
