<svg xmlns="http://www.w3.org/2000/svg" xmlns:xlink="http://www.w3.org/1999/xlink" width="130" height="130" viewBox="0 0 130 130">
  <defs>
    <clipPath id="clip-path">
      <rect id="Rectángulo_456267" data-name="Rectángulo 456267" width="130" height="130" fill="none"/>
    </clipPath>
    <clipPath id="clip-path-2">
      <rect id="Rectángulo_464487" data-name="Rectángulo 464487" width="72.479" height="72.483" fill="#19538d"/>
    </clipPath>
  </defs>
  <g id="Grupo_1211781" data-name="Grupo 1211781" transform="translate(513.746 8529) rotate(180)">
    <path id="Trazado_999622" data-name="Trazado 999622" d="M60.629,0A60.629,60.629,0,1,1,0,60.629,60.629,60.629,0,0,1,60.629,0" transform="translate(388.117 8403.371)" fill="#e1f5ff"/>
    <g id="Grupo_1179902" data-name="Grupo 1179902" transform="translate(383.746 8399)">
      <g id="Grupo_1179905" data-name="Grupo 1179905" clip-path="url(#clip-path)">
        <path id="Trazado_999618" data-name="Trazado 999618" d="M65,0A65,65,0,1,1,0,65,65,65,0,0,1,65,0" fill="none"/>
        <path id="Trazado_999619" data-name="Trazado 999619" d="M5.078,59A5.078,5.078,0,1,1,0,64.078,5.079,5.079,0,0,1,5.078,59" transform="translate(0 0.922)" fill="#19538d"/>
        <path id="Trazado_999620" data-name="Trazado 999620" d="M21.078,19A5.078,5.078,0,1,1,16,24.078,5.079,5.079,0,0,1,21.078,19" transform="translate(0.25 0.297)" fill="#19538d"/>
        <path id="Trazado_999621" data-name="Trazado 999621" d="M64.938,125.875A61.007,61.007,0,0,1,4,64.938H7.047A57.89,57.89,0,1,0,22.7,25.353l-2.222-2.084A60.937,60.937,0,1,1,64.938,125.875" transform="translate(0.063 0.063)" fill="#19538d"/>
        <rect id="Rectángulo_456268" data-name="Rectángulo 456268" width="130" height="130" fill="none"/>
        <rect id="Rectángulo_456269" data-name="Rectángulo 456269" width="130" height="130" fill="none"/>
      </g>
    </g>
    <g id="Grupo_1211834" data-name="Grupo 1211834" transform="translate(484.986 8500.241) rotate(180)">
      <g id="Grupo_1211833" data-name="Grupo 1211833" clip-path="url(#clip-path-2)">
        <path id="Trazado_1274610" data-name="Trazado 1274610" d="M89.709,91.5a7.312,7.312,0,0,1-9.487-.726,7.482,7.482,0,0,1-.772-9.781l-3.926-3.927a15.864,15.864,0,0,1-20.965,0l-3.93,3.929A7.49,7.49,0,0,1,49.5,91.1,7.43,7.43,0,0,1,38.919,80.751,7.511,7.511,0,0,1,49.134,79.5l3.928-3.925a15.881,15.881,0,0,1,0-20.971l-3.93-3.93A7.442,7.442,0,0,1,38.6,40.419a19.333,19.333,0,0,0,1.729,1.226,5.293,5.293,0,1,0,1.277-1.281c-.383-.538-.707-1.069-1.237-1.7A7.437,7.437,0,0,1,50.629,49.185l3.924,3.929a15.9,15.9,0,0,1,21,.011l3.874-4a7.408,7.408,0,1,1,1.523,1.545l-3.932,3.94A15.917,15.917,0,0,1,77.01,75.6l3.943,3.9a7.522,7.522,0,0,1,9.665.665,7.432,7.432,0,0,1,.858,9.6l-1.735-1.214a5.315,5.315,0,1,0-1.272,1.26ZM84.044,39.623a5.234,5.234,0,0,0-3.7,6.653,5.3,5.3,0,1,0,3.7-6.653M63.449,51.39A13.8,13.8,0,1,0,78.751,63.5a13.808,13.808,0,0,0-15.3-12.107M43.058,80.435a5.236,5.236,0,0,0-3.4,6.754,5.3,5.3,0,0,0,10.064-3.3,5.246,5.246,0,0,0-6.667-3.449" transform="translate(-28.799 -28.848)" fill="#19538d"/>
        <path id="Trazado_1274611" data-name="Trazado 1274611" d="M139.326,18.148l-2.088.03-.063-5.5a6.455,6.455,0,0,1-5.237-6.907,6.361,6.361,0,0,1,12.644-.207,6.45,6.45,0,0,1-5.214,7.115ZM137.812,2.159a4.238,4.238,0,1,0,4.673,3.7,4.221,4.221,0,0,0-4.673-3.7" transform="translate(-102.031 -0.001)" fill="#19538d"/>
        <path id="Trazado_1274612" data-name="Trazado 1274612" d="M18.086,137.23a6.036,6.036,0,0,1,.077,2.121l-5.488.051a6.457,6.457,0,0,1-6.9,5.239,6.365,6.365,0,1,1,6.9-7.434ZM5.672,134.124a4.24,4.24,0,1,0,4.876,3.48,4.216,4.216,0,0,0-4.876-3.48" transform="translate(0 -102.061)" fill="#19538d"/>
        <path id="Trazado_1274613" data-name="Trazado 1274613" d="M239.816,139.362l-.04-2.1,5.49-.062a6.436,6.436,0,0,1,6.907-5.235,6.361,6.361,0,0,1,.2,12.645,6.452,6.452,0,0,1-7.108-5.217Zm11.1-5.253a4.242,4.242,0,1,0,4.85,3.538,4.218,4.218,0,0,0-4.85-3.538" transform="translate(-185.464 -102.056)" fill="#19538d"/>
        <path id="Trazado_1274614" data-name="Trazado 1274614" d="M139.334,245.228a6.469,6.469,0,0,1,5.273,6.927,6.359,6.359,0,0,1-12.642.205,6.44,6.44,0,0,1,5.213-7.111l.034-5.448,2.1-.05Zm-1.749,2.157a4.237,4.237,0,1,0,4.882,3.5,4.207,4.207,0,0,0-4.882-3.5" transform="translate(-102.035 -185.444)" fill="#19538d"/>
        <path id="Trazado_1274615" data-name="Trazado 1274615" d="M126.089,149.469A7.294,7.294,0,0,1,124.6,151l-3.812-3.732,3.8-3.724a7.18,7.18,0,0,1,1.49,1.5l-2.18,2.228Z" transform="translate(-93.431 -111.032)" fill="#19538d"/>
        <path id="Trazado_1274616" data-name="Trazado 1274616" d="M175.757,149.583l2.2-2.274-2.184-2.237,1.5-1.475,3.8,3.711-3.8,3.732Z" transform="translate(-135.946 -111.07)" fill="#19538d"/>
        <path id="Trazado_1274617" data-name="Trazado 1274617" d="M155.036,151.979l-2.094-.372,1.052-6.284,2.068.29Z" transform="translate(-118.299 -112.406)" fill="#19538d"/>
        <path id="Trazado_1274618" data-name="Trazado 1274618" d="M171.442,115.219a7.31,7.31,0,0,1-2.109-.028l-.031-2.1,2.16-.009Z" transform="translate(-130.953 -87.47)" fill="#19538d"/>
        <path id="Trazado_1274619" data-name="Trazado 1274619" d="M190.262,124.559a8.072,8.072,0,0,1-2.143.076l0-2.081,2.115-.053Z" transform="translate(-145.508 -94.754)" fill="#19538d"/>
      </g>
    </g>
  </g>
</svg>
