<svg xmlns="http://www.w3.org/2000/svg" xmlns:xlink="http://www.w3.org/1999/xlink" width="128" height="128" viewBox="0 0 128 128">
  <defs>
    <clipPath id="clip-path">
      <rect id="Rectángulo_456267" data-name="Rectángulo 456267" width="128" height="128" fill="none"/>
    </clipPath>
    <clipPath id="clip-path-2">
      <rect id="Rectángulo_464477" data-name="Rectángulo 464477" width="61.698" height="55.525" fill="#19538d"/>
    </clipPath>
  </defs>
  <g id="Grupo_1211770" data-name="Grupo 1211770" transform="translate(511.746 8527) rotate(180)">
    <path id="Trazado_999622" data-name="Trazado 999622" d="M59.07,0A59.07,59.07,0,1,1,0,59.07,59.071,59.071,0,0,1,59.07,0" transform="translate(388.676 8403.93)" fill="#fff"/>
    <g id="Grupo_1179902" data-name="Grupo 1179902" transform="translate(383.746 8399)">
      <g id="Grupo_1179905" data-name="Grupo 1179905" clip-path="url(#clip-path)">
        <path id="Trazado_999618" data-name="Trazado 999618" d="M64,0A64,64,0,1,1,0,64,64,64,0,0,1,64,0" fill="none"/>
        <path id="Trazado_999619" data-name="Trazado 999619" d="M5,59a5,5,0,1,1-5,5,5,5,0,0,1,5-5" fill="#19538d"/>
        <path id="Trazado_999620" data-name="Trazado 999620" d="M21,19a5,5,0,1,1-5,5,5,5,0,0,1,5-5" fill="#19538d"/>
        <path id="Trazado_999621" data-name="Trazado 999621" d="M64,124A60.068,60.068,0,0,1,4,64H7A57,57,0,1,0,22.408,25.024L20.22,22.972A60,60,0,1,1,64,124" fill="#19538d"/>
        <rect id="Rectángulo_456268" data-name="Rectángulo 456268" width="128" height="128" fill="none"/>
        <rect id="Rectángulo_456269" data-name="Rectángulo 456269" width="128" height="128" fill="none"/>
      </g>
    </g>
    <g id="Grupo_1211814" data-name="Grupo 1211814" transform="translate(478.595 8490.763) rotate(180)">
      <g id="Grupo_1211813" data-name="Grupo 1211813" clip-path="url(#clip-path-2)">
        <path id="Trazado_1274477" data-name="Trazado 1274477" d="M59.982,55.525H1.787A2.117,2.117,0,0,1,0,53.608l.018-3.456L4.094,39.9,4.106,3.12A3.092,3.092,0,0,1,7.355,0H54.34a3.092,3.092,0,0,1,3.248,3.121L57.6,39.9l4.076,10.25.021,3.257a2.141,2.141,0,0,1-1.716,2.117M55.513,39.094l0-35.96a.953.953,0,0,0-1-1.031H7.177a.934.934,0,0,0-1,1.028l0,35.962ZM39.543,44.239a1.9,1.9,0,0,1,1.739,1.225l1.582,3.9,16.28-.022-3.286-8.224H5.835l-3.3,8.242h16.3l1.51-3.763a2.032,2.032,0,0,1,1.881-1.375Zm1.089,5.123-1.257-3.1-17.108.013-1.229,3.089Zm18.9,4.109a4.224,4.224,0,0,0,0-2.023H2.161a4.165,4.165,0,0,0,.006,2.024Z" fill="#19538d"/>
        <path id="Trazado_1274478" data-name="Trazado 1274478" d="M86.1,54.248l-41.641-.016A1.961,1.961,0,0,1,42.63,52.3l-.024-28.7a2.06,2.06,0,0,1,1.879-2.236l40.969-.02a2.085,2.085,0,0,1,2.4,2.066L87.869,52.3a2.122,2.122,0,0,1-1.774,1.95m-.29-2.041,0-28.809H44.671L44.679,52.2Z" transform="translate(-34.392 -17.229)" fill="#19538d"/>
        <path id="Trazado_1274479" data-name="Trazado 1274479" d="M141.39,135.349l-12.211.02a1.111,1.111,0,0,1-1.149-.9,1.04,1.04,0,0,1,.992-1.173l12.277-.011a1.04,1.04,0,0,1,1.1.873,1.019,1.019,0,0,1-1.011,1.194" transform="translate(-103.34 -107.588)" fill="#19538d"/>
        <path id="Trazado_1274480" data-name="Trazado 1274480" d="M183.043,156.739l-11.466-.021c-.622,0-.856-.668-.822-1.078.052-.638.507-.94,1.2-.94h10.99a1,1,0,0,1,1.137.945.982.982,0,0,1-1.043,1.093" transform="translate(-137.834 -124.877)" fill="#19538d"/>
        <path id="Trazado_1274481" data-name="Trazado 1274481" d="M89.328,114.085l-8.29.012a1.011,1.011,0,0,1-1-1.007,1.033,1.033,0,0,1,.967-1.049l8.268-.006a.964.964,0,0,1,1.015.874,1.021,1.021,0,0,1-.962,1.177" transform="translate(-64.61 -90.436)" fill="#19538d"/>
        <path id="Trazado_1274482" data-name="Trazado 1274482" d="M116.082,93.006l-8.282.017a.982.982,0,0,1-.978-.775c-.094-.358.049-1.2.625-1.2l8.815-.024c.574,0,.812.663.778,1.047a1,1,0,0,1-.958.939" transform="translate(-86.207 -73.473)" fill="#19538d"/>
        <path id="Trazado_1274483" data-name="Trazado 1274483" d="M120.326,156.72l-7.418-.035c-.523,0-.73-.549-.752-.9-.027-.42.161-1.058.744-1.062l7.329-.05a1.015,1.015,0,0,1,1.134.948.982.982,0,0,1-1.036,1.094" transform="translate(-90.532 -124.859)" fill="#19538d"/>
        <path id="Trazado_1274484" data-name="Trazado 1274484" d="M67.867,52.556a1,1,0,0,1,0,1.382A1.034,1.034,0,0,1,66.425,54l-2.031-2.017a1.1,1.1,0,0,1,0-1.607l1.926-1.925a1.057,1.057,0,0,1,1.531-.024c.482.548.242,1.161-.26,1.677l-1.045,1.075Z" transform="translate(-51.698 -38.836)" fill="#19538d"/>
        <path id="Trazado_1274485" data-name="Trazado 1274485" d="M129.743,53.933a.974.974,0,0,1-1.416-.108,1.071,1.071,0,0,1,.159-1.538l1.166-1.191-1.257-1.3a1.017,1.017,0,0,1-.063-1.425.982.982,0,0,1,1.41-.118l2.13,2.115a1.057,1.057,0,0,1,0,1.449Z" transform="translate(-103.379 -38.75)" fill="#19538d"/>
        <path id="Trazado_1274486" data-name="Trazado 1274486" d="M86.212,135.411l-5.189-.006a1.026,1.026,0,0,1,.027-2.049l5.286.026a1.013,1.013,0,0,1,.91.969,1.024,1.024,0,0,1-1.034,1.061" transform="translate(-64.626 -107.647)" fill="#19538d"/>
        <path id="Trazado_1274487" data-name="Trazado 1274487" d="M97.87,53.754a.978.978,0,0,1-1.322.406,1.029,1.029,0,0,1-.5-1.357L98.1,48.7a1.05,1.05,0,0,1,1.2-.568.975.975,0,0,1,.706,1.279Z" transform="translate(-77.453 -38.835)" fill="#19538d"/>
        <path id="Trazado_1274488" data-name="Trazado 1274488" d="M217.481,135.345l-2.987,0a1.038,1.038,0,1,1,0-2.073h2.87a1.074,1.074,0,0,1,1.139.868,1.017,1.017,0,0,1-1.026,1.2" transform="translate(-172.266 -107.581)" fill="#19538d"/>
        <path id="Trazado_1274489" data-name="Trazado 1274489" d="M73.532,92.979l-3.27-.006a1.017,1.017,0,0,1-.9-.935.965.965,0,0,1,.89-1.04l3.475,0c.557,0,.8.646.763,1.052a.99.99,0,0,1-.961.928" transform="translate(-55.99 -73.454)" fill="#19538d"/>
        <path id="Trazado_1274490" data-name="Trazado 1274490" d="M84.154,155.454c.078,1.265-1.492,1.311-3.454,1.011-.425-.065-.578-.568-.6-.842-.11-1.252,1.468-1.28,3.419-1.021a.836.836,0,0,1,.638.852" transform="translate(-64.652 -124.693)" fill="#19538d"/>
      </g>
    </g>
  </g>
</svg>
