<svg xmlns="http://www.w3.org/2000/svg" xmlns:xlink="http://www.w3.org/1999/xlink" width="130" height="130" viewBox="0 0 130 130">
  <defs>
    <clipPath id="clip-path">
      <rect id="Rectángulo_456267" data-name="Rectángulo 456267" width="130" height="130" fill="none"/>
    </clipPath>
    <clipPath id="clip-path-2">
      <rect id="Rectángulo_464475" data-name="Rectángulo 464475" width="71.387" height="71.483" fill="#19538d"/>
    </clipPath>
  </defs>
  <g id="Grupo_1211615" data-name="Grupo 1211615" transform="translate(513.746 8529) rotate(180)">
    <path id="Trazado_999622" data-name="Trazado 999622" d="M60.629,0A60.629,60.629,0,1,1,0,60.629,60.629,60.629,0,0,1,60.629,0" transform="translate(388.117 8403.371)" fill="#e1f5ff"/>
    <g id="Grupo_1179902" data-name="Grupo 1179902" transform="translate(383.746 8399)">
      <g id="Grupo_1179905" data-name="Grupo 1179905" clip-path="url(#clip-path)">
        <path id="Trazado_999618" data-name="Trazado 999618" d="M65,0A65,65,0,1,1,0,65,65,65,0,0,1,65,0" fill="none"/>
        <path id="Trazado_999619" data-name="Trazado 999619" d="M5.078,59A5.078,5.078,0,1,1,0,64.078,5.079,5.079,0,0,1,5.078,59" transform="translate(0 0.922)" fill="#19538d"/>
        <path id="Trazado_999620" data-name="Trazado 999620" d="M21.078,19A5.078,5.078,0,1,1,16,24.078,5.079,5.079,0,0,1,21.078,19" transform="translate(0.25 0.297)" fill="#19538d"/>
        <path id="Trazado_999621" data-name="Trazado 999621" d="M64.938,125.875A61.007,61.007,0,0,1,4,64.938H7.047A57.89,57.89,0,1,0,22.7,25.353l-2.222-2.084A60.937,60.937,0,1,1,64.938,125.875" transform="translate(0.063 0.063)" fill="#19538d"/>
        <rect id="Rectángulo_456268" data-name="Rectángulo 456268" width="130" height="130" fill="none"/>
        <rect id="Rectángulo_456269" data-name="Rectángulo 456269" width="130" height="130" fill="none"/>
      </g>
    </g>
    <g id="Grupo_1211810" data-name="Grupo 1211810" transform="translate(484.439 8501.742) rotate(180)">
      <g id="Grupo_1211809" data-name="Grupo 1211809" clip-path="url(#clip-path-2)">
        <path id="Trazado_1274456" data-name="Trazado 1274456" d="M20.414,223.836l-14.227.017L.019,217.808,0,201.265a1.169,1.169,0,0,1,1.206-1.192l19,0a1.164,1.164,0,0,1,1.2,1.2l0,21.367c0,.531-.421,1.195-1,1.2m-12.3-2.362,10.925.017V202.448H2.375v13.333l5.363-1.076A1.189,1.189,0,0,1,9.1,216.29Zm-2.22-1.313.568-2.776-2.819.659Z" transform="translate(0 -152.464)" fill="#19538d"/>
        <path id="Trazado_1274457" data-name="Trazado 1274457" d="M111.006,27.023l-4.574.1A2.43,2.43,0,0,1,104.2,24.04l-2.725-1.525a2.4,2.4,0,0,1-3.779-.437l-2.031-3.44A2.388,2.388,0,0,1,97.2,15.189l0-3.209a2.972,2.972,0,0,1-1.568-1.344,2.69,2.69,0,0,1,.214-2.412l1.864-3.163a2.485,2.485,0,0,1,3.789-.424A15.035,15.035,0,0,0,104.06,3.05c.187-.668-.012-1.569.548-2.125A2.756,2.756,0,0,1,106.686,0l3.332,0a2.71,2.71,0,0,1,2.028.719,2.918,2.918,0,0,1,.606,2.364l2.659,1.518c1.067-.693,2.849-1.06,3.547.1l2.228,3.718A2.432,2.432,0,0,1,119.63,12l-.027,3.195a2.342,2.342,0,0,1,1.564,3.369l-2.076,3.6a2.3,2.3,0,0,1-3.648.346l-2.711,1.54c.13,1.193-.3,2.71-1.726,2.977m-.675-2.283c-.281-2.852,1.96-2.8,3.174-3.874a2.654,2.654,0,0,1,3.626.03l1.9-3.354c-.955-.445-1.813-1.082-1.819-2.077l-.018-3.331A2.516,2.516,0,0,1,119.057,9.7l-1.941-3.311a2.669,2.669,0,0,1-3.4.149c-1.666-1.36-3.586-1.069-3.429-4.131l-3.82-.012a2.6,2.6,0,0,1-1.537,3c-2.018.846-2.714,2.664-5.3.952L97.766,9.7c2.661,1.105,1.519,2.892,1.82,4.809a2.688,2.688,0,0,1-1.85,3.035l1.984,3.285a2.639,2.639,0,0,1,3.232-.2c2,1.484,3.66,1.312,3.6,4.2Z" transform="translate(-72.66 0)" fill="#19538d"/>
        <path id="Trazado_1274458" data-name="Trazado 1274458" d="M219.263,207.462a4.983,4.983,0,0,1-4.846,4.944c-2.516.06-5.1-1.876-5.086-4.579a13.129,13.129,0,0,0-2.983-8.517,8.81,8.81,0,0,1-.29-9.752,9.647,9.647,0,0,1,16.58.162,8.946,8.946,0,0,1-.493,9.7,12.516,12.516,0,0,0-2.882,8.043m-3.313-11.387a8.98,8.98,0,0,1,1.528,1.688l-1.947,1.995-.034,4.2a4.148,4.148,0,0,0,1.8-.081,15.1,15.1,0,0,1,2.957-5.859,6.563,6.563,0,0,0,.519-6.673,7.266,7.266,0,0,0-12.308-1.127,6.577,6.577,0,0,0-.19,7.663,15.353,15.353,0,0,1,3.065,6.137l1.781-.053-.04-4.206-1.946-2.1a8.406,8.406,0,0,1,1.694-1.606l1.5,1.461c.582-.521.89-1.192,1.615-1.44m.874,10.277H211.8a2.815,2.815,0,0,0,.947,3.141,2.568,2.568,0,0,0,3.267-.113,2.818,2.818,0,0,0,.812-3.027" transform="translate(-156.016 -140.924)" fill="#19538d"/>
        <path id="Trazado_1274459" data-name="Trazado 1274459" d="M28.55,80.59l-2.267.686A29.507,29.507,0,0,1,30.5,55.517l-2.412-1.905c-.434-.343-.736-.617-.765-1.1a1.161,1.161,0,0,1,.634-1.205l8.453-2.795a1.25,1.25,0,0,1,1.093.306,1.273,1.273,0,0,1,.357.98l-.663,8.334a1.394,1.394,0,0,1-.405.977,1.2,1.2,0,0,1-1.287.175l-3.11-2.366A27.29,27.29,0,0,0,28.55,80.59M34.887,55.8l.329-4.407-4.278,1.391Z" transform="translate(-19.053 -36.941)" fill="#19538d"/>
        <path id="Trazado_1274460" data-name="Trazado 1274460" d="M228.736,78.149l-4.8-7.205a1.213,1.213,0,0,1,.031-1.192,1.154,1.154,0,0,1,1-.546l3.328-.037a27.339,27.339,0,0,0-11.144-18.615l1.4-1.918a29.663,29.663,0,0,1,12.131,20.536l3.795.03a1.162,1.162,0,0,1,.992.557,1.215,1.215,0,0,1,.047,1.192l-4.843,7.267a1.168,1.168,0,0,1-1.942-.068m3.439-6.522-4.959-.036,2.514,3.755Z" transform="translate(-165.485 -37.063)" fill="#19538d"/>
        <path id="Trazado_1274461" data-name="Trazado 1274461" d="M113.079,253.106l-1.257,4.071a1.038,1.038,0,0,1-1.048.661,1.451,1.451,0,0,1-1.119-.6l-5.441-6.451a1.121,1.121,0,0,1,.447-1.708l8.27-2.684a1.235,1.235,0,0,1,1.126.162,1.248,1.248,0,0,1,.407,1.34l-.777,2.829a27.168,27.168,0,0,0,12.611-2.375l1,2.143a28.9,28.9,0,0,1-14.217,2.615m-2.918,1.044,1.427-4.818-4.324,1.456Z" transform="translate(-79.243 -187.714)" fill="#19538d"/>
        <path id="Trazado_1274462" data-name="Trazado 1274462" d="M204.632,186.35l-1.722-1.709,1.672-1.671,1.685,1.677Z" transform="translate(-154.629 -139.435)" fill="#19538d"/>
        <path id="Trazado_1274463" data-name="Trazado 1274463" d="M279.614,191.368l-1.709-1.725,1.673-1.673,1.685,1.677Z" transform="translate(-211.78 -143.244)" fill="#19538d"/>
        <path id="Trazado_1274464" data-name="Trazado 1274464" d="M242.4,172.392l-2.377.019,0-2.375,2.363,0Z" transform="translate(-182.91 -129.576)" fill="#19538d"/>
        <path id="Trazado_1274465" data-name="Trazado 1274465" d="M192.4,217.392l-2.377.019,0-2.375,2.363,0Z" transform="translate(-144.807 -163.868)" fill="#19538d"/>
        <path id="Trazado_1274466" data-name="Trazado 1274466" d="M292.4,217.392l-2.377.019,0-2.375,2.363,0Z" transform="translate(-221.013 -163.868)" fill="#19538d"/>
        <path id="Trazado_1274467" data-name="Trazado 1274467" d="M31.928,222.428l-11.848.01,0-2.391H31.931Z" transform="translate(-15.3 -167.689)" fill="#19538d"/>
        <path id="Trazado_1274468" data-name="Trazado 1274468" d="M31.928,247.428l-11.848.01,0-2.391H31.931Z" transform="translate(-15.3 -186.74)" fill="#19538d"/>
        <path id="Trazado_1274469" data-name="Trazado 1274469" d="M54.782,272.392l-4.736.014v-2.393h4.731Z" transform="translate(-38.136 -205.764)" fill="#19538d"/>
        <path id="Trazado_1274470" data-name="Trazado 1274470" d="M129.534,32.145a5.939,5.939,0,1,1,2.8,11.542,5.939,5.939,0,0,1-2.8-11.542m.45,2.343a3.481,3.481,0,0,0-2.381,4.535,3.555,3.555,0,0,0,6.8-2.064,3.5,3.5,0,0,0-4.42-2.471" transform="translate(-95.28 -24.361)" fill="#19538d"/>
      </g>
    </g>
  </g>
</svg>
