<svg xmlns="http://www.w3.org/2000/svg" xmlns:xlink="http://www.w3.org/1999/xlink" width="128" height="128" viewBox="0 0 128 128">
  <defs>
    <clipPath id="clip-path">
      <rect id="Rectángulo_456267" data-name="Rectángulo 456267" width="128" height="128" fill="none"/>
    </clipPath>
    <clipPath id="clip-path-2">
      <rect id="Rectángulo_464478" data-name="Rectángulo 464478" width="54.618" height="54.33" fill="#19538d"/>
    </clipPath>
  </defs>
  <g id="Grupo_1211771" data-name="Grupo 1211771" transform="translate(511.746 8527) rotate(180)">
    <path id="Trazado_999622" data-name="Trazado 999622" d="M59.07,0A59.07,59.07,0,1,1,0,59.07,59.071,59.071,0,0,1,59.07,0" transform="translate(388.676 8403.93)" fill="#fff"/>
    <g id="Grupo_1179902" data-name="Grupo 1179902" transform="translate(383.746 8399)">
      <g id="Grupo_1179905" data-name="Grupo 1179905" clip-path="url(#clip-path)">
        <path id="Trazado_999618" data-name="Trazado 999618" d="M64,0A64,64,0,1,1,0,64,64,64,0,0,1,64,0" fill="none"/>
        <path id="Trazado_999619" data-name="Trazado 999619" d="M5,59a5,5,0,1,1-5,5,5,5,0,0,1,5-5" fill="#19538d"/>
        <path id="Trazado_999620" data-name="Trazado 999620" d="M21,19a5,5,0,1,1-5,5,5,5,0,0,1,5-5" fill="#19538d"/>
        <path id="Trazado_999621" data-name="Trazado 999621" d="M64,124A60.068,60.068,0,0,1,4,64H7A57,57,0,1,0,22.408,25.024L20.22,22.972A60,60,0,1,1,64,124" fill="#19538d"/>
        <rect id="Rectángulo_456268" data-name="Rectángulo 456268" width="128" height="128" fill="none"/>
        <rect id="Rectángulo_456269" data-name="Rectángulo 456269" width="128" height="128" fill="none"/>
      </g>
    </g>
    <g id="Grupo_1211816" data-name="Grupo 1211816" transform="translate(475.055 8490.165) rotate(180)">
      <g id="Grupo_1211815" data-name="Grupo 1211815" clip-path="url(#clip-path-2)">
        <path id="Trazado_1274491" data-name="Trazado 1274491" d="M50.261,54.33,4.628,54.3A4.743,4.743,0,0,1,0,49.472V4.77C0,2.445,1.787,0,4.28,0H50.337c2.487,0,4.281,2.442,4.28,4.772L54.6,49.634a4.8,4.8,0,0,1-4.34,4.7m1.128-41.571.012-8A1.57,1.57,0,0,0,49.91,3.115H4.7A1.581,1.581,0,0,0,3.214,4.762l.016,8ZM49.828,51.166c1.057-.189,1.573-.739,1.572-1.707l-.011-33.545H3.226l0,33.718c0,.943.739,1.4,1.626,1.534Z" fill="#19538d"/>
        <path id="Trazado_1274492" data-name="Trazado 1274492" d="M125.456,146.2a1.6,1.6,0,0,1-2.98-1.154l9.67-22.57a1.588,1.588,0,0,1,1.988-.783,1.536,1.536,0,0,1,.957,2.014Z" transform="translate(-101.476 -100.85)" fill="#19538d"/>
        <path id="Trazado_1274493" data-name="Trazado 1274493" d="M57.866,162.608a1.69,1.69,0,0,1,.431,2.375,1.671,1.671,0,0,1-2.487.116l-7.744-6.227a1.559,1.559,0,0,1,0-2.524l7.845-6.3a1.636,1.636,0,0,1,2.384.181,1.671,1.671,0,0,1-.38,2.333L51.592,157.6Z" transform="translate(-39.328 -124.086)" fill="#19538d"/>
        <path id="Trazado_1274494" data-name="Trazado 1274494" d="M209.718,165.133a1.618,1.618,0,1,1-2.059-2.473l6.322-5.042-6.323-5.048a1.623,1.623,0,1,1,2.1-2.443l7.746,6.224a1.563,1.563,0,0,1,0,2.527Z" transform="translate(-171.629 -124.089)" fill="#19538d"/>
        <path id="Trazado_1274495" data-name="Trazado 1274495" d="M218.275,40.149l-9.766.022a1.572,1.572,0,0,1-1.568-1.6,1.6,1.6,0,0,1,1.725-1.618l9.53.021a1.593,1.593,0,0,1,.08,3.178" transform="translate(-171.619 -30.643)" fill="#19538d"/>
        <path id="Trazado_1274496" data-name="Trazado 1274496" d="M39.307,37.134a1.58,1.58,0,0,1,1.961,1.1,1.6,1.6,0,0,1-3.036.977,1.577,1.577,0,0,1,1.075-2.081" transform="translate(-31.623 -30.744)" fill="#19538d"/>
        <path id="Trazado_1274497" data-name="Trazado 1274497" d="M114.307,37.134a1.58,1.58,0,0,1,1.96,1.1,1.6,1.6,0,0,1-3.036.977,1.577,1.577,0,0,1,1.075-2.081" transform="translate(-93.821 -30.744)" fill="#19538d"/>
        <path id="Trazado_1274498" data-name="Trazado 1274498" d="M76.922,37.121a1.578,1.578,0,0,1,1.9,1.222,1.59,1.59,0,0,1-3.078.789,1.575,1.575,0,0,1,1.176-2.012" transform="translate(-62.76 -30.748)" fill="#19538d"/>
      </g>
    </g>
  </g>
</svg>
