<svg xmlns="http://www.w3.org/2000/svg" xmlns:xlink="http://www.w3.org/1999/xlink" width="128" height="128" viewBox="0 0 128 128">
  <defs>
    <clipPath id="clip-path">
      <rect id="Rectángulo_456267" data-name="Rectángulo 456267" width="128" height="128" fill="none"/>
    </clipPath>
    <clipPath id="clip-path-2">
      <rect id="Rectángulo_464515" data-name="Rectángulo 464515" width="63.967" height="61.501" fill="#19538d"/>
    </clipPath>
  </defs>
  <g id="Grupo_1211644" data-name="Grupo 1211644" transform="translate(511.746 8527) rotate(180)">
    <path id="Trazado_999622" data-name="Trazado 999622" d="M59.07,0A59.07,59.07,0,1,1,0,59.07,59.071,59.071,0,0,1,59.07,0" transform="translate(388.676 8403.93)" fill="#fff"/>
    <g id="Grupo_1179902" data-name="Grupo 1179902" transform="translate(383.746 8399)">
      <g id="Grupo_1179905" data-name="Grupo 1179905" clip-path="url(#clip-path)">
        <path id="Trazado_999618" data-name="Trazado 999618" d="M64,0A64,64,0,1,1,0,64,64,64,0,0,1,64,0" fill="none"/>
        <path id="Trazado_999619" data-name="Trazado 999619" d="M5,59a5,5,0,1,1-5,5,5,5,0,0,1,5-5" fill="#19538d"/>
        <path id="Trazado_999620" data-name="Trazado 999620" d="M21,19a5,5,0,1,1-5,5,5,5,0,0,1,5-5" fill="#19538d"/>
        <path id="Trazado_999621" data-name="Trazado 999621" d="M64,124A60.068,60.068,0,0,1,4,64H7A57,57,0,1,0,22.408,25.024L20.22,22.972A60,60,0,1,1,64,124" fill="#19538d"/>
        <rect id="Rectángulo_456268" data-name="Rectángulo 456268" width="128" height="128" fill="none"/>
        <rect id="Rectángulo_456269" data-name="Rectángulo 456269" width="128" height="128" fill="none"/>
      </g>
    </g>
    <g id="Grupo_1211802" data-name="Grupo 1211802" transform="translate(479.729 8493.75) rotate(180)" clip-path="url(#clip-path-2)">
      <path id="Trazado_1274506" data-name="Trazado 1274506" d="M60.5,61.172a2.587,2.587,0,0,1-3.383-.781l-1.926-3.106L3.97,57.244A4.2,4.2,0,0,1,.011,53.076L0,4.312A4.43,4.43,0,0,1,3.65,0L57.3.063c1.982,0,3.64,2.145,3.642,4.026l.04,47.649,2.643,4.469a2.927,2.927,0,0,1-.47,3.349ZM59.316,4.145a2.5,2.5,0,0,0-2.425-2.5H4.062a2.525,2.525,0,0,0-2.4,2.44l-.033,6.433,57.757,0ZM48.08,45.438a12.49,12.49,0,1,1,6.912-3.8l-.073,2.4,2,3.526a4.284,4.284,0,0,1,2.466,1.29l0-36.707-57.768,0L1.634,53.07a2.7,2.7,0,0,0,2.853,2.606l49.707,0-1.719-3.018c-.45-.79.043-1.731-.033-2.459a14.7,14.7,0,0,0-2.127-3.5c-.58-.419-1.714-.389-2.234-1.254m4.884-1.829c1.16-.826-.33-1.893.486-2.707a10.912,10.912,0,1,0-5.23,2.87.9.9,0,0,1,1.121.517c.668,1.279,2.112.4,3.623-.68m.833,5.423,1.489-1-1.7-2.868-1.57.97Zm6.1,10.61,1.967-1.157A1.2,1.2,0,0,0,62.219,57l-4.047-6.842c-.425-.719-1.133-1.171-1.927-.7l-1.729,1.031a1.251,1.251,0,0,0-.4,1.795l4.23,7.06a1.194,1.194,0,0,0,1.553.3" transform="translate(0)" fill="#19538d"/>
      <path id="Trazado_1274507" data-name="Trazado 1274507" d="M42.94,118.956l.553-1.416-12.355.019a.911.911,0,0,1-.992-.958l-.054-3.124a4.283,4.283,0,0,1-1.682-.093l-2.634-3.546,2.58-3.483,1.787-.148,0-4.712a.914.914,0,0,1,.828-.975l12.561-.008,3.686-3.671-.007-3.584H35.069a5.025,5.025,0,0,1-.221,2.422l-7.119.072a.848.848,0,0,1-.863-.862l0-4.908a.824.824,0,0,1,.861-.838l6.582.01c1.049,0,.651,1.225.873,2.517l12.794,0a.818.818,0,0,1,.874.871l.031,4.4,3.942,4c.355.36-.059.978-.32,1.236l-3.659,3.624.011,7.632c1.331.185,2.832-.318,4.045.239.589.308.035,1.576-.353,2.2l4.611.081a.8.8,0,0,1,.76.8.81.81,0,0,1-.764.795l-5.294.02a9.8,9.8,0,0,1-1.152,2.465l-6.985.03a.809.809,0,0,1-.787-1.1m-9.447-24.87-.015-3.3-4.952-.015.008,3.36Zm14.614,10.171,2.91-2.941-2.993-2.937L45.112,101.3ZM31.84,115.95l12.367-.024a8.765,8.765,0,0,1,1.061-2.239c.4-.43,1.244-.235,1.92-.229l.028-7.7-3.579-3.609L31.8,102.122l-.011,4.069,1.777.117,2.324,3.027a1.033,1.033,0,0,1-.131,1.256l-2.182,2.727c-.328.41-1.237.155-1.756.153Zm2.368-6.067-1.436-2.008-3.506.01-1.531,1.976,1.534,2.022c2.984.089,3.44.512,4.939-2m15.657,8.471,1.215-3.285-4.776.014-1.365,3.325Z" transform="translate(-20.28 -70.137)" fill="#19538d"/>
      <path id="Trazado_1274508" data-name="Trazado 1274508" d="M130.134,28l-31.677-.007a.809.809,0,1,1,.194-1.606l31.676.007a.788.788,0,0,1,.756.883c-.036.465-.348.723-.95.723" transform="translate(-76.88 -20.761)" fill="#19538d"/>
      <path id="Trazado_1274509" data-name="Trazado 1274509" d="M74.132,26.4a.793.793,0,0,1,.978.5.836.836,0,0,1-.416,1.01.78.78,0,0,1-1.012-.281.826.826,0,0,1,.45-1.228" transform="translate(-57.882 -20.748)" fill="#19538d"/>
      <path id="Trazado_1274510" data-name="Trazado 1274510" d="M32.244,26.436a.776.776,0,0,1,1.048.442.806.806,0,0,1-.43,1.019.767.767,0,0,1-.978-.317.79.79,0,0,1,.361-1.144" transform="translate(-24.993 -20.742)" fill="#19538d"/>
      <path id="Trazado_1274511" data-name="Trazado 1274511" d="M53.2,26.4a.768.768,0,0,1,.965.482.814.814,0,0,1-.422,1.009.781.781,0,0,1-.994-.3A.792.792,0,0,1,53.2,26.4" transform="translate(-41.402 -20.743)" fill="#19538d"/>
      <path id="Trazado_1274512" data-name="Trazado 1274512" d="M179.608,113.16a9.067,9.067,0,1,1-7.242,10.64,9.023,9.023,0,0,1,7.242-10.64m1.271,1.467a7.441,7.441,0,1,0,7.815,6.914,7.4,7.4,0,0,0-7.815-6.914" transform="translate(-135.482 -88.905)" fill="#19538d"/>
    </g>
  </g>
</svg>
