<svg xmlns="http://www.w3.org/2000/svg" xmlns:xlink="http://www.w3.org/1999/xlink" width="130" height="130" viewBox="0 0 130 130">
  <defs>
    <clipPath id="clip-path">
      <rect id="Rectángulo_456267" data-name="Rectángulo 456267" width="130" height="130" fill="none"/>
    </clipPath>
    <clipPath id="clip-path-2">
      <rect id="Rectángulo_464486" data-name="Rectángulo 464486" width="58.445" height="65.763" fill="#19538d"/>
    </clipPath>
  </defs>
  <g id="Grupo_1211763" data-name="Grupo 1211763" transform="translate(513.746 8529) rotate(180)">
    <path id="Trazado_999622" data-name="Trazado 999622" d="M60.629,0A60.629,60.629,0,1,1,0,60.629,60.629,60.629,0,0,1,60.629,0" transform="translate(388.117 8403.371)" fill="#e1f5ff"/>
    <g id="Grupo_1179902" data-name="Grupo 1179902" transform="translate(383.746 8399)">
      <g id="Grupo_1179905" data-name="Grupo 1179905" clip-path="url(#clip-path)">
        <path id="Trazado_999618" data-name="Trazado 999618" d="M65,0A65,65,0,1,1,0,65,65,65,0,0,1,65,0" fill="none"/>
        <path id="Trazado_999619" data-name="Trazado 999619" d="M5.078,59A5.078,5.078,0,1,1,0,64.078,5.079,5.079,0,0,1,5.078,59" transform="translate(0 0.922)" fill="#19538d"/>
        <path id="Trazado_999620" data-name="Trazado 999620" d="M21.078,19A5.078,5.078,0,1,1,16,24.078,5.079,5.079,0,0,1,21.078,19" transform="translate(0.25 0.297)" fill="#19538d"/>
        <path id="Trazado_999621" data-name="Trazado 999621" d="M64.938,125.875A61.007,61.007,0,0,1,4,64.938H7.047A57.89,57.89,0,1,0,22.7,25.353l-2.222-2.084A60.937,60.937,0,1,1,64.938,125.875" transform="translate(0.063 0.063)" fill="#19538d"/>
        <rect id="Rectángulo_456268" data-name="Rectángulo 456268" width="130" height="130" fill="none"/>
        <rect id="Rectángulo_456269" data-name="Rectángulo 456269" width="130" height="130" fill="none"/>
      </g>
    </g>
    <g id="Grupo_1211832" data-name="Grupo 1211832" transform="translate(477.968 8496.881) rotate(180)">
      <g id="Grupo_1211831" data-name="Grupo 1211831" clip-path="url(#clip-path-2)">
        <path id="Trazado_1274604" data-name="Trazado 1274604" d="M43.781,65.743l-29,.02a2.877,2.877,0,0,1,.068-5.753l3.828-.059,2.783-5.676L3.471,54.225A3.585,3.585,0,0,1,0,50.511L.036,15.078a3.545,3.545,0,0,1,4.1-3.4l.036-7.938A3.653,3.653,0,0,1,7.361,0L50.883,0a3.741,3.741,0,0,1,3.134,3.734l.049,7.966a3.609,3.609,0,0,1,4.36,3.549l.018,35.262a3.578,3.578,0,0,1-3.473,3.709l-17.981.049,2.783,5.684,3.991.073a2.861,2.861,0,0,1,.016,5.716M52.043,6.961l.037-3.19a1.81,1.81,0,0,0-2.033-1.878H8.193C7,1.893,6.075,2.527,6.1,3.753l.061,3.208Zm-1.79,41.187a1.811,1.811,0,0,0,1.83-1.916V8.9H6.09L6.1,46.444a1.784,1.784,0,0,0,1.881,1.7Zm3.763-34.369,0,32.477a3.729,3.729,0,0,1-3.759,3.826L7.782,50.069a3.638,3.638,0,0,1-3.608-3.81l0-32.638a1.76,1.76,0,0,0-2.245,1.715l0,35.245c0,1.177.856,1.7,1.934,1.7H54.586c1.081,0,1.932-.523,1.932-1.7l.013-35.037a1.869,1.869,0,0,0-.683-1.6,1.66,1.66,0,0,0-1.832-.161M37.569,59.969,34.8,54.257l-11.16,0L20.835,60Zm5.961,3.869a.923.923,0,0,0,1-1.126c-.089-.5-.449-.752-1.08-.752H15c-.708,0-1.094.347-1.1.941,0,.551.393.943,1.1.943Z" transform="translate(0)" fill="#19538d"/>
        <path id="Trazado_1274605" data-name="Trazado 1274605" d="M63.124,86.553A4.031,4.031,0,0,1,59.4,89.49a3.982,3.982,0,0,1-3.9-2.92l-10.636-.021a1.064,1.064,0,0,1-1.192-1.026l-.023-6.992-4.374-.02a1.373,1.373,0,0,1-1.331-1.7l1.237-3.31a1.544,1.544,0,0,1,1.524-1.015l2.941.017.026-5.5a.924.924,0,0,1,.883-.948l9.392-.017,4.365-2.324a11.939,11.939,0,0,0-.036-2.341l-3.516-.013a1.429,1.429,0,0,1-1.425-1.412l0-3.309a1.431,1.431,0,0,1,1.224-1.416h9.488a1.433,1.433,0,0,1,1.225,1.417l.017,3.113a1.565,1.565,0,0,1-1.645,1.634l-3.317-.011a12.042,12.042,0,0,0-.034,2.34l4.362,2.33,9.4.008a.885.885,0,0,1,.858.785l.061,5.662,4.179-.015c.866,0,1.829.728,1.5,1.63l-1.318,3.595a1.619,1.619,0,0,1-1.63.824l-2.748.011-.021,6.978a1.056,1.056,0,0,1-1.19,1.024ZM63.27,59.4a4.791,4.791,0,0,0-.039-1.951H55.382a4.463,4.463,0,0,0-.019,1.951Zm-1.03,7.632L59.308,65.39,56.35,67.044l2.955,1.578ZM58.385,81.68,58.3,78.523l-4.359-.007a1.372,1.372,0,0,1-1.276-1.866L53.846,73.5a1.445,1.445,0,0,1,1.317-.992l3.122.021a7.583,7.583,0,0,0-.012-2.237L54.066,68l-8.42-.03.007,4.522,4.374,0a1.384,1.384,0,0,1,1.24,1.91l-1.114,3.02a1.61,1.61,0,0,1-1.578,1.1l-2.929.019v6.041l9.864-.025a4.246,4.246,0,0,1,2.876-2.883m4.83,2.932,9.758-.036,0-6.049-4.17,0A1.415,1.415,0,0,1,67.38,76.5L68.5,73.474a1.488,1.488,0,0,1,1.316-.97l3.165-.044-.019-4.489-8.417.039L60.344,70.29a7.238,7.238,0,0,0-.012,2.207h4.353a1.312,1.312,0,0,1,1.146.648,1.373,1.373,0,0,1,.1,1.244l-1.179,3.183a1.423,1.423,0,0,1-1.317.94l-3.126.023.015,3.25a4.327,4.327,0,0,1,2.891,2.827m-14.8-8.054.747-2.145-8.224.006-.779,2.135Zm14.676,0,.731-2.141-8.224,0-.778,2.139Zm14.627-.016.756-2.123-8.217,0-.782,2.141ZM58.9,83.61a1.974,1.974,0,0,0-1.5,2.495,1.99,1.99,0,0,0,3.863-.944A1.963,1.963,0,0,0,58.9,83.61" transform="translate(-30.085 -43.819)" fill="#19538d"/>
        <path id="Trazado_1274606" data-name="Trazado 1274606" d="M162.753,18.767l-16.98.014a1,1,0,0,1-.982-.782c-.079-.3.088-1.1.585-1.1l17.1-.051c.662,0,1.13.163,1.234.8a.957.957,0,0,1-.955,1.115" transform="translate(-114.881 -13.37)" fill="#19538d"/>
        <path id="Trazado_1274607" data-name="Trazado 1274607" d="M46.572,18.548c-1.479.2-2.636.231-2.825-.7a.837.837,0,0,1,.582-1.058c1.509-.237,2.68-.185,2.818.74a1.039,1.039,0,0,1-.574,1.018" transform="translate(-34.698 -13.229)" fill="#19538d"/>
        <path id="Trazado_1274608" data-name="Trazado 1274608" d="M95.235,18.739l-1.714-.009a.9.9,0,0,1-.8-.753.871.871,0,0,1,.588-1.052,7.175,7.175,0,0,1,2.222-.012c.455.068.6.58.592.907a.879.879,0,0,1-.89.919" transform="translate(-73.562 -13.357)" fill="#19538d"/>
        <path id="Trazado_1274609" data-name="Trazado 1274609" d="M71.08,18.908c-1.4.324-2.72.16-2.767-.858-.017-.381.193-.925.688-.925l2.016,0c.436,0,.634.45.672.74a.89.89,0,0,1-.611,1.045" transform="translate(-54.208 -13.588)" fill="#19538d"/>
      </g>
    </g>
  </g>
</svg>
