<svg xmlns="http://www.w3.org/2000/svg" xmlns:xlink="http://www.w3.org/1999/xlink" width="130" height="130" viewBox="0 0 130 130">
  <defs>
    <clipPath id="clip-path">
      <rect id="Rectángulo_456267" data-name="Rectángulo 456267" width="130" height="130" fill="none"/>
    </clipPath>
    <clipPath id="clip-path-2">
      <rect id="Rectángulo_464455" data-name="Rectángulo 464455" width="58.932" height="70.92" fill="#19538d"/>
    </clipPath>
  </defs>
  <g id="Grupo_1211616" data-name="Grupo 1211616" transform="translate(513.746 8529) rotate(180)">
    <path id="Trazado_999622" data-name="Trazado 999622" d="M60.629,0A60.629,60.629,0,1,1,0,60.629,60.629,60.629,0,0,1,60.629,0" transform="translate(388.117 8403.371)" fill="#e1f5ff"/>
    <g id="Grupo_1179902" data-name="Grupo 1179902" transform="translate(383.746 8399)">
      <g id="Grupo_1179905" data-name="Grupo 1179905" clip-path="url(#clip-path)">
        <path id="Trazado_999618" data-name="Trazado 999618" d="M65,0A65,65,0,1,1,0,65,65,65,0,0,1,65,0" fill="none"/>
        <path id="Trazado_999619" data-name="Trazado 999619" d="M5.078,59A5.078,5.078,0,1,1,0,64.078,5.079,5.079,0,0,1,5.078,59" transform="translate(0 0.922)" fill="#19538d"/>
        <path id="Trazado_999620" data-name="Trazado 999620" d="M21.078,19A5.078,5.078,0,1,1,16,24.078,5.079,5.079,0,0,1,21.078,19" transform="translate(0.25 0.297)" fill="#19538d"/>
        <path id="Trazado_999621" data-name="Trazado 999621" d="M64.938,125.875A61.007,61.007,0,0,1,4,64.938H7.047A57.89,57.89,0,1,0,22.7,25.353l-2.222-2.084A60.937,60.937,0,1,1,64.938,125.875" transform="translate(0.063 0.063)" fill="#19538d"/>
        <rect id="Rectángulo_456268" data-name="Rectángulo 456268" width="130" height="130" fill="none"/>
        <rect id="Rectángulo_456269" data-name="Rectángulo 456269" width="130" height="130" fill="none"/>
      </g>
    </g>
    <g id="Grupo_1211770" data-name="Grupo 1211770" transform="translate(478.212 8499.46) rotate(180)">
      <g id="Grupo_1211769" data-name="Grupo 1211769" clip-path="url(#clip-path-2)">
        <path id="Trazado_1274319" data-name="Trazado 1274319" d="M55.462,50.658l-7.235.013a1.1,1.1,0,0,1-1.111-1.045l-.029-4.46a22.442,22.442,0,0,1-5.992-2.507L38,45.733a1.19,1.19,0,0,1-1.643-.029l-4.974-4.989a1.2,1.2,0,0,1-.016-1.623l3.1-3.159a20.551,20.551,0,0,1-2.3-5.814l-4.559-.069a1.182,1.182,0,0,1-1.162-1.243l-.01-6.86c0-.91.663-1.352,1.529-1.352l4.4,0a19.8,19.8,0,0,1,2.365-5.623l-3.178-3.243a1.267,1.267,0,0,1-.16-1.9L36,5.154a1.5,1.5,0,0,1,2.228-.106l3.337,3.364a20.838,20.838,0,0,1,5.5-2.218l.043-5.046A1.158,1.158,0,0,1,48.357,0l6.889,0a1.165,1.165,0,0,1,1.246,1.151l.028,5.1a21.655,21.655,0,0,1,5.493,2.19L65.37,5.052a1.332,1.332,0,0,1,2.035.078l4.973,5a1,1,0,0,1,.008,1.258L68.717,15.1a20.131,20.131,0,0,1,2.311,5.474l5.042.056a1.115,1.115,0,0,1,1.038,1.127l.014,7.047a1.137,1.137,0,0,1-1.132,1.24l-4.759.075a19.311,19.311,0,0,1-2.274,5.649l3.274,3.321a1.18,1.18,0,0,1,.006,1.633l-5.1,5.087a1.14,1.14,0,0,1-1.549-.058l-3.174-3.18A18.932,18.932,0,0,1,56.5,45.13l-.015,4.493a1.072,1.072,0,0,1-1.024,1.035m-1.336-2.351,0-4.2a1.128,1.128,0,0,1,.93-1.076,16.858,16.858,0,0,0,6.658-2.861,1.358,1.358,0,0,1,1.769.139l2.934,2.928,3.329-3.33L66.6,36.742a1.138,1.138,0,0,1-.112-1.33,17.927,17.927,0,0,0,2.586-6.724A1.187,1.187,0,0,1,70.3,27.7l4.477-.012.012-4.664H70.316a1.337,1.337,0,0,1-1.369-1.065,17.067,17.067,0,0,0-2.57-6.042,1.358,1.358,0,0,1,.022-1.876l3.268-3.3-3.333-3.3L62.957,10.83a1.18,1.18,0,0,1-1.57.091,17.18,17.18,0,0,0-6.119-2.509,1.189,1.189,0,0,1-1.058-1.132l-.041-4.861L49.479,2.4V7.114a1.125,1.125,0,0,1-.816,1.171,18.064,18.064,0,0,0-6.5,2.573,1.369,1.369,0,0,1-1.39.062L37.263,7.446l-3.326,3.308,3.1,3.234a1.134,1.134,0,0,1,.228,1.529,17.387,17.387,0,0,0-2.84,6.464,1.247,1.247,0,0,1-1.17,1.007l-4.438.038.01,4.669,4.246-.006a1.172,1.172,0,0,1,1.208,1.04A18.023,18.023,0,0,0,37,35.539a1.235,1.235,0,0,1-.3,1.556l-2.824,2.81,3.292,3.319,2.841-2.808A1.284,1.284,0,0,1,41.76,40.3a17.405,17.405,0,0,0,6.6,2.709,1.152,1.152,0,0,1,1.029,1.144l.041,4.159Z" transform="translate(-20.575 0)" fill="#19538d"/>
        <path id="Trazado_1274320" data-name="Trazado 1274320" d="M20.035,184.217l-2.336.514-1-4.917-9.509.023a1.276,1.276,0,0,1-1.318-1.32l0-16.388H1.2a1.156,1.156,0,0,1-.967-.5,1.2,1.2,0,0,1-.1-1.216l8.265-14.19,2.015,1.2L3.281,159.694l3.863.088a1.1,1.1,0,0,1,1.088,1.073l.017,16.586H17.6a1.179,1.179,0,0,1,1.247.963Z" transform="translate(0 -113.81)" fill="#19538d"/>
        <path id="Trazado_1274321" data-name="Trazado 1274321" d="M220.343,186.679a7.875,7.875,0,0,1-2.331.04l.012-16.536,4.073-5.812a22.935,22.935,0,0,0,4.075-15.279l2.373.006c.374,5.515-.6,11-3.756,15.529l-4.452,6.4Z" transform="translate(-169.688 -116.046)" fill="#19538d"/>
        <path id="Trazado_1274322" data-name="Trazado 1274322" d="M93.253,56.025A12.963,12.963,0,1,1,82.584,71.079,12.937,12.937,0,0,1,93.253,56.025m1.547,2.2a10.6,10.6,0,1,0,11.127,9.986A10.581,10.581,0,0,0,94.8,58.229" transform="translate(-64.125 -43.467)" fill="#19538d"/>
        <path id="Trazado_1274323" data-name="Trazado 1274323" d="M111.879,79.524a5.9,5.9,0,1,0,.8,11.753,5.875,5.875,0,0,0,4.894-7.233,8.063,8.063,0,0,1,2.317-.6,8.264,8.264,0,1,1-8.037-6.215Z" transform="translate(-80.647 -60.107)" fill="#19538d"/>
        <path id="Trazado_1274324" data-name="Trazado 1274324" d="M153.542,83.851a6.519,6.519,0,0,0-2.12-1.556l.934-2.175a7.865,7.865,0,0,1,2.9,2.159,14.279,14.279,0,0,0-1.711,1.572" transform="translate(-117.858 -62.361)" fill="#19538d"/>
      </g>
    </g>
  </g>
</svg>
