<svg xmlns="http://www.w3.org/2000/svg" xmlns:xlink="http://www.w3.org/1999/xlink" width="128" height="128" viewBox="0 0 128 128">
  <defs>
    <clipPath id="clip-path">
      <rect id="Rectángulo_456267" data-name="Rectángulo 456267" width="128" height="128" fill="none"/>
    </clipPath>
    <clipPath id="clip-path-2">
      <rect id="Rectángulo_464462" data-name="Rectángulo 464462" width="70.138" height="67.189" fill="#19538d"/>
    </clipPath>
  </defs>
  <g id="Grupo_1211662" data-name="Grupo 1211662" transform="translate(511.746 8527) rotate(180)">
    <path id="Trazado_999622" data-name="Trazado 999622" d="M59.07,0A59.07,59.07,0,1,1,0,59.07,59.071,59.071,0,0,1,59.07,0" transform="translate(388.676 8403.93)" fill="#fff"/>
    <g id="Grupo_1179902" data-name="Grupo 1179902" transform="translate(383.746 8399)">
      <g id="Grupo_1179905" data-name="Grupo 1179905" clip-path="url(#clip-path)">
        <path id="Trazado_999618" data-name="Trazado 999618" d="M64,0A64,64,0,1,1,0,64,64,64,0,0,1,64,0" fill="none"/>
        <path id="Trazado_999619" data-name="Trazado 999619" d="M5,59a5,5,0,1,1-5,5,5,5,0,0,1,5-5" fill="#19538d"/>
        <path id="Trazado_999620" data-name="Trazado 999620" d="M21,19a5,5,0,1,1-5,5,5,5,0,0,1,5-5" fill="#19538d"/>
        <path id="Trazado_999621" data-name="Trazado 999621" d="M64,124A60.068,60.068,0,0,1,4,64H7A57,57,0,1,0,22.408,25.024L20.22,22.972A60,60,0,1,1,64,124" fill="#19538d"/>
        <rect id="Rectángulo_456268" data-name="Rectángulo 456268" width="128" height="128" fill="none"/>
        <rect id="Rectángulo_456269" data-name="Rectángulo 456269" width="128" height="128" fill="none"/>
      </g>
    </g>
    <g id="Grupo_1211804" data-name="Grupo 1211804" transform="translate(482.815 8496.595) rotate(180)">
      <g id="Grupo_1211783" data-name="Grupo 1211783" clip-path="url(#clip-path-2)">
        <path id="Trazado_1274365" data-name="Trazado 1274365" d="M20.88,182.1l-2.226,1.289a12.784,12.784,0,0,1,1.323,2.471,3.037,3.037,0,0,1-1.544,3.594l-3.2,1.815c-1.186.672-3.249.72-4.048-.687L.349,171.515a2.868,2.868,0,0,1,1.029-3.807l3.588-2.084a3.028,3.028,0,0,1,3.969.663,14.054,14.054,0,0,1,1.183,1.967l10.96-6.269a9.5,9.5,0,0,1,8.578-.45,64.555,64.555,0,0,0,10.6,3.331,5.4,5.4,0,0,1,3.8,2.3,4.988,4.988,0,0,1,.146,4.953,3.378,3.378,0,0,0,1.769-.632l13.654-7.9c2.861-1.656,7.081-2.484,9.268,0,1.678,1.908,1.827,5.762-.607,7.271L44.944,185.328A9.489,9.489,0,0,1,37.33,186.5Zm40.061-16.641-14.175,8.17a9.854,9.854,0,0,1-7.006.78,88.3,88.3,0,0,1-9.41-2.5c-.652-.2-.669-1.155-.43-1.51a1.335,1.335,0,0,1,1.515-.493c2.741.755,5.369,1.6,8.163,2.152a2.45,2.45,0,0,0,2.847-1.715,2.42,2.42,0,0,0-1.559-2.943,93.142,93.142,0,0,1-12.026-3.713,7.019,7.019,0,0,0-6.549.2l-11.073,6.339,6.341,11.146a16.5,16.5,0,0,1,3.094-1.667l17.442,4.655a7.316,7.316,0,0,0,5.879-1.112l22.963-14.156a2.7,2.7,0,0,0,.861-2.565,2.409,2.409,0,0,0-1.645-2.1,7,7,0,0,0-5.229,1.034M14.028,189.343l3.321-1.888c.207-.118.689-.6.517-.9L7.334,167.912a.847.847,0,0,0-1.3-.3L2.6,169.574a.731.731,0,0,0-.2.982L12.96,189.223a.9.9,0,0,0,1.068.121" transform="translate(0 -124.535)" fill="#19538d"/>
        <path id="Trazado_1274366" data-name="Trazado 1274366" d="M109.08,24.988a19.921,19.921,0,0,1,3.077-16.572l-1.519-.874a1.1,1.1,0,0,1-.528-1.035,1.175,1.175,0,0,1,.663-.956c3.865-1.621,3.759-4.671,5-4.783a1.133,1.133,0,0,1,1.1.52l.99,1.741a19.961,19.961,0,1,1-5,29.413c-.637.53-.56,1.5-1.625,1.547-1.419.061-1.178-3.11-5.294-4.87a1.006,1.006,0,0,1-.519-1.019c.06-1.176,2.084-1.225,3.652-3.112m4.652-14.881a17.409,17.409,0,0,0-2.839,12.174c.683.1,1.222.274,1.47.882C113.81,26.706,116.825,26.8,117,27.9c.234,1.455-1.243,1.274-2.763,2.622a17.692,17.692,0,1,0,5.4-25.911c.7.91,2.021.822,2.107,1.879.124,1.523-3.125,1.3-4.776,5.26a1.163,1.163,0,0,1-1.193.657c-1.09-.109-1-1.762-2.042-2.3M116,8.873A9.325,9.325,0,0,1,118.29,6.58a9.17,9.17,0,0,1-2.32-2.3A15.869,15.869,0,0,1,113.563,6.6,20.238,20.238,0,0,1,116,8.873m-4.718,21.612a8.729,8.729,0,0,1,2.29-2.3,21.382,21.382,0,0,1-2.342-2.284,19.1,19.1,0,0,1-2.318,2.279,20.027,20.027,0,0,1,2.37,2.3" transform="translate(-81.687 0)" fill="#19538d"/>
        <path id="Trazado_1274367" data-name="Trazado 1274367" d="M71.9,52.033c-3.866,1.753-3.594,4.644-4.978,4.759-1.444.12-1.306-3.184-5.116-4.767a1.166,1.166,0,0,1-.75-1.1c0-.583.361-.9.947-1.151,3.2-1.354,3.569-4.318,4.567-4.581.37-.1,1.029-.049,1.214.389,1.791,4.222,4.821,3.875,4.909,5.348a1.176,1.176,0,0,1-.792,1.108m-4.975,1.24a14.242,14.242,0,0,1,2.221-2.365,20.432,20.432,0,0,1-2.317-2.293,7.942,7.942,0,0,1-2.291,2.268c.835.781,1.556,1.486,2.387,2.39" transform="translate(-47.304 -34.98)" fill="#19538d"/>
        <path id="Trazado_1274368" data-name="Trazado 1274368" d="M20.975,201.246a1.465,1.465,0,1,1,1.288,2.631,1.5,1.5,0,0,1-1.946-.646,1.439,1.439,0,0,1,.659-1.985" transform="translate(-15.608 -155.801)" fill="#19538d"/>
        <path id="Trazado_1274369" data-name="Trazado 1274369" d="M152.547,57.78a3.809,3.809,0,0,1,.265-5.432,3.855,3.855,0,0,1,5.314-.044L161.7,55.8l8.765-8.712c1.412-1.4,3.922-.957,5.2.372a3.892,3.892,0,0,1,.047,5.345L164.521,64.116a3.814,3.814,0,0,1-5.412.234Zm1.908-1.229,6.009,6a1.62,1.62,0,0,0,2.341.063L174,51.343a1.662,1.662,0,0,0-.053-2.369,1.684,1.684,0,0,0-2.4.118l-9.32,9.343c-.387.388-1.138.057-1.436-.24l-4.179-4.165a1.619,1.619,0,0,0-2.385.115,1.7,1.7,0,0,0,.225,2.407" transform="translate(-117.408 -35.814)" fill="#19538d"/>
      </g>
    </g>
  </g>
</svg>
