<svg xmlns="http://www.w3.org/2000/svg" xmlns:xlink="http://www.w3.org/1999/xlink" width="128" height="128" viewBox="0 0 128 128">
  <defs>
    <clipPath id="clip-path">
      <rect id="Rectángulo_456267" data-name="Rectángulo 456267" width="128" height="128" fill="none"/>
    </clipPath>
    <clipPath id="clip-path-2">
      <rect id="Rectángulo_464463" data-name="Rectángulo 464463" width="68.907" height="70.625" fill="#19538d"/>
    </clipPath>
  </defs>
  <g id="Grupo_1211671" data-name="Grupo 1211671" transform="translate(511.746 8527) rotate(180)">
    <path id="Trazado_999622" data-name="Trazado 999622" d="M59.07,0A59.07,59.07,0,1,1,0,59.07,59.071,59.071,0,0,1,59.07,0" transform="translate(388.676 8403.93)" fill="#fff"/>
    <g id="Grupo_1179902" data-name="Grupo 1179902" transform="translate(383.746 8399)">
      <g id="Grupo_1179905" data-name="Grupo 1179905" clip-path="url(#clip-path)">
        <path id="Trazado_999618" data-name="Trazado 999618" d="M64,0A64,64,0,1,1,0,64,64,64,0,0,1,64,0" fill="none"/>
        <path id="Trazado_999619" data-name="Trazado 999619" d="M5,59a5,5,0,1,1-5,5,5,5,0,0,1,5-5" fill="#19538d"/>
        <path id="Trazado_999620" data-name="Trazado 999620" d="M21,19a5,5,0,1,1-5,5,5,5,0,0,1,5-5" fill="#19538d"/>
        <path id="Trazado_999621" data-name="Trazado 999621" d="M64,124A60.068,60.068,0,0,1,4,64H7A57,57,0,1,0,22.408,25.024L20.22,22.972A60,60,0,1,1,64,124" fill="#19538d"/>
        <rect id="Rectángulo_456268" data-name="Rectángulo 456268" width="128" height="128" fill="none"/>
        <rect id="Rectángulo_456269" data-name="Rectángulo 456269" width="128" height="128" fill="none"/>
      </g>
    </g>
    <g id="Grupo_1211805" data-name="Grupo 1211805" transform="translate(475.757 8498.313) rotate(180)">
      <g id="Grupo_1211785" data-name="Grupo 1211785" clip-path="url(#clip-path-2)">
        <path id="Trazado_1274370" data-name="Trazado 1274370" d="M66.708,23.472c-.678.834-2.307-.835-2.948-.29s1.506,2.105-.046,3.116c-1.577,1.027-4.76,2.188-5.352,1.947-.652-.265-.507-1.456-1.4-2.227-.939.541-.822,1.815-1.334,2.135a2.351,2.351,0,0,1-1.347.177l0,28.572c.09.74-.4.887-.794,1.283L41.017,70.625,5.424,70.614A5.428,5.428,0,0,1,0,65.095V5.569A5.554,5.554,0,0,1,5.888,0L48.6.032a5.406,5.406,0,0,1,5.408,4.175,2.12,2.12,0,0,1,1.419.05c.584.286.727,2,1.427,1.951.807-.062.662-2.423,2.012-2.2a11.783,11.783,0,0,1,4.951,2.033c1.225.863-.271,1.953.061,3.165,1.062.294,2.184-1.361,3.064.1a10.882,10.882,0,0,1,1.874,5.044c.035.991-2.345,1.11-2.149,1.944s2.3.642,2.238,1.759a9.542,9.542,0,0,1-2.2,5.42M47.05,23.388A11.742,11.742,0,0,1,44.92,18.5c-.3-1.617,2.145-1.465,2.082-2.287s-2.459-.655-2.2-2.044a11.045,11.045,0,0,1,2.246-5.231c.729-.855,2.592.725,2.958.1.388-.657-1.108-1.917-.384-2.723A11.867,11.867,0,0,1,51.9,4.885a3.2,3.2,0,0,0-3.075-2.637L5.436,2.243A3.2,3.2,0,0,0,2.209,5.558V65.1a3.2,3.2,0,0,0,3.221,3.308l33.913.02.031-7.592a5.237,5.237,0,0,1,4.7-4.866l8.019-.027-.006-28.311c-1.662-.943-3.223-1.577-2.465-2.936.218-.391.494-1.143.239-1.533-.935-.312-2.1,1.18-2.809.226m12.6,2.507a4.962,4.962,0,0,0,2.243-1.008,2.631,2.631,0,0,1,1.563-3.832,4.923,4.923,0,0,1,2.264.228,5.751,5.751,0,0,0,.953-2.321,3.022,3.022,0,0,1-2.027-2.836A3.01,3.01,0,0,1,66.67,13.5a4.648,4.648,0,0,0-.963-2.208,2.894,2.894,0,0,1-3.225-.426,2.864,2.864,0,0,1-.372-3.3,4.979,4.979,0,0,0-2.345-.956A3.055,3.055,0,0,1,56.96,8.654a3.182,3.182,0,0,1-2.57-2.068,5.261,5.261,0,0,0-2.221.989,2.785,2.785,0,0,1-.438,3.232,2.765,2.765,0,0,1-3.188.377A3.976,3.976,0,0,0,47.5,13.657a2.933,2.933,0,0,1,2.034,2.679,2.953,2.953,0,0,1-1.973,2.574,3.324,3.324,0,0,0,.959,2.292c1.188-.429,2.629-.407,3.326.661.61.933.311,2.093.177,3.147a6.327,6.327,0,0,0,2.3.922,2.842,2.842,0,0,1,2.614-2.066,2.945,2.945,0,0,1,2.7,2.029m-18.034,41.1,8.754-8.756-5.377-.068a3.012,3.012,0,0,0-3.391,2.86Z" transform="translate(0 0)" fill="#19538d"/>
        <path id="Trazado_1274371" data-name="Trazado 1274371" d="M68.122,99.7l-11.19.068a3.513,3.513,0,0,1-2.951-2.208l-2.973-.018-7.5,5.989-.041,2.932,5.627.082a3.041,3.041,0,0,1,2.744,3.2c.028,1.4-.944,3.272-2.65,3.273l-13.655,0c-1.725,0-2.745-1.863-2.715-3.292a3.068,3.068,0,0,1,2.8-3.2l5.585-.079-.028-2.92L33.55,97.475a1.2,1.2,0,0,1-.191-1.876L41.2,89.331l.049-3.266L33.8,80.155c-.551-.437-1.277-1.376-.546-1.966L41.181,71.8l.013-2.688-5.653-.071c-1.684-.021-2.721-1.723-2.721-3.259,0-1.412,1.026-3.227,2.728-3.221l13.8.042c1.658.005,2.49,1.889,2.492,3.175,0,1.571-.952,3.227-2.678,3.253l-5.667.084a9.913,9.913,0,0,0,.011,2.694l7.47,5.964a18.919,18.919,0,0,0,3-.047c.541-1.048,1.433-2.2,2.736-2.206l10.677-.063A3.314,3.314,0,0,1,70.812,79.1a2.99,2.99,0,0,1-2.978,2.988H56.924a2.95,2.95,0,0,1-2.79-2.037l-3.142-.036-7.486,5.961a16.184,16.184,0,0,0-.02,3.347l7.5,5.984,3.059-.014a3.087,3.087,0,0,1,2.651-2.09l11.771.1c1.586.013,2.37,1.923,2.334,3.191-.04,1.405-.925,3.194-2.677,3.2M49.014,66.864a1.226,1.226,0,0,0,.606-1.26c-.02-.266-.229-.863-.688-.862l-13.152.012c-.623,0-.794.825-.717,1.241a.964.964,0,0,0,.934.861ZM42.342,84.1l6.507-5.2-6.5-5.162L35.84,78.893Zm25.694-4.281c.812,0,.742-2.019-.026-2.021L56.717,77.76c-.528,0-.6.888-.554,1.214.038.28.166.919.671.916ZM42.348,101.667l6.493-5.225-6.5-5.156-6.5,5.138ZM67.913,97.5c.589,0,.68-.893.662-1.212s-.24-.945-.82-.944l-10.923.027c-.569,0-.7.805-.674,1.134.019.282.1.993.6.993ZM48.962,110.9a1.162,1.162,0,0,0,.66-1.185c0-.311-.207-1-.731-1l-13.1,0c-.618,0-.773.8-.744,1.2.026.36.211.957.79.958Z" transform="translate(-25.351 -48.325)" fill="#19538d"/>
        <path id="Trazado_1274372" data-name="Trazado 1274372" d="M49.552,35.431l-14.768.009a1.091,1.091,0,0,1-1.236-.984,1.043,1.043,0,0,1,.958-1.253L49.739,33.2a1.029,1.029,0,0,1,.993,1.042,1.1,1.1,0,0,1-1.18,1.192" transform="translate(-25.912 -25.644)" fill="#19538d"/>
        <path id="Trazado_1274373" data-name="Trazado 1274373" d="M227.97,55.354a6.376,6.376,0,0,1-6.448-4,6.556,6.556,0,0,1,1.895-7.54,6.36,6.36,0,0,1,7.657-.446,6.446,6.446,0,0,1,2.778,7.094,6.749,6.749,0,0,1-5.882,4.891M226.87,44.7a4.274,4.274,0,0,0-3.519,5.093,4.293,4.293,0,0,0,8.437-1.587A4.222,4.222,0,0,0,226.87,44.7" transform="translate(-170.743 -32.676)" fill="#19538d"/>
      </g>
    </g>
  </g>
</svg>
