<svg xmlns="http://www.w3.org/2000/svg" xmlns:xlink="http://www.w3.org/1999/xlink" width="500" height="263" viewBox="0 0 500 263">
  <defs>
    <clipPath id="clip-path">
      <rect id="Rectángulo_464276" data-name="Rectángulo 464276" width="320.541" height="262.731" fill="none"/>
    </clipPath>
  </defs>
  <g id="Grupo_1211428" data-name="Grupo 1211428" transform="translate(-914 -4003)">
    <rect id="Rectángulo_460757" data-name="Rectángulo 460757" width="500" height="263" transform="translate(914 4003)" fill="none"/>
    <g id="Grupo_1211427" data-name="Grupo 1211427" transform="translate(989.459 4003)">
      <g id="Grupo_1211426" data-name="Grupo 1211426" clip-path="url(#clip-path)">
        <path id="Trazado_1273672" data-name="Trazado 1273672" d="M72.627,91.634a87.132,87.132,0,0,0,61.591-39.054c15.829-24.538,46.17-51.154,102.653-47.135C338.816,12.7,355.883,180.473,241.7,241.235S-3.991,227.126.093,152.561C2.418,110.1,40.375,95.948,72.627,91.634" transform="translate(0 -0.783)" fill="#ffe2bc"/>
        <path id="Trazado_1273673" data-name="Trazado 1273673" d="M2.67,197.164c7.41,28.059,32.548,54.349,66.909,71.309l216.639-38.29,0,0a147.1,147.1,0,0,0,32.375-68.867Z" transform="translate(-0.415 -25.051)" fill="#ffb758"/>
        <path id="Trazado_1273674" data-name="Trazado 1273674" d="M82.527,281.318l215.894-38.659c.283-.334.558-.672.838-1.008L81.253,280.688c.424.211.847.422,1.274.63" transform="translate(-12.618 -37.526)" fill="#8b9295"/>
        <path id="Trazado_1273675" data-name="Trazado 1273675" d="M103.152,44.565,90.605,39.012V35.027l12.546-5.553v4.5l-7.4,3.034,7.4,3.06Z" transform="translate(-14.07 -4.577)" fill="#c4c4c4"/>
        <path id="Trazado_1273676" data-name="Trazado 1273676" d="M106.98,44.759,113,27.74h4.962l-6.015,17.019Z" transform="translate(-16.613 -4.308)" fill="#c4c4c4"/>
        <path id="Trazado_1273677" data-name="Trazado 1273677" d="M121.5,44.565v-4.5l7.4-3.06-7.4-3.034v-4.5l12.546,5.553v3.985Z" transform="translate(-18.867 -4.577)" fill="#c4c4c4"/>
        <path id="Trazado_1273678" data-name="Trazado 1273678" d="M321.594,77.884a8.347,8.347,0,0,1-5.932-1.83,7,7,0,0,1-2.1-5.355,7.276,7.276,0,0,1,1.927-5.524q1.968-1.939,5.908-1.986a12.6,12.6,0,0,1,2.37.171,12.356,12.356,0,0,1,2,.529l.044,3.63a9.97,9.97,0,0,0-4.083-.792,4.228,4.228,0,0,0-2.977.955,3.9,3.9,0,0,0-.938,2.967,3.574,3.574,0,0,0,1.063,2.854,4.48,4.48,0,0,0,2.988.838,10.705,10.705,0,0,0,2.068-.224,10.236,10.236,0,0,0,2-.645l.044,3.653a13.18,13.18,0,0,1-2,.543,13.665,13.665,0,0,1-2.377.216" transform="translate(-48.693 -9.812)" fill="#c4c4c4"/>
        <path id="Trazado_1273679" data-name="Trazado 1273679" d="M332.4,76.222l-.032-2.657-2.876.035-.039-3.187,2.876-.035L332.3,67.7l3.21-.039.032,2.679,2.877-.035.039,3.188-2.877.035.032,2.656Z" transform="translate(-51.161 -10.507)" fill="#c4c4c4"/>
        <path id="Trazado_1273680" data-name="Trazado 1273680" d="M344.324,76.078l-.032-2.657-2.877.035-.039-3.187,2.877-.035-.032-2.679,3.209-.039.032,2.679,2.877-.035.039,3.188-2.877.035.032,2.656Z" transform="translate(-53.013 -10.485)" fill="#c4c4c4"/>
        <path id="Trazado_1273681" data-name="Trazado 1273681" d="M53,180.255l-2.732-.868a2.535,2.535,0,0,1-1.767-2.416V71.615a2.534,2.534,0,0,1,2.428-2.532L173.4,63.932a24.7,24.7,0,0,1,5.942.468l4.459,1.56L71.918,173.317Z" transform="translate(-7.532 -9.925)" fill="#263238"/>
        <path id="Trazado_1273682" data-name="Trazado 1273682" d="M63.419,204.589v2.7a2.534,2.534,0,0,0,1.322,2.226L84.9,220.494a2.533,2.533,0,0,0,1.552.286L181.744,207.9a1.689,1.689,0,0,0,1.464-1.674v-2.454L156.317,193.12Z" transform="translate(-9.848 -29.99)" fill="#455a64"/>
        <path id="Trazado_1273683" data-name="Trazado 1273683" d="M108.52,205.736l-3.754-1.527V190.388h5.119Z" transform="translate(-16.269 -29.566)" fill="#263238"/>
        <path id="Trazado_1273684" data-name="Trazado 1273684" d="M156.306,179.682l-47.1,4.948v19.444l47.1-5.794Z" transform="translate(-16.96 -27.903)" fill="#37474f"/>
        <path id="Trazado_1273685" data-name="Trazado 1273685" d="M183.821,165.06,53.828,180.584V74a2.535,2.535,0,0,1,2.426-2.532l127.158-5.437a2.534,2.534,0,0,1,2.642,2.532v93.981a2.535,2.535,0,0,1-2.233,2.516" transform="translate(-8.359 -10.254)" fill="#455a64"/>
        <path id="Trazado_1273686" data-name="Trazado 1273686" d="M63.409,165.389l117.419-12.311a1.958,1.958,0,0,0,1.754-1.948V75.668a1.959,1.959,0,0,0-2.055-1.956L63.108,79.533a1.958,1.958,0,0,0-1.861,1.955v81.953a1.958,1.958,0,0,0,2.162,1.948" transform="translate(-9.511 -11.446)" fill="#fafafa"/>
        <path id="Trazado_1273687" data-name="Trazado 1273687" d="M145.822,75.749l-82.715,4.1a1.958,1.958,0,0,0-1.862,1.956v81.953a1.959,1.959,0,0,0,2.163,1.948l82.413-8.641Z" transform="translate(-9.511 -11.763)" fill="#e0e0e0"/>
        <path id="Trazado_1273688" data-name="Trazado 1273688" d="M72.995,105.616l-.048-2.53,31.826-2.2.048,2.53Z" transform="translate(-11.328 -15.667)" fill="#ffb758"/>
        <path id="Trazado_1273689" data-name="Trazado 1273689" d="M78.375,110.913l-.048-2.531,31.826-2.2.048,2.53Z" transform="translate(-12.163 -16.489)" fill="#455a64"/>
        <path id="Trazado_1273690" data-name="Trazado 1273690" d="M78.807,116.765l-.048-2.53,27.1-1.8.048,2.53Z" transform="translate(-12.231 -17.461)" fill="#455a64"/>
        <path id="Trazado_1273691" data-name="Trazado 1273691" d="M73.318,122.581l-.048-2.53,31.826-2.2.048,2.53Z" transform="translate(-11.378 -18.301)" fill="#ffb758"/>
        <path id="Trazado_1273692" data-name="Trazado 1273692" d="M79.854,127.727l-.048-2.531,31.826-2.2.048,2.53Z" transform="translate(-12.393 -19.1)" fill="#455a64"/>
        <path id="Trazado_1273693" data-name="Trazado 1273693" d="M86.779,133.1l-.048-2.531,23.956-1.656.049,2.531Z" transform="translate(-13.469 -20.018)" fill="#455a64"/>
        <path id="Trazado_1273694" data-name="Trazado 1273694" d="M87.27,138.664l-.048-2.531,20.313-1.382.048,2.53Z" transform="translate(-13.545 -20.926)" fill="#455a64"/>
        <path id="Trazado_1273695" data-name="Trazado 1273695" d="M87.381,144.327l-.048-2.531,31.826-2.2.048,2.53Z" transform="translate(-13.562 -21.678)" fill="#455a64"/>
        <path id="Trazado_1273696" data-name="Trazado 1273696" d="M80.277,149.9l-.048-2.53,31.826-2.2.048,2.53Z" transform="translate(-12.459 -22.543)" fill="#455a64"/>
        <path id="Trazado_1273697" data-name="Trazado 1273697" d="M73.965,156.425l-.048-2.53,31.817-2.67.048,2.531Z" transform="translate(-11.479 -23.484)" fill="#ffb758"/>
        <path id="Trazado_1273698" data-name="Trazado 1273698" d="M65.985,80.671l-.174-.226-2.7.134a1.958,1.958,0,0,0-1.862,1.956v81.953a1.958,1.958,0,0,0,2.162,1.948l2.576-.27Z" transform="translate(-9.511 -12.492)" fill="#b5b8b9"/>
        <path id="Trazado_1273699" data-name="Trazado 1273699" d="M182.583,79.737V75.5a1.958,1.958,0,0,0-2.055-1.955L63.108,79.363a1.958,1.958,0,0,0-1.861,1.956v4Z" transform="translate(-9.511 -11.42)" fill="#68eae0"/>
        <path id="Trazado_1273700" data-name="Trazado 1273700" d="M168.1,147.363l27.4-2.465V90.242L168.1,91.7Z" transform="translate(-26.105 -14.014)" fill="#5af6ea"/>
        <path id="Trazado_1273701" data-name="Trazado 1273701" d="M63.419,206.547v2.7a2.534,2.534,0,0,0,1.322,2.226L84.9,222.453a2.533,2.533,0,0,0,1.552.286l95.291-12.878a1.689,1.689,0,0,0,1.464-1.674v-2.454l-97.272,13.2Z" transform="translate(-9.848 -31.948)" fill="#263238"/>
        <path id="Trazado_1273702" data-name="Trazado 1273702" d="M87.565,234.493v3.127a2.742,2.742,0,0,0,1.259,2.306l18.2,11.7a4.222,4.222,0,0,0,3,.609l112.125-19.37a2.535,2.535,0,0,0,2.1-2.5v-2.057l-27.824-10.512Z" transform="translate(-13.598 -33.821)" fill="#455a64"/>
        <path id="Trazado_1273703" data-name="Trazado 1273703" d="M110.023,254.163l112.125-19.37a2.534,2.534,0,0,0,2.1-2.5v-2.057L110.107,249.372a4.225,4.225,0,0,1-2.951-.593l-19.59-12.353v3.328a2.374,2.374,0,0,0,1.09,2l18.365,11.8a4.224,4.224,0,0,0,3,.609" transform="translate(-13.598 -35.754)" fill="#263238"/>
        <path id="Trazado_1273704" data-name="Trazado 1273704" d="M46.288,240.8H3.488a3.379,3.379,0,0,1-3.379-3.379v-20.5a3.378,3.378,0,0,1,3.379-3.379h42.8a3.378,3.378,0,0,1,3.379,3.379v20.5a3.379,3.379,0,0,1-3.379,3.379" transform="translate(-0.017 -33.161)" fill="#68c6ea"/>
        <path id="Trazado_1273705" data-name="Trazado 1273705" d="M14.326,232.9v-9.186h4.736a3.515,3.515,0,0,1,1.862.449,2.772,2.772,0,0,1,1.091,1.22,4.03,4.03,0,0,1,.356,1.711,3.528,3.528,0,0,1-.414,1.726A2.979,2.979,0,0,1,20.788,230a3.567,3.567,0,0,1-1.783.427h-2V232.9Zm2.682-4.523h1.384a1.167,1.167,0,0,0,.934-.356,1.371,1.371,0,0,0,.307-.927,1.51,1.51,0,0,0-.285-.97,1.067,1.067,0,0,0-.884-.356H17.008Z" transform="translate(-2.225 -34.74)" fill="#4188c9"/>
        <path id="Trazado_1273706" data-name="Trazado 1273706" d="M24.694,232.895v-9.186h2.682v3.424h3.167v-3.424h2.682v9.186H30.543v-3.424H27.376v3.424Z" transform="translate(-3.835 -34.74)" fill="#4188c9"/>
        <path id="Trazado_1273707" data-name="Trazado 1273707" d="M36.312,232.9v-9.186h4.736a3.515,3.515,0,0,1,1.862.449A2.772,2.772,0,0,1,44,225.377a4.03,4.03,0,0,1,.356,1.711,3.528,3.528,0,0,1-.414,1.726A2.979,2.979,0,0,1,42.774,230a3.567,3.567,0,0,1-1.783.427h-2V232.9Zm2.682-4.523h1.384a1.167,1.167,0,0,0,.934-.356,1.371,1.371,0,0,0,.307-.927,1.51,1.51,0,0,0-.285-.97,1.067,1.067,0,0,0-.884-.356H38.994Z" transform="translate(-5.639 -34.74)" fill="#4188c9"/>
        <path id="Trazado_1273708" data-name="Trazado 1273708" d="M354.185,148.446H308.076a3.379,3.379,0,0,1-3.379-3.379v-17.41a3.379,3.379,0,0,1,3.379-3.379h46.109a3.379,3.379,0,0,1,3.379,3.379v17.41a3.379,3.379,0,0,1-3.379,3.379" transform="translate(-47.317 -19.299)" fill="#68c6ea"/>
        <path id="Trazado_1273709" data-name="Trazado 1273709" d="M316.78,142.8v-8.756h2.556v3.263h3.019v-3.263h2.555V142.8h-2.555v-3.263h-3.019V142.8Z" transform="translate(-49.193 -20.816)" fill="#4188c9"/>
        <path id="Trazado_1273710" data-name="Trazado 1273710" d="M329.671,142.8v-6.853H327.21v-1.9h7.478v1.9h-2.461V142.8Z" transform="translate(-50.813 -20.816)" fill="#4188c9"/>
        <path id="Trazado_1273711" data-name="Trazado 1273711" d="M336.868,142.8v-8.756h2.488l2.176,4.446,2.162-4.446h2.475V142.8h-2.557v-4.378l-1.4,2.882h-1.373l-1.414-2.882V142.8Z" transform="translate(-52.313 -20.816)" fill="#4188c9"/>
        <path id="Trazado_1273712" data-name="Trazado 1273712" d="M349.327,142.8v-8.756h2.556v6.8h3.943V142.8Z" transform="translate(-54.247 -20.816)" fill="#4188c9"/>
        <path id="Trazado_1273713" data-name="Trazado 1273713" d="M230.529,24.168H195.1a3.379,3.379,0,0,1-3.379-3.379V3.379A3.379,3.379,0,0,1,195.1,0h35.431a3.379,3.379,0,0,1,3.379,3.379v17.41a3.379,3.379,0,0,1-3.379,3.379" transform="translate(-29.772)" fill="#68c6ea"/>
        <path id="Trazado_1273714" data-name="Trazado 1273714" d="M210.829,18.293a7.589,7.589,0,0,1-1.088-.075,5.463,5.463,0,0,1-.993-.238V15.86a3.344,3.344,0,0,0,.734.2,4.939,4.939,0,0,0,.816.068,1.491,1.491,0,0,0,1.048-.3,1.334,1.334,0,0,0,.312-.993V9.4h2.557v5.846a2.911,2.911,0,0,1-.864,2.237,3.555,3.555,0,0,1-2.521.809" transform="translate(-32.417 -1.46)" fill="#4188c9"/>
        <path id="Trazado_1273715" data-name="Trazado 1273715" d="M219.407,18.268a9.431,9.431,0,0,1-1.673-.143,5.582,5.582,0,0,1-1.346-.4V15.617a7.019,7.019,0,0,0,1.36.462,6.084,6.084,0,0,0,1.4.177,3.45,3.45,0,0,0,1.027-.116.493.493,0,0,0,.346-.524.552.552,0,0,0-.2-.449,1.9,1.9,0,0,0-.612-.3q-.414-.136-1.08-.34a5.874,5.874,0,0,1-1.4-.625,1.988,1.988,0,0,1-.741-.83,2.86,2.86,0,0,1-.225-1.2,2.287,2.287,0,0,1,.918-1.966,4.588,4.588,0,0,1,2.726-.672,9.41,9.41,0,0,1,1.488.122,9.1,9.1,0,0,1,1.245.271v2.122a6.427,6.427,0,0,0-1.224-.367,6.035,6.035,0,0,0-1.1-.109,4.694,4.694,0,0,0-1.02.1.469.469,0,0,0-.422.489.519.519,0,0,0,.361.5,10.364,10.364,0,0,0,1.284.4,5.03,5.03,0,0,1,1.639.694,2.1,2.1,0,0,1,.769.944,3.412,3.412,0,0,1,.2,1.217,2.328,2.328,0,0,1-.925,1.924,4.487,4.487,0,0,1-2.8.727" transform="translate(-33.584 -1.435)" fill="#4188c9"/>
        <path id="Trazado_1273716" data-name="Trazado 1273716" d="M219.3,108.91s-4.594.49-5.361-4.924-2.872-6.946-5.169-10.009,0-6.892,0-6.892-5.744-.766-5.17-6.7,4.4-6.318,4.4-6.318-3.255-8.615,5.361-8.806c0,0-2.106-6.318,1.914-10.148s6.127-4.212,6.127-4.212-3.255-4.594,0-7.083,2.68,4.786,8.233,2.106,16.082-7.466,18.378.765c0,0,9.573-3.255,12.062,5.361,0,0,13.21-4.978,16.082,5.361,0,0,11.678,4.212,9,16.656,0,0,5.743,3.446,5.552,12.062s-6.7,11.678-6.7,11.678,4.02,10.319-4.02,13.976c0,0-.347,9.924-9.65,6.206s-42.616-9.844-42.616-9.844Z" transform="translate(-31.611 -6.536)" fill="#263238"/>
        <path id="Trazado_1273717" data-name="Trazado 1273717" d="M248.469,73.412a8.522,8.522,0,0,0-.293-7.545c-2.124-4.1-7.325-2.637-9.01,0s-3.68,6.337-3.68,6.337v.329l3.46,2.2Z" transform="translate(-36.569 -9.832)" fill="#1d272b"/>
        <path id="Trazado_1273718" data-name="Trazado 1273718" d="M252.558,56.686a11.213,11.213,0,0,0,.064-4.881,15.586,15.586,0,0,1-.7,4.723,34.879,34.879,0,0,1-1.592,4.25,19.3,19.3,0,0,0-.023-4.748,10.627,10.627,0,0,0-2.9-5.736,9.236,9.236,0,0,0-5.969-2.389A14.165,14.165,0,0,0,235.1,48.93a10.823,10.823,0,0,0-4.749,4.316c-1.165,1.773-2.013,3.729-3.453,5.087a5.245,5.245,0,0,1-2.55,1.324,13.966,13.966,0,0,0-3.087.907,6.887,6.887,0,0,0-2.5,2.091,4.462,4.462,0,0,0-.863,3.032,4.481,4.481,0,0,1,1.21-2.752,6.328,6.328,0,0,1,2.5-1.595,12.923,12.923,0,0,1,2.917-.857,6.382,6.382,0,0,0,1.581-.556,6.754,6.754,0,0,0,1.365-.973c1.623-1.55,2.456-3.546,3.588-5.247a9.977,9.977,0,0,1,4.383-4,13.377,13.377,0,0,1,5.942-.954,8.394,8.394,0,0,1,5.435,2.157,9.816,9.816,0,0,1,2.655,5.29,19.575,19.575,0,0,1,.6,5.132c-.592,1.31-1.248,2.595-1.937,3.863a22,22,0,0,0-.126-5.2,8.583,8.583,0,0,0-2.7-5.478,5.435,5.435,0,0,0-2.921-1.249,8.506,8.506,0,0,0-3.105.257,9.666,9.666,0,0,0-5.267,3.109,33.78,33.78,0,0,0-3.275,5.065,12.433,12.433,0,0,1-1.718,2.312,6.847,6.847,0,0,1-2.308,1.558c-1.828.726-3.734,1.218-5.649,1.916a5.345,5.345,0,0,0-2.621,1.8,5.886,5.886,0,0,0-.935,2.765,8.051,8.051,0,0,0-3.437,2.5,7.488,7.488,0,0,0-1.559,4.238,9.419,9.419,0,0,0,.912,4.353,7.322,7.322,0,0,0,2.93,3.2,7.455,7.455,0,0,1-2.5-3.386,9.5,9.5,0,0,1-.481-4.119,6.429,6.429,0,0,1,1.362-3.764,7.284,7.284,0,0,1,3.278-2.322l.27-.094.03-.267a5.428,5.428,0,0,1,.818-2.61,4.537,4.537,0,0,1,2.238-1.5c1.822-.666,3.782-1.175,5.653-1.917a7.7,7.7,0,0,0,2.6-1.753,13.239,13.239,0,0,0,1.836-2.463,33.259,33.259,0,0,1,3.187-4.946,8.8,8.8,0,0,1,4.828-2.847,5.712,5.712,0,0,1,5.289.819,6.151,6.151,0,0,1,1.637,2.24,16.4,16.4,0,0,1,.981,2.718,23.662,23.662,0,0,1,.661,5.239c-.377.676-.758,1.351-1.166,2.009a8.013,8.013,0,0,1-1.422,1.923,2.917,2.917,0,0,0,.95-.764c.282-.3.547-.607.81-.92q.767-.954,1.434-1.979a31.215,31.215,0,0,0,2.351-4.288,23.442,23.442,0,0,0,1.551-4.655" transform="translate(-33.001 -7.437)" fill="#344a51"/>
        <path id="Trazado_1273719" data-name="Trazado 1273719" d="M276.337,87.531a6.469,6.469,0,0,1-1.667-2.06,10.519,10.519,0,0,1-.709-2.632c-.284-1.845-.373-3.745-.546-5.645a27.276,27.276,0,0,0-.974-5.7,9.784,9.784,0,0,0-1.277-2.682,6.057,6.057,0,0,0-2.29-1.961l-.666-.335-.7-.253a9.847,9.847,0,0,0-1.447-.37,10.729,10.729,0,0,0-2.97,0,12.256,12.256,0,0,0-5.162,2.572,12.9,12.9,0,0,1,5.289-1.731,9.849,9.849,0,0,1,2.712-.008,9.03,9.03,0,0,1,1.31.336l.639.227.607.308a6.411,6.411,0,0,1,3.155,4.148,26.553,26.553,0,0,1,.938,5.519c.172,1.884.258,3.788.552,5.7a11.273,11.273,0,0,0,.776,2.853,7.269,7.269,0,0,0,1.88,2.345c1.476,1.308,3.288,2.108,4.45,3.438a3.51,3.51,0,0,1,1.06,2.333,8.161,8.161,0,0,1-.42,2.761,7.476,7.476,0,0,0,.862-2.759,4.171,4.171,0,0,0-.858-2.881c-1.377-1.542-3.181-2.3-4.54-3.529" transform="translate(-40.054 -10.217)" fill="#344a51"/>
        <path id="Trazado_1273720" data-name="Trazado 1273720" d="M284.271,81.606c-1.051-.9-2.14-1.744-3.2-2.6l-.777-.647a3.694,3.694,0,0,1-.59-.7,7.334,7.334,0,0,1-.8-1.765c-.8-2.548-1.092-5.31-1.754-8a21.6,21.6,0,0,0-1.31-3.98,9.6,9.6,0,0,0-2.525-3.436,7.584,7.584,0,0,0-3.937-1.688,5.2,5.2,0,0,0-1.073-.1,6.243,6.243,0,0,0-1.081.028,7.644,7.644,0,0,0-2.08.558,10.407,10.407,0,0,0-3.428,2.433A13.362,13.362,0,0,0,259.34,65.1a12.161,12.161,0,0,1,6.056-5.132,8.72,8.72,0,0,1,3.853-.338,6.739,6.739,0,0,1,3.52,1.5c2.012,1.68,2.925,4.364,3.554,6.965.652,2.636.928,5.372,1.773,8.066a8.129,8.129,0,0,0,.9,1.966,4.57,4.57,0,0,0,.738.866l.8.668c1.074.866,2.153,1.7,3.185,2.587a19.193,19.193,0,0,1,5.142,6.109,8.537,8.537,0,0,1,.883,3.8,11.717,11.717,0,0,1-.718,3.883,10.287,10.287,0,0,1-1.906,3.427,7.224,7.224,0,0,1-1.471,1.246,4.84,4.84,0,0,1-1.721.679l-.813.125.551.592a12.179,12.179,0,0,1,1.592,2.318,7.067,7.067,0,0,1,.816,2.69,5.272,5.272,0,0,1-.473,2.789,7.235,7.235,0,0,1-.7,1.275c-.274.4-.621.758-.932,1.143.345-.351.73-.672,1.047-1.054a6.8,6.8,0,0,0,.844-1.24,6.664,6.664,0,0,0,.57-1.409,6.881,6.881,0,0,0,.177-1.524,7.712,7.712,0,0,0-.644-3,8.111,8.111,0,0,0-1.23-2.041,6.974,6.974,0,0,0,3.02-2.026,11.12,11.12,0,0,0,2.073-3.713,12.534,12.534,0,0,0,.764-4.165A9.392,9.392,0,0,0,289.63,88a19.985,19.985,0,0,0-5.359-6.394" transform="translate(-40.273 -9.114)" fill="#344a51"/>
        <path id="Trazado_1273721" data-name="Trazado 1273721" d="M296.263,86.566a11.976,11.976,0,0,0-.788-3.354,8.955,8.955,0,0,0-1.938-2.906,7.937,7.937,0,0,0-2.677-1.76c.032-.5.074-.994.058-1.493a11.238,11.238,0,0,0-.184-1.812,9.716,9.716,0,0,0-1.265-3.4,10.706,10.706,0,0,0-5.38-4.544,12.418,12.418,0,0,1,2.772,2.111,10.454,10.454,0,0,1,2.034,2.753,9.969,9.969,0,0,1,1.046,3.215,10.744,10.744,0,0,1,.15,1.689c.015.566-.067,1.134-.087,1.7l-.013.352.319.1a7.354,7.354,0,0,1,2.677,1.653,9.284,9.284,0,0,1,1.9,2.6,11.785,11.785,0,0,1,.969,3.142c.1.546.138,1.1.211,1.66.01.558.025,1.12.05,1.687.064-.559.126-1.123.17-1.689-.011-.566.017-1.139-.028-1.708" transform="translate(-44.117 -10.451)" fill="#344a51"/>
        <path id="Trazado_1273722" data-name="Trazado 1273722" d="M276.1,159.528l.007,0-.044-.242c-.009-.041-.016-.084-.024-.125l-4.981-26.6-3.172-2L244.9,144.3l2.711,19.143c.038.419.1.83.175,1.237l.034.231h0a14.4,14.4,0,0,0,28.283-5.382" transform="translate(-38.031 -20.274)" fill="#6f4c47"/>
        <path id="Trazado_1273723" data-name="Trazado 1273723" d="M267.375,110.12a7.5,7.5,0,0,0-1.569.169c-3.12-1.8-1.438-8.724-.234-12.5a3.863,3.863,0,0,0-1.005-3.972c-5.756-5.483-.182-11.741-2.847-17.235-2.908-6-15.266-3.454-15.266-3.454a65.527,65.527,0,0,0-11.621-.121,3.827,3.827,0,0,0-2.468,1.085,5.648,5.648,0,0,1-5.457,1.579,1.46,1.46,0,0,0-1.74,1.5c.151,5.915-2.342,6.5-2.342,6.5-3.09,15.812-3.845,36.878-3.845,36.878h0c-.056.643-.09,1.293-.09,1.951a22.356,22.356,0,0,0,44.035,5.458h0l.006-.031c.166-.665.3-1.34.41-2.026l.378-1.868a7.437,7.437,0,1,0,3.653-13.913" transform="translate(-33.992 -11.273)" fill="#a56963"/>
        <path id="Trazado_1273724" data-name="Trazado 1273724" d="M138.224,237.6s3.019,4.591,5.283,2.641-6.415-9.434-6.415-9.434l-3.019.44-.628,3.271Z" transform="translate(-20.723 -35.843)" fill="#6f4c47"/>
        <path id="Trazado_1273725" data-name="Trazado 1273725" d="M164.853,232.027a14.417,14.417,0,0,1-7.428-6.189c-3.1-4.951-8.661-13.349-12.374-15.825s-14.038,5.356-12.877,7.531c1.4,2.63,9.845-3.434,9.845-3.434l4.39,4.177s-3.962-1.486-5.2,1.237c0,0-3.961-.495-5.2,2.352,0,0-2.177-.867-3.874,1.609s-4.171,7.179-3.43,9.16,6.438,2.6,8.789,5.322,3.466-.124,1.857-2.848a11.3,11.3,0,0,0-4.4-4.036l.542-.935s7.818,11.037,15.617,11.532,13.739.743,13.739.743Z" transform="translate(-19.966 -32.539)" fill="#a56963"/>
        <path id="Trazado_1273726" data-name="Trazado 1273726" d="M141.909,228.151A30.758,30.758,0,0,0,139.4,226.2a15.048,15.048,0,0,0-2.706-1.542,3.063,3.063,0,0,0-2.755-.116,4.963,4.963,0,0,0-1.974,2.124l-.021.041a48.149,48.149,0,0,0-2.792,4.884,17.8,17.8,0,0,1,.944-2.685,27.228,27.228,0,0,1,1.281-2.549l-.021.041a5.256,5.256,0,0,1,2.239-2.533,3.658,3.658,0,0,1,3.383.155,12.05,12.05,0,0,1,2.712,1.809,16.279,16.279,0,0,1,2.223,2.324" transform="translate(-20.056 -34.71)" fill="#6f4c47"/>
        <path id="Trazado_1273727" data-name="Trazado 1273727" d="M137.38,223.644a3.861,3.861,0,0,1,2.144-2.274,5.767,5.767,0,0,1,1.57-.436,4.181,4.181,0,0,1,1.659.185,8.888,8.888,0,0,1,2.782,1.519,12.279,12.279,0,0,1,2.209,2.187c-.841-.6-1.677-1.184-2.538-1.711a11.776,11.776,0,0,0-2.669-1.268,3.9,3.9,0,0,0-1.373-.176,6.608,6.608,0,0,0-1.408.283,4.79,4.79,0,0,0-2.376,1.69" transform="translate(-21.334 -34.306)" fill="#6f4c47"/>
        <path id="Trazado_1273728" data-name="Trazado 1273728" d="M143.534,221a2.768,2.768,0,0,1,2.113-1.883,5.043,5.043,0,0,1,1.483-.094,4.865,4.865,0,0,1,1.442.386,8.1,8.1,0,0,1,2.382,1.6,10.4,10.4,0,0,1,1.8,2.169c-.709-.612-1.417-1.2-2.155-1.733a11.107,11.107,0,0,0-2.31-1.342,5.381,5.381,0,0,0-1.232-.34,6.076,6.076,0,0,0-1.287-.011A3.172,3.172,0,0,0,143.534,221" transform="translate(-22.29 -34.009)" fill="#6f4c47"/>
        <path id="Trazado_1273729" data-name="Trazado 1273729" d="M135.692,232.352c1.216,1.343,2.345,2.7,3.517,4.039,1.151,1.353,2.353,2.641,3.523,4.029a17.029,17.029,0,0,1-4.1-3.527,20.847,20.847,0,0,1-1.64-2.158,13.832,13.832,0,0,1-1.3-2.382" transform="translate(-21.072 -36.082)" fill="#6f4c47"/>
        <path id="Trazado_1273730" data-name="Trazado 1273730" d="M136.888,234.1l-1.466,1.684.811-2.081Z" transform="translate(-21.03 -36.292)" fill="#6f4c47"/>
        <path id="Trazado_1273731" data-name="Trazado 1273731" d="M201,227.108a7.16,7.16,0,0,0,4.182-.111,28.179,28.179,0,0,0,5.561-3.171l-3.664-.875Z" transform="translate(-31.213 -34.622)" fill="#8e514f"/>
        <path id="Trazado_1273732" data-name="Trazado 1273732" d="M216.38,226.428a21.079,21.079,0,0,0-8.768,2.6c-4.166,2.431-6.25,4.729-7.031,2.712s5.122-5.865,5.122-5.865l1.595-1.852a.387.387,0,0,0-.345-.636l-2.088.453s-7.762,4.66-10.25,3.343c0,0-4.191,2.887-6.1,1.759s5.99-7.031,9.462-8.42,8.688-.824,18.4-2.517Z" transform="translate(-29.229 -33.855)" fill="#a56963"/>
        <path id="Trazado_1273733" data-name="Trazado 1273733" d="M188.231,229.521a1.574,1.574,0,0,0,1.248.629,3.3,3.3,0,0,0,1.376-.34c.875-.422,1.746-.938,2.611-1.426l5.209-2.966.062-.035.062-.01c2.7-.421,5.415-.781,8.153-.993-2.657.693-5.339,1.238-8.031,1.722l.125-.045c-1.727,1.024-3.477,2-5.271,2.906a27.189,27.189,0,0,1-2.767,1.241,3.286,3.286,0,0,1-1.553.18,1.584,1.584,0,0,1-1.226-.862" transform="translate(-29.231 -34.844)" fill="#6f4c47"/>
        <path id="Trazado_1273734" data-name="Trazado 1273734" d="M283.664,169.745c-5.243-15.73-18.619-15-18.619-15s-4.922-3.58-14.645-.8c-8.947,2.556-15.116,11.244-15.116,11.244s-13.732,4.555-17.766,15.647-10.082,45.778-10.082,45.778l-37.308-3.63-3.025,12.1S188.479,245.168,219.737,249l-4.306,33.873a189.4,189.4,0,0,0,52.216-18.678,152.651,152.651,0,0,0,28.431-19.466l-12.818-24.567s5.647-34.686.4-50.416" transform="translate(-25.95 -23.742)" fill="#68eae0"/>
        <path id="Trazado_1273735" data-name="Trazado 1273735" d="M227.308,266.394l-.017-.006v0l.018,0" transform="translate(-35.296 -41.368)" fill="#bc4b42"/>
        <path id="Trazado_1273736" data-name="Trazado 1273736" d="M240.384,261.754c1.64-4.01,2.761-46.534,2.761-46.534s-5.917,32.7-7.464,39.211c-1.035,4.354-4.372,4.677-6.47,4.414l-.973,8.415c3.774.06,9.894,0,12.145-5.506" transform="translate(-35.444 -33.422)" fill="#4bb6c4"/>
        <path id="Trazado_1273737" data-name="Trazado 1273737" d="M247.819,165.532a57.1,57.1,0,0,1,14.085-7.5,52.481,52.481,0,0,1,7.71-2.2,36.913,36.913,0,0,1,7.966-.735c-2.627.46-5.2,1-7.739,1.7-2.526.727-5.041,1.491-7.5,2.43-2.469.906-4.9,1.911-7.322,2.964-2.408,1.075-4.817,2.168-7.2,3.352" transform="translate(-38.484 -24.083)" fill="#0f654d"/>
        <path id="Trazado_1273738" data-name="Trazado 1273738" d="M239.107,196.808c-.182,4.023-.5,8.04-.883,12.051-.429,4.006-.915,8.008-1.5,12-1.159,7.978-2.7,15.9-4.421,23.773q-.677,2.947-1.409,5.881c-.132.5-.225.955-.387,1.49a6.051,6.051,0,0,1-.686,1.513,6.247,6.247,0,0,1-5.618,2.936c-.57-.038-1.047-.124-1.55-.2l-1.5-.228q-2.99-.454-5.961-1.01a162.333,162.333,0,0,1-23.48-5.693c3.881,1.074,7.808,1.939,11.76,2.677,3.944.774,7.907,1.45,11.881,2.055l5.962.888,1.491.213c.493.067,1.011.149,1.444.171a5.094,5.094,0,0,0,4.561-2.435,4.869,4.869,0,0,0,.543-1.232c.129-.428.238-.96.357-1.435.47-1.953.915-3.912,1.351-5.872,1.821-7.828,3.337-15.723,4.7-23.645.7-3.958,1.289-7.935,1.844-11.918.592-3.979,1.03-7.977,1.5-11.977" transform="translate(-29.772 -30.563)" fill="#0f654d"/>
        <path id="Trazado_1273739" data-name="Trazado 1273739" d="M265.435,244.959c.857-.8,1.733-1.591,2.616-2.373.926-.726,1.826-1.5,2.787-2.184.985-.652,1.921-1.389,2.961-1.961l1.531-.908,1.588-.811a32.863,32.863,0,0,1,6.7-2.483,24.42,24.42,0,0,1,3.554-.6,15.719,15.719,0,0,1,3.681.026.6.6,0,0,1,.188,1.13l-.02.01q-4.07,2.012-8.174,3.956c-1.374.634-2.741,1.286-4.128,1.9s-2.76,1.249-4.159,1.836c1.3-.785,2.62-1.524,3.934-2.279s2.642-1.481,3.965-2.218q3.985-2.177,8.011-4.275l.167,1.141a14.837,14.837,0,0,0-3.344.024,28.982,28.982,0,0,0-3.384.569,37.285,37.285,0,0,0-6.529,2.262,52.811,52.811,0,0,0-6.149,3.277l-2.943,1.908c-.944.691-1.889,1.385-2.856,2.059" transform="translate(-41.22 -36.267)" fill="#0f654d"/>
        <path id="Trazado_1273740" data-name="Trazado 1273740" d="M233.65,175.715a9.429,9.429,0,0,1,4.885-1.475,6.48,6.48,0,0,1,2.6.525,6.192,6.192,0,0,1,2.147,1.6,10.036,10.036,0,0,1,2.1,4.748,19.627,19.627,0,0,1,.237,5.09,38.212,38.212,0,0,0-.879-4.943,10.8,10.8,0,0,0-2.091-4.34,5.837,5.837,0,0,0-4.137-2.026,11.816,11.816,0,0,0-4.861.818" transform="translate(-36.284 -27.058)" fill="#0f654d"/>
        <path id="Trazado_1273741" data-name="Trazado 1273741" d="M174.986,250.833l.8.3,3.261-14.39-.847-.082Z" transform="translate(-27.174 -36.751)" fill="#0f654d"/>
        <path id="Trazado_1273742" data-name="Trazado 1273742" d="M253.878,108.746a1.974,1.974,0,1,1-1.974-1.973,1.974,1.974,0,0,1,1.974,1.973" transform="translate(-38.812 -16.581)" fill="#263238"/>
        <path id="Trazado_1273743" data-name="Trazado 1273743" d="M230.672,104.544c0,1.194-.687,2.161-1.534,2.161s-1.533-.967-1.533-2.161.687-2.161,1.533-2.161,1.534.967,1.534,2.161" transform="translate(-35.345 -15.899)" fill="#263238"/>
        <path id="Trazado_1273744" data-name="Trazado 1273744" d="M238.958,134.163a4.5,4.5,0,1,0,3.531-5.022,4.346,4.346,0,0,0-3.531,5.022" transform="translate(-37.095 -20.038)" fill="#6f4c47"/>
        <path id="Trazado_1273745" data-name="Trazado 1273745" d="M248.947,102.057a3.272,3.272,0,0,1,1.273-2.52,3.94,3.94,0,0,1,2.892-.752,4.043,4.043,0,0,1,2.673,1.321,3.224,3.224,0,0,1,.747,2.723,4.6,4.6,0,0,0-1.437-2.015,4.3,4.3,0,0,0-2.12-.77,4.073,4.073,0,0,0-2.218.318,4.723,4.723,0,0,0-1.81,1.694" transform="translate(-38.659 -15.336)" fill="#263238"/>
        <path id="Trazado_1273746" data-name="Trazado 1273746" d="M226.481,97.989a3.261,3.261,0,0,1,.846-2.359,2.872,2.872,0,0,1,2.582-.829,3.54,3.54,0,0,1,1.294.493,3.025,3.025,0,0,1,.942,1,3.464,3.464,0,0,1,.389,2.469,6.169,6.169,0,0,0-1.107-1.953,2.821,2.821,0,0,0-1.7-.89,2.387,2.387,0,0,0-1.821.368,5.363,5.363,0,0,0-1.431,1.7" transform="translate(-35.17 -14.715)" fill="#263238"/>
        <path id="Trazado_1273747" data-name="Trazado 1273747" d="M236.172,95.418q-.948,3.868-1.981,7.687c-.671,2.553-1.372,5.094-1.967,7.648-.313,1.272-.59,2.553-.795,3.828a14.8,14.8,0,0,0-.22,1.895,5.041,5.041,0,0,0,.03.885,1.126,1.126,0,0,0,.271.669,4.228,4.228,0,0,0,3.229,1.265,16.893,16.893,0,0,0,3.91-.3,13.814,13.814,0,0,1-3.906.917,7.793,7.793,0,0,1-2.079-.145,3.585,3.585,0,0,1-1.923-1.118,2.182,2.182,0,0,1-.548-1.1,5.784,5.784,0,0,1-.095-1.09,16.008,16.008,0,0,1,.143-2.052c.178-1.341.453-2.65.75-3.95.63-2.59,1.39-5.135,2.257-7.642s1.829-4.98,2.924-7.4" transform="translate(-35.732 -14.818)" fill="#263238"/>
        <path id="Trazado_1273748" data-name="Trazado 1273748" d="M250.273,129.269a2.117,2.117,0,0,0-.454-1.139,2.8,2.8,0,0,0-.956-.8,3.226,3.226,0,0,0-1.181-.335,2.421,2.421,0,0,0-1.2.179c.672.311,1.257.542,1.812.821-.308.378-.609.757-.927,1.115l-.766.794-.372.4-.418.348c-.28.228-.55.465-.82.7l-.892.588a6.159,6.159,0,0,1-.922.523,5.414,5.414,0,0,1-.964.432,11.993,11.993,0,0,1-4.158.861,18.95,18.95,0,0,1-4.4-.409,10.388,10.388,0,0,0,9.027.726,9.841,9.841,0,0,0,3.83-2.719l.395-.432c.117-.155.226-.316.333-.479l.637-.967c.242-.446.447-.907.642-1.371a7.772,7.772,0,0,1,.847.5c.3.188.565.424.913.665" transform="translate(-36.284 -19.72)" fill="#263238"/>
        <path id="Trazado_1273749" data-name="Trazado 1273749" d="M250.448,92.06l10.708,1.309a.562.562,0,0,0,.585-.833A8.164,8.164,0,0,0,250.114,91.1a.552.552,0,0,0,.334.958" transform="translate(-38.812 -13.863)" fill="#263238"/>
        <path id="Trazado_1273750" data-name="Trazado 1273750" d="M226.777,86.978l7.676,2.31a.526.526,0,0,0,.673-.558c-.086-1.014-.725-2.8-3.967-3.707a4.2,4.2,0,0,0-4.636,1.118.522.522,0,0,0,.253.837" transform="translate(-35.158 -13.167)" fill="#263238"/>
        <path id="Trazado_1273751" data-name="Trazado 1273751" d="M275.481,119.975a5.59,5.59,0,0,1,3.924,1.407,4.02,4.02,0,0,1,1.11,1.914,6.139,6.139,0,0,1-.625,4.263,3.842,3.842,0,0,1-1.618,1.516,5.3,5.3,0,0,1-4.165.005,6.034,6.034,0,0,0,3.883-.529,4.952,4.952,0,0,0,.983-6.756,6.481,6.481,0,0,0-3.492-1.821" transform="translate(-42.566 -18.631)" fill="#6f4c47"/>
      </g>
    </g>
  </g>
</svg>
