<svg xmlns="http://www.w3.org/2000/svg" xmlns:xlink="http://www.w3.org/1999/xlink" width="128" height="128" viewBox="0 0 128 128">
  <defs>
    <clipPath id="clip-path">
      <rect id="Rectángulo_456267" data-name="Rectángulo 456267" width="128" height="128" fill="none"/>
    </clipPath>
    <clipPath id="clip-path-2">
      <rect id="Rectángulo_464466" data-name="Rectángulo 464466" width="63.57" height="61.618" fill="#19538d"/>
    </clipPath>
  </defs>
  <g id="Grupo_1211699" data-name="Grupo 1211699" transform="translate(511.746 8527) rotate(180)">
    <path id="Trazado_999622" data-name="Trazado 999622" d="M59.07,0A59.07,59.07,0,1,1,0,59.07,59.071,59.071,0,0,1,59.07,0" transform="translate(388.676 8403.93)" fill="#fff"/>
    <g id="Grupo_1179902" data-name="Grupo 1179902" transform="translate(383.746 8399)">
      <g id="Grupo_1179905" data-name="Grupo 1179905" clip-path="url(#clip-path)">
        <path id="Trazado_999618" data-name="Trazado 999618" d="M64,0A64,64,0,1,1,0,64,64,64,0,0,1,64,0" fill="none"/>
        <path id="Trazado_999619" data-name="Trazado 999619" d="M5,59a5,5,0,1,1-5,5,5,5,0,0,1,5-5" fill="#19538d"/>
        <path id="Trazado_999620" data-name="Trazado 999620" d="M21,19a5,5,0,1,1-5,5,5,5,0,0,1,5-5" fill="#19538d"/>
        <path id="Trazado_999621" data-name="Trazado 999621" d="M64,124A60.068,60.068,0,0,1,4,64H7A57,57,0,1,0,22.408,25.024L20.22,22.972A60,60,0,1,1,64,124" fill="#19538d"/>
        <rect id="Rectángulo_456268" data-name="Rectángulo 456268" width="128" height="128" fill="none"/>
        <rect id="Rectángulo_456269" data-name="Rectángulo 456269" width="128" height="128" fill="none"/>
      </g>
    </g>
    <g id="Grupo_1211792" data-name="Grupo 1211792" transform="translate(481.358 8496) rotate(180)">
      <g id="Grupo_1211791" data-name="Grupo 1211791" clip-path="url(#clip-path-2)">
        <path id="Trazado_1274389" data-name="Trazado 1274389" d="M21.35,49.093,17.8,52.5,9.711,60.4c-1.195,1.167-3.008,1.8-4.341.459L.9,56.364a3.09,3.09,0,0,1,.224-4.551l6.446-6.26,4.857-4.768a3.529,3.529,0,0,1,4.025-.7l5.488-5.231A22.613,22.613,0,1,1,57.524,38l4.664,8.107a5.447,5.447,0,0,1-.084,5.619A5.594,5.594,0,0,1,57.2,54.4l-19.867-.024a5.362,5.362,0,0,1-4.469-2.495,5.277,5.277,0,0,1-.306-5.556l1.289-2.221a23.934,23.934,0,0,1-6.882-3.7l-5.182,5.06c.282,1.189.63,2.6-.433,3.624M29.513,9.367a17.508,17.508,0,0,1,25.344,23.9l1.578,2.884a20.562,20.562,0,1,0-21.564,6.114l1.576-2.726A17.493,17.493,0,0,1,29.513,9.367M52,28.5l1.716,2.838A15.464,15.464,0,1,0,37.528,37.7l4.832-8.411a5.754,5.754,0,0,1,4.566-3.157A5.283,5.283,0,0,1,52,28.5m5.309,23.839a3.419,3.419,0,0,0,2.975-1.613,3.281,3.281,0,0,0,.23-3.379L50.331,29.694A3.38,3.38,0,0,0,46.956,28.2a3.685,3.685,0,0,0-2.792,2.09L34.443,47.175a3.411,3.411,0,0,0,.161,3.616,3.608,3.608,0,0,0,3.137,1.565ZM25.434,39.077a22.957,22.957,0,0,1-2.3-2.515L17.953,41.61l2.362,2.406Zm-17.6,20.26,5.111-4.931,6.778-6.543a1.139,1.139,0,0,0-.095-1.637L15.543,42.1a.947.947,0,0,0-1.429-.04l-6.23,6.059-5.6,5.47a.824.824,0,0,0,0,1.162l4.111,4.312c.336.352.983.722,1.445.276" transform="translate(0 0.001)" fill="#19538d"/>
        <path id="Trazado_1274390" data-name="Trazado 1274390" d="M223.781,169.329a2.312,2.312,0,0,1-2.026,2.34,2.1,2.1,0,0,1-2.371-1.838l-.36-8.6a2.272,2.272,0,0,1,2.435-2.309,2.311,2.311,0,0,1,2.587,2.329Zm-1.769-8.232a1.532,1.532,0,0,0-.979-.037l.45,8.572a.133.133,0,0,0,.17-.109Z" transform="translate(-174.099 -126.324)" fill="#19538d"/>
        <path id="Trazado_1274391" data-name="Trazado 1274391" d="M220.929,224.446a2.543,2.543,0,1,1-1.961,3.193,2.544,2.544,0,0,1,1.961-3.193" transform="translate(-173.977 -178.37)" fill="#19538d"/>
      </g>
    </g>
  </g>
</svg>
