<svg xmlns="http://www.w3.org/2000/svg" xmlns:xlink="http://www.w3.org/1999/xlink" width="128" height="128" viewBox="0 0 128 128">
  <defs>
    <clipPath id="clip-path">
      <rect id="Rectángulo_456267" data-name="Rectángulo 456267" width="128" height="128" fill="none"/>
    </clipPath>
    <clipPath id="clip-path-2">
      <rect id="Rectángulo_464464" data-name="Rectángulo 464464" width="68.747" height="68.758" fill="#19538d"/>
    </clipPath>
  </defs>
  <g id="Grupo_1211680" data-name="Grupo 1211680" transform="translate(511.746 8527) rotate(180)">
    <path id="Trazado_999622" data-name="Trazado 999622" d="M59.07,0A59.07,59.07,0,1,1,0,59.07,59.071,59.071,0,0,1,59.07,0" transform="translate(388.676 8403.93)" fill="#fff"/>
    <g id="Grupo_1179902" data-name="Grupo 1179902" transform="translate(383.746 8399)">
      <g id="Grupo_1179905" data-name="Grupo 1179905" clip-path="url(#clip-path)">
        <path id="Trazado_999618" data-name="Trazado 999618" d="M64,0A64,64,0,1,1,0,64,64,64,0,0,1,64,0" fill="none"/>
        <path id="Trazado_999619" data-name="Trazado 999619" d="M5,59a5,5,0,1,1-5,5,5,5,0,0,1,5-5" fill="#19538d"/>
        <path id="Trazado_999620" data-name="Trazado 999620" d="M21,19a5,5,0,1,1-5,5,5,5,0,0,1,5-5" fill="#19538d"/>
        <path id="Trazado_999621" data-name="Trazado 999621" d="M64,124A60.068,60.068,0,0,1,4,64H7A57,57,0,1,0,22.408,25.024L20.22,22.972A60,60,0,1,1,64,124" fill="#19538d"/>
        <rect id="Rectángulo_456268" data-name="Rectángulo 456268" width="128" height="128" fill="none"/>
        <rect id="Rectángulo_456269" data-name="Rectángulo 456269" width="128" height="128" fill="none"/>
      </g>
    </g>
    <g id="Grupo_1211806" data-name="Grupo 1211806" transform="translate(482.119 8497.379) rotate(180)">
      <g id="Grupo_1211787" data-name="Grupo 1211787" clip-path="url(#clip-path-2)">
        <path id="Trazado_1274374" data-name="Trazado 1274374" d="M6.319,84.807c-.656.656-1.3.838-1.89.245L.378,81.009A1.246,1.246,0,0,1,.352,79.25L30.37,49.224a1.273,1.273,0,0,1,1.854-.049l7.182,7.164L57.736,38l-2.1-2.169a1.256,1.256,0,0,1-.308-1.338,1.2,1.2,0,0,1,1.137-.777l11.054-.984a1.158,1.158,0,0,1,1.2,1.307l-.984,11.012a1.2,1.2,0,0,1-.773,1.069,1.136,1.136,0,0,1-1.245-.229l-2.194-2.151-23.2,23.2a1.282,1.282,0,0,1-1.833.015l-7.178-7.159ZM5.265,82.4,30.237,57.426a1.242,1.242,0,0,1,1.888-.288l7.284,7.208L63.038,40.791c.805-.405,1.83.72,2.419,1.379l.685-6.841-6.84.706c.909.793,1.545,1.321,1.393,2.449L40.221,58.971c-.418.306-1.112.5-1.485.13l-7.373-7.333L3,80.107Z" transform="translate(0 -24.689)" fill="#19538d"/>
        <path id="Trazado_1274375" data-name="Trazado 1274375" d="M46.185,136.109c-.571-.633-.958-1.411-.269-2.126,1.083-1.124,2.379.868,2.872,1.04a1.221,1.221,0,0,0,1.315-.435,3.605,3.605,0,0,1,4.817-.71,29.058,29.058,0,0,0,7.144,2.923,3.541,3.541,0,0,1,2.471,3.871,1.187,1.187,0,0,0,1.251,1.255l6.1-.032a1.073,1.073,0,0,0,1.051-1.213,3.533,3.533,0,0,1,2.463-3.875,29.257,29.257,0,0,0,7.142-2.933,3.667,3.667,0,0,1,4.944.834,1.078,1.078,0,0,0,1.444.169l4.675-4.68a1.091,1.091,0,0,0-.163-1.449,3.607,3.607,0,0,1-.92-4.777,28.277,28.277,0,0,0,2.945-7.122,3.571,3.571,0,0,1,3.955-2.632,1.1,1.1,0,0,0,1.2-1.06l0-6.313a1.065,1.065,0,0,0-1.189-1.038c-2.319.26-3.905-1.414-4.247-3.629-.082-.535-.262-1.1.162-1.523a1.284,1.284,0,0,1,1.347-.329c1.205.54.881,3.062,2,2.974,2.4-.187,4.407,1.234,4.408,3.764v5.89a3.627,3.627,0,0,1-3.939,3.714,1.156,1.156,0,0,0-1.337.853,30.6,30.6,0,0,1-3.24,7.786,1.138,1.138,0,0,0,.326,1.462,3.642,3.642,0,0,1,.214,5.459l-4.18,4.174a3.6,3.6,0,0,1-5.321-.094,1.347,1.347,0,0,0-1.939-.275,29.063,29.063,0,0,1-7.438,3.071,1.155,1.155,0,0,0-.853,1.338,3.632,3.632,0,0,1-3.715,3.944l-5.913,0a3.638,3.638,0,0,1-3.709-3.946,1.153,1.153,0,0,0-.859-1.336,29.835,29.835,0,0,1-7.6-3.156,1.286,1.286,0,0,0-1.763.342,3.678,3.678,0,0,1-5.656-.182" transform="translate(-34.364 -75.628)" fill="#19538d"/>
        <path id="Trazado_1274376" data-name="Trazado 1274376" d="M7.682,27.522c-1.013,3.8-5.15,1.778-5.151,3.692l0,6.311a1.1,1.1,0,0,0,1.184,1.07c2.356-.288,3.885,1.381,4.268,3.59.135.779.193,1.515-.63,1.84-1.866.735-1.527-2.1-2.7-2.948-2.308.228-4.573-1.04-4.573-3.524V31.178a3.5,3.5,0,0,1,3.9-3.45,1.191,1.191,0,0,0,1.35-.881A30.679,30.679,0,0,1,8.56,19.058,1.142,1.142,0,0,0,8.243,17.6a3.673,3.673,0,0,1-.108-5.6l3.928-3.93a3.745,3.745,0,0,1,5.719.223c.433.532,1.137.349,1.666.029A29.806,29.806,0,0,1,26.9,5.262a1.159,1.159,0,0,0,.855-1.338A3.616,3.616,0,0,1,31.465,0l6.156.018a3.542,3.542,0,0,1,3.467,3.9,1.154,1.154,0,0,0,.861,1.342,29.692,29.692,0,0,1,7.283,2.978A1.269,1.269,0,0,1,49.7,9.75a1.223,1.223,0,0,1-1.616.626,30.512,30.512,0,0,0-6.816-2.747,3.569,3.569,0,0,1-2.637-3.952,1.075,1.075,0,0,0-1.052-1.2l-6.32,0a1.083,1.083,0,0,0-1.053,1.2,3.573,3.573,0,0,1-2.636,3.952,28.37,28.37,0,0,0-7.125,2.945,3.545,3.545,0,0,1-4.647-.8c-.345-.433-1.141-.709-1.575-.276L9.544,14.167a1.08,1.08,0,0,0,.17,1.451,3.607,3.607,0,0,1,.915,4.773,28.5,28.5,0,0,0-2.947,7.131" transform="translate(-0.055 0)" fill="#19538d"/>
        <path id="Trazado_1274377" data-name="Trazado 1274377" d="M81.529,64.26c-9.04-.083-16.8,6.621-17.234,15.708a1.228,1.228,0,1,1-2.44-.206c.526-11.019,10.53-18.979,21.619-17.851a18.092,18.092,0,0,1,9.455,3.977,1.25,1.25,0,0,1,.3,1.625,1.213,1.213,0,0,1-1.746.346,15.716,15.716,0,0,0-9.952-3.6" transform="translate(-46.666 -46.629)" fill="#19538d"/>
        <path id="Trazado_1274378" data-name="Trazado 1274378" d="M90.206,154.72c-.74-.579-.859-1.214-.6-1.685a1.227,1.227,0,0,1,1.828-.456,16.03,16.03,0,0,0,11.691,3.552c8.312-.8,15.049-7.186,15.488-15.677a1.228,1.228,0,1,1,2.442.214A19.3,19.3,0,0,1,90.206,154.72" transform="translate(-67.512 -105.06)" fill="#19538d"/>
      </g>
    </g>
  </g>
</svg>
