<svg xmlns="http://www.w3.org/2000/svg" xmlns:xlink="http://www.w3.org/1999/xlink" width="128" height="128" viewBox="0 0 128 128">
  <defs>
    <clipPath id="clip-path">
      <rect id="Rectángulo_456267" data-name="Rectángulo 456267" width="128" height="128" fill="none"/>
    </clipPath>
    <clipPath id="clip-path-2">
      <rect id="Rectángulo_464495" data-name="Rectángulo 464495" width="81.719" height="52.729" fill="#19538d"/>
    </clipPath>
  </defs>
  <g id="Grupo_1211792" data-name="Grupo 1211792" transform="translate(511.746 8527) rotate(180)">
    <path id="Trazado_999622" data-name="Trazado 999622" d="M59.07,0A59.07,59.07,0,1,1,0,59.07,59.071,59.071,0,0,1,59.07,0" transform="translate(388.676 8403.93)" fill="#fff"/>
    <g id="Grupo_1179902" data-name="Grupo 1179902" transform="translate(383.746 8399)">
      <g id="Grupo_1179905" data-name="Grupo 1179905" clip-path="url(#clip-path)">
        <path id="Trazado_999618" data-name="Trazado 999618" d="M64,0A64,64,0,1,1,0,64,64,64,0,0,1,64,0" fill="none"/>
        <path id="Trazado_999619" data-name="Trazado 999619" d="M5,59a5,5,0,1,1-5,5,5,5,0,0,1,5-5" fill="#19538d"/>
        <path id="Trazado_999620" data-name="Trazado 999620" d="M21,19a5,5,0,1,1-5,5,5,5,0,0,1,5-5" fill="#19538d"/>
        <path id="Trazado_999621" data-name="Trazado 999621" d="M64,124A60.068,60.068,0,0,1,4,64H7A57,57,0,1,0,22.408,25.024L20.22,22.972A60,60,0,1,1,64,124" fill="#19538d"/>
        <rect id="Rectángulo_456268" data-name="Rectángulo 456268" width="128" height="128" fill="none"/>
        <rect id="Rectángulo_456269" data-name="Rectángulo 456269" width="128" height="128" fill="none"/>
      </g>
    </g>
    <g id="Grupo_1211850" data-name="Grupo 1211850" transform="translate(486.606 8489.364) rotate(180)">
      <g id="Grupo_1211849" data-name="Grupo 1211849" clip-path="url(#clip-path-2)">
        <path id="Trazado_1274684" data-name="Trazado 1274684" d="M47.647,14.45,41.4,13.176a9.292,9.292,0,0,1,.419-2.541c.876-.029,1.545.348,2.641.378A23.746,23.746,0,1,0,46.492,38.95a10.442,10.442,0,0,1,2.29,1.293A26.365,26.365,0,1,1,46.335,9.109l-.1-2.38,2.586-.18.5,6.622a1.319,1.319,0,0,1-1.676,1.279" transform="translate(0 0)" fill="#19538d"/>
        <path id="Trazado_1274685" data-name="Trazado 1274685" d="M54,69.211l-3.766.031a2.546,2.546,0,0,1-2.465-2.807L45,65.339a2.74,2.74,0,0,1-3.4.4,18.756,18.756,0,0,1-3.155-3.159,2.77,2.77,0,0,1,.4-3.4l-1.094-2.753a2.645,2.645,0,0,1-2.791-2.469A20.78,20.78,0,0,1,35,50.09a2.5,2.5,0,0,1,2.758-2.212l1.1-2.792a2.732,2.732,0,0,1-.308-3.548c2.224-2.646,4.031-4.558,6.461-2.606l2.755-1.094a2.546,2.546,0,0,1,2.467-2.8L53.381,35a2.759,2.759,0,0,1,2.973,2.84L59.1,38.931c.963-.9,2.618-1.226,3.549-.3l2.91,2.9c.941.939.571,2.564-.315,3.546l1.1,2.777a2.514,2.514,0,0,1,2.8,2.45v3.646a2.537,2.537,0,0,1-2.792,2.467l-1.1,2.756c.876,1,1.242,2.605.308,3.552l-2.763,2.8a2.694,2.694,0,0,1-3.7-.2l-2.757,1.107A2.482,2.482,0,0,1,54,69.211M55.5,63.9l2.34-.968a2.886,2.886,0,0,1,3.226.61l2.4-2.395a2.871,2.871,0,0,1-.6-3.226L63.7,55.86a3.251,3.251,0,0,1,2.835-2.086l-.006-3.27a3.052,3.052,0,0,1-2.67-1.718l-1.007-2.433a2.862,2.862,0,0,1,.609-3.229l-2.393-2.394a2.823,2.823,0,0,1-3.4.529c-1.8-.965-3.663-.727-3.965-3.6l-3.311-.053c.009,2.073-1.45,2.658-3.022,3.294s-2.992,1.2-4.419-.212l-2.29,2.444a2.813,2.813,0,0,1,.521,3.394c-.964,1.78-.692,3.628-3.6,3.972l-.008,3.271a3.335,3.335,0,0,1,2.912,2.291l.693,1.679a3,3,0,0,1-.524,3.4l2.289,2.447c1.439-1.436,2.859-.843,4.418-.211s3.025,1.209,3.026,3.271a13.031,13.031,0,0,0,3.366-.141A2.807,2.807,0,0,1,55.5,63.9" transform="translate(-25.692 -25.775)" fill="#19538d"/>
        <path id="Trazado_1274686" data-name="Trazado 1274686" d="M214.525,69.655l.1,2.543,10.992-9.021L214.63,54.161l-.079,2.427a1.337,1.337,0,0,1-1.33,1.321l-13.14.017-.005-2.652,11.83.016.021-3.973a1.3,1.3,0,0,1,.61-1.112,1.345,1.345,0,0,1,1.514.064l14.465,11.842a1.349,1.349,0,0,1,0,2.138L213.9,76.207a1.364,1.364,0,0,1-1.354-.053,1.281,1.281,0,0,1-.616-1.114l-.02-3.939-11.83.006V68.459l13.148.006a1.229,1.229,0,0,1,1.3,1.19" transform="translate(-147.324 -36.819)" fill="#19538d"/>
        <path id="Trazado_1274687" data-name="Trazado 1274687" d="M182.659,72.6l-2.633.021,0-2.632,2.618,0Z" transform="translate(-132.559 -51.537)" fill="#19538d"/>
        <path id="Trazado_1274688" data-name="Trazado 1274688" d="M182.659,97.6l-2.633.021,0-2.632,2.618,0Z" transform="translate(-132.559 -69.946)" fill="#19538d"/>
        <path id="Trazado_1274689" data-name="Trazado 1274689" d="M182.659,122.6l-2.633.021,0-2.632,2.618,0Z" transform="translate(-132.559 -88.354)" fill="#19538d"/>
        <path id="Trazado_1274690" data-name="Trazado 1274690" d="M72.668,65.181a9.215,9.215,0,1,1-7.461,10.864,9.168,9.168,0,0,1,7.461-10.864m.252,2.628a6.581,6.581,0,1,0,7.78,5.108,6.538,6.538,0,0,0-7.78-5.108" transform="translate(-47.887 -47.89)" fill="#19538d"/>
      </g>
    </g>
  </g>
</svg>
