<svg xmlns="http://www.w3.org/2000/svg" xmlns:xlink="http://www.w3.org/1999/xlink" width="128" height="128" viewBox="0 0 128 128">
  <defs>
    <clipPath id="clip-path">
      <rect id="Rectángulo_456267" data-name="Rectángulo 456267" width="128" height="128" fill="none"/>
    </clipPath>
    <clipPath id="clip-path-2">
      <rect id="Rectángulo_464470" data-name="Rectángulo 464470" width="60.878" height="63.205" fill="#19538d"/>
    </clipPath>
  </defs>
  <g id="Grupo_1211735" data-name="Grupo 1211735" transform="translate(511.746 8527) rotate(180)">
    <path id="Trazado_999622" data-name="Trazado 999622" d="M59.07,0A59.07,59.07,0,1,1,0,59.07,59.071,59.071,0,0,1,59.07,0" transform="translate(388.676 8403.93)" fill="#fff"/>
    <g id="Grupo_1179902" data-name="Grupo 1179902" transform="translate(383.746 8399)">
      <g id="Grupo_1179905" data-name="Grupo 1179905" clip-path="url(#clip-path)">
        <path id="Trazado_999618" data-name="Trazado 999618" d="M64,0A64,64,0,1,1,0,64,64,64,0,0,1,64,0" fill="none"/>
        <path id="Trazado_999619" data-name="Trazado 999619" d="M5,59a5,5,0,1,1-5,5,5,5,0,0,1,5-5" fill="#19538d"/>
        <path id="Trazado_999620" data-name="Trazado 999620" d="M21,19a5,5,0,1,1-5,5,5,5,0,0,1,5-5" fill="#19538d"/>
        <path id="Trazado_999621" data-name="Trazado 999621" d="M64,124A60.068,60.068,0,0,1,4,64H7A57,57,0,1,0,22.408,25.024L20.22,22.972A60,60,0,1,1,64,124" fill="#19538d"/>
        <rect id="Rectángulo_456268" data-name="Rectángulo 456268" width="128" height="128" fill="none"/>
        <rect id="Rectángulo_456269" data-name="Rectángulo 456269" width="128" height="128" fill="none"/>
      </g>
    </g>
    <g id="Grupo_1211809" data-name="Grupo 1211809" transform="translate(480.186 8494.603) rotate(180)">
      <g id="Grupo_1211799" data-name="Grupo 1211799" clip-path="url(#clip-path-2)">
        <path id="Trazado_1274413" data-name="Trazado 1274413" d="M12.318,115.879l8.287.021a1.144,1.144,0,0,1,1.149,1l.353,2.829a1.386,1.386,0,0,0,1.868,1.15l2.67-1.085a1.273,1.273,0,0,1,1.653.646l4.032,7.02a1.164,1.164,0,0,1-.249,1.531l-2.257,1.683a1.468,1.468,0,0,0-.637,1.059,1.4,1.4,0,0,0,.538,1.306l2.264,1.673a1.256,1.256,0,0,1,.268,1.762l-4.128,7.118a1.175,1.175,0,0,1-1.45.4l-2.548-1.026a1.505,1.505,0,0,0-1.462.187,1.738,1.738,0,0,0-.624,1.3l-.3,2.455c-.166,1.364-2.128,1.066-4.059,1.015l.02,4.923H51.016l.019-7.219A1.29,1.29,0,0,1,52.28,144.4l6.359,0,.006-28.359a1.253,1.253,0,0,1,2.505,0l-.015,30.035-7.8,8.686a1.6,1.6,0,0,1-1.274.56l-35.489,0a1.287,1.287,0,0,1-1.4-1.39l0-5.99-2.917-.01a1.154,1.154,0,0,1-1.144-1.022l-.362-2.824a1.469,1.469,0,0,0-2.033-1.125l-2.513,1.021a1.24,1.24,0,0,1-1.632-.609l-4.09-7.148a1.156,1.156,0,0,1,.385-1.515l2.388-1.789a1.4,1.4,0,0,0,.007-2.045L.788,128.993a1.182,1.182,0,0,1-.262-1.548l4.12-7.131a1.164,1.164,0,0,1,1.4-.555l2.864,1.12a1.4,1.4,0,0,0,1.853-1.154l.394-3a1.142,1.142,0,0,1,1.167-.84m7.088,29.582.345-2.168a3.911,3.911,0,0,1,5.145-2.688l1.714.675,3.009-5.239-1.657-1.252a3.873,3.873,0,0,1,.085-5.878L29.63,127.7l-3.017-5.189-1.728.678a3.818,3.818,0,0,1-5.174-2.842l-.278-1.985-6,0-.278,1.957a3.637,3.637,0,0,1-2.157,2.738,4.087,4.087,0,0,1-3.726-.169c-.231-.118-.858-.452-1.056-.271l-2.975,5.074,1.78,1.408a3.886,3.886,0,0,1-.226,5.765l-1.539,1.242,3.011,5.18,2.313-.853a3.838,3.838,0,0,1,4.536,2.857l.324,2.148Zm37.623,1.465-3.5-.032.019,3.914Z" transform="translate(-0.272 -92.117)" fill="#19538d"/>
        <path id="Trazado_1274414" data-name="Trazado 1274414" d="M118.963,2.515l-40.944-.01-.028,9.69a1.26,1.26,0,0,1-1.233,1.173A1.275,1.275,0,0,1,75.522,12.2l-.01-11.01A1.179,1.179,0,0,1,76.71,0h43.564a1.2,1.2,0,0,1,1.192,1.189l0,11.62a1.216,1.216,0,0,1-1.249,1.2,1.314,1.314,0,0,1-1.251-1.224Z" transform="translate(-60.597)" fill="#19538d"/>
        <path id="Trazado_1274415" data-name="Trazado 1274415" d="M30.323,95.751l-4.571.678A1.222,1.222,0,0,1,24.4,95.5a1.179,1.179,0,0,1,.918-1.487l1.477-.262a21.283,21.283,0,0,0-24.74,2.481,1.275,1.275,0,0,1-1.7-.031A1.271,1.271,0,0,1,.4,94.392a23.78,23.78,0,0,1,28.108-2.5c.024-1.415-.524-2.7.8-3.068a1.232,1.232,0,0,1,1.512.935l.514,4.5a1.233,1.233,0,0,1-1.012,1.49" transform="translate(0 -70.962)" fill="#19538d"/>
        <path id="Trazado_1274416" data-name="Trazado 1274416" d="M149.561,53.481l-25.073,0a1.213,1.213,0,0,1-1.271-1.232,1.2,1.2,0,0,1,1.243-1.264l25.022,0a1.291,1.291,0,0,1,1.3,1.146,1.22,1.22,0,0,1-1.225,1.352" transform="translate(-98.879 -40.913)" fill="#19538d"/>
        <path id="Trazado_1274417" data-name="Trazado 1274417" d="M194.5,100.47l-14.119,0a1.261,1.261,0,0,1,.324-2.5l13.8.01a1.281,1.281,0,0,1,1.3,1.263,1.25,1.25,0,0,1-1.3,1.23" transform="translate(-143.89 -78.617)" fill="#19538d"/>
        <path id="Trazado_1274418" data-name="Trazado 1274418" d="M194.385,147.527h-13.84a1.279,1.279,0,0,1-1.24-1.233,1.25,1.25,0,0,1,1.4-1.274l13.8.006a1.272,1.272,0,0,1,1.3,1.261,1.287,1.287,0,0,1-1.42,1.242" transform="translate(-143.89 -116.376)" fill="#19538d"/>
        <path id="Trazado_1274419" data-name="Trazado 1274419" d="M194.565,194.582l-14.011,0a1.227,1.227,0,0,1-1.228-1.042c-.076-.462.2-1.359.862-1.361l14.327-.046a1.241,1.241,0,0,1,1.29,1.119,1.21,1.21,0,0,1-1.24,1.328" transform="translate(-143.897 -154.186)" fill="#19538d"/>
        <path id="Trazado_1274420" data-name="Trazado 1274420" d="M194.382,241.506l-13.822-.012a1.254,1.254,0,0,1-1.254-1.229A1.209,1.209,0,0,1,180.52,239l13.988,0a1.263,1.263,0,1,1-.125,2.515" transform="translate(-143.891 -191.787)" fill="#19538d"/>
        <path id="Trazado_1274421" data-name="Trazado 1274421" d="M296.567,86.371a1.233,1.233,0,0,1,.609,2.389,1.233,1.233,0,1,1-.609-2.389" transform="translate(-237.23 -69.277)" fill="#19538d"/>
        <path id="Trazado_1274422" data-name="Trazado 1274422" d="M53.5,166.527a6.885,6.885,0,1,1-6.59,7.273,6.855,6.855,0,0,1,6.59-7.273m-.586,2.546a4.426,4.426,0,1,0,5.213,3.467,4.41,4.41,0,0,0-5.213-3.467" transform="translate(-37.637 -133.63)" fill="#19538d"/>
      </g>
    </g>
  </g>
</svg>
