<svg xmlns="http://www.w3.org/2000/svg" xmlns:xlink="http://www.w3.org/1999/xlink" width="130" height="130" viewBox="0 0 130 130">
  <defs>
    <clipPath id="clip-path">
      <rect id="Rectángulo_456267" data-name="Rectángulo 456267" width="130" height="130" fill="none"/>
    </clipPath>
    <clipPath id="clip-path-2">
      <rect id="Rectángulo_464485" data-name="Rectángulo 464485" width="69.458" height="69.571" fill="#19538d"/>
    </clipPath>
  </defs>
  <g id="Grupo_1211780" data-name="Grupo 1211780" transform="translate(513.746 8529) rotate(180)">
    <path id="Trazado_999622" data-name="Trazado 999622" d="M60.629,0A60.629,60.629,0,1,1,0,60.629,60.629,60.629,0,0,1,60.629,0" transform="translate(388.117 8403.371)" fill="#e1f5ff"/>
    <g id="Grupo_1179902" data-name="Grupo 1179902" transform="translate(383.746 8399)">
      <g id="Grupo_1179905" data-name="Grupo 1179905" clip-path="url(#clip-path)">
        <path id="Trazado_999618" data-name="Trazado 999618" d="M65,0A65,65,0,1,1,0,65,65,65,0,0,1,65,0" fill="none"/>
        <path id="Trazado_999619" data-name="Trazado 999619" d="M5.078,59A5.078,5.078,0,1,1,0,64.078,5.079,5.079,0,0,1,5.078,59" transform="translate(0 0.922)" fill="#19538d"/>
        <path id="Trazado_999620" data-name="Trazado 999620" d="M21.078,19A5.078,5.078,0,1,1,16,24.078,5.079,5.079,0,0,1,21.078,19" transform="translate(0.25 0.297)" fill="#19538d"/>
        <path id="Trazado_999621" data-name="Trazado 999621" d="M64.938,125.875A61.007,61.007,0,0,1,4,64.938H7.047A57.89,57.89,0,1,0,22.7,25.353l-2.222-2.084A60.937,60.937,0,1,1,64.938,125.875" transform="translate(0.063 0.063)" fill="#19538d"/>
        <rect id="Rectángulo_456268" data-name="Rectángulo 456268" width="130" height="130" fill="none"/>
        <rect id="Rectángulo_456269" data-name="Rectángulo 456269" width="130" height="130" fill="none"/>
      </g>
    </g>
    <g id="Grupo_1211830" data-name="Grupo 1211830" transform="translate(483.475 8498.785) rotate(180)">
      <g id="Grupo_1211829" data-name="Grupo 1211829" clip-path="url(#clip-path-2)">
        <path id="Trazado_1274568" data-name="Trazado 1274568" d="M62.041,63.033a2.554,2.554,0,0,1-2.525,2.63l-4.23.053-.027,1.261a2.53,2.53,0,0,1-2.492,2.594H40.825A2.345,2.345,0,0,1,38.4,67.416L38.35,65.68l-4.277-.015A2.506,2.506,0,0,1,31.6,63.06l0-6.939-5.536-.114c-1.636-.034-2.234-2.055-1.861-3.751L13.216,52.2a1.041,1.041,0,0,1-1.088-1.011A.985.985,0,0,1,13.2,50.177l10.871-.005.081-1.632a2.509,2.509,0,0,1,2.74-2.276l4.7-.037.015-8.4a1.069,1.069,0,0,1,.6-1.013L45.8,30.67l.007-7.819-4.987-.024a2.48,2.48,0,0,1-2.467-2.6l-.008-4.584a2.519,2.519,0,0,1,2.465-2.651l4.966-.016-.017-2.254-43.737,0,.013,37.292a2.181,2.181,0,0,0,2.246,2.165l3.94-.01a1.121,1.121,0,0,1,1.178.9,1.044,1.044,0,0,1-.971,1.123l-4.154.01A4.176,4.176,0,0,1,0,47.993L.006,4.181A4.123,4.123,0,0,1,4.086.032L36.415.011a.986.986,0,0,1,.929.978,1,1,0,0,1-1.114,1.033l-31.894,0A2.258,2.258,0,0,0,2.023,4.331l.034,4.381,43.733,0-.011-4.563A2.141,2.141,0,0,0,43.6,2.037L41.035,2A.969.969,0,0,1,40.1.985,1.023,1.023,0,0,1,41.246,0l2.2,0A4.232,4.232,0,0,1,47.8,4.123l.04,8.838,4.731.007A2.485,2.485,0,0,1,55.225,15.2l.037,5.029a2.509,2.509,0,0,1-2.482,2.6l-4.936.019,0,7.863,3.765,1.758c.492.23.347,1.061.1,1.35a1.145,1.145,0,0,1-1.43.214l-3.47-1.578L35.121,37.734,46.793,43.02l11.686-5.285-3.68-1.7a1.053,1.053,0,0,1-.467-1.31.975.975,0,0,1,1.238-.529L61.4,36.8a1.264,1.264,0,0,1,.615,1.151l.021,8.271,5.089.075a2.364,2.364,0,0,1,2.329,2.421l0,4.959a2.434,2.434,0,0,1-2.534,2.428l-4.86.008ZM53.2,20.794l-.029-5.769-12.729.01,0,5.771ZM41.1,50.2l2.753-.038a2.036,2.036,0,0,0,1.946-2.1l-.023-3.243-12.139-5.5-.012,6.965,5.244,0a2.488,2.488,0,0,1,2.183,2.184Zm.029,9.49,11.428.014a2.548,2.548,0,0,1,2.6,1.836l.1,2.064a23.342,23.342,0,0,0,4.688-.085l.02-7.4-5.036-.029a2.375,2.375,0,0,1-2.364-2.384v-5a2.45,2.45,0,0,1,2.58-2.432l4.816-.026-.011-6.913L47.84,44.807l-.05,3.671a3.837,3.837,0,0,1-3.923,3.71l-2.8.023-.013,1.282a2.455,2.455,0,0,1-2.412,2.592l-5.022.021.07,7.469a30.207,30.207,0,0,0,4.618.027l.047-1.426a2.578,2.578,0,0,1,2.774-2.485M39,54.067l-.007-5.736-12.721,0,0,5.784Zm28.415-.04L67.4,48.348,54.61,48.334l-.07,4.933a.785.785,0,0,0,.851.876ZM53.193,67.534l-.026-5.769-12.737,0,.022,5.769Z" transform="translate(0 0)" fill="#19538d"/>
        <path id="Trazado_1274569" data-name="Trazado 1274569" d="M91.247,120.976l-18.1.016a1,1,0,0,1-1.017-.852c-.054-.362.22-1.139.816-1.139l18.209-.022a1,1,0,0,1,.087,2" transform="translate(-56.446 -93.111)" fill="#19538d"/>
        <path id="Trazado_1274570" data-name="Trazado 1274570" d="M90.1,22.043l-17.047.012a.973.973,0,0,1-1.027-.875c-.058-.364.234-1.112.852-1.113l17.105-.03a.983.983,0,0,1,1.026.816.958.958,0,0,1-.91,1.192" transform="translate(-56.36 -15.68)" fill="#19538d"/>
        <path id="Trazado_1274571" data-name="Trazado 1274571" d="M84.941,166.5l-11.8.013a1.08,1.08,0,0,1-1.014-1,1.017,1.017,0,0,1,1.091-1.07l11.777,0a1.029,1.029,0,0,1,.973.894.988.988,0,0,1-1.026,1.158" transform="translate(-56.442 -128.694)" fill="#19538d"/>
        <path id="Trazado_1274572" data-name="Trazado 1274572" d="M66.544,98.479l-10.722,0a1.056,1.056,0,0,1-1.1-.976,1.042,1.042,0,0,1,.959-1.08l10.911,0a1.053,1.053,0,0,1,.98.9.987.987,0,0,1-1.029,1.155" transform="translate(-42.823 -75.46)" fill="#19538d"/>
        <path id="Trazado_1274573" data-name="Trazado 1274573" d="M105.594,144.031l-9.678,0a.962.962,0,0,1-1.056-1.019,1.007,1.007,0,0,1,1.074-.977l9.552-.013a1,1,0,0,1,1.119.779.99.99,0,0,1-1.011,1.227" transform="translate(-74.236 -111.147)" fill="#19538d"/>
        <path id="Trazado_1274574" data-name="Trazado 1274574" d="M103.791,76.215l-8.477.006a1.008,1.008,0,0,1-1.007-1.12,1.085,1.085,0,0,1,1.2-.949l8.228,0a1.067,1.067,0,0,1,1.078.961,1.008,1.008,0,0,1-1.017,1.1" transform="translate(-73.8 -58.03)" fill="#19538d"/>
        <path id="Trazado_1274575" data-name="Trazado 1274575" d="M84.739,189.006l-5.014,0a1,1,0,0,1-1.106-1.013.978.978,0,0,1,1.108-.984l5,.006a1.012,1.012,0,0,1,1.1.984.979.979,0,0,1-1.082,1" transform="translate(-61.525 -146.352)" fill="#19538d"/>
        <path id="Trazado_1274576" data-name="Trazado 1274576" d="M60.477,75.979l-4.678.01a1,1,0,0,1-1.091-1.033.984.984,0,0,1,1.09-.987l4.574-.005a1.019,1.019,0,0,1,1.116.789.989.989,0,0,1-1.011,1.226" transform="translate(-42.813 -57.883)" fill="#19538d"/>
        <path id="Trazado_1274577" data-name="Trazado 1274577" d="M60.493,144.024l-4.687,0a.986.986,0,0,1-1.085-1.016,1.013,1.013,0,0,1,1.1-.979l4.559-.011a1.009,1.009,0,0,1,1.118.778.984.984,0,0,1-1.006,1.225" transform="translate(-42.824 -111.143)" fill="#19538d"/>
        <path id="Trazado_1274578" data-name="Trazado 1274578" d="M126.1,98.293l-2.624-.019a.937.937,0,0,1-.952-.926c-.068-1.258,1.54-1.216,3.439-1.076a.994.994,0,0,1,.925.88,1.091,1.091,0,0,1-.787,1.14" transform="translate(-95.882 -75.288)" fill="#19538d"/>
        <path id="Trazado_1274579" data-name="Trazado 1274579" d="M171.971,22.048l-2.188.009a1.012,1.012,0,1,1,.016-2.017l2.156,0a1.02,1.02,0,0,1,1.083.984.978.978,0,0,1-1.068,1.021" transform="translate(-132.016 -15.682)" fill="#19538d"/>
        <path id="Trazado_1274580" data-name="Trazado 1274580" d="M58.649,187.732c.006,1.164-1.328,1.179-3.227.95a.829.829,0,0,1-.678-.761c-.053-.345.042-.953.518-1.052,1.685-.351,3.381-.282,3.387.863" transform="translate(-42.832 -146.095)" fill="#19538d"/>
        <path id="Trazado_1274581" data-name="Trazado 1274581" d="M28.165,166.112l-1.7,0a.948.948,0,0,1-1.013-1.093,1.017,1.017,0,0,1,1.146-.97l1.511,0a1.01,1.01,0,0,1,1.088.978.984.984,0,0,1-1.033,1.078" transform="translate(-19.917 -128.384)" fill="#19538d"/>
        <path id="Trazado_1274582" data-name="Trazado 1274582" d="M28.353,75.965c-1.545.248-2.807.12-2.883-.868a.907.907,0,0,1,.626-1.042c1.481-.357,3.018-.2,3.113.848a.965.965,0,0,1-.855,1.063" transform="translate(-19.929 -57.819)" fill="#19538d"/>
        <path id="Trazado_1274583" data-name="Trazado 1274583" d="M29.2,120.158c.082,1.2-1.779,1.41-3.229.947a.929.929,0,0,1-.481-1.157.917.917,0,0,1,.934-.741l1.882.005a.926.926,0,0,1,.895.946" transform="translate(-19.921 -93.29)" fill="#19538d"/>
        <path id="Trazado_1274584" data-name="Trazado 1274584" d="M28.8,98.6c-.953.385-3.063.424-3.276-.616-.078-.379.05-.993.544-1.089a6.068,6.068,0,0,1,2.676.021A.977.977,0,0,1,28.8,98.6" transform="translate(-19.955 -75.721)" fill="#19538d"/>
        <path id="Trazado_1274585" data-name="Trazado 1274585" d="M28.794,143.575c-.955.382-3.051.436-3.271-.613-.08-.382.045-.993.54-1.094a5.956,5.956,0,0,1,2.682.026.974.974,0,0,1,.049,1.681" transform="translate(-19.956 -110.914)" fill="#19538d"/>
        <path id="Trazado_1274586" data-name="Trazado 1274586" d="M28.756,188.386c-1.219.447-3.239.4-3.281-.8-.041-1.165,1.815-1.275,3.248-.875a.956.956,0,0,1,.033,1.673" transform="translate(-19.935 -145.954)" fill="#19538d"/>
        <path id="Trazado_1274587" data-name="Trazado 1274587" d="M123.517,188.656a3.785,3.785,0,0,1-2.27.034.862.862,0,0,1-.534-.893.844.844,0,0,1,.537-.867c1.227-.319,2.557-.225,2.728.677a.893.893,0,0,1-.461,1.048" transform="translate(-94.468 -146.159)" fill="#19538d"/>
        <path id="Trazado_1274588" data-name="Trazado 1274588" d="M152.07,75.739c-1.008.542-2.9.3-2.9-.829,0-.944,1.078-1.11,2.489-.941a.922.922,0,0,1,.752.666.9.9,0,0,1-.336,1.1" transform="translate(-116.734 -57.841)" fill="#19538d"/>
        <path id="Trazado_1274589" data-name="Trazado 1274589" d="M153.563,96.477a.945.945,0,0,1,.243,1.276,1.757,1.757,0,0,1-2.6,0,.934.934,0,0,1,.186-1.237,1.987,1.987,0,0,1,2.168-.041" transform="translate(-118.214 -75.265)" fill="#19538d"/>
        <path id="Trazado_1274590" data-name="Trazado 1274590" d="M55.217,119.089a1.015,1.015,0,0,1,1.317.333,1.061,1.061,0,0,1-.321,1.413,1.035,1.035,0,0,1-1.4-.334,1.006,1.006,0,0,1,.4-1.412" transform="translate(-42.789 -93.112)" fill="#19538d"/>
        <path id="Trazado_1274591" data-name="Trazado 1274591" d="M155.754,142.222a1,1,0,0,1,.9,1.777,1.022,1.022,0,0,1-1.388-.443,1.011,1.011,0,0,1,.487-1.335" transform="translate(-121.439 -111.218)" fill="#19538d"/>
        <path id="Trazado_1274592" data-name="Trazado 1274592" d="M37.731,20.171a.985.985,0,0,1,1.283.616,1.009,1.009,0,0,1-1.86.772,1.011,1.011,0,0,1,.577-1.388" transform="translate(-29 -15.733)" fill="#19538d"/>
        <path id="Trazado_1274593" data-name="Trazado 1274593" d="M22.053,20.175a1.044,1.044,0,0,1,1.288.386,1,1,0,0,1-.292,1.365,1.034,1.034,0,0,1-1.424-.325,1,1,0,0,1,.428-1.426" transform="translate(-16.815 -15.724)" fill="#19538d"/>
        <path id="Trazado_1274594" data-name="Trazado 1274594" d="M53.348,20.169a.991.991,0,1,1-.515,1.419.994.994,0,0,1,.515-1.419" transform="translate(-41.249 -15.725)" fill="#19538d"/>
        <path id="Trazado_1274595" data-name="Trazado 1274595" d="M55.21,164.693a.969.969,0,0,1,1.353.365,1.016,1.016,0,0,1-.371,1.391,1.006,1.006,0,1,1-.982-1.756" transform="translate(-42.801 -128.78)" fill="#19538d"/>
        <path id="Trazado_1274596" data-name="Trazado 1274596" d="M280.11,232.726l-3.789.024a1,1,0,0,1,0-2l3.486-.031a1.127,1.127,0,0,1,1.191.887,1,1,0,0,1-.885,1.12" transform="translate(-215.498 -180.557)" fill="#19538d"/>
        <path id="Trazado_1274597" data-name="Trazado 1274597" d="M260.372,231.053a1,1,0,0,1,1.4.266,1.008,1.008,0,0,1-.336,1.427,1,1,0,0,1-1.062-1.693" transform="translate(-203.43 -180.68)" fill="#19538d"/>
        <path id="Trazado_1274598" data-name="Trazado 1274598" d="M214.509,294.751l-3.476-.008a1.016,1.016,0,0,1-1.017-.822.929.929,0,0,1,.789-1.165l3.711-.034a1.019,1.019,0,1,1-.007,2.03" transform="translate(-164.34 -229.079)" fill="#19538d"/>
        <path id="Trazado_1274599" data-name="Trazado 1274599" d="M195.089,292.892a.98.98,0,0,1,1.4.32,1,1,0,0,1-.352,1.383,1.069,1.069,0,0,1-1.259-.187,1.013,1.013,0,0,1,.212-1.517" transform="translate(-152.313 -229.082)" fill="#19538d"/>
        <path id="Trazado_1274600" data-name="Trazado 1274600" d="M214.615,79.778l-3.58,0a1.022,1.022,0,0,1-1.02-.844c-.073-.347.078-1.095.613-1.107l3.888-.089a1.02,1.02,0,0,1,1.094.831.982.982,0,0,1-1,1.207" transform="translate(-164.341 -60.838)" fill="#19538d"/>
        <path id="Trazado_1274601" data-name="Trazado 1274601" d="M195.106,77.929a.991.991,0,0,1,1.4.319,1.05,1.05,0,0,1-.331,1.4,1.012,1.012,0,0,1-1.069-1.718" transform="translate(-152.326 -60.858)" fill="#19538d"/>
        <path id="Trazado_1274602" data-name="Trazado 1274602" d="M149.274,232.813l-3.493-.008a.991.991,0,0,1-1.095-1.01,1,1,0,0,1,1.093-1.025l3.492.01a.964.964,0,0,1,1.066,1.005,1.011,1.011,0,0,1-1.062,1.028" transform="translate(-113.229 -180.597)" fill="#19538d"/>
        <path id="Trazado_1274603" data-name="Trazado 1274603" d="M129.855,230.94a.952.952,0,0,1,1.346.553.987.987,0,0,1-.534,1.244,1.01,1.01,0,0,1-1.327-.451.961.961,0,0,1,.515-1.346" transform="translate(-101.128 -180.651)" fill="#19538d"/>
      </g>
    </g>
  </g>
</svg>
