<svg xmlns="http://www.w3.org/2000/svg" xmlns:xlink="http://www.w3.org/1999/xlink" width="128" height="128" viewBox="0 0 128 128">
  <defs>
    <clipPath id="clip-path">
      <rect id="Rectángulo_456267" data-name="Rectángulo 456267" width="128" height="128" fill="none"/>
    </clipPath>
    <clipPath id="clip-path-2">
      <rect id="Rectángulo_464472" data-name="Rectángulo 464472" width="59.624" height="80.499" fill="#19538d"/>
    </clipPath>
  </defs>
  <g id="Grupo_1211753" data-name="Grupo 1211753" transform="translate(511.746 8527) rotate(180)">
    <path id="Trazado_999622" data-name="Trazado 999622" d="M59.07,0A59.07,59.07,0,1,1,0,59.07,59.071,59.071,0,0,1,59.07,0" transform="translate(388.676 8403.93)" fill="#fff"/>
    <g id="Grupo_1179902" data-name="Grupo 1179902" transform="translate(383.746 8399)">
      <g id="Grupo_1179905" data-name="Grupo 1179905" clip-path="url(#clip-path)">
        <path id="Trazado_999618" data-name="Trazado 999618" d="M64,0A64,64,0,1,1,0,64,64,64,0,0,1,64,0" fill="none"/>
        <path id="Trazado_999619" data-name="Trazado 999619" d="M5,59a5,5,0,1,1-5,5,5,5,0,0,1,5-5" fill="#19538d"/>
        <path id="Trazado_999620" data-name="Trazado 999620" d="M21,19a5,5,0,1,1-5,5,5,5,0,0,1,5-5" fill="#19538d"/>
        <path id="Trazado_999621" data-name="Trazado 999621" d="M64,124A60.068,60.068,0,0,1,4,64H7A57,57,0,1,0,22.408,25.024L20.22,22.972A60,60,0,1,1,64,124" fill="#19538d"/>
        <rect id="Rectángulo_456268" data-name="Rectángulo 456268" width="128" height="128" fill="none"/>
        <rect id="Rectángulo_456269" data-name="Rectángulo 456269" width="128" height="128" fill="none"/>
      </g>
    </g>
    <g id="Grupo_1211811" data-name="Grupo 1211811" transform="translate(477.558 8503.25) rotate(180)">
      <g id="Grupo_1211803" data-name="Grupo 1211803" clip-path="url(#clip-path-2)">
        <path id="Trazado_1274431" data-name="Trazado 1274431" d="M44.938,67.2a6.172,6.172,0,0,0,1.672,1.89c.917-.4,2.224-.7,3.041.121l5.916,5.951c1.291,1.3.262,2.909-.837,3.967-.978.942-2.481,2.031-3.674.855l-6.141-6.055a2.581,2.581,0,0,1-.107-3.008L43.066,69.1A15.786,15.786,0,0,1,22.6,69.088L4.54,69.033A4.409,4.409,0,0,1,0,64.613L0,26.541a4.4,4.4,0,0,1,4.492-4.465l11.539-.034,6.053-6.488a9.914,9.914,0,1,1,1.542,1.808c-1.438,1.724-2.731,3.02-4.259,4.628l10.726.117A4.353,4.353,0,0,1,34.3,27.1l9.206.009,3.713-7.3A2.785,2.785,0,0,1,49.9,18.448a3.005,3.005,0,0,1,2.717,1.658L59.351,33.56a3.171,3.171,0,0,1-3.044,4.412l-13.1-.009a3.081,3.081,0,0,1-2.528-1.319,2.853,2.853,0,0,1-.408-2.941l2.023-4.175-7.964.008.006,11.924A15.761,15.761,0,0,1,44.938,67.2M29.194,2.545a7.46,7.46,0,0,0-6.207,8.861,7.533,7.533,0,1,0,6.207-8.861M57,34.286,50.51,21.326a.788.788,0,0,0-.607-.481.767.767,0,0,0-.7.4L42.261,35.331l14.045.166A.737.737,0,0,0,57,34.286M26.621,27.1l5.24-.045c.227-.945-.446-2.45-1.559-2.455l-13.387-.054L13.25,28.942l-.179,5.253a1.156,1.156,0,0,1-1.282,1.249,1.239,1.239,0,0,1-1.125-1.2c.119-2.118-.351-4.373.207-6.409.359-1.312,1.962-1.868,2.687-3.276l-9.542.043c-1.057,0-1.612,1.227-1.612,2.236l.019,37.743a1.971,1.971,0,0,0,1.951,1.979l15.793-.014A15.793,15.793,0,0,1,31.9,41.41L31.9,29.557l-4.157-.016L23.4,34.992a1.182,1.182,0,0,1-1.869-.024,1.275,1.275,0,0,1,.128-1.708Zm4.654,16.85A13.275,13.275,0,1,0,46.012,55.479,13.2,13.2,0,0,0,31.275,43.953M52.358,77.893A4.511,4.511,0,0,0,53.6,76.626l-5.477-5.454-1.226,1.292Z" transform="translate(0 0)" fill="#19538d"/>
        <path id="Trazado_1274432" data-name="Trazado 1274432" d="M29.87,141.491l-11.592,0a1.219,1.219,0,0,1-1.209-1.12c-.051-.47.221-1.29.934-1.293l11.869-.038a1.176,1.176,0,0,1,1.287,1.057,1.211,1.211,0,0,1-1.289,1.4" transform="translate(-11.982 -97.637)" fill="#19538d"/>
        <path id="Trazado_1274433" data-name="Trazado 1274433" d="M25.73,197.83l-7.454.028A1.206,1.206,0,0,1,17,196.638a1.168,1.168,0,0,1,1.274-1.238l7.341,0a1.248,1.248,0,0,1,1.307.965,1.194,1.194,0,0,1-1.191,1.471" transform="translate(-11.937 -137.215)" fill="#19538d"/>
        <path id="Trazado_1274434" data-name="Trazado 1274434" d="M25.831,169.657l-7.313.031c-.765,0-1.33-.219-1.478-.875-.124-.546.11-1.512.932-1.517l7.692-.043a1.215,1.215,0,0,1,1.267,1.011,1.115,1.115,0,0,1-1.1,1.393" transform="translate(-11.945 -117.453)" fill="#19538d"/>
        <path id="Trazado_1274435" data-name="Trazado 1274435" d="M92.366,20.452c.03-2.691,2.552-2.124,2.524-3.73a1.32,1.32,0,0,0-.881-1.269c-1.084-.363-2.04,1.521-3.168.494a1.249,1.249,0,0,1-.091-1.675,3.681,3.681,0,0,1,4.409-.948,3.825,3.825,0,0,1,2.192,3.555,4.189,4.189,0,0,1-2.522,3.511,2.169,2.169,0,0,1-.5,1.478,1.26,1.26,0,0,1-1.237.151c-.634-.3-.737-.9-.73-1.568" transform="translate(-63.53 -9.103)" fill="#19538d"/>
        <path id="Trazado_1274436" data-name="Trazado 1274436" d="M97.4,46.04a1.236,1.236,0,0,1,1.528,1.937,1.171,1.171,0,0,1-1.669-.119A1.283,1.283,0,0,1,97.4,46.04" transform="translate(-68.085 -32.19)" fill="#19538d"/>
        <path id="Trazado_1274437" data-name="Trazado 1274437" d="M81.258,151.6A11.944,11.944,0,0,1,93.9,162.834a12.022,12.022,0,0,1-23.975,1.8A11.93,11.93,0,0,1,81.258,151.6m-1.486,2.656a9.573,9.573,0,1,0,11.476,7.257,9.535,9.535,0,0,0-11.476-7.257" transform="translate(-49.074 -106.445)" fill="#19538d"/>
        <path id="Trazado_1274438" data-name="Trazado 1274438" d="M165.6,88.379a1.073,1.073,0,0,1-1.367,1.083A1.246,1.246,0,0,1,163.2,88.2L163.2,84.06a1.261,1.261,0,0,1,1.036-1.271,1.059,1.059,0,0,1,1.353.954Z" transform="translate(-114.604 -58.124)" fill="#19538d"/>
        <path id="Trazado_1274439" data-name="Trazado 1274439" d="M163.889,108.227a1.143,1.143,0,0,1,1.614.412,1.239,1.239,0,0,1-.365,1.747,1.336,1.336,0,0,1-1.608-.36,1.281,1.281,0,0,1,.359-1.8" transform="translate(-114.681 -75.87)" fill="#19538d"/>
        <path id="Trazado_1274440" data-name="Trazado 1274440" d="M90.193,183.4l-3.626-3.091a1.178,1.178,0,0,1-.114-1.583,1.244,1.244,0,0,1,1.67-.277l3.166,2.644,5.683-7.137c.312-.392,1.281-.124,1.539.158a1.217,1.217,0,0,1,.158,1.527l-6.281,7.989c-.563.717-1.572.3-2.195-.229" transform="translate(-60.534 -122.02)" fill="#19538d"/>
      </g>
    </g>
  </g>
</svg>
