<svg xmlns="http://www.w3.org/2000/svg" xmlns:xlink="http://www.w3.org/1999/xlink" width="96" height="96" viewBox="0 0 96 96">
  <defs>
    <clipPath id="clip-path">
      <rect id="Rectángulo_456267" data-name="Rectángulo 456267" width="96" height="96" fill="none"/>
    </clipPath>
    <clipPath id="clip-path-2">
      <rect id="Rectángulo_464501" data-name="Rectángulo 464501" width="50.535" height="54.262" fill="#0f654d"/>
    </clipPath>
  </defs>
  <g id="Grupo_1211800" data-name="Grupo 1211800" transform="translate(479.746 8495) rotate(180)">
    <path id="Trazado_999622" data-name="Trazado 999622" d="M43.07,0A43.07,43.07,0,1,1,0,43.07,43.071,43.071,0,0,1,43.07,0" transform="translate(388.676 8403.93)" fill="#e3fbf9"/>
    <g id="Grupo_1179902" data-name="Grupo 1179902" transform="translate(383.746 8399)">
      <g id="Grupo_1179905" data-name="Grupo 1179905" clip-path="url(#clip-path)">
        <path id="Trazado_999618" data-name="Trazado 999618" d="M48,0A48,48,0,1,1,0,48,48,48,0,0,1,48,0" fill="none"/>
        <path id="Trazado_999619" data-name="Trazado 999619" d="M3.75,59A3.75,3.75,0,1,1,0,62.75,3.75,3.75,0,0,1,3.75,59" transform="translate(0 -14.75)" fill="#0f654d"/>
        <path id="Trazado_999620" data-name="Trazado 999620" d="M19.75,19A3.75,3.75,0,1,1,16,22.75,3.75,3.75,0,0,1,19.75,19" transform="translate(-4 -4.75)" fill="#0f654d"/>
        <path id="Trazado_999621" data-name="Trazado 999621" d="M49,94A45.051,45.051,0,0,1,4,49H6.25A42.75,42.75,0,1,0,17.806,19.768l-1.641-1.539A45,45,0,1,1,49,94" transform="translate(-1 -1)" fill="#0f654d"/>
        <rect id="Rectángulo_456268" data-name="Rectángulo 456268" width="96" height="96" fill="none"/>
        <rect id="Rectángulo_456269" data-name="Rectángulo 456269" width="96" height="96" fill="none"/>
      </g>
    </g>
    <g id="Grupo_1211861" data-name="Grupo 1211861" transform="translate(459.513 8472.601) rotate(180)">
      <g id="Grupo_1211861-2" data-name="Grupo 1211861" clip-path="url(#clip-path-2)">
        <path id="Trazado_1274759" data-name="Trazado 1274759" d="M1.627,13.49,1.62,16.348l2.63,1.3a5.027,5.027,0,0,1,1.229,2.975L4.542,23.4,6.5,25.389l2.713-.929a4.747,4.747,0,0,1,3.117,1.287l1.263,2.561,2.83,0c.521-.841.544-1.956,1.3-2.665a5.052,5.052,0,0,1,2.918-1.181l2.792.936L25.459,23.4l-.967-2.452c-.255-.646.709-3.058,1.344-3.434a27.187,27.187,0,0,1,2.493-1.1l-.035-2.935c-.854-.492-1.9-.548-2.6-1.25a4.963,4.963,0,0,1-1.2-2.88c-.035-1.028.686-1.831.946-2.8L23.418,4.508,20.76,5.5c-.4.15-2.974-.766-3.335-1.577L16.384,1.576l-2.869.01-.9,2.186c-.42,1.016-2.992,1.9-3.517,1.7L6.578,4.514,4.539,6.5l.838,2.19a.829.829,0,0,1-.3,1.044.772.772,0,0,1-1.112-.317L3.114,7.372a1.86,1.86,0,0,1,.33-2.081L5.3,3.433c1.311-1.311,2.832.271,4.07.378a2.761,2.761,0,0,0,1.7-.7c.677-.759.855-3.1,2.329-3.106L16.432,0c1.7-.005,1.708,2.277,2.475,3.14a2.87,2.87,0,0,0,1.621.667c1.144-.033,2.814-1.619,3.949-.492L26.52,5.342a1.628,1.628,0,0,1,.423,1.736L26.122,9.35a2.3,2.3,0,0,0,.658,1.659c.936.843,3.164.763,3.168,2.578l.006,2.661c0,1.791-1.916,1.761-3.217,2.665a3.456,3.456,0,0,0-.614,1.588c.037,1.239,1.707,2.779.374,4.119L24.723,26.4a1.789,1.789,0,0,1-1.953.492l-2.134-.789a2.3,2.3,0,0,0-1.757.7c-.779.917-.669,2.986-2.5,3.118-2,.145-3.745.283-4.376-1.1l-.913-2a1.987,1.987,0,0,0-1.728-.73l-2.276.815a1.521,1.521,0,0,1-1.533-.269l-2.217-2.2c-1.075-1.064.3-2.526.509-3.966a3.577,3.577,0,0,0-.674-1.613c-1.3-.884-3.186-.841-3.172-2.609l.022-2.881a1.77,1.77,0,0,1,1.22-1.455l1.83-.754a.765.765,0,0,1,1.073.493.8.8,0,0,1-.488.97Z" transform="translate(0 0.001)" fill="#0f654d"/>
        <path id="Trazado_1274760" data-name="Trazado 1274760" d="M177.177,180.624l.009-14.493a.594.594,0,0,0-.628-.627l-14.234,0a.577.577,0,0,0-.571.6v19.477a.562.562,0,0,0,.557.58l4.212.013a.828.828,0,0,1,.853.714.779.779,0,0,1-.712.842l-4.191.032a2.235,2.235,0,0,1-2.328-2.179l0-19.475a2.223,2.223,0,0,1,2.346-2.222l14.244.027a2.068,2.068,0,0,1,2.023,2.01l.015,14.486a4.971,4.971,0,1,1-4.594,7.37l-4.536-.025a.773.773,0,0,1-.782-.879c.041-.458.4-.717.934-.715l3.821.014a8.1,8.1,0,0,1,.078-1.96l-4.92,0a.824.824,0,0,1-.813-.744.782.782,0,0,1,.841-.859l5.651-.128c.749-.645,1.45-1.652,2.73-1.859m.416,1.53a3.372,3.372,0,1,0,4.2,2.356,3.367,3.367,0,0,0-4.2-2.356" transform="translate(-132.976 -136.09)" fill="#0f654d"/>
        <path id="Trazado_1274761" data-name="Trazado 1274761" d="M180.815,19.439a7.672,7.672,0,0,1-2.476,0c-1.088-.187-.895-1.817-1.789-2.221s-2.167,1.045-2.989.212L171.954,15.8c-.736-.745.579-1.977.22-2.983-.282-.792-2.019-.687-2.22-1.771a7.109,7.109,0,0,1-.013-2.422c.189-1.138,1.842-.992,2.256-1.894.4-.867-1.04-2.171-.223-3L173.4,2.269c.973-.993,2.193.542,3.2.084.769-.35.779-2.227,1.932-2.226l2.163,0c1.129,0,1.1,1.84,1.933,2.228.975.454,2.2-1.084,3.2-.086l1.188,1.181c1.149,1.141-.344,2.314-.051,3.174a1.193,1.193,0,0,0,.988.837c1.539.436,1.5,1.573,1.326,3.415-.123,1.306-1.874,1.033-2.285,2.027-.346.837,1.064,2.125.2,2.984l-1.532,1.527c-.845.843-2.086-.591-2.984-.2-.927.4-.732,2.043-1.867,2.223M182,15.773c1.717-.71,2.165.233,2.843.205.106,0,1.262-.778.807-1.468a2.355,2.355,0,0,1-.043-2.405c.682-1.528,1.81-1.2,2.054-1.639.165-.3.265-1.487-.553-1.652a2.044,2.044,0,0,1-1.522-1.393c-.772-1.835.4-2.418.152-2.924a3.078,3.078,0,0,0-.9-.833c-.618-.132-1.084.906-2.778.189S180.731,2.1,180.3,1.765a2.315,2.315,0,0,0-1.408-.027c-.384.295-.026,1.454-1.843,2.159-1.925.747-2.237-.913-3.238.144s.691,1.314-.174,3.371c-.8,1.893-2.3,1.006-2.174,2.361.022.237-.012.639.178.8.452.373,1.359.111,2.015,1.677.707,1.686-.333,2.253-.2,2.814a2.957,2.957,0,0,0,.932.927c.463.082,1.16-.97,2.847-.21,1.858.838,1.044,2.316,2.324,2.171.2-.023.643.015.778-.14.451-.517.1-1.391,1.664-2.036" transform="translate(-141.033 -0.106)" fill="#0f654d"/>
        <path id="Trazado_1274762" data-name="Trazado 1274762" d="M52.361,46.862a7.04,7.04,0,1,1-5.45,8.454,7.013,7.013,0,0,1,5.45-8.454m.523,1.512a5.449,5.449,0,1,0,6.264,4.411,5.445,5.445,0,0,0-6.264-4.411" transform="translate(-38.807 -38.791)" fill="#0f654d"/>
        <path id="Trazado_1274763" data-name="Trazado 1274763" d="M94.1,195l-2.754,2.324a.755.755,0,0,1-1.039-.083.788.788,0,0,1,.025-1.1l1.052-1.036-7.006,0a.742.742,0,0,1-.723-.686l0-9.313a.816.816,0,0,1,.812-.777.83.83,0,0,1,.768.776l0,8.432,6.155.009c-.57-.811-1.826-1.274-1.093-2.1a.824.824,0,0,1,1.183-.04l2.548,2.2a.969.969,0,0,1,.377.591.884.884,0,0,1-.3.8" transform="translate(-69.459 -153.07)" fill="#0f654d"/>
        <path id="Trazado_1274764" data-name="Trazado 1274764" d="M213.121,257.921l-6.088-.006a.8.8,0,1,1,.027-1.6l6.17.016a.8.8,0,1,1-.109,1.594" transform="translate(-171.242 -212.834)" fill="#0f654d"/>
        <path id="Trazado_1274765" data-name="Trazado 1274765" d="M213.215,204.4l-6.2.016a.8.8,0,1,1,.01-1.6l6.105-.007a.768.768,0,0,1,.845.63.785.785,0,0,1-.763.961" transform="translate(-171.241 -168.411)" fill="#0f654d"/>
        <path id="Trazado_1274766" data-name="Trazado 1274766" d="M213.132,222.369l-6.1-.011a.768.768,0,0,1-.8-.655c-.057-.354.121-.9.622-.9l6.448-.009a.733.733,0,0,1,.691.777.78.78,0,0,1-.857.8" transform="translate(-171.239 -183.342)" fill="#0f654d"/>
        <path id="Trazado_1274767" data-name="Trazado 1274767" d="M213.368,240.167l-6.34.024a.774.774,0,0,1-.809-.762.749.749,0,0,1,.8-.806l6.278.01a.7.7,0,0,1,.681.646c.048.31-.077.887-.61.889" transform="translate(-171.239 -198.146)" fill="#0f654d"/>
        <path id="Trazado_1274768" data-name="Trazado 1274768" d="M213.137,186.573l-6.116-.007a.76.76,0,0,1-.8-.828.818.818,0,0,1,.81-.748l6.088,0a.767.767,0,0,1,.87.754.793.793,0,0,1-.856.833" transform="translate(-171.243 -153.608)" fill="#0f654d"/>
        <path id="Trazado_1274769" data-name="Trazado 1274769" d="M180.889,275.764l-2.141-.025a.772.772,0,0,1-.692-.857.833.833,0,0,1,.834-.733l1.848,0a.809.809,0,0,1,.905.725.77.77,0,0,1-.753.892" transform="translate(-147.849 -227.644)" fill="#0f654d"/>
        <path id="Trazado_1274770" data-name="Trazado 1274770" d="M180.957,257.955l-2.221,0a.781.781,0,0,1,.042-1.555l2.072-.013a.76.76,0,0,1,.778.692.712.712,0,0,1-.671.872" transform="translate(-147.843 -212.901)" fill="#0f654d"/>
        <path id="Trazado_1274771" data-name="Trazado 1274771" d="M180.759,186.574l-1.881-.006a.771.771,0,0,1-.824-.817.8.8,0,0,1,.838-.762l1.85,0a.8.8,0,1,1,.016,1.589" transform="translate(-147.852 -153.607)" fill="#0f654d"/>
        <path id="Trazado_1274772" data-name="Trazado 1274772" d="M181,204.352l-2.11.037a.768.768,0,0,1-.827-.8.8.8,0,0,1,.834-.785l1.867-.01a.818.818,0,0,1,.872.628.745.745,0,0,1-.635.935" transform="translate(-147.856 -168.391)" fill="#0f654d"/>
        <path id="Trazado_1274773" data-name="Trazado 1274773" d="M180.889,222.276l-1.963.007a.778.778,0,0,1-.817-.8c0-.533.4-.793.986-.792l1.709,0a.813.813,0,0,1,.871.638.774.774,0,0,1-.786.941" transform="translate(-147.897 -183.259)" fill="#0f654d"/>
        <path id="Trazado_1274774" data-name="Trazado 1274774" d="M180.762,240.189H178.9a.794.794,0,0,1-.833-.778.751.751,0,0,1,.822-.794l2.043.016a.751.751,0,0,1,.722.789.789.789,0,0,1-.889.768" transform="translate(-147.858 -198.141)" fill="#0f654d"/>
        <path id="Trazado_1274775" data-name="Trazado 1274775" d="M259.18,284.363c-.547.522-1.134-.294-1.5-.629-.451-.415-.576-.874-.246-1.282a.813.813,0,0,1,1.3.068l1-.9a.773.773,0,0,1,1.05-.087.793.793,0,0,1,.076,1.22Z" transform="translate(-213.616 -233.645)" fill="#0f654d"/>
        <path id="Trazado_1274776" data-name="Trazado 1274776" d="M207.226,31.168c-.706,1.347-2.653-1.617-5.07.5A3.139,3.139,0,0,0,205.212,37a3.192,3.192,0,0,0,2.153-3.375.793.793,0,0,1,.658-.966.776.776,0,0,1,.883.653,4.72,4.72,0,1,1-1.844-3.076.756.756,0,0,1,.165.934" transform="translate(-165.676 -24.319)" fill="#0f654d"/>
      </g>
    </g>
  </g>
</svg>
