<svg xmlns="http://www.w3.org/2000/svg" xmlns:xlink="http://www.w3.org/1999/xlink" width="96" height="96" viewBox="0 0 96 96">
  <defs>
    <clipPath id="clip-path">
      <rect id="Rectángulo_456267" data-name="Rectángulo 456267" width="96" height="96" fill="none"/>
    </clipPath>
    <clipPath id="clip-path-2">
      <rect id="Rectángulo_464502" data-name="Rectángulo 464502" width="47.42" height="58.818" fill="#0f654d"/>
    </clipPath>
  </defs>
  <g id="Grupo_1211801" data-name="Grupo 1211801" transform="translate(479.746 8495) rotate(180)">
    <path id="Trazado_999622" data-name="Trazado 999622" d="M43.07,0A43.07,43.07,0,1,1,0,43.07,43.071,43.071,0,0,1,43.07,0" transform="translate(388.676 8403.93)" fill="#e3fbf9"/>
    <g id="Grupo_1179902" data-name="Grupo 1179902" transform="translate(383.746 8399)">
      <g id="Grupo_1179905" data-name="Grupo 1179905" clip-path="url(#clip-path)">
        <path id="Trazado_999618" data-name="Trazado 999618" d="M48,0A48,48,0,1,1,0,48,48,48,0,0,1,48,0" fill="none"/>
        <path id="Trazado_999619" data-name="Trazado 999619" d="M3.75,59A3.75,3.75,0,1,1,0,62.75,3.75,3.75,0,0,1,3.75,59" transform="translate(0 -14.75)" fill="#0f654d"/>
        <path id="Trazado_999620" data-name="Trazado 999620" d="M19.75,19A3.75,3.75,0,1,1,16,22.75,3.75,3.75,0,0,1,19.75,19" transform="translate(-4 -4.75)" fill="#0f654d"/>
        <path id="Trazado_999621" data-name="Trazado 999621" d="M49,94A45.051,45.051,0,0,1,4,49H6.25A42.75,42.75,0,1,0,17.806,19.768l-1.641-1.539A45,45,0,1,1,49,94" transform="translate(-1 -1)" fill="#0f654d"/>
        <rect id="Rectángulo_456268" data-name="Rectángulo 456268" width="96" height="96" fill="none"/>
        <rect id="Rectángulo_456269" data-name="Rectángulo 456269" width="96" height="96" fill="none"/>
      </g>
    </g>
    <g id="Grupo_1211862" data-name="Grupo 1211862" transform="translate(453.456 8473.879) rotate(180)">
      <g id="Grupo_1211863" data-name="Grupo 1211863" clip-path="url(#clip-path-2)">
        <path id="Trazado_1274777" data-name="Trazado 1274777" d="M29.575,51.43c-4.361.778-6.411,2.716-8.064,6.647a1.139,1.139,0,0,1-1.184.735,1.089,1.089,0,0,1-1-.941,34.535,34.535,0,0,1,.568-7.325L1.127,50.533A1.116,1.116,0,0,1,0,49.4V5.924A1.1,1.1,0,0,1,1.1,4.813L4.81,4.784l.034-3.654A1.118,1.118,0,0,1,6.085,0L33.72.018l7.674,7.7L41.4,38.906l5.469,4.837a1.287,1.287,0,0,1,.549,1.019,1.373,1.373,0,0,1-.579,1l-9.033,8.025a1.289,1.289,0,0,1-1.261.374,1.171,1.171,0,0,1-.816-1.06l-.011-2.118a40.128,40.128,0,0,0-6.146.452M39.13,36.769V9.371l-5.868-.006a1.182,1.182,0,0,1-1.2-1.161L32.045,2.34l-24.925,0v41.07L23.251,43.4a12.109,12.109,0,0,1,5.267-3.123,24.6,24.6,0,0,1,7.167-.967l.033-2.718a1.209,1.209,0,0,1,.685-1.216c1.2-.426,1.588.793,2.727,1.393M37.352,6.962,34.4,3.982,34.37,7.028a12.869,12.869,0,0,0,2.982-.066M6,45.744A1.168,1.168,0,0,1,4.838,44.61l0-37.438-2.51,0L2.319,48.242l18.2-.012a25.873,25.873,0,0,1,1.029-2.475Zm15.885,7.2c3.74-4.264,9.842-4.273,15.4-4.259.671.344.777.954.776,1.757l6.472-5.7-6.41-5.667a2.337,2.337,0,0,0-.106,1.171,1.153,1.153,0,0,1-1.253,1.308,28.485,28.485,0,0,0-7.264.8c-5.09,1.35-7.112,5.539-7.611,10.59" transform="translate(0 0)" fill="#0f654d"/>
        <path id="Trazado_1274778" data-name="Trazado 1274778" d="M91.37,68.262H75.186a1.2,1.2,0,0,1-1-1.284,1.142,1.142,0,0,1,1.256-1.035H91.046a1.166,1.166,0,0,1,1.24.888,1.225,1.225,0,0,1-.917,1.431" transform="translate(-60.543 -53.821)" fill="#0f654d"/>
        <path id="Trazado_1274779" data-name="Trazado 1274779" d="M91.047,147.763l-15.6,0a1.118,1.118,0,0,1-1.258-1.03,1.146,1.146,0,0,1,1.142-1.265H91.162a1.162,1.162,0,0,1,1.154,1.114,1.15,1.15,0,0,1-1.268,1.185" transform="translate(-60.544 -118.723)" fill="#0f654d"/>
        <path id="Trazado_1274780" data-name="Trazado 1274780" d="M91.259,187.424l-15.973.022a1.216,1.216,0,0,1-1.109-1.169,1.193,1.193,0,0,1,1.275-1.161l15.742.014a1.2,1.2,0,0,1,1.12,1.005,1.173,1.173,0,0,1-1.055,1.289" transform="translate(-60.541 -151.087)" fill="#0f654d"/>
        <path id="Trazado_1274781" data-name="Trazado 1274781" d="M91.051,108.022l-15.613,0a1.131,1.131,0,0,1-1.256-1.077,1.1,1.1,0,0,1,1.068-1.216l15.8-.009a1.157,1.157,0,1,1,0,2.3" transform="translate(-60.543 -86.284)" fill="#0f654d"/>
      </g>
    </g>
  </g>
</svg>
