<svg xmlns="http://www.w3.org/2000/svg" xmlns:xlink="http://www.w3.org/1999/xlink" width="128" height="128" viewBox="0 0 128 128">
  <defs>
    <clipPath id="clip-path">
      <rect id="Rectángulo_456267" data-name="Rectángulo 456267" width="128" height="128" fill="none"/>
    </clipPath>
    <clipPath id="clip-path-2">
      <rect id="Rectángulo_464497" data-name="Rectángulo 464497" width="69.939" height="57.285" fill="#19538d"/>
    </clipPath>
  </defs>
  <g id="Grupo_1211795" data-name="Grupo 1211795" transform="translate(511.746 8527) rotate(180)">
    <path id="Trazado_999622" data-name="Trazado 999622" d="M59.07,0A59.07,59.07,0,1,1,0,59.07,59.071,59.071,0,0,1,59.07,0" transform="translate(388.676 8403.93)" fill="#fff"/>
    <g id="Grupo_1179902" data-name="Grupo 1179902" transform="translate(383.746 8399)">
      <g id="Grupo_1179905" data-name="Grupo 1179905" clip-path="url(#clip-path)">
        <path id="Trazado_999618" data-name="Trazado 999618" d="M64,0A64,64,0,1,1,0,64,64,64,0,0,1,64,0" fill="none"/>
        <path id="Trazado_999619" data-name="Trazado 999619" d="M5,59a5,5,0,1,1-5,5,5,5,0,0,1,5-5" fill="#19538d"/>
        <path id="Trazado_999620" data-name="Trazado 999620" d="M21,19a5,5,0,1,1-5,5,5,5,0,0,1,5-5" fill="#19538d"/>
        <path id="Trazado_999621" data-name="Trazado 999621" d="M64,124A60.068,60.068,0,0,1,4,64H7A57,57,0,1,0,22.408,25.024L20.22,22.972A60,60,0,1,1,64,124" fill="#19538d"/>
        <rect id="Rectángulo_456268" data-name="Rectángulo 456268" width="128" height="128" fill="none"/>
        <rect id="Rectángulo_456269" data-name="Rectángulo 456269" width="128" height="128" fill="none"/>
      </g>
    </g>
    <g id="Grupo_1211853" data-name="Grupo 1211853" transform="translate(481.402 8492.412) rotate(180)">
      <g id="Grupo_1211853-2" data-name="Grupo 1211853" clip-path="url(#clip-path-2)">
        <path id="Trazado_1274697" data-name="Trazado 1274697" d="M23.881,16.838V55.267l37.482-.006a1.166,1.166,0,0,0,1.289-1.114l-.009-3.472c0-.656.257-1.138.874-1.213a1.044,1.044,0,0,1,1.168,1l-.021,3.93a3.031,3.031,0,0,1-3.29,2.891l-58.51-.027A2.984,2.984,0,0,1,.012,54.374L0,8.1A2.887,2.887,0,0,1,2.652,5.124l6.514-.066A1.054,1.054,0,0,1,10.3,6,1.068,1.068,0,0,1,9.132,7.126l-6.087.03a.938.938,0,0,0-1.007.956l.018,6.719H36.092L36.1,7.147,14.24,7.159c-.714-.047-1.138-.4-1.184-.957a.952.952,0,0,1,.975-1.122l22.032,0L36.1,2.335C36.118,1.39,36.851,0,38.054,0L67.934,0a2.306,2.306,0,0,1,2,2.395l.009,28.821a2.35,2.35,0,0,1-2.248,2.552l-3.006.067,0,11.812a.977.977,0,0,1-.986,1.046.987.987,0,0,1-1.045-1.034l0-11.829-3.788-.038-.1,3.559c-.023.814-.933,1.33-1.707,1.33h-3.75A1.632,1.632,0,0,1,51.6,37.123l-.035-3.31H46.789v3.11a1.707,1.707,0,0,1-1.762,1.758H41.291a1.643,1.643,0,0,1-1.72-1.559l-.1-3.39a2.589,2.589,0,0,1-3.364-2.3l0-14.6ZM67.9,31.689l-.019-29.7-29.725.019,0,29.681ZM21.84,55.242l0-38.405-19.809,0,0,37.279A1.16,1.16,0,0,0,3.3,55.262Zm22.92-18.59-.006-2.818-3.146-.006.068,2.817Zm12.024,0-.01-2.834-3.141.006.065,2.817Z" transform="translate(0)" fill="#19538d"/>
        <path id="Trazado_1274698" data-name="Trazado 1274698" d="M186.44,201.13l-3.737-.006a1.717,1.717,0,0,1-1.743-1.772l0-3.726a1.7,1.7,0,0,1,1.744-1.746l3.724,0a1.708,1.708,0,0,1,1.764,1.746l.007,3.738a1.711,1.711,0,0,1-1.763,1.77m-.276-2.038-.037-3.15-3.1,0,.049,3.143Z" transform="translate(-141.41 -151.504)" fill="#19538d"/>
        <path id="Trazado_1274699" data-name="Trazado 1274699" d="M241.594,201.115l-3.875.006a1.713,1.713,0,0,1-1.738-1.771l0-3.724a1.7,1.7,0,0,1,1.741-1.746l3.726-.006a1.7,1.7,0,0,1,1.76,1.746l-.042,4.161a1.562,1.562,0,0,1-1.575,1.334m-.408-2.018-.042-3.158-3.094.006.046,3.139Z" transform="translate(-184.406 -151.502)" fill="#19538d"/>
        <path id="Trazado_1274700" data-name="Trazado 1274700" d="M131.434,101.094H127.7a1.7,1.7,0,0,1-1.742-1.759V95.611a1.707,1.707,0,0,1,1.746-1.753h3.728a1.709,1.709,0,0,1,1.76,1.751l0,3.732a1.708,1.708,0,0,1-1.759,1.755m-.276-2.036-.037-3.135-3.095,0,0,3.091a19.053,19.053,0,0,0,3.134.04" transform="translate(-98.428 -73.343)" fill="#19538d"/>
        <path id="Trazado_1274701" data-name="Trazado 1274701" d="M131.543,151.094l-3.847.011a1.707,1.707,0,0,1-1.744-1.757v-3.729a1.711,1.711,0,0,1,1.748-1.746l3.727,0a1.709,1.709,0,0,1,1.76,1.747v3.738a1.661,1.661,0,0,1-1.646,1.74m-.388-2.018-.038-3.139-3.1,0,0,3.094a18.911,18.911,0,0,0,3.135.042" transform="translate(-98.425 -112.426)" fill="#19538d"/>
        <path id="Trazado_1274702" data-name="Trazado 1274702" d="M131.536,201.108l-3.836.012a1.711,1.711,0,0,1-1.75-1.765l0-3.728a1.7,1.7,0,0,1,1.75-1.742l3.724-.007a1.706,1.706,0,0,1,1.761,1.746l0,3.736a1.661,1.661,0,0,1-1.652,1.748m-.382-2.016-.037-3.148-3.1,0,.049,3.134Z" transform="translate(-98.423 -151.505)" fill="#19538d"/>
        <path id="Trazado_1274703" data-name="Trazado 1274703" d="M24.961,46.193a.992.992,0,0,1,1.28.589,1.015,1.015,0,0,1-.561,1.317,1.026,1.026,0,0,1-1.322-.543,1,1,0,0,1,.6-1.362" transform="translate(-18.965 -36.047)" fill="#19538d"/>
        <path id="Trazado_1274704" data-name="Trazado 1274704" d="M41.705,46.211a1.017,1.017,0,1,1,.561,1.954,1.075,1.075,0,0,1-1.186-.538,1,1,0,0,1,.625-1.416" transform="translate(-32.016 -36.076)" fill="#19538d"/>
        <path id="Trazado_1274705" data-name="Trazado 1274705" d="M57.832,46.251a1.01,1.01,0,0,1,1.339.565,1.022,1.022,0,0,1-1.809.925,1.009,1.009,0,0,1,.47-1.49" transform="translate(-44.696 -36.075)" fill="#19538d"/>
        <path id="Trazado_1274706" data-name="Trazado 1274706" d="M217.859,51.756l.043-2.208a.988.988,0,0,1,1.041-1.065,1.009,1.009,0,0,1,.987,1.081V52.2a1.543,1.543,0,0,1-1.521,1.591l-14.416.02a1.58,1.58,0,0,1-1.659-1.447l-.013-9.539a1.44,1.44,0,0,1,1.322-1.487l7.925-.084a8.367,8.367,0,0,1,1.443-1.5l5.2-.083a1.578,1.578,0,0,1,1.716,1.576l0,3.5a1.033,1.033,0,0,1-.965,1c-.717,0-1.06-.483-1.066-1.2l-.023-2.9-3.964.158-1.741,1.528-7.79.062v8.358Z" transform="translate(-158.103 -31)" fill="#19538d"/>
        <path id="Trazado_1274707" data-name="Trazado 1274707" d="M215.346,118.245l-11.968.039a1.046,1.046,0,0,1-1.06-.949,1.031,1.031,0,0,1,1.062-1.1l11.881.017a1.04,1.04,0,0,1,.975.911.991.991,0,0,1-.891,1.081" transform="translate(-158.098 -90.831)" fill="#19538d"/>
        <path id="Trazado_1274708" data-name="Trazado 1274708" d="M274.464,116.294a1.053,1.053,0,0,1,1.189.731,1,1,0,0,1-.656,1.209.95.95,0,0,1-1.215-.471,1.013,1.013,0,0,1,.681-1.47" transform="translate(-213.872 -90.864)" fill="#19538d"/>
        <path id="Trazado_1274709" data-name="Trazado 1274709" d="M40.616,100.4l-9.466.037a1.061,1.061,0,0,1-1.081-1,1.042,1.042,0,0,1,1.115-1.09l9.309,0a1.011,1.011,0,0,1,1.057.926,1.037,1.037,0,0,1-.934,1.124" transform="translate(-23.496 -76.858)" fill="#19538d"/>
        <path id="Trazado_1274710" data-name="Trazado 1274710" d="M40.482,124.126l-9.487-.021a1.024,1.024,0,0,1-.941-1.082,1.037,1.037,0,0,1,1.085-.972h9.38a1.045,1.045,0,0,1,1.019.983,1.032,1.032,0,0,1-1.055,1.092" transform="translate(-23.483 -95.376)" fill="#19538d"/>
        <path id="Trazado_1274711" data-name="Trazado 1274711" d="M40.616,195.378l-9.466.032a1.069,1.069,0,0,1-1.081-.987,1.046,1.046,0,0,1,1.112-1.1l9.313.005a1.007,1.007,0,0,1,1.056.925,1.032,1.032,0,0,1-.934,1.12" transform="translate(-23.495 -151.075)" fill="#19538d"/>
        <path id="Trazado_1274712" data-name="Trazado 1274712" d="M40.492,219.122l-9.5-.028a1.017,1.017,0,0,1-.94-1.077,1.037,1.037,0,0,1,1.084-.972l9.381,0a1.037,1.037,0,0,1-.029,2.074" transform="translate(-23.485 -169.608)" fill="#19538d"/>
        <path id="Trazado_1274713" data-name="Trazado 1274713" d="M40.649,147.9l-9.514.019a.991.991,0,0,1-1.071-1.029,1.006,1.006,0,0,1,1.082-1.006l9.383.006a1.072,1.072,0,0,1,1.006.825.94.94,0,0,1-.886,1.185" transform="translate(-23.493 -114)" fill="#19538d"/>
      </g>
    </g>
  </g>
</svg>
