<svg xmlns="http://www.w3.org/2000/svg" xmlns:xlink="http://www.w3.org/1999/xlink" width="128" height="128" viewBox="0 0 128 128">
  <defs>
    <clipPath id="clip-path">
      <rect id="Rectángulo_456267" data-name="Rectángulo 456267" width="128" height="128" fill="none"/>
    </clipPath>
    <clipPath id="clip-path-2">
      <rect id="Rectángulo_464469" data-name="Rectángulo 464469" width="61.81" height="63.052" fill="#19538d"/>
    </clipPath>
  </defs>
  <g id="Grupo_1211726" data-name="Grupo 1211726" transform="translate(511.746 8527) rotate(180)">
    <path id="Trazado_999622" data-name="Trazado 999622" d="M59.07,0A59.07,59.07,0,1,1,0,59.07,59.071,59.071,0,0,1,59.07,0" transform="translate(388.676 8403.93)" fill="#fff"/>
    <g id="Grupo_1179902" data-name="Grupo 1179902" transform="translate(383.746 8399)">
      <g id="Grupo_1179905" data-name="Grupo 1179905" clip-path="url(#clip-path)">
        <path id="Trazado_999618" data-name="Trazado 999618" d="M64,0A64,64,0,1,1,0,64,64,64,0,0,1,64,0" fill="none"/>
        <path id="Trazado_999619" data-name="Trazado 999619" d="M5,59a5,5,0,1,1-5,5,5,5,0,0,1,5-5" fill="#19538d"/>
        <path id="Trazado_999620" data-name="Trazado 999620" d="M21,19a5,5,0,1,1-5,5,5,5,0,0,1,5-5" fill="#19538d"/>
        <path id="Trazado_999621" data-name="Trazado 999621" d="M64,124A60.068,60.068,0,0,1,4,64H7A57,57,0,1,0,22.408,25.024L20.22,22.972A60,60,0,1,1,64,124" fill="#19538d"/>
        <rect id="Rectángulo_456268" data-name="Rectángulo 456268" width="128" height="128" fill="none"/>
        <rect id="Rectángulo_456269" data-name="Rectángulo 456269" width="128" height="128" fill="none"/>
      </g>
    </g>
    <g id="Grupo_1211808" data-name="Grupo 1211808" transform="translate(478.651 8494.525) rotate(180)">
      <g id="Grupo_1211797" data-name="Grupo 1211797" clip-path="url(#clip-path-2)">
        <path id="Trazado_1274404" data-name="Trazado 1274404" d="M4.584,55.54A4.657,4.657,0,0,1,.012,50.829l.02-10.255a7.053,7.053,0,0,1,6.63-6.9l9.247-.06,1.241-5.021a1.037,1.037,0,0,1,1.02-.731l27.82,0a.965.965,0,0,1,1.028,1.089l-1.1,4.681,8.35-.05a5.231,5.231,0,0,0,5.1-5.41L59.32,15.945c-.008-1.743-1.9-2.766-3.477-2.442l-.026,2.475a3.107,3.107,0,0,1-3.047,3.2l-21.254-.012a2.956,2.956,0,0,1-2.947-2.812l-.047-2.914-3.591.046c.274,1.755-1.306,1.588-3.444,1.907a5.62,5.62,0,0,0-.588,1.317l1.507,2.04a1.145,1.145,0,0,1-.02,1.483L20.319,22.3a1.138,1.138,0,0,1-1.55.094l-2.02-1.5a7.747,7.747,0,0,0-1.3.519L15,24.08c-.188,1.128-2.159,1.024-4.108.857a1.046,1.046,0,0,1-.984-.983L9.47,21.434c-.241-.291-.842-.4-1.222-.532L6.092,22.459a1.027,1.027,0,0,1-1.328-.052L2.69,20.351a1.168,1.168,0,0,1-.113-1.614l1.5-2.1-.579-1.226c-1.77-.3-3.5-.209-3.495-1.427l.015-3.119A.886.886,0,0,1,.7,9.993L3.4,9.51c.375-.178.52-.869.664-1.253L2.454,6a1.007,1.007,0,0,1,.22-1.338L4.86,2.5A.847.847,0,0,1,6,2.44L8.3,4.08a5.081,5.081,0,0,0,1.24-.631L9.94.9A1,1,0,0,1,11.014,0l2.957.006a.9.9,0,0,1,.968.621l.519,2.824c1.252,1.072,1.788.212,3.154-.79.411-.3,1.092-.561,1.507-.147L22.49,4.881a.966.966,0,0,1,.027,1.1L20.984,8.192c-.133.359.3,1.088.547,1.357,2.184.384,3.56.07,3.457,1.889l3.533.02.022-2.612a3.115,3.115,0,0,1,3.185-3.1L52.57,5.731a3.166,3.166,0,0,1,3.245,3.116l.068,2.663c2.625-.288,5.377,1.527,5.385,4.243L61.3,28.572a7,7,0,0,1-6.821,6.967l-9.028.065-1.22,4.9a.968.968,0,0,1-1,.782H15.248a.958.958,0,0,1-.9-1.094L15.4,35.61l-7.937-.041a5.278,5.278,0,0,0-5.475,5.215L1.984,50.82a2.726,2.726,0,0,0,2.725,2.753l3.485.009.013-2.789a2.945,2.945,0,0,1,2.827-2.915l24.795.005a2.91,2.91,0,0,1,2.753,2.707l.039,3h6.222l.046-5.333A2.443,2.443,0,0,1,46.874,46.1l12.218-.028a2.521,2.521,0,0,1,2.718,2.424l0,12.156a2.409,2.409,0,0,1-2.348,2.365l-12,.036a2.505,2.505,0,0,1-2.593-2.358l-.046-5.145-6.2,0-.044,3a2.939,2.939,0,0,1-2.762,2.684l-24.581.019a3.079,3.079,0,0,1-3.043-3.109l0-2.583Zm8.581-32.7c.33-1.092.245-1.994.632-2.951l3.085-1.223,2.538,1.666c.35-.191.907-.67.883-.986l-1.641-2.465,1.282-3.161a26.367,26.367,0,0,1,2.944-.48,2.085,2.085,0,0,0-.041-1.549,12.2,12.2,0,0,1-2.919-.522L18.659,8.115a16.492,16.492,0,0,1,1.692-2.434A2.673,2.673,0,0,0,19.4,4.57l-2.131,1.5c-.481.337-.979-.011-1.457-.215L13.76,4.975A15.407,15.407,0,0,1,13.247,2.1a1.885,1.885,0,0,0-1.51-.011l-.5,2.677c-.079.419-3.025,1.56-3.259,1.4L5.57,4.561,4.54,5.581A19.54,19.54,0,0,1,6.331,8.132L4.9,11.154c-.8.51-1.962.348-2.814.574a1.957,1.957,0,0,0,0,1.516,19.67,19.67,0,0,1,2.944.5c.286,1.017,1.067,2.081,1.151,3.108-.183.97-1.156,1.691-1.61,2.528a3.836,3.836,0,0,0,.973.982L7.659,18.9c.522-.361,1.047.017,1.573.232l1.947.8a20.244,20.244,0,0,1,.591,2.967c.257.192,1.293.286,1.4-.052m39.683-5.622a1.083,1.083,0,0,0,.986-1.063l0-7.3a1.182,1.182,0,0,0-1.278-1.145l-20.821,0A1.161,1.161,0,0,0,30.519,8.87l-.012,7.1a1.2,1.2,0,0,0,1.206,1.25ZM42.5,39.313l2.3-9.478-25.941,0-2.3,9.485ZM59.155,61.091a.7.7,0,0,0,.7-.641l-.03-12.364-12.7-.03a.965.965,0,0,0-.329.8l.066,12.186ZM35.51,59.3a1.12,1.12,0,0,0,1.128-1.175l0-7.1c0-.848-.6-1.207-1.408-1.206l-23.993.016a1.113,1.113,0,0,0-1.075,1l0,7.295a1.151,1.151,0,0,0,1.071,1.159Z" transform="translate(0 0)" fill="#19538d"/>
        <path id="Trazado_1274405" data-name="Trazado 1274405" d="M162.779,172.573l-9.3-.007a.95.95,0,0,1-.942-.993.978.978,0,0,1,1.059-.949l9.067-.016c.679,0,1.092.332,1.108.963a.975.975,0,0,1-.991,1" transform="translate(-122.485 -136.998)" fill="#19538d"/>
        <path id="Trazado_1274406" data-name="Trazado 1274406" d="M109.211,172.538l-6.417.016a.965.965,0,0,1-.868-.985c.019-.675.491-.966,1.175-.965l5.922.008a.975.975,0,0,1,1.016.777.947.947,0,0,1-.828,1.15" transform="translate(-81.846 -136.995)" fill="#19538d"/>
        <path id="Trazado_1274407" data-name="Trazado 1274407" d="M75.171,273.988l-9.4-.04c-.536,0-.864-.7-.831-1.035a.984.984,0,0,1,.99-.9l9.608.041c.52,0,.683.694.64,1.021a1.015,1.015,0,0,1-1.008.912" transform="translate(-52.147 -218.427)" fill="#19538d"/>
        <path id="Trazado_1274408" data-name="Trazado 1274408" d="M138.52,274.017,132.141,274a1.014,1.014,0,0,1-.926-.924.95.95,0,0,1,.925-1.028l6.3,0a.972.972,0,0,1,.927.878,1.1,1.1,0,0,1-.849,1.094" transform="translate(-105.362 -218.452)" fill="#19538d"/>
        <path id="Trazado_1274409" data-name="Trazado 1274409" d="M175.152,60.256l-8.354.034a.974.974,0,0,1-.118-1.944l8.354-.02a.985.985,0,0,1,.961.876.941.941,0,0,1-.843,1.054" transform="translate(-133.126 -46.836)" fill="#19538d"/>
        <path id="Trazado_1274410" data-name="Trazado 1274410" d="M231.271,60.261l-5.6.041a.982.982,0,0,1-1.039-.936.968.968,0,0,1,.884-1.012l5.639-.01a.972.972,0,0,1,.952.872.94.94,0,0,1-.834,1.044" transform="translate(-180.378 -46.851)" fill="#19538d"/>
        <path id="Trazado_1274411" data-name="Trazado 1274411" d="M252.593,266.626l-2.823-2.816a.926.926,0,0,1,.2-1.353,1.007,1.007,0,0,1,1.277.084l1.84,1.83,3.047-3.752A.981.981,0,0,1,257.7,261.8l-3.872,4.776a.891.891,0,0,1-1.232.052" transform="translate(-200.393 -209.001)" fill="#19538d"/>
        <path id="Trazado_1274412" data-name="Trazado 1274412" d="M39.6,35.19a5.565,5.565,0,1,1,2.09,10.931,5.592,5.592,0,0,1-6.446-4.253A5.533,5.533,0,0,1,39.6,35.19m.387,1.933a3.565,3.565,0,0,0-2.8,4.386,3.593,3.593,0,0,0,7.025-1.5,3.564,3.564,0,0,0-4.223-2.884" transform="translate(-28.191 -28.172)" fill="#19538d"/>
      </g>
    </g>
  </g>
</svg>
