<svg xmlns="http://www.w3.org/2000/svg" xmlns:xlink="http://www.w3.org/1999/xlink" width="98" height="98" viewBox="0 0 98 98">
  <defs>
    <clipPath id="clip-path">
      <rect id="Rectángulo_456312" data-name="Rectángulo 456312" width="98" height="98" transform="translate(0.059 0.059)" fill="none"/>
    </clipPath>
    <clipPath id="clip-path-3">
      <rect id="Rectángulo_464504" data-name="Rectángulo 464504" width="58.316" height="58.384" fill="#19538d"/>
    </clipPath>
  </defs>
  <g id="Grupo_1179973" data-name="Grupo 1179973" transform="translate(-307.117 -10093.059)">
    <g id="Grupo_1179968" data-name="Grupo 1179968" transform="translate(307.059 10093)">
      <g id="Grupo_1179959" data-name="Grupo 1179959" clip-path="url(#clip-path)">
        <path id="Trazado_999654" data-name="Trazado 999654" d="M1.5,5.146H81.261A12.087,12.087,0,0,1,93.377,17.2V96.585H13.616A12.087,12.087,0,0,1,1.5,84.527Z" transform="translate(0.014 0.025)" fill="#fff"/>
      </g>
      <g id="Grupo_1179960" data-name="Grupo 1179960">
        <g id="Grupo_1179956" data-name="Grupo 1179956" clip-path="url(#clip-path)">
          <path id="Trazado_999651" data-name="Trazado 999651" d="M92.229,30a5.024,5.024,0,1,1-5.048,5.024A5.037,5.037,0,0,1,92.229,30" transform="translate(0.84 0.145)" fill="#19538d"/>
          <path id="Trazado_999652" data-name="Trazado 999652" d="M63.229,0a5.024,5.024,0,1,1-5.048,5.024A5.037,5.037,0,0,1,63.229,0" transform="translate(0.56 0)" fill="#19538d"/>
          <path id="Trazado_999653" data-name="Trazado 999653" d="M93.377,35.144V96.585H13.616A12.087,12.087,0,0,1,1.5,84.527V5.146H64.459" transform="translate(0.014 0.025)" fill="none" stroke="#19538d" stroke-miterlimit="10" stroke-width="3"/>
        </g>
      </g>
    </g>
    <g id="Grupo_1211868" data-name="Grupo 1211868" transform="translate(323.497 10115.33)">
      <g id="Grupo_1211867" data-name="Grupo 1211867" clip-path="url(#clip-path-3)">
        <path id="Trazado_1274798" data-name="Trazado 1274798" d="M23.269,61.822l-5.605,3.224-2.619-1.7a6.429,6.429,0,0,0-2.9.011l-2.536,1.7L4.055,61.872l.165-3.058a5.984,5.984,0,0,0-1.448-2.532C2.014,55.56.9,55.465,0,54.938l0-6.485,2.744-1.345a6.159,6.159,0,0,0,1.472-2.525l-.133-3.126,5.54-3.167,2.961,1.975.057-10.412a3.155,3.155,0,0,1,3.023-3.337l7.861-.029-1.867-1.949,1.208-1.214,4.038,3.99-4.068,4.072-1.177-1.223,1.883-1.948H15.864A1.364,1.364,0,0,0,14.4,29.482V40.025c.291.248.811.021,1.065-.169l2.144-1.6,5.654,3.26c-.361,2.63-.684,3.253,1.134,5.509l2.809,1.447L27.2,54.925c-.888.616-2.068.647-2.768,1.364A6.157,6.157,0,0,0,23.026,58.8c-.236,1.027.243,1.96.243,3.026m-1.812-.972-.334-2.56,2.115-3.366c.42-.668,1.548-.674,2.263-1.084l.008-4.282L23.184,48.42l-2.06-3.458.26-2.545-3.654-2.072-2.11,1.433-4.054-.02L9.481,40.34l-3.619,2.1L5.975,45.1,4.023,48.456,1.7,49.589l.017,4.186,2.339,1.137,1.937,3.4L5.876,60.93l3.595,2.089,2.078-1.4,4.1-.025,2.125,1.425Z" transform="translate(0 -19.071)" fill="#19538d"/>
        <path id="Trazado_1274799" data-name="Trazado 1274799" d="M186.432,129.234H163.193a3.161,3.161,0,0,1-2.951-3.217V114.711a3.084,3.084,0,0,1,2.953-3.175l23.155-.006a3.035,3.035,0,0,1,2.988,3v11.661a3.089,3.089,0,0,1-2.9,3.039m.059-1.739a1.508,1.508,0,0,0,1.163-1.514l-.013-11.373a1.435,1.435,0,0,0-1.221-1.362l-23.3.023c-.711,0-1.17.84-1.17,1.436v11.332c0,.6.458,1.433,1.171,1.434Z" transform="translate(-131.02 -91.192)" fill="#19538d"/>
        <path id="Trazado_1274800" data-name="Trazado 1274800" d="M186.466,224.743l-23.238,0A1.359,1.359,0,0,0,162,226.112l-.016,11.31A1.441,1.441,0,0,0,163.364,239l2.493.042,0,1.668-2.548-.012a3.068,3.068,0,0,1-3.028-3.113V226.128a3.086,3.086,0,0,1,3.041-3.112l23.144.013a3.029,3.029,0,0,1,2.9,2.895l-.006,11.853a3.173,3.173,0,0,1-3.432,2.955L167.6,240.7l.024-1.65,18.457-.025a1.505,1.505,0,0,0,1.6-1.462l0-11.418a1.383,1.383,0,0,0-1.222-1.4" transform="translate(-131.056 -182.348)" fill="#19538d"/>
        <path id="Trazado_1274801" data-name="Trazado 1274801" d="M186.356,1.724l-2.443-.042L183.9.006l2.78.038a2.953,2.953,0,0,1,2.7,2.873l-.008,11.855a3.142,3.142,0,0,1-3.254,2.961l-22.6,0a3.163,3.163,0,0,1-3.226-3.152V3.111a3.025,3.025,0,0,1,2.861-3.07L182.126,0a5.058,5.058,0,0,1-.015,1.7l-18.732.02A1.4,1.4,0,0,0,162,3.1V14.592a1.467,1.467,0,0,0,1.541,1.419l22.707,0a1.472,1.472,0,0,0,1.442-1.457V3.142a1.391,1.391,0,0,0-1.339-1.418" transform="translate(-131.063)" fill="#19538d"/>
        <path id="Trazado_1274802" data-name="Trazado 1274802" d="M190.99,254.846a.85.85,0,0,0,.942-.752.838.838,0,0,0-.831-.963l-1.027-.053v-1.621l1.021-.049a.836.836,0,0,0,.838-.779.812.812,0,0,0-.863-.928l-2.121-.022v-1.7l2.187,0a2.524,2.524,0,0,1,2.272,1.472,2.559,2.559,0,0,1-.419,2.821,2.551,2.551,0,0,1-1.857,4.264h-2.184v-1.667Z" transform="translate(-154.491 -202.762)" fill="#19538d"/>
        <path id="Trazado_1274803" data-name="Trazado 1274803" d="M241.055,255.846h-10.9l0-1.758,10.894-.008a5.884,5.884,0,0,1,0,1.766" transform="translate(-188.185 -207.748)" fill="#19538d"/>
        <path id="Trazado_1274804" data-name="Trazado 1274804" d="M187.709,35.319l-.052-4.588-.95.847-1.164-1.136,2.406-2.787a7.225,7.225,0,0,1,1.5.047v7.62Z" transform="translate(-151.709 -22.6)" fill="#19538d"/>
        <path id="Trazado_1274805" data-name="Trazado 1274805" d="M237.588,280.992l-7.452.011v-1.764l7.443,0a4.66,4.66,0,0,1,.01,1.758" transform="translate(-188.169 -228.315)" fill="#19538d"/>
        <path id="Trazado_1274806" data-name="Trazado 1274806" d="M260,45.647l-1.69.032L258.279,44l1.7,0Z" transform="translate(-211.181 -35.979)" fill="#19538d"/>
        <path id="Trazado_1274807" data-name="Trazado 1274807" d="M241.111,45.663a4.991,4.991,0,0,1-1.662,0,3.784,3.784,0,0,1-.005-1.623l1.649,0Z" transform="translate(-195.71 -36.008)" fill="#19538d"/>
        <path id="Trazado_1274808" data-name="Trazado 1274808" d="M49.562,154.344a6.565,6.565,0,1,1-8.53-9.98,6.565,6.565,0,0,1,8.53,9.98m-9.091-5.64a4.835,4.835,0,1,0,9.618.83,4.747,4.747,0,0,0-4.769-4.969,4.7,4.7,0,0,0-4.849,4.139" transform="translate(-31.641 -116.779)" fill="#19538d"/>
        <path id="Trazado_1274809" data-name="Trazado 1274809" d="M183.947,145.15a4.248,4.248,0,0,1-.057-1.751l3.813-3.071a1.225,1.225,0,0,0,.1-1.541,1.24,1.24,0,0,0-1.57-.4,1.38,1.38,0,0,0-.627,1.608,3.184,3.184,0,0,1-1.733.088,2.993,2.993,0,0,1,1.828-3.323,2.924,2.924,0,0,1,3.494,1.032,3,3,0,0,1-.356,3.824c-.678.656-1.37,1.116-2.112,1.731l3.224.036,0,1.744Z" transform="translate(-150.305 -111.649)" fill="#19538d"/>
        <path id="Trazado_1274810" data-name="Trazado 1274810" d="M247.007,144.537l-9.472,0a4.161,4.161,0,0,1-.026-1.722h9.5a6.012,6.012,0,0,1-.005,1.719" transform="translate(-194.135 -116.775)" fill="#19538d"/>
        <path id="Trazado_1274811" data-name="Trazado 1274811" d="M243.582,169.535l-6.068,0a4.391,4.391,0,0,1,.015-1.721l6.043-.012Z" transform="translate(-194.139 -137.207)" fill="#19538d"/>
      </g>
    </g>
  </g>
</svg>
